<?xml version="1.0" encoding="utf-8"?>
<!-- Generator: Adobe Illustrator 16.0.0, SVG Export Plug-In . SVG Version: 6.00 Build 0)  -->
<!DOCTYPE svg PUBLIC "-//W3C//DTD SVG 1.1//EN" "http://www.w3.org/Graphics/SVG/1.1/DTD/svg11.dtd">
<svg version="1.1" id="Layer_1" xmlns="http://www.w3.org/2000/svg" xmlns:xlink="http://www.w3.org/1999/xlink" x="0px" y="0px"
	 width="53px" height="50px" viewBox="0 0 53 50" enable-background="new 0 0 53 50" xml:space="preserve">
<g>
	<path fill="#FFFFFF" d="M26.5,17.5c-6.9,0-11.2,2.8-11.2,4.8v13.8c0,2,4.2,4.801,11.2,4.801c6.9,0,11.2-2.801,11.2-4.801V22.3
		C37.7,20.3,33.4,17.5,26.5,17.5z M34.5,38.4c-2.1,1-5,1.6-8,1.6s-5.9-0.6-8-1.6c-2-1-2.7-2.101-2.7-2.601s0.7-1.6,2.7-2.6
		c2.1-1,5-1.601,8-1.601s5.9,0.601,8,1.601c2,1,2.7,2.1,2.7,2.6S36.5,37.4,34.5,38.4z"/>
	<path fill="#FFFFFF" d="M14.7,22.3c0-3.2,5.3-5.7,11.8-5.7s11.8,2.6,11.8,5.7v7.2L53,20.8L26.4,4.9L0,20.8l14.7,8.8V22.3z"/>
	<path fill="#FFFFFF" d="M6.9,38.5c0-1.3-0.5-2.4-1.2-2.9C6.2,35.2,6.6,34.4,6.6,33.4C6.6,32.1,5.9,31,5,30.9v-6.4l-0.3-0.2V30.9
		C3.8,31,3.1,32.1,3.1,33.4C3.1,34.3,3.5,35.2,4,35.6c-0.7,0.5-1.2,1.601-1.2,2.9l0,0l-0.2,5.4c0,0.6,1,1,2.3,1c1.2,0,2.3-0.5,2.3-1
		L6.9,38.5z"/>
</g>
</svg>
