<?xml version="1.0" encoding="utf-8"?>
<!-- Generator: Adobe Illustrator 16.0.0, SVG Export Plug-In . SVG Version: 6.00 Build 0)  -->
<!DOCTYPE svg PUBLIC "-//W3C//DTD SVG 1.1//EN" "http://www.w3.org/Graphics/SVG/1.1/DTD/svg11.dtd">
<svg version="1.1" id="Layer_1" xmlns="http://www.w3.org/2000/svg" xmlns:xlink="http://www.w3.org/1999/xlink" x="0px" y="0px"
	 width="53px" height="50px" viewBox="0 0 53 50" enable-background="new 0 0 53 50" xml:space="preserve">
<g>
	<path fill="#FFFFFF" d="M43.8,39.5c-0.3-1.1-0.6-2.2-0.8-3.4c-0.2-1-0.4-2-0.6-3.1c-0.2-1.1-0.2-2.1-0.5-3.2
		c-0.601-2.7-2.5-5.3-4.5-7.2c-0.2-0.6-0.801-1-1.5-1h-2.5c2.399-0.4,4.199-2.5,4.199-5c0-2.8-2.3-5-5.1-5s-5,2.3-5,5
		c0,2.5,1.8,4.6,4.2,5H29.1c-0.899,0-1.6,0.7-1.6,1.6V39c0,0.9,0.7,1.6,1.6,1.6h6.7c0.9,0,1.601-0.699,1.601-1.6v-9.9
		c0.399,0.7,0.5,1.2,0.699,2.101c0,0.1,0,0.1,0,0.1s0,0.101,0,0.2c0,0.4,0.101,0.8,0.101,1.2c0.1,0.5,0.2,1.1,0.2,1.6
		c0.199,1,0.399,2,0.6,3c0.2,1.101,0.5,2.101,0.8,3.2C40.7,42.9,44.4,41.9,43.8,39.5z"/>
	<path fill="#FFFFFF" d="M9.7,39.5c0.3-1.1,0.6-2.2,0.8-3.4c0.2-1,0.4-2,0.6-3.1c0.2-1.1,0.2-2.1,0.5-3.2c0.6-2.7,2.5-5.3,4.5-7.2
		c0.2-0.6,0.8-1,1.5-1h2.5c-2.4-0.4-4.2-2.5-4.2-5c0-2.8,2.3-5,5.1-5s5,2.3,5,5c0,2.5-1.8,4.6-4.2,5h2.5c0.9,0,1.6,0.7,1.6,1.6V39
		c0,0.9-0.7,1.6-1.6,1.6h-6.7C16.7,40.6,16,39.9,16,39v-9.9c-0.4,0.7-0.5,1.2-0.7,2.101c0,0.1,0,0.1,0,0.1s0,0.101,0,0.2
		c0,0.4-0.1,0.8-0.1,1.2c-0.1,0.5-0.1,1.1-0.2,1.6c-0.2,1-0.4,2-0.6,3c-0.2,1.101-0.5,2.101-0.8,3.2C12.8,42.9,9,41.9,9.7,39.5z"/>
	<g>
		<path fill="#FFFFFF" d="M31.3,21.8c-1.7-0.4-3-1.6-3.7-3.2c-1.6,0.7-3.1,1.8-4.399,2.9c-0.9,0.8-0.8,2.2,0,3c0.9,0.9,2.1,0.8,3,0
			c0.1-0.1,0.3-0.3,0.5-0.4c0.1-0.1,0.2-0.1,0.2-0.2c0.2-0.2,0.5-0.4,0.7-0.5c0.601-0.4,1.2-0.8,1.9-1.1c0,0,0.3-0.1,0.4-0.2
			C30,22,30.2,22,30.3,22C30.6,21.9,31,21.9,31.3,21.8z M26.8,24.1C26.9,24,27,23.9,26.8,24.1L26.8,24.1z"/>
		<path fill="#FFFFFF" d="M39.5,21c-0.6-0.8-1.3-1.5-2.1-2c-0.7,1.5-2.101,2.6-3.801,2.9c0.2,0.1,0.5,0.1,0.7,0.2
			c-0.1,0,0.2,0.1,0.3,0.1c0.101,0.1,0.301,0.1,0.4,0.2s0.2,0.1,0.4,0.2l0,0c0.1,0.1,0.3,0.3,0.399,0.4c0.101,0.1,0.2,0.2,0.3,0.3
			c0.101,0.1,0.101,0.1,0.101,0c0.7,0.7,1.7,1,2.7,0.5C39.7,23.4,40.1,22,39.5,21z"/>
	</g>
	<path fill="#FFFFFF" d="M35.9,21.6h-2.5c2.399-0.4,4.199-2.5,4.199-5c0-2.8-2.3-5.1-5.1-5.1s-5,2.3-5,5.1c0,2.5,1.8,4.6,4.2,5h-2.5
		c-0.7,0-1.3,0.4-1.5,1c-2,1.9-3.9,4.5-4.5,7.2C22.9,31,22.9,31.9,22.7,33c-0.2,1-0.4,2.1-0.6,3.1c-0.2,1-0.4,2-0.7,2.9h4
		c0.1-0.6,0.3-1.1,0.4-1.7c0.2-1,0.4-2,0.6-3c0.1-0.5,0.2-1.1,0.2-1.6c0.1-0.4,0.1-0.8,0.1-1.2c0-0.1,0-0.1,0-0.2v-0.1
		c0.2-0.9,0.399-1.4,0.7-2.101V39c0,0.9,0.699,1.6,1.6,1.6h6.7c0.899,0,1.6-0.699,1.6-1.6V23.2C37.5,22.3,36.8,21.6,35.9,21.6z"/>
</g>
</svg>
