<?xml version="1.0" encoding="utf-8"?>
<!-- Generator: Adobe Illustrator 16.0.0, SVG Export Plug-In . SVG Version: 6.00 Build 0)  -->
<!DOCTYPE svg PUBLIC "-//W3C//DTD SVG 1.1//EN" "http://www.w3.org/Graphics/SVG/1.1/DTD/svg11.dtd">
<svg version="1.1" id="Layer_1" xmlns="http://www.w3.org/2000/svg" xmlns:xlink="http://www.w3.org/1999/xlink" x="0px" y="0px"
	 width="53px" height="50px" viewBox="0 0 53 50" enable-background="new 0 0 53 50" xml:space="preserve">
<g>
	<path fill="#FFFFFF" d="M33.8,29.288c-1,0-2-0.8-2.2-1.699l-0.8-3.5l-2.6,12.1c-0.2,1-1.101,1.7-2.1,1.7c-1,0-2-0.7-2.3-1.602
		l-2.3-6.899h-3.7c-1.3,0-2.3-1-2.3-2.3c0-1.301,1-2.3,2.3-2.3h5.4c1,0,1.9,0.7,2.2,1.6l0.2,0.5l3-14.1c0.2-1,1.102-1.7,2.2-1.7
		c1.101,0,2,0.7,2.3,1.7l2.7,11.9h5c2.3-3.7,1.9-8.6-1.3-11.8c-3.7-3.7-9.8-3.7-13.5,0l0,0l0,0c-3.7-3.7-9.8-3.7-13.5,0
		c-3.7,3.7-3.7,9.8,0,13.5l0,0l6.7,6.7l6.8,6.799l6.8-6.799l3.8-3.801L33.8,29.288L33.8,29.288z"/>
	<path fill="#FFFFFF" d="M47.6,25.688c-4.199,0-8.5,0-12.699,0c-1-4.2-1.9-8.5-2.9-12.7c-0.3-1.2-2.2-1.2-2.5,0
		c-1.3,5.9-2.5,11.8-3.8,17.7c-0.5-1.4-0.9-2.7-1.4-4.1c-0.2-0.5-0.6-0.9-1.2-0.9c-1.8,0-3.6,0-5.4,0c-1.7,0-1.7,2.6,0,2.6
		c1.5,0,3,0,4.5,0c0.9,2.5,1.7,5.101,2.6,7.601c0.4,1.101,2.2,1.301,2.5,0c1.2-5.499,2.4-11.1,3.5-16.6c0.601,2.7,1.2,5.4,1.8,8.1
		c0.102,0.5,0.7,0.899,1.2,0.899c4.601,0,9.101,0,13.7,0C49.2,28.188,49.2,25.688,47.6,25.688z"/>
</g>
</svg>
