<?xml version="1.0" encoding="utf-8"?>
<!-- Generator: Adobe Illustrator 16.0.3, SVG Export Plug-In . SVG Version: 6.00 Build 0)  -->
<!DOCTYPE svg PUBLIC "-//W3C//DTD SVG 1.1//EN" "http://www.w3.org/Graphics/SVG/1.1/DTD/svg11.dtd">
<svg version="1.1" id="Layer_1" xmlns="http://www.w3.org/2000/svg" xmlns:xlink="http://www.w3.org/1999/xlink" x="0px" y="0px"
	 width="53px" height="50px" viewBox="0 -10.1 53 50" style="enable-background:new 0 -10.1 53 50;" xml:space="preserve">
<style type="text/css">
<![CDATA[
	.st0{fill:#7C469B;}
	.st1{fill:#FFFFFF;}
]]>
</style>
<rect y="-10.1" class="st0" width="53" height="50.1"/>
<g>
	<path class="st1" d="M43.8,28.5c-0.3-1.1-0.6-2.2-0.8-3.4c-0.2-1-0.4-2-0.6-3.1c-0.2-1.1-0.2-2.1-0.5-3.2c-0.6-2.7-2.5-5.3-4.5-7.2
		c-0.2-0.6-0.8-1-1.5-1h-2.5c2.4-0.4,4.2-2.5,4.2-5c0-2.8-2.3-5-5.1-5c-2.8,0-5,2.3-5,5c0,2.5,1.8,4.6,4.2,5h-2.6
		c-0.9,0-1.6,0.7-1.6,1.6V28c0,0.9,0.7,1.6,1.6,1.6h6.7c0.9,0,1.6-0.7,1.6-1.6v-9.9c0.4,0.7,0.5,1.2,0.7,2.1c0,0.1,0,0.1,0,0.1
		c0,0,0,0.1,0,0.2c0,0.4,0.1,0.8,0.1,1.2c0.1,0.5,0.2,1.1,0.2,1.6c0.2,1,0.4,2,0.6,3c0.2,1.1,0.5,2.1,0.8,3.2
		C40.7,31.9,44.4,30.9,43.8,28.5z"/>
	<path class="st1" d="M9.7,28.5c0.3-1.1,0.6-2.2,0.8-3.4c0.2-1,0.4-2,0.6-3.1c0.2-1.1,0.2-2.1,0.5-3.2c0.6-2.7,2.5-5.3,4.5-7.2
		c0.2-0.6,0.8-1,1.5-1h2.5c-2.4-0.4-4.2-2.5-4.2-5c0-2.8,2.3-5,5.1-5c2.8,0,5,2.3,5,5c0,2.5-1.8,4.6-4.2,5h2.5
		c0.9,0,1.6,0.7,1.6,1.6V28c0,0.9-0.7,1.6-1.6,1.6h-6.7c-0.9,0-1.6-0.7-1.6-1.6v-9.9c-0.4,0.7-0.5,1.2-0.7,2.1c0,0.1,0,0.1,0,0.1
		c0,0,0,0.1,0,0.2c0,0.4-0.1,0.8-0.1,1.2c-0.1,0.5-0.1,1.1-0.2,1.6c-0.2,1-0.4,2-0.6,3c-0.2,1.1-0.5,2.1-0.8,3.2
		C12.8,31.9,9,30.9,9.7,28.5z"/>
	<g>
		<path class="st1" d="M31.3,10.8c-1.7-0.4-3-1.6-3.7-3.2c-1.6,0.7-3.1,1.8-4.4,2.9c-0.9,0.8-0.8,2.2,0,3c0.9,0.9,2.1,0.8,3,0
			c0.1-0.1,0.3-0.3,0.5-0.4c0.1-0.1,0.2-0.1,0.2-0.2c0.2-0.2,0.5-0.4,0.7-0.5c0.6-0.4,1.2-0.8,1.9-1.1c0,0,0.3-0.1,0.4-0.2
			c0.1-0.1,0.3-0.1,0.4-0.1C30.6,10.9,31,10.9,31.3,10.8z M26.8,13.1C26.9,13,27,12.9,26.8,13.1L26.8,13.1z"/>
		<path class="st1" d="M39.5,10c-0.6-0.8-1.3-1.5-2.1-2c-0.7,1.5-2.1,2.6-3.8,2.9c0.2,0.1,0.5,0.1,0.7,0.2c-0.1,0,0.2,0.1,0.3,0.1
			c0.1,0.1,0.3,0.1,0.4,0.2c0.1,0.1,0.2,0.1,0.4,0.2c0,0,0,0,0,0c0.1,0.1,0.3,0.3,0.4,0.4c0.1,0.1,0.2,0.2,0.3,0.3
			c0.1,0.1,0.1,0.1,0.1,0c0.7,0.7,1.7,1,2.7,0.5C39.7,12.4,40.1,11,39.5,10z"/>
	</g>
	<path class="st1" d="M35.9,10.6h-2.5c2.4-0.4,4.2-2.5,4.2-5c0-2.8-2.3-5.1-5.1-5.1c-2.8,0-5,2.3-5,5.1c0,2.5,1.8,4.6,4.2,5h-2.5
		c-0.7,0-1.3,0.4-1.5,1c-2,1.9-3.9,4.5-4.5,7.2c-0.3,1.2-0.3,2.1-0.5,3.2c-0.2,1-0.4,2.1-0.6,3.1c-0.2,1-0.4,2-0.7,2.9h4
		c0.1-0.6,0.3-1.1,0.4-1.7c0.2-1,0.4-2,0.6-3c0.1-0.5,0.2-1.1,0.2-1.6c0.1-0.4,0.1-0.8,0.1-1.2c0-0.1,0-0.1,0-0.2c0,0,0-0.1,0-0.1
		c0.2-0.9,0.4-1.4,0.7-2.1V28c0,0.9,0.7,1.6,1.6,1.6h6.7c0.9,0,1.6-0.7,1.6-1.6V12.2C37.5,11.3,36.8,10.6,35.9,10.6z"/>
</g>
</svg>
