<?xml version="1.0" encoding="utf-8"?>
<!-- Generator: Adobe Illustrator 16.0.3, SVG Export Plug-In . SVG Version: 6.00 Build 0)  -->
<!DOCTYPE svg PUBLIC "-//W3C//DTD SVG 1.1//EN" "http://www.w3.org/Graphics/SVG/1.1/DTD/svg11.dtd">
<svg version="1.1" id="Layer_1" xmlns="http://www.w3.org/2000/svg" xmlns:xlink="http://www.w3.org/1999/xlink" x="0px" y="0px"
	 width="53px" height="50px" viewBox="0 0 53 50" style="enable-background:new 0 0 53 50;" xml:space="preserve">
<style type="text/css">
<![CDATA[
	.st0{display:inline;fill:#FFFFFF;}
	.st1{fill:#FFFFFF;}
	.st2{display:inline;}
	.st3{display:none;fill:#55B2A9;stroke:#000000;stroke-miterlimit:10;}
	.st4{display:none;}
]]>
</style>
<rect x="-4.8" y="-5" class="st3" width="62.2" height="59.8"/>
<g class="st4">
	<g class="st2">
		<path class="st1" d="M14.4,12.3c-3.3,5.8-1.3,9.5-0.7,11.6c0.5,1.6,3.1,4.6,5,6.8c-1.5-2-4.2-6-4.7-10.6
			C13.7,16.8,14,14.2,14.4,12.3z"/>
		<path class="st1" d="M38.6,12.3c0.4,1.9,0.7,4.5,0.4,7.8c-0.5,4.5-3.2,8.6-4.7,10.6c2-2.2,4.5-5.2,5-6.8
			C39.9,21.8,41.9,18.1,38.6,12.3z"/>
		<path class="st1" d="M33.6,7.9c-1.1-0.5-2.3-0.8-3.3-1c0.4,0.6,2.8,4.9,2.5,11.8c-0.3,7.5-4.4,17.5-4.4,17.5s-0.3,0.2-0.7,0.3
			c-0.5,0.1-0.7,0-0.7,0s0.3-1.8,0.4-3.4c0.1-1.7,0.9-6.2,1.4-14.9c0.4-7.9-0.9-11-1.1-11.5c-0.7,0-1.2,0-1.2,0s-0.5,0-1.2,0
			c-0.3,0.5-1.5,3.6-1.1,11.5c0.5,8.8,1.3,13.3,1.4,14.9c0.1,1.7,0.4,3.4,0.4,3.4s-0.3,0.1-0.7,0c-0.5-0.1-0.7-0.3-0.7-0.3
			s-4.1-10-4.4-17.5c-0.3-6.9,2.1-11.2,2.5-11.8c-1,0.2-2.2,0.5-3.3,1c-1,1.1-3.5,4.7-2.7,10.9c1,7.7,2.9,10,3.9,11.9
			c0.8,1.4,2,3.6,2.6,4.7c0.5,0.5,0.8,0.9,0.8,0.9s0.2,0.5,0.6,1.5s0.5,1.4,0.7,1.5c0.2,0.1,1.2,0.3,1.2,0.3s1-0.1,1.2-0.3
			c0.2-0.1,0.3-0.6,0.7-1.5c0.4-1,0.6-1.5,0.6-1.5s0.3-0.4,0.8-0.9c0.6-1.1,1.8-3.3,2.6-4.7c1-1.9,2.9-4.2,3.9-11.9
			C37.1,12.6,34.6,9.1,33.6,7.9z"/>
	</g>
	<path class="st0" d="M28,40.5h-0.5h-2H25c-0.2,0-0.3,0.1-0.3,0.3c0,0.2,0.1,0.3,0.3,0.3l0,0v1.8c0,0.3,0.2,0.5,0.5,0.5h2
		c0.3,0,0.5-0.2,0.5-0.5v-1.8l0,0c0.2,0,0.3-0.1,0.3-0.3C28.3,40.6,28.2,40.5,28,40.5z"/>
</g>
<path class="st1" d="M41.7,19.4l-5.3,10.2L26.9,9.7l-9.2,17.6l-5-10.4L1.9,37.9h10.4h10.5h9.3h8.3h10.2L41.7,19.4z M13.1,23.2
	l-0.9,1.6l-0.8-2.5l-1.2,0.5l2.4-4.7l2.1,4.4L13.1,23.2z M27.3,16.3l-1,3.4L24.9,17l-2.1,2.2l4.1-7.9l3.1,6.4L27.3,16.3z M41.7,26.7
	L40,25.5l-1,0.4l2.8-5.4l2.7,5.7l-1.8-0.7L41.7,26.7z"/>
</svg>
