<?xml version="1.0" encoding="utf-8"?>
<!-- Generator: Adobe Illustrator 16.0.0, SVG Export Plug-In . SVG Version: 6.00 Build 0)  -->
<!DOCTYPE svg PUBLIC "-//W3C//DTD SVG 1.1//EN" "http://www.w3.org/Graphics/SVG/1.1/DTD/svg11.dtd">
<svg version="1.1" id="Layer_1" xmlns="http://www.w3.org/2000/svg" xmlns:xlink="http://www.w3.org/1999/xlink" x="0px" y="0px"
	 width="53px" height="50px" viewBox="0 0 53 50" enable-background="new 0 0 53 50" xml:space="preserve">
<g>
	<path fill="#FFFFFF" d="M40.6,32.25v1.699c0,2.601-6.5,4.801-14.6,4.801c-3.2,0-6.1-0.3-8.5-0.9c2.6,0.8,6.2,1.4,10.2,1.4
		c8.1,0,14.6-2.101,14.6-4.801C42.2,33.65,41.6,32.85,40.6,32.25z"/>
	<path fill="#FFFFFF" d="M40,29.75v0.6c0,2.6-6.5,4.801-14.6,4.801c-6.4,0-11.8-1.301-13.8-3.201c1.1,2.301,7.1,4.001,14.4,4.001
		c8.1,0,14.6-2.102,14.6-4.8C40.6,30.65,40.4,30.15,40,29.75z"/>
	<path fill="#FFFFFF" d="M26,31.05c-8.1,0-14.6-2.101-14.6-4.8v-0.2c-0.4,0.399-0.6,0.899-0.6,1.399c0,2.601,6.5,4.801,14.6,4.801
		c7.7,0,14-1.9,14.6-4.4C38.1,29.65,32.5,31.05,26,31.05z"/>
	<path fill="#FFFFFF" d="M26.5,27.35c-8.1,0-14.6-2.1-14.6-4.8v-0.5c-0.4,0.4-0.5,0.8-0.5,1.3c0,2.6,6.5,4.801,14.6,4.801
		c7.4,0,13.6-1.801,14.5-4.201C38.6,25.949,33.1,27.35,26.5,27.35z"/>
	<path fill="#FFFFFF" d="M40,17.85v0.5c0,2.6-6.5,4.8-14.6,4.8c-5.9,0-11-1.2-13.3-2.8c0.9,2.4,7,4.2,14.5,4.2
		c8.1,0,14.6-2.1,14.6-4.8C41.1,19.05,40.7,18.45,40,17.85z"/>
	<ellipse fill="#FFFFFF" cx="25.4" cy="15.55" rx="14.6" ry="4.8"/>
</g>
</svg>
