<?xml version="1.0" encoding="utf-8"?>
<!-- Generator: Adobe Illustrator 16.0.3, SVG Export Plug-In . SVG Version: 6.00 Build 0)  -->
<!DOCTYPE svg PUBLIC "-//W3C//DTD SVG 1.1//EN" "http://www.w3.org/Graphics/SVG/1.1/DTD/svg11.dtd">
<svg version="1.1" id="Layer_1" xmlns="http://www.w3.org/2000/svg" xmlns:xlink="http://www.w3.org/1999/xlink" x="0px" y="0px"
	 width="53px" height="50px" viewBox="0 0 53 50" style="enable-background:new 0 0 53 50;" xml:space="preserve">
<style type="text/css">
<![CDATA[
	.st0{fill:#FEDF00;}
	.st1{fill:#FFFFFF;}
]]>
</style>
<rect y="-0.1" class="st0" width="53" height="50.1"/>
<g>
	<path class="st1" d="M37.5,31.7c-1.6,0-2.9-1.3-2.9-2.9c0-1.6,1.3-2.9,2.9-2.9s2.9,1.3,2.9,2.9C40.4,30.4,39.1,31.7,37.5,31.7z"/>
	<path class="st1" d="M15.6,31.7c-1.6,0-2.9-1.3-2.9-2.9c0-1.6,1.3-2.9,2.9-2.9s2.9,1.3,2.9,2.9C18.6,30.4,17.2,31.7,15.6,31.7z"/>
	<path class="st1" d="M42,26.5c-0.1-1.5-0.8-1.7-1.2-1.9c-0.4-0.2-0.6-0.3-0.6-0.3s-0.9-0.9-1.8-1.2c-0.9-0.3-3.3-0.4-3.8-0.7
		c-0.5-0.3-4.3-3.9-8.6-3.9s-7.7,1.5-9.3,2.8c-1.7,1.4-2.9,2.4-2.9,2.4s-1.5,0.7-2,1.4c-0.5,0.7-1,2.3-1,2.9s0.3,0.7,0.6,0.8
		c0.3,0.1,0.8,0.2,0.8,0.2h0.2c0-0.1,0-0.3,0-0.4c0-1.8,1.5-3.3,3.3-3.3c1.8,0,3.3,1.7,3.3,3.5c0,0.4-0.1,0.8-0.2,1.2H19h15.4
		c-0.1-0.4-0.2-0.8-0.2-1.2c0-1.8,1.5-3.3,3.3-3.3s3.3,1.5,3.3,3.3c0,0.2,0,0.5-0.1,0.7h0.2h0.2C41.1,29.5,42.1,28.1,42,26.5z
		 M22.4,23.2h-5.9c1.1-1.8,3.3-3.2,5.9-3.8V23.2z M23.7,23.2v-4c0.5-0.1,1-0.1,1.5-0.1c3.9,0,7.2,1.7,8.7,4.1H23.7z"/>
</g>
</svg>
