<?xml version="1.0" encoding="utf-8"?>
<!-- Generator: Adobe Illustrator 16.0.0, SVG Export Plug-In . SVG Version: 6.00 Build 0)  -->
<!DOCTYPE svg PUBLIC "-//W3C//DTD SVG 1.1//EN" "http://www.w3.org/Graphics/SVG/1.1/DTD/svg11.dtd">
<svg version="1.1" id="Layer_1" xmlns="http://www.w3.org/2000/svg" xmlns:xlink="http://www.w3.org/1999/xlink" x="0px" y="0px"
	 width="53px" height="50px" viewBox="0 0 53 50" enable-background="new 0 0 53 50" xml:space="preserve">
<path fill="#FFFFFF" d="M40.8,11.6L40.8,11.6L40.8,11.6L40.8,11.6c-0.2,0-2.1-0.1-3.5,1.4c-1.5,1.5-4.6,4.6-4.6,4.6s-1,1.3-2,1.2
	c-1-0.1-12.8-2.8-12.8-2.8s-2.8-0.8-3.9-0.8s-1.8,0.5-1.8,0.8s3.3,1.5,4.5,2.1c1.2,0.6,6.3,2.5,7.3,3.2c1,0.7,2.6,2.1,2.6,2.1
	S23.3,27,22,28.3c-1.3,1.4-2,2.4-2.6,3.101c-0.6,0.8-0.8,1.199-1,1.3c-0.3,0-4.2-0.9-4.9-0.7c-0.8,0.2-1.3,0.7-1,1s4.2,2.3,4.2,2.3
	s-0.3,0.4-0.6,1c-0.2,0.3-0.2,0.5-0.3,0.5l0,0l0,0l0,0l0,0c0,0,0.2-0.1,0.5-0.3c0.5-0.3,1-0.6,1-0.6s2.1,4,2.3,4.199
	c0.2,0.2,0.8-0.3,1-1c0.2-0.8-0.8-4.699-0.7-4.899s0.5-0.4,1.3-1C22,32.6,23,31.9,24.3,30.6c1.4-1.3,4.9-4.6,4.9-4.6
	s1.399,1.5,2.1,2.6C32,29.7,34,34.8,34.5,35.9c0.5,1.1,1.8,4.5,2.1,4.5c0.301,0,0.7-0.7,0.801-1.801c0-1.1-0.801-3.899-0.801-3.899
	S33.8,22.9,33.7,22C33.6,21,35,20,35,20s3.1-3.1,4.6-4.6C40.9,13.7,40.8,11.8,40.8,11.6L40.8,11.6z"/>
</svg>
