<?xml version="1.0" encoding="utf-8"?>
<!-- Generator: Adobe Illustrator 16.0.0, SVG Export Plug-In . SVG Version: 6.00 Build 0)  -->
<!DOCTYPE svg PUBLIC "-//W3C//DTD SVG 1.1//EN" "http://www.w3.org/Graphics/SVG/1.1/DTD/svg11.dtd">
<svg version="1.1" id="Layer_1" xmlns="http://www.w3.org/2000/svg" xmlns:xlink="http://www.w3.org/1999/xlink" x="0px" y="0px"
	 width="53px" height="50px" viewBox="0 0 53 50" enable-background="new 0 0 53 50" xml:space="preserve">
<g>
	<g>
		<path fill="#FFFFFF" d="M14.4,12.3c-3.3,5.8-1.3,9.5-0.7,11.6c0.5,1.6,3.1,4.6,5,6.799c-1.5-2-4.2-6-4.7-10.599
			C13.7,16.8,14,14.2,14.4,12.3z"/>
		<path fill="#FFFFFF" d="M38.6,12.3c0.4,1.9,0.7,4.5,0.4,7.8c-0.5,4.5-3.2,8.599-4.7,10.599c2-2.199,4.5-5.199,5-6.799
			C39.9,21.8,41.9,18.1,38.6,12.3z"/>
		<path fill="#FFFFFF" d="M33.6,7.9c-1.1-0.5-2.3-0.8-3.3-1c0.4,0.6,2.8,4.9,2.5,11.8C32.5,26.199,28.4,36.199,28.4,36.199
			S28.1,36.4,27.7,36.5c-0.5,0.1-0.7,0-0.7,0s0.3-1.801,0.4-3.4C27.5,31.4,28.3,26.9,28.8,18.2c0.4-7.9-0.899-11-1.1-11.5
			c-0.7,0-1.2,0-1.2,0s-0.5,0-1.2,0c-0.3,0.5-1.5,3.6-1.1,11.5c0.5,8.8,1.3,13.3,1.4,14.899c0.1,1.701,0.4,3.4,0.4,3.4
			s-0.3,0.1-0.7,0c-0.5-0.1-0.7-0.301-0.7-0.301s-4.1-10-4.4-17.499c-0.3-6.9,2.1-11.2,2.5-11.8c-1,0.2-2.2,0.5-3.3,1
			c-1,1.1-3.5,4.7-2.7,10.9c1,7.7,2.9,10,3.9,11.899c0.8,1.4,2,3.602,2.6,4.701c0.5,0.5,0.8,0.9,0.8,0.9s0.2,0.5,0.6,1.5
			s0.5,1.398,0.7,1.5c0.2,0.1,1.2,0.299,1.2,0.299s1-0.1,1.2-0.299c0.2-0.102,0.3-0.602,0.7-1.5c0.399-1,0.6-1.5,0.6-1.5
			s0.3-0.4,0.8-0.9c0.601-1.1,1.8-3.301,2.601-4.701C33.4,28.801,35.3,26.5,36.3,18.8C37.1,12.6,34.6,9.1,33.6,7.9z"/>
	</g>
	<path fill="#FFFFFF" d="M28,40.5h-0.5h-2H25c-0.2,0-0.3,0.1-0.3,0.301C24.7,41,24.8,41.1,25,41.1l0,0V42.9c0,0.299,0.2,0.5,0.5,0.5
		h2c0.3,0,0.5-0.201,0.5-0.5V41.1l0,0c0.2,0,0.3-0.1,0.3-0.299C28.3,40.6,28.2,40.5,28,40.5z"/>
</g>
</svg>
