<?xml version="1.0" encoding="utf-8"?>
<!-- Generator: Adobe Illustrator 16.0.0, SVG Export Plug-In . SVG Version: 6.00 Build 0)  -->
<!DOCTYPE svg PUBLIC "-//W3C//DTD SVG 1.1//EN" "http://www.w3.org/Graphics/SVG/1.1/DTD/svg11.dtd">
<svg version="1.1" id="Layer_1" xmlns="http://www.w3.org/2000/svg" xmlns:xlink="http://www.w3.org/1999/xlink" x="0px" y="0px"
	 width="53px" height="50px" viewBox="0 0 53 50" enable-background="new 0 0 53 50" xml:space="preserve">
<g>
	<path fill="#FFFFFF" d="M32.3,9.5H20.7c-1.8,0-3.2,1.4-3.2,3.2V16c0,1.8,1.4,3.2,3.2,3.2h11.6c1.8,0,3.2-1.4,3.2-3.2v-3.3
		C35.5,10.9,34,9.5,32.3,9.5z M33.9,15.9c0,0.9-0.7,1.7-1.7,1.7H20.7c-0.9,0-1.7-0.7-1.7-1.7v-3.2c0-1,0.7-1.7,1.7-1.7h11.6
		c0.9,0,1.7,0.7,1.7,1.7v3.2H33.9z"/>
	<path fill="#FFFFFF" d="M38.7,26.9c2.899,0,5.5-1.4,7.1-3.5v-0.7v-0.9v-4.4v-1.8c0-0.8-0.6-1.4-1.399-1.4H8.6
		c-0.8,0-1.4,0.6-1.4,1.4v1.8l0,0v6.1c1.5,2.1,4.1,3.5,7.1,3.5l0,0"/>
	<path fill="#FFFFFF" d="M38.7,28.6H14.2c-2.7,0-5.2-1-7.1-2.6v9l0,0v2.2C7.1,38,7.7,38.6,8.5,38.6h35.8c0.8,0,1.4-0.6,1.4-1.399V35
		v-9C43.9,27.6,41.4,28.6,38.7,28.6z"/>
</g>
</svg>
