<?xml version="1.0" encoding="utf-8"?>
<!-- Generator: Adobe Illustrator 16.0.0, SVG Export Plug-In . SVG Version: 6.00 Build 0)  -->
<!DOCTYPE svg PUBLIC "-//W3C//DTD SVG 1.1//EN" "http://www.w3.org/Graphics/SVG/1.1/DTD/svg11.dtd">
<svg version="1.1" id="Layer_1" xmlns="http://www.w3.org/2000/svg" xmlns:xlink="http://www.w3.org/1999/xlink" x="0px" y="0px"
	 width="53px" height="50px" viewBox="0 0 53 50" enable-background="new 0 0 53 50" xml:space="preserve">
<g>
	<path fill="#FFFFFF" d="M45.8,14.5H7.2c-0.8,0-1.5,0.7-1.5,1.5v6.7h16.8c1.6-2.6,4.5-4.4,7.8-4.4s6.2,1.8,7.8,4.4h9.2v-6.6
		C47.3,15.2,46.6,14.5,45.8,14.5z"/>
	<path fill="#FFFFFF" d="M38.5,23.8c0.5,1.1,0.8,2.3,0.8,3.601c0,5-4,9-9,9s-9-4-9-9c0-1.301,0.3-2.5,0.8-3.601H5.7v15.4
		c0,0.8,0.7,1.5,1.5,1.5h38.5c0.8,0,1.5-0.7,1.5-1.5V23.8H38.5z"/>
	<circle fill="#FFFFFF" cx="30.2" cy="27.4" r="5.8"/>
	<polygon fill="#FFFFFF" points="42.9,13.6 42.5,12.3 38.3,12.3 37.7,13.6 	"/>
	<polygon fill="#FFFFFF" points="14.7,13.6 14.4,12.3 11.3,12.3 10.9,13.6 	"/>
	<path fill="#FFFFFF" d="M31.8,11.1H21.2l-1.4,2.5h13.3L31.8,11.1z M28.2,13h-3.6v-1.3h3.6V13z"/>
</g>
</svg>
