<?xml version="1.0" encoding="utf-8"?>
<!-- Generator: Adobe Illustrator 16.0.0, SVG Export Plug-In . SVG Version: 6.00 Build 0)  -->
<!DOCTYPE svg PUBLIC "-//W3C//DTD SVG 1.1//EN" "http://www.w3.org/Graphics/SVG/1.1/DTD/svg11.dtd">
<svg version="1.1" id="Layer_1" xmlns="http://www.w3.org/2000/svg" xmlns:xlink="http://www.w3.org/1999/xlink" x="0px" y="0px"
	 width="53px" height="50px" viewBox="0 0 53 50" enable-background="new 0 0 53 50" xml:space="preserve">
<g>
	<path fill="#FFFFFF" d="M26.7,10.1c0,0,0.1,0,0.3,0s0.5,0,1,0c0.2,0,0.4,0,0.7,0.1c0.2,0,0.5,0.1,0.8,0.1c0.6,0.1,1.2,0.2,1.9,0.4
		c0.199,0,0.3,0.1,0.5,0.1c0.199,0.1,0.399,0.1,0.5,0.2c0.199,0.1,0.399,0.1,0.6,0.2c0.2,0.1,0.4,0.1,0.6,0.2
		c0.4,0.2,0.801,0.3,1.101,0.5c0.2,0.1,0.399,0.2,0.6,0.3c0.2,0.1,0.4,0.3,0.601,0.4c0.3,0.3,0.699,0.6,1,0.9c0.3,0.3,0.699,0.6,1,1
		c0.3,0.4,0.6,0.7,0.899,1.2c0.101,0.2,0.2,0.5,0.3,0.8l0.101,0.7c0.1,0.4,0.2,0.9,0.399,1.3l0.101,0.2l0,0l0,0l0,0l0,0v0.1v0.1V19
		l0.1,0.1c0.101,0.2,0.2,0.4,0.3,0.6c0.2,0.5,0.301,1,0.301,1.5c0,0.1,0,0.2,0,0.3s0,0.2,0,0.3c0,0.2,0,0.4,0,0.7
		c0,0.9-0.2,1.8-0.601,2.6C39.4,25.9,38.9,26.5,38.4,27c-0.301,0.3-0.5,0.5-0.801,0.7c-0.3,0.2-0.5,0.399-0.699,0.6
		c-0.5,0.3-0.9,0.601-1.2,0.9c-0.3,0.2-0.601,0.399-0.8,0.6C34.8,29.9,34.7,29.9,34.7,29.9l0,0l0,0l0,0l0,0l0,0l0,0l0,0l0,0l0,0l0,0
		l0,0l0,0l0,0l0,0l0,0l0,0l0,0c0,0,0.1-0.101,0.2-0.2C35.1,29.6,35.3,29.4,35.6,29.1c0.301-0.3,0.7-0.6,1.101-0.899
		c0.2-0.2,0.5-0.4,0.7-0.601c0.1-0.1,0.199-0.199,0.399-0.3l0.101-0.1L38,27.1c0.1-0.1,0.1-0.1,0.2-0.199c0.5-0.5,1-1.101,1.3-1.8
		c0.3-0.7,0.5-1.6,0.5-2.4c0-0.4-0.1-0.9-0.1-1.3S39.8,20.5,39.6,20.1c-0.1-0.2-0.199-0.4-0.3-0.6c-0.1-0.1-0.1-0.2-0.2-0.3
		c0-0.1,0-0.1-0.1-0.2l-0.1-0.2c-0.2-0.4-0.301-0.9-0.4-1.3l-0.1-0.7c0-0.2-0.101-0.4-0.2-0.6c-0.2-0.4-0.5-0.8-0.8-1.1
		c-0.601-0.7-1.301-1.3-2-1.8c-0.2-0.1-0.301-0.3-0.5-0.4c-0.2-0.1-0.4-0.2-0.5-0.3C34,12.4,33.7,12.2,33.3,12
		c-0.7-0.3-1.399-0.6-2.1-0.8c-0.7-0.2-1.3-0.4-1.8-0.5c-0.301-0.1-0.5-0.1-0.801-0.2c-0.199,0-0.5-0.1-0.699-0.1
		c-0.4-0.1-0.7-0.1-0.9-0.1C26.9,10.2,26.7,10.2,26.7,10.1L26.7,10.1z"/>
	<path fill="#FFFFFF" d="M33.7,16.3c-0.601,0-1,0.5-1,1.2v0.1c0-0.2,0-0.3,0-0.3c0.2-0.3,0.899-0.6,1.1-0.4c0.3,0.2,0.3,0.6,0,1
		s-0.6,0.5-0.8,0.5c0,0,0,0-0.1,0c0.199,0.2,0.399,0.3,0.699,0.3c0.601,0,1-0.5,1-1.1C34.8,16.9,34.3,16.3,33.7,16.3z"/>
	<path fill="#FFFFFF" d="M33.4,18.6c0,0,0.1,0,0.6,0s0.7,0,0.7,0"/>
	<path fill="#FFFFFF" d="M34.6,19L34.6,19c0.101,0,0.101,0,0.2,0.1c0.101,0.1,0.3,0.1,0.5,0.3c0.101,0.1,0.2,0.1,0.3,0.2
		c0.101,0.1,0.2,0.2,0.301,0.3c0.1,0.1,0.199,0.2,0.3,0.4l0.1,0.1l0,0l0,0l0,0l0,0v0.1l0.101,0.2c0,0.1,0.1,0.3,0.1,0.4
		s0.1,0.3,0.1,0.4s0.101,0.3,0.101,0.4s0,0.3,0,0.4c0,0.1,0,0.2,0,0.3s0,0.2,0,0.2c0,0.1,0,0.1,0,0.2v0.1l0,0c0,0-0.101-0.3-0.2-0.7
		c-0.1-0.2-0.1-0.5-0.2-0.7c0-0.1-0.1-0.3-0.1-0.4C36.1,21.1,36,21,36,20.8c-0.1-0.1-0.1-0.3-0.2-0.4c-0.1-0.1-0.1-0.2-0.2-0.4
		c-0.1-0.1-0.199-0.2-0.199-0.3c-0.101-0.1-0.2-0.2-0.2-0.3C35.1,19.3,35.1,19.2,35,19.2c-0.1-0.1-0.1-0.1-0.2-0.2
		C34.6,19.1,34.6,19,34.6,19L34.6,19z"/>
	<path fill="#FFFFFF" d="M38.6,21.5c0,0,0,0,0,0.1s0,0.2,0,0.3s0,0.3-0.1,0.4c0,0.2-0.1,0.4-0.2,0.6c0,0.1-0.1,0.2-0.1,0.3
		c0,0.1-0.101,0.2-0.101,0.3C38,23.6,38,23.7,37.9,23.8C37.8,23.9,37.8,24,37.7,24.1c-0.101,0.2-0.3,0.5-0.4,0.7
		c-0.1,0.2-0.3,0.4-0.5,0.7c-0.2,0.2-0.3,0.4-0.5,0.7c-0.1,0.1-0.2,0.2-0.3,0.3s-0.2,0.2-0.3,0.3C35.6,26.9,35.5,27,35.4,27.1
		C35.3,27.2,35.2,27.3,35.1,27.3C34.9,27.4,34.7,27.6,34.5,27.7c-0.2,0.1-0.4,0.2-0.5,0.2C33.8,28,33.7,28,33.6,28.1
		c-0.1,0-0.199,0.101-0.3,0.101c-0.1,0-0.1,0-0.1,0V28.1c0,0,0,0,0.1-0.1c0.101,0,0.101-0.1,0.2-0.2c0.2-0.1,0.5-0.3,0.8-0.6
		C34.4,27.1,34.5,27.1,34.6,27c0.101-0.1,0.2-0.1,0.301-0.2c0.1-0.1,0.199-0.2,0.3-0.2c0.1-0.1,0.2-0.199,0.3-0.3
		c0.2-0.2,0.3-0.399,0.5-0.6s0.3-0.4,0.5-0.7c0.2-0.2,0.3-0.4,0.5-0.7c0.2-0.2,0.3-0.4,0.5-0.6c0.1-0.1,0.1-0.2,0.2-0.3
		c0.1-0.1,0.1-0.2,0.2-0.3c0.1-0.2,0.199-0.4,0.3-0.6c0.1-0.1,0.1-0.2,0.1-0.3c0-0.1,0.101-0.2,0.101-0.2c0.1-0.2,0.1-0.3,0.199-0.4
		C38.4,21.7,38.5,21.6,38.6,21.5C38.5,21.5,38.5,21.5,38.6,21.5L38.6,21.5z"/>
	<path fill="#FFFFFF" d="M28.4,24.8c0,0,0-0.1,0-0.2s0-0.3,0.1-0.4c0-0.1,0.1-0.2,0.1-0.3s0.101-0.2,0.2-0.3
		c0.101-0.1,0.2-0.2,0.3-0.3c0.101-0.1,0.2-0.1,0.4-0.2c0.1,0,0.2-0.1,0.4-0.1c0.1,0,0.199-0.1,0.3-0.1c0.1,0,0.2-0.1,0.3-0.1
		c0,0,0,0,0.1,0l0,0l0,0l0,0l0,0l0,0l0,0l0,0l0,0l0,0c0,0,0,0,0-0.1c0.101-0.1,0.101-0.1,0.101-0.2s0.1-0.1,0.1-0.2l0.101-0.1l0,0
		l0,0c0,0,0,0.1-0.101,0.2c0,0.1,0,0.1-0.1,0.2c0,0.1-0.101,0.1-0.101,0.2c0,0,0,0.1-0.1,0.1c0,0,0,0-0.1,0.1c0,0,0,0-0.101,0
		c-0.1,0.1-0.2,0.1-0.3,0.1c-0.2,0.1-0.4,0.2-0.7,0.3c-0.1,0-0.2,0.1-0.3,0.2s-0.2,0.1-0.3,0.2C28.6,23.9,28.6,24,28.5,24.1
		c0,0.1-0.1,0.2-0.1,0.3C28.5,24.6,28.4,24.8,28.4,24.8L28.4,24.8z"/>
	<path fill="#FFFFFF" d="M39.6,25.5c0.7,0.8,1.4,1.6,2.2,2.4c0.2,0.199,0.4,0.399,0.5,0.6c0.2,0.2,0.3,0.4,0.5,0.6
		c0,0.101,0.101,0.101,0.101,0.2c0,0,0,0.101,0.1,0.101l0,0c0,0,0,0,0,0.1l0,0l0,0l0,0l0,0l0,0c-0.1,0-0.2,0-0.2,0
		c-0.1,0-0.1,0-0.2,0L42.2,29.4H42.1H42l0,0l0,0l0,0l0,0l0,0l0,0l0,0l0,0c0,0,0,0,0,0.1c0.2,0.2,0.4,0.4,0.5,0.6
		c0,0.101,0.1,0.101,0.1,0.2c0,0.101,0.101,0.101,0.101,0.2l0,0c0,0,0,0,0,0.1l0,0l0,0l0,0l0,0l0,0l0,0l0,0l0,0l0,0l0,0
		c0,0,0,0-0.101,0c-0.1,0-0.1,0-0.199-0.1c-0.301-0.1-0.5-0.2-0.801-0.3c-0.1,0-0.3-0.101-0.399-0.101l0,0l0,0l0,0l0,0l0,0l0,0l0,0
		l0,0l0,0l0,0l0,0l0,0l0.1,0.101c0.2,0.2,0.3,0.399,0.5,0.6L41.9,30.9C42,30.9,42,31,42.1,31c0.101,0.1,0.2,0.1,0.4,0.2
		c0,0,0.1,0,0.1,0.1l0,0l0,0l0,0c0,0,0,0,0,0.101c0,0,0,0,0,0.1l0,0l0,0c-0.1,0.1-0.199,0.1-0.3,0.1c-0.1,0-0.2,0-0.2,0
		c-0.1,0-0.1,0-0.199-0.1l-0.2-0.1C41.6,31.4,41.6,31.3,41.5,31.3c-0.1-0.1-0.2-0.1-0.4-0.2l0.2-0.199C41.4,31,41.4,31.2,41.5,31.3
		l0.1,0.2c0,0.1,0.101,0.1,0.101,0.2c0,0.1,0.1,0.1,0.1,0.2C41.8,32,41.9,32,41.9,32.1c0,0.101,0.1,0.2,0.1,0.301
		c0,0.1,0,0.1,0,0.199c0,0,0,0.101-0.1,0.101l0,0l0,0l0,0l0,0l0,0l0,0l0,0l0,0c0,0,0,0-0.101,0l0,0l0,0h-0.1H41.6
		c-0.1,0-0.199,0-0.199-0.101C41.2,33,41,33,40.9,32.9C40.6,32.8,40.3,32.7,40,32.5l0.3-0.1c-0.1,0.199-0.1,0.5-0.2,0.699
		c0,0,0,0.101-0.1,0.101l0,0l0,0l-0.1,0.1H39.8l0,0l0,0l0,0h-0.1H39.6c-0.1,0-0.1,0-0.199-0.1C39.3,33.2,39.2,33.1,39.1,33.1H39
		h-0.1l0,0l0,0l0,0l0,0l0,0l0,0c0,0,0,0,0,0.101l0,0l0,0c0,0.1,0,0.2,0,0.3c0,0.4,0.1,0.9,0.1,1.3c0.1,0.4,0.1,0.9,0.2,1.3
		c0.1,0.4,0.2,0.9,0.399,1.301C39.7,37.6,39.7,37.8,39.8,38.1c0,0.101,0.101,0.2,0.101,0.301c0,0.1,0,0.1,0,0.199c0,0,0,0,0,0.101
		l0,0l0,0c0,0,0,0.1-0.101,0.1l0,0l0,0l0,0h-0.1c0,0,0,0-0.101,0h-0.1c-0.1,0-0.1,0-0.2,0l0,0l0,0l0,0l0,0l0,0V38.9
		C39.2,39.1,39.2,39.3,39.1,39.6c0,0.101-0.1,0.2-0.1,0.301c0,0.1-0.1,0.1-0.1,0.199c0,0.101-0.101,0.101-0.2,0.2c0,0,0,0-0.101,0
		c0,0-0.1,0,0,0l0,0l0,0l0,0l0,0l0,0c-0.1,0-0.1-0.1-0.1-0.1C38.4,40.1,38.4,40.1,38.4,40c-0.101-0.1-0.101-0.2-0.2-0.3
		C38.1,39.5,38,39.3,37.9,39.1L37.8,39l0,0c0,0,0.101,0,0.2,0l0,0l0,0l0,0l0,0v0.1c0,0.101,0,0.101,0,0.2c0,0.2,0,0.4-0.1,0.7v0.1
		c0,0,0,0.101-0.101,0.2c0,0,0,0-0.1,0.101l0,0c0,0-0.101,0,0,0l0,0c0,0,0,0-0.101,0h-0.1c-0.1,0-0.1-0.101-0.2-0.101
		c-0.1-0.1-0.1-0.1-0.1-0.2C37.2,40,37.1,40,37.1,39.9V39.8v-0.1l0,0c0,0,0,0.1,0.2,0.1C37,40,37,39.9,37,40l0,0l0,0l0,0v0.1
		L36.9,40.4c0,0.199-0.101,0.5-0.2,0.699c0,0.101,0,0.101-0.101,0.2c0,0,0,0.101-0.1,0.101s0,0.1-0.1,0.1l0,0c0,0,0,0-0.101,0
		c0,0-0.1,0,0,0l0,0c0,0,0,0-0.1,0c-0.101,0-0.101,0-0.2-0.1c-0.1-0.101-0.1-0.101-0.2-0.2c-0.1-0.101-0.1-0.2-0.2-0.3l0,0l0,0H35.7
		l0,0l0,0l0,0l0,0l0,0c0,0.1-0.101,0.199-0.2,0.3c-0.1,0.1-0.1,0.2-0.2,0.3c0,0.1-0.1,0.1-0.1,0.2c0,0.1-0.101,0.1-0.2,0.2l0,0
		c0,0,0,0-0.1,0l0,0H34.8l0,0l0,0l0,0l0,0l0,0V41.8c0-0.1,0-0.2,0-0.2V41.4V41.3l0,0c0,0,0,0,0,0.101H34.9l0,0l0,0l0,0l0,0l0,0l0,0
		l0,0c0,0,0,0.1-0.101,0.1c-0.1,0.2-0.2,0.4-0.3,0.6c-0.1,0.101-0.1,0.2-0.2,0.301c0,0,0,0.1-0.1,0.1c0,0-0.101,0-0.101,0.1H34
		c0,0,0,0-0.1,0H33.8l0,0c-0.1-0.1-0.1-0.1-0.1-0.1v-0.1c0-0.2-0.101-0.5-0.101-0.7c0-0.5,0-0.9-0.1-1.3c0-0.101,0-0.101,0-0.2
		c0-0.101,0-0.101,0-0.101l0,0l0,0c0,0,0,0,0.1,0H33.7l0,0l0,0l0,0l0,0l0,0l0,0l0,0c0,0,0,0,0,0.101C33.6,40.4,33.6,40.6,33.5,40.8
		c-0.1,0.4-0.2,0.9-0.4,1.3c0,0.101-0.1,0.2-0.199,0.301c0,0.1-0.101,0.1-0.101,0.199L32.7,42.7L32.5,43l0,0c0,0,0,0-0.1,0.1
		c0,0,0,0.101-0.101,0.101c0,0,0,0-0.1,0H32.1l0,0H32l0,0l0,0c0,0,0,0-0.1-0.101l0,0c0,0,0,0,0-0.1L31.8,42.8l0,0c0,0,0,0,0.101,0
		H32l0,0l0,0l0,0l0,0l0,0c0,0,0,0.101-0.1,0.101c0,0,0,0.1-0.101,0.1c0,0-0.1,0.1-0.2,0.1c0,0,0,0-0.1,0c0,0,0,0-0.1,0l0,0l0,0l0,0
		l0,0c0,0,0,0-0.101-0.1v-0.1c0-0.101,0-0.101,0-0.2c0-0.2,0-0.5,0-0.7c0-0.1,0-0.1,0-0.2c0,0,0,0,0-0.1l0,0l0,0l0,0
		c0,0,0,0,0.101,0h0.1l0,0l0,0l0,0l0,0l0,0l0,0c0,0,0,0.1-0.1,0.1C31.3,42,31.3,42.2,31.2,42.4v0.1l0,0l0,0c0,0,0,0-0.101,0.1H31
		c0,0,0,0-0.1,0l0,0l0,0l0,0c0,0,0,0,0-0.1v-0.1c0-0.101-0.101-0.2-0.101-0.301c-0.1-0.399-0.2-0.899-0.3-1.3c0-0.1-0.1-0.2-0.1-0.3
		l0,0c0,0,0,0,0.1,0h0.1l0,0l0,0l0,0l0,0l0,0c0,0,0,0,0,0.1c0,0.2,0,0.4,0,0.7c0,0.2,0,0.5,0,0.7c0,0.1,0,0.2,0,0.4
		c0,0.1,0,0.1-0.1,0.199c0,0,0,0-0.1,0.101c0,0,0,0-0.101,0c0,0,0,0-0.1,0l0,0c-0.101,0,0,0,0,0l0,0L30.1,42.6
		C30,42.5,30,42.5,30,42.4c0-0.101,0-0.101-0.1-0.2c0-0.101-0.101-0.2-0.101-0.3l-0.1-0.7c0-0.101,0-0.2-0.101-0.3
		c0-0.101,0-0.101,0-0.101l0,0l0,0l0,0l0,0c0,0,0,0,0,0.101V41c0,0.1,0,0.2-0.1,0.3c-0.1,0.4-0.1,0.9-0.2,1.3c0,0.101,0,0.101,0,0.2
		V42.9V43c0,0,0,0-0.1,0c0,0,0,0-0.101,0l0,0l0,0l0,0c0,0,0-0.1-0.1-0.1c0-0.101-0.1-0.101-0.1-0.2C28.8,42.6,28.8,42.5,28.7,42.4
		L28.6,42.3c0,0,0,0,0-0.1l0,0l0,0l0,0l0,0l0,0l0,0v0.1c0,0.101,0,0.101,0,0.2c0,0,0,0.1-0.1,0.1l0,0l0,0l0,0c0,0,0,0-0.1,0
		c0-0.1-0.101-0.1-0.101-0.199c-0.1-0.2-0.2-0.4-0.2-0.601c0-0.1-0.1-0.2-0.1-0.3s-0.1-0.2-0.2-0.3h-0.1L27.6,41.3
		c0,0.101-0.1,0.2-0.1,0.3c-0.1,0.4-0.2,0.9-0.3,1.301l0,0c0.1-0.4,0.2-0.9,0.3-1.301c0-0.1,0.1-0.199,0.1-0.3
		c0-0.1,0-0.1,0.101-0.2c0,0,0,0,0.1,0H27.9C28,41.2,28,41.3,28.1,41.4c0,0.1,0.101,0.199,0.101,0.3c0.1,0.2,0.2,0.399,0.2,0.6
		c0,0.101,0,0.101,0.1,0.101h0.1c0-0.101,0-0.101,0-0.2V42.1V42l0,0l0,0l0,0c0,0,0,0,0.101,0.1l0.1,0.101
		c0.101,0.1,0.101,0.2,0.2,0.3l0.1,0.1c0,0,0,0,0.101,0.101l0,0l0,0l0,0l0,0c0-0.101,0.1-0.2,0.1-0.3C29.4,42,29.4,41.5,29.5,41.1
		c0-0.1,0-0.199,0.1-0.3c0-0.1,0-0.1,0-0.2c0-0.1,0-0.1,0.101-0.1h0.1c0,0,0,0,0,0.1c0,0.101,0,0.101,0.101,0.2
		c0,0.101,0.1,0.2,0.1,0.3l0.1,0.7c0,0.101,0,0.2,0.101,0.3c0,0.101,0.1,0.2,0.1,0.301l0,0l0,0l0,0l0,0c0,0,0-0.101,0-0.2
		c0-0.101,0-0.2,0-0.3c0-0.2,0-0.5,0-0.7s0-0.5,0-0.7c0-0.1,0-0.1,0.101-0.2l0,0l0,0l0,0V40.4c0,0.1,0.1,0.199,0.1,0.3
		c0.1,0.399,0.2,0.899,0.3,1.3c0,0.1,0,0.2,0.101,0.3V42.4v0.1l0,0v-0.1C31,42.2,31,42,31.1,41.8c0-0.1,0-0.1,0.101-0.2
		c0,0,0-0.1,0.1-0.1l0,0c0,0,0,0,0.101,0c0,0.1,0,0.1,0.1,0.2c0,0.1,0,0.1,0,0.2c0,0.199,0,0.5,0,0.699c0,0.101,0,0.101,0,0.2l0,0
		l0,0c0,0,0,0,0.1,0l0.101-0.1c0,0,0-0.101,0.1-0.2c0,0,0-0.1,0.101-0.1H32c0,0,0.1,0,0.1,0.1v0.1c0,0.101,0,0.101,0.101,0.2V42.9
		l0,0l0,0l0,0l0.1-0.101l0.101-0.1l0.199-0.3C32.7,42.3,32.7,42.2,32.8,42.1C32.9,42,32.9,41.9,32.9,41.8
		C33.1,41.4,33.2,40.9,33.3,40.5c0.101-0.2,0.101-0.4,0.2-0.7c0-0.1,0-0.1,0.1-0.2c0,0,0-0.1,0.101-0.1l0,0l0,0l0,0
		c0,0.1,0,0.2,0.1,0.3c0,0.5,0.101,0.9,0.101,1.4c0,0.2,0,0.5,0.1,0.7c0,0.1,0,0.1,0,0.199l0,0l0,0l0,0l0,0c0,0,0,0,0.1-0.1
		c0.101-0.1,0.101-0.2,0.2-0.3c0.101-0.2,0.2-0.4,0.3-0.601C34.6,41,34.7,41,34.7,40.9l0,0l0,0l0,0l0,0c0,0,0,0,0.1,0l0,0
		c0,0.1,0,0.199,0,0.3c0,0.1,0,0.1,0,0.2c0,0,0,0,0,0.1l0,0l0,0l0,0c0.101,0,0.2-0.1,0.2-0.2c0.1-0.2,0.2-0.399,0.4-0.6
		c0,0,0,0,0.1-0.101h0.1C35.7,40.6,35.7,40.7,35.7,40.7c0.1,0.1,0.1,0.2,0.2,0.3l0.1,0.1h0.1C36.2,41,36.2,40.9,36.2,40.8
		c0.1-0.2,0.1-0.399,0.2-0.7l0.1-0.3v-0.1l0,0l0,0l0,0l0,0c0,0.1,0,0.1,0.1,0.2c0,0.1,0.101,0.199,0.2,0.3c0,0,0.101,0.1,0.101,0
		c0,0,0-0.101,0.1-0.101c0-0.199,0.1-0.399,0.1-0.699c0-0.101,0-0.2,0.101-0.301l0,0l0,0h0.1l0,0L37.4,39.2
		c0.1,0.2,0.199,0.399,0.3,0.6c0.1,0.101,0.1,0.2,0.2,0.3L38,40.2l0.1,0.1c0.101,0,0.2-0.1,0.2-0.2c0-0.1,0.101-0.199,0.101-0.3
		c0.1-0.2,0.1-0.399,0.199-0.6c0-0.101,0-0.101,0-0.2s0.101-0.1,0.2-0.1c0.101,0,0.2,0,0.3,0l0,0V38.8c0-0.1,0-0.1,0-0.2
		c0-0.1-0.1-0.199-0.1-0.3c-0.1-0.2-0.1-0.399-0.2-0.7C38.7,37.2,38.5,36.7,38.4,36.3C38.3,35.9,38.2,35.4,38.2,35
		C38.1,34.6,38.1,34.1,38.1,33.6c0-0.1,0-0.199,0-0.3v-0.1V33.1l0,0l0,0l0,0l0,0c0.101,0,0.2,0,0.301,0c0.1,0,0.199,0.101,0.3,0.101
		c0.1,0,0.2,0.1,0.3,0.1s0.2-0.1,0.2-0.2c0.1-0.199,0.2-0.399,0.2-0.6l0,0l0,0c0.3,0.1,0.6,0.2,0.899,0.4C40.4,33,40.6,33,40.7,33.1
		c0.1,0,0.1,0,0.2,0.101c0.1,0,0.199,0,0.199,0l0,0l0,0l0,0V33.1c0-0.1,0-0.1-0.1-0.199c-0.1-0.101-0.2-0.301-0.2-0.4
		s-0.1-0.1-0.1-0.2L40.6,32.1C40.5,32,40.5,31.8,40.4,31.7l0,0l0,0C40.6,31.8,40.9,32,41.1,32.1c0.101,0,0.301,0.101,0.4,0.101
		s0.1,0,0.2-0.101c0,0,0,0,0-0.1c0,0,0,0-0.101-0.1C41.4,31.8,41.1,31.6,40.9,31.5c-0.2-0.2-0.4-0.4-0.5-0.6
		c0-0.101-0.101-0.101-0.101-0.2V30.6c0,0,0,0,0.101,0c0,0,0,0,0.1,0s0.3,0.101,0.4,0.101c0.3,0.1,0.5,0.2,0.8,0.3
		c0.1,0,0.1,0,0.2,0.1H42l0,0l0,0l0,0c-0.1-0.1-0.2-0.199-0.2-0.3c-0.2-0.2-0.399-0.399-0.5-0.6c0,0,0-0.101-0.1-0.101
		c0,0,0,0,0-0.1l0,0c0.1,0,0.1,0,0.2,0l0.399,0.1c0.101,0,0.101,0,0.2,0s0.1,0,0.2,0l0,0l0,0l0,0V30c0-0.1-0.101-0.1-0.101-0.2
		c-0.199-0.2-0.3-0.399-0.5-0.6C41.4,29,41.3,28.8,41.1,28.6C41,27.2,40.3,26.4,39.6,25.5L39.6,25.5z"/>
	<path fill="#FFFFFF" d="M26.7,10.2c0,0-0.1,0-0.3,0c-0.2,0-0.5,0.1-0.9,0.2c-0.2,0-0.4,0.1-0.7,0.1c-0.2,0.1-0.5,0.1-0.8,0.2
		c-0.1,0-0.3,0.1-0.4,0.1s-0.3,0.1-0.4,0.1c-0.2,0-0.3,0.1-0.5,0.1c-0.2,0.1-0.3,0.1-0.5,0.2c-0.7,0.2-1.3,0.5-2.1,0.8
		c-0.4,0.2-0.7,0.4-1.1,0.6c-0.1,0-0.2,0.1-0.3,0.2c-0.1,0.1-0.2,0.1-0.3,0.2s-0.2,0.1-0.2,0.2l-0.1,0.1l0,0l0,0l0,0L18,13.4
		c-0.3,0.3-0.7,0.6-1,0.9c-0.1,0.1-0.2,0.2-0.2,0.2c-0.1,0.1-0.2,0.2-0.2,0.2c-0.2,0.2-0.3,0.3-0.4,0.5c-0.3,0.3-0.5,0.7-0.7,1
		c-0.1,0.2-0.2,0.4-0.2,0.5l-0.1,0.7c-0.1,0.5-0.2,1-0.4,1.4L14.7,19l0,0l0,0l0,0l0,0v0.1v0.1v0.1l-0.1,0.2
		c-0.1,0.2-0.2,0.4-0.3,0.6c0,0.1-0.1,0.2-0.1,0.3s-0.1,0.2-0.1,0.3c0,0.1,0,0.2-0.1,0.3c0,0.1,0,0.2,0,0.3c0,0.1,0,0.2,0,0.3
		s0,0.2,0,0.3c0,0.2,0,0.4,0,0.6c0,0.8,0.1,1.6,0.4,2.3c0.3,0.7,0.7,1.3,1.2,1.8c0.1,0.101,0.1,0.101,0.2,0.2l0.1,0.101L16,27
		c0.1,0.1,0.2,0.2,0.3,0.3c0.2,0.2,0.5,0.4,0.7,0.601c0.4,0.399,0.8,0.699,1.1,1c0.3,0.3,0.5,0.5,0.7,0.6c0.1,0.1,0.1,0.1,0.2,0.2
		l0,0l0,0l0,0l0,0l0,0l0,0l0,0l0,0l0,0l0,0l0,0l0,0l0,0l0,0l0,0l0,0l0,0c0,0-0.1-0.101-0.2-0.2c-0.2-0.1-0.4-0.3-0.7-0.6
		C17.8,28.6,17.4,28.3,17,28c-0.2-0.2-0.5-0.4-0.7-0.6c-0.1-0.101-0.2-0.2-0.4-0.301L15.8,27l-0.1-0.1c-0.1-0.101-0.1-0.101-0.2-0.2
		c-0.5-0.5-1-1.101-1.3-1.8c-0.4-0.7-0.5-1.6-0.5-2.5c0-0.4,0-0.9,0.1-1.3c0-0.5,0.1-0.9,0.3-1.3c0.1-0.2,0.2-0.4,0.3-0.6
		c0.1-0.1,0.1-0.2,0.2-0.3c0-0.1,0.1-0.1,0.1-0.2l0.1-0.2c0.2-0.4,0.3-0.9,0.4-1.3l0.1-0.7c0-0.2,0.1-0.5,0.2-0.7
		c0.2-0.4,0.5-0.8,0.8-1.1c0.6-0.7,1.3-1.3,2-1.8c0.2-0.1,0.4-0.3,0.5-0.4c0.2-0.1,0.4-0.2,0.5-0.3c0.4-0.2,0.7-0.4,1.1-0.6
		c0.7-0.3,1.4-0.6,2.1-0.8c0.7-0.2,1.3-0.4,1.8-0.5c0.3-0.1,0.5-0.1,0.8-0.2c0.2,0,0.5-0.1,0.7-0.1c0.4-0.1,0.7-0.1,0.9-0.1
		C26.6,10.1,26.7,10.1,26.7,10.2L26.7,10.2z"/>
	<path fill="#FFFFFF" d="M19.8,16.3c0.6,0,1,0.5,1,1.2v0.1c0-0.2,0-0.3,0-0.3c-0.2-0.3-0.9-0.6-1.1-0.4c-0.3,0.2-0.3,0.6,0,1
		c0.3,0.4,0.6,0.5,0.8,0.5c0,0,0,0,0.1,0c-0.2,0.2-0.4,0.3-0.7,0.3c-0.6,0-1-0.5-1-1.1C18.7,16.9,19.2,16.3,19.8,16.3z"/>
	<path fill="#FFFFFF" d="M20.1,18.6c0,0-0.1,0-0.6,0s-0.7,0-0.7,0"/>
	<path fill="#FFFFFF" d="M30.6,20.8c0-0.6-0.399-0.9-0.699-1.3c-0.4-0.4-0.301-0.6-1.101-1.8c-0.8-1.2-2-1.1-2-1.1s-1.1-0.1-2,1.1
		c-0.9,1.2-0.8,1.4-1.1,1.8c-0.4,0.4-0.7,0.7-0.7,1.3c0,0.6,0,1,0.4,1.5c0.5,0.5,1.4,0.6,1.7,1c0.3,0.4,0.4,1.4,0.7,1.7
		c0.3,0.2,1.1,0.2,1.1,0.2s0.7,0,1.1-0.2c0.3-0.2,0.5-1.3,0.7-1.7c0.2-0.4,1.2-0.6,1.7-1C30.9,21.9,30.6,21.3,30.6,20.8z"/>
	<path fill="#FFFFFF" d="M30,25.9c0,0-1.5-0.2-1.8-0.2s-1.4,0.2-1.4,0.2s-1.1-0.2-1.4-0.2c-0.3,0-1.8,0.2-1.8,0.2s0.6,0.1,0.6,0.199
		c0,0.2-0.1,0.4,0.2,0.601c0.3,0.2,2.5,0.399,2.5,0.399s2.1-0.3,2.5-0.399c0.3-0.2,0.199-0.4,0.199-0.601C29.5,25.9,30,25.9,30,25.9
		z"/>
	<path fill="#FFFFFF" d="M18.9,19L18.9,19c0,0.1-0.1,0.1-0.1,0.2c0,0.1-0.1,0.1-0.1,0.2s-0.1,0.2-0.2,0.3c-0.1,0.1-0.1,0.2-0.2,0.3
		c-0.1,0.1-0.1,0.2-0.2,0.3c0,0.1-0.1,0.1-0.1,0.2l0,0l0,0v0.1v0.1l0,0l0,0l0,0l0,0l0,0l0,0v0.1L17.9,21c-0.1,0.1-0.1,0.3-0.2,0.4
		c0,0.1-0.1,0.3-0.2,0.4c-0.1,0.1-0.1,0.2-0.2,0.3c-0.1,0.1-0.1,0.2-0.2,0.3s-0.1,0.2-0.2,0.3c0,0.1-0.1,0.1-0.1,0.2
		S16.7,23,16.7,23l0,0l0,0c0,0,0.1-0.3,0.2-0.7c0.1-0.2,0.1-0.5,0.2-0.7c0-0.1,0.1-0.3,0.1-0.4c0-0.1,0.1-0.3,0.2-0.4
		c0.1-0.1,0.1-0.3,0.2-0.4s0.2-0.2,0.2-0.4c0.1-0.1,0.2-0.2,0.3-0.3c0.1-0.1,0.2-0.2,0.2-0.3c0.2-0.2,0.3-0.3,0.4-0.4
		C18.8,19,18.9,19,18.9,19L18.9,19z"/>
	<path fill="#FFFFFF" d="M15,21.5L15,21.5c0.1,0.1,0.1,0.2,0.2,0.3c0.1,0.1,0.2,0.2,0.2,0.3s0.1,0.1,0.2,0.2l0.1,0.1l0.1,0.1
		c0.1,0.2,0.3,0.3,0.4,0.5c0.1,0.1,0.1,0.2,0.2,0.3c0.1,0.1,0.2,0.2,0.2,0.3c0.1,0.1,0.1,0.2,0.2,0.3c0.1,0.1,0.2,0.2,0.2,0.3
		c0.2,0.2,0.3,0.4,0.5,0.7c0.2,0.2,0.3,0.4,0.5,0.6c0.1,0.2,0.3,0.4,0.4,0.6c0.1,0.101,0.1,0.2,0.2,0.301c0.1,0.1,0.1,0.199,0.2,0.3
		c0.1,0.1,0.2,0.2,0.2,0.2l0.1,0.1l0,0l0,0l0,0l0,0l0,0l0.1,0.1c0.1,0.101,0.3,0.301,0.4,0.4s0.2,0.2,0.3,0.3C20,27.9,20,28,20.1,28
		c0,0.1,0.1,0.1,0.1,0.1V28.2c0,0,0,0-0.1-0.101C20,28.1,20,28,19.9,27.9C19.7,27.8,19.4,27.6,19.1,27.3c-0.1-0.1-0.2-0.1-0.3-0.2
		C18.7,27,18.6,27,18.5,26.9c-0.1-0.101-0.2-0.2-0.3-0.2c-0.1-0.101-0.2-0.2-0.3-0.3c-0.2-0.2-0.3-0.4-0.5-0.601
		c-0.2-0.2-0.3-0.4-0.5-0.7c-0.2-0.2-0.3-0.4-0.5-0.7c-0.2-0.2-0.3-0.4-0.4-0.6c-0.1-0.1-0.1-0.2-0.2-0.3c-0.1-0.1-0.1-0.2-0.2-0.3
		c-0.1-0.2-0.2-0.4-0.3-0.6c-0.1-0.2-0.2-0.4-0.2-0.5c-0.1-0.2-0.1-0.3-0.2-0.4c0-0.1-0.1-0.2-0.1-0.3C14.9,21.5,14.9,21.5,15,21.5
		L15,21.5z"/>
	<path fill="#FFFFFF" d="M25.1,24.8L25.1,24.8c0-0.1-0.1-0.1-0.1-0.1c-0.1-0.1-0.1-0.2-0.2-0.4c0-0.1-0.1-0.2-0.2-0.2
		c-0.1-0.1-0.1-0.2-0.2-0.2c-0.1-0.1-0.1-0.1-0.2-0.2c-0.1,0-0.2-0.1-0.3-0.1s-0.2-0.1-0.3-0.1s-0.2-0.1-0.3-0.1
		c-0.1,0-0.2-0.1-0.3-0.2c0,0-0.1,0-0.1-0.1l0,0l0,0l0,0l0,0l0,0l0,0l0,0l0,0l0,0c0,0,0,0,0-0.1s-0.1-0.2-0.1-0.3c0-0.1,0-0.1,0-0.2
		s0-0.1,0-0.1l0,0l0,0c0,0,0,0.1,0.1,0.2c0,0.1,0,0.1,0.1,0.2c0,0.1,0.1,0.1,0.1,0.2c0,0,0,0.1,0.1,0.1c0,0,0,0,0.1,0c0,0,0,0,0.1,0
		s0.2,0.1,0.3,0.1c0.2,0.1,0.4,0.2,0.7,0.2c0.1,0,0.2,0.1,0.3,0.2c0.1,0.1,0.2,0.2,0.3,0.3s0.1,0.2,0.2,0.3c0,0.1,0.1,0.2,0.1,0.3
		C25.1,24.6,25.1,24.8,25.1,24.8L25.1,24.8z"/>
	<path fill="#FFFFFF" d="M14.1,25.6C13.4,26.4,12.7,27.2,12,28.1c-0.2,0.2-0.3,0.4-0.5,0.601S11.2,29.1,11,29.3
		c0,0.101-0.1,0.101-0.1,0.2v0.1l0,0l0,0l0,0l0,0l0,0l0,0l0,0c0,0,0.1,0,0.2,0s0.1,0,0.2,0l0.4-0.1h0.1h0.1c0,0,0,0,0.1,0
		c0,0,0,0,0.1,0.1l0,0l0,0l0,0l0,0l0,0l0,0c0,0.101,0,0.101-0.1,0.101c-0.2,0.2-0.4,0.399-0.5,0.6L11.4,30.4l-0.1,0.1l0,0l0,0l0,0
		l0,0l0,0l0,0l0,0l0,0l0,0l0,0l0,0l0,0c0.1,0,0.1,0,0.2-0.1c0.2-0.101,0.5-0.2,0.8-0.301c0.1,0,0.3-0.1,0.4-0.1c0,0,0,0,0.1,0l0,0
		l0,0l0,0c0,0,0,0,0.1,0.1l0,0l0,0l0,0l0,0l0,0l0,0V30.2c0,0.1-0.1,0.1-0.1,0.2C12.6,30.6,12.4,30.8,12.2,31c-0.1,0-0.1,0.1-0.2,0.1
		S11.9,31.2,11.8,31.2c-0.1,0.1-0.2,0.1-0.3,0.2c0,0,0,0-0.1,0l0,0l0,0l0,0c0,0,0,0,0-0.101l0,0l0,0h0.1c0.1,0,0.2,0,0.3-0.1
		L12,31.1c0.1,0,0.1-0.1,0.2-0.1c0.1-0.1,0.2-0.1,0.3-0.2l0.4-0.2L12.7,31c-0.1,0.1-0.1,0.3-0.2,0.4L12.3,32c0,0.1-0.1,0.1-0.1,0.2
		c0,0.1-0.1,0.1-0.1,0.2c0,0.1-0.1,0.1-0.1,0.199c0,0.101,0,0.101,0,0.2l0,0l0,0l0,0l0,0l0,0l0,0l0,0l0,0l0,0l0,0l0,0l0,0l0,0l0,0
		h0.1c0.1,0,0.1,0,0.2-0.1c0.1,0,0.3-0.101,0.4-0.2c0.3-0.1,0.6-0.2,0.9-0.4l0.2-0.1v0.2c0,0.2,0.1,0.399,0.2,0.6l0,0l0,0l0,0l0,0
		l0,0l0,0l0,0l0,0l0,0c0.1,0,0.2,0,0.3-0.1c0.1,0,0.2-0.101,0.3-0.101s0.1,0,0.2,0h0.1c0,0,0,0,0.1,0h0.1h0.1c0,0,0,0,0.1,0.101l0,0
		l0,0l0,0l0,0v0.2c0,0.1,0,0.199,0,0.399c0,0.5,0,0.9-0.1,1.4C15.1,35.2,15.1,35.6,15,36.1S14.8,37,14.6,37.4
		C14.5,37.6,14.5,37.8,14.4,38c0,0.1-0.1,0.2-0.1,0.3V38.4l0,0l0,0l0,0c0,0,0,0,0-0.101l0,0l0,0l0,0l0,0l0,0c0,0,0,0,0.1,0
		c0,0,0.1,0,0.2,0c0,0,0,0,0.1,0h0.1c0,0,0.1,0,0.1,0.101c0,0,0,0.1,0.1,0.1v0.1l0,0V38.7c0.1,0.2,0.1,0.399,0.2,0.6
		c0,0.101,0.1,0.2,0.1,0.3c0,0,0,0.101,0.1,0.101c0,0,0.1,0,0,0l0,0c0,0-0.1,0,0,0l0,0l0,0l0,0l0,0l0,0l0,0l0.1-0.101
		c0.1-0.1,0.1-0.199,0.2-0.3c0.1-0.2,0.2-0.399,0.3-0.6c0-0.101,0.1-0.101,0.1-0.2c0,0,0,0,0.1-0.1c0,0,0.2-0.101,0.3,0l0,0l0,0v0.1
		v0.1c0,0.101,0,0.101,0,0.2c0,0.101,0,0.101,0,0.2c0,0.2,0,0.5,0.1,0.6c0,0,0,0,0,0.101l0,0l0,0l0,0l0,0l0,0l0,0l0,0l0,0
		c0,0,0-0.101,0.1-0.101c0,0,0-0.1,0.1-0.1v-0.1V39.3c0,0,0,0,0-0.1c0,0,0-0.101,0.3-0.101c0.1,0.101,0.1,0.2,0.1,0.101l0,0l0,0l0,0
		v0.1l0.1,0.3c0,0.2,0.1,0.4,0.2,0.601c0,0,0,0.1,0.1,0.1V40.4l0,0l0,0l0,0l0,0l0,0l0,0c0,0,0,0,0.1-0.101c0.1-0.1,0.1-0.2,0.2-0.3
		c0,0,0-0.1,0.1-0.1c0,0,0.1-0.101,0.2-0.101c0.1,0,0.1,0,0.2,0l0.1,0.101l0,0l0,0l0,0l0,0c0.1,0.1,0.1,0.199,0.2,0.3
		c0.1,0.1,0.1,0.2,0.2,0.3l0.1,0.1l0.1,0.101l0,0l0,0l0,0l0,0l0,0l0,0l0,0l0,0l0,0l0,0V40.6V40.4V40.3v-0.1c0,0,0-0.101,0.1-0.101
		h0.1c0,0,0,0,0.1,0l0,0l0,0c0,0,0.1,0,0,0l0,0l0,0l0,0c0.1,0.101,0.1,0.101,0.1,0.2c0.1,0.2,0.2,0.4,0.3,0.601
		c0,0.1,0.1,0.199,0.1,0.3l0,0l0,0c0,0-0.1,0,0,0l0,0h-0.1l0,0l0,0c0,0,0,0,0-0.101c0-0.199,0.1-0.399,0.1-0.699
		c0-0.4,0-0.9,0.1-1.4c0-0.1,0-0.1,0-0.2c0-0.1,0-0.1,0-0.2c0,0,0,0,0-0.1c0,0,0,0,0.1-0.1h0.1h0.1c0,0,0,0,0.1,0l0,0l0,0l0,0l0,0
		c0,0,0.1,0.1,0.1,0.199c0.1,0.2,0.1,0.4,0.2,0.7c0.1,0.4,0.2,0.9,0.4,1.3c0,0.101,0.1,0.2,0.1,0.301c0,0,0,0.1,0.1,0.1l0.1,0.1
		l0.2,0.301l0.1,0.1c0,0,0,0,0,0.1l0,0l0,0l0,0l0,0c0,0-0.1,0,0,0l0,0l0,0l0,0l0,0l0,0c0,0,0-0.1,0.1-0.199c0,0,0-0.101,0.1-0.101
		l0,0l0,0c0,0,0,0,0.1,0h0.1c0.1,0,0.1,0,0.1,0l0,0l0,0l0,0c0,0,0,0,0,0.101c0,0,0,0,0,0.1s0.1,0.1,0.1,0.2l0,0l0,0l0,0l0,0l0,0l0,0
		l0,0l0,0l0,0l0,0V41.6c0-0.199,0-0.399,0-0.699c0-0.101,0-0.101,0-0.2V40.6c0,0,0,0,0-0.1l0,0c0,0,0,0,0-0.1c0,0,0.1,0,0.1-0.101
		c0.1,0,0.1,0,0.1,0l0,0l0,0l0,0l0,0l0,0l0,0c0,0.101,0.1,0.101,0.1,0.2c0.1,0.2,0.1,0.5,0.2,0.7c0,0,0,0,0,0.1l0,0l0,0l0,0h-0.1
		c0,0,0,0-0.1,0l0,0l0,0l0,0l0,0c0,0,0,0,0-0.1c0-0.101,0.1-0.2,0.1-0.3c0.1-0.4,0.2-0.9,0.3-1.301c0-0.1,0.1-0.199,0.1-0.3
		c0,0,0-0.1,0.1-0.1l0,0l0,0c0,0,0,0,0.1,0c0.1,0,0.1,0,0.1,0l0,0l0,0c0,0,0,0,0,0.1l0,0c0,0,0,0,0,0.101v0.1c0,0.2,0,0.5,0,0.7
		s0,0.5,0,0.7c0,0.1,0,0.199,0,0.3v0.1l0,0l0,0l0,0l0,0c-0.1,0,0,0,0,0l0,0l0,0c0,0,0-0.1,0.1-0.1c0,0,0-0.101,0-0.2
		s0.1-0.2,0.1-0.3l0.1-0.7c0-0.1,0-0.2,0.1-0.3c0-0.101,0-0.101,0.1-0.2c0,0,0-0.1,0.1-0.1l0,0c0,0,0,0,0.1,0c0,0,0,0,0.1,0
		c0,0,0,0,0.1,0l0,0l0,0l0,0l0,0c0,0,0,0,0,0.1v0.1c0,0.101,0,0.101,0.1,0.2c0,0.101,0,0.2,0.1,0.3c0.1,0.5,0.1,0.9,0.1,1.4
		c0,0.1,0,0.1,0,0.2v0.1V41.9l0,0l0,0l0,0l0,0l0,0c0,0,0,0,0-0.101l0.1-0.1c0.1-0.101,0.1-0.2,0.2-0.3c0,0,0.1-0.101,0.1-0.2
		c0,0,0-0.101,0.1-0.101c0,0,0,0,0.1,0l0,0l0,0l0,0c0,0,0,0.101,0.1,0.101c0,0,0,0,0,0.1V41.4c0,0.1,0,0.1,0,0.199l0,0l0,0l0,0
		l0.1-0.1c0.1-0.2,0.2-0.4,0.3-0.6c0-0.101,0.1-0.2,0.1-0.301c0.1-0.1,0.1-0.199,0.2-0.3h0.1l0,0l0,0l0,0l0,0
		c0,0.101,0.1,0.101,0.1,0.2s0.1,0.2,0.1,0.3c0.1,0.4,0.2,0.9,0.3,1.3l0,0c-0.1-0.399-0.2-0.899-0.3-1.3c0-0.1-0.1-0.2-0.1-0.3
		s0-0.1-0.1-0.1c0,0,0,0-0.1,0c0,0,0,0-0.1,0c-0.1,0.1-0.1,0.199-0.2,0.3c0,0.1-0.1,0.2-0.1,0.3c-0.1,0.2-0.2,0.4-0.2,0.6
		c0,0.101,0,0.101-0.1,0.2l0,0c0,0,0,0-0.1,0c0,0-0.1,0-0.1-0.1c0-0.101,0-0.101,0-0.2v-0.1V41.3l0,0l0,0l0,0c0,0,0,0,0,0.101
		L25,41.5c-0.1,0.1-0.1,0.2-0.2,0.3c0,0.101-0.1,0.101-0.1,0.101s0,0-0.1,0.1l0,0l0,0l0,0l0,0c0-0.1,0-0.1-0.1-0.2
		c0-0.1,0-0.1,0-0.2c-0.1-0.5-0.1-0.899-0.2-1.399c0-0.101,0-0.2-0.1-0.3c0-0.101,0-0.101,0-0.2c0-0.101,0-0.101-0.1-0.101
		c0,0-0.1,0-0.1,0.101c0,0.1,0,0.1-0.1,0.2c0,0.1-0.1,0.199-0.1,0.3l0.2,1.7c0,0.1,0,0.199-0.1,0.3c0,0.1-0.1,0.2-0.1,0.3l0,0l0,0
		l0,0l0,0c0,0-0.1,0-0.1-0.1c0-0.101,0-0.101-0.1-0.2c0-0.101,0-0.2,0-0.3c0-0.2,0-0.5,0-0.7s0-0.5,0-0.7c0-0.1,0-0.1,0-0.2l0,0l0,0
		l0,0c0,0,0,0,0,0.101c0,0.1-0.1,0.199-0.1,0.3C23.4,41.1,23.3,41.6,23.2,42c0,0.1,0,0.2-0.1,0.3V42.4l0,0l0,0c0,0,0,0-0.1,0l0,0
		V42.3c-0.1-0.2-0.1-0.399-0.2-0.7c0-0.1,0-0.1-0.1-0.1c0,0,0,0,0-0.1l0,0v0.1c0,0.1,0,0.1,0,0.2c0,0.2,0,0.5,0,0.7
		c0,0.1,0,0.1,0,0.199l0,0l0,0h-0.1C22,43,22,42.9,22,42.9c0-0.101,0-0.101-0.1-0.2L21.8,42.6L21.7,42.7c0,0,0,0.1-0.1,0.2
		c0,0,0,0.1-0.1,0.1l0,0l0,0c0,0,0,0-0.1,0s-0.1-0.1-0.1-0.1L21.2,42.8L21,42.5c-0.1-0.1-0.1-0.2-0.2-0.3
		c-0.1-0.101-0.1-0.2-0.1-0.3c-0.2-0.4-0.3-0.9-0.4-1.301C20.2,40.4,20.2,40.2,20.1,40c0-0.1,0-0.1-0.1-0.2v-0.1l0,0
		c0,0.1,0,0.2-0.1,0.3c0,0.5-0.1,0.9-0.1,1.4c0,0.199,0,0.5-0.1,0.699c0,0.101,0,0.101-0.1,0.2l0,0l0,0l0,0l0,0c0,0,0,0-0.1-0.1
		c-0.1-0.101-0.1-0.2-0.2-0.3c-0.1-0.2-0.2-0.4-0.3-0.601l-0.1-0.1l0,0l0,0l0,0l0,0l0,0c0,0.1,0,0.2,0,0.3s0,0.1,0,0.2
		c0,0,0,0.1-0.1,0.1l0,0l0,0l0,0c-0.1,0-0.1-0.1-0.1-0.1L18.6,41.6C18.5,41.4,18.4,41.2,18.2,41l-0.1-0.1L18,41
		c-0.1,0.1-0.1,0.2-0.2,0.3L17.7,41.4c0,0-0.1,0.1-0.2,0c-0.1-0.101-0.1-0.2-0.2-0.301C17.2,40.9,17.2,40.7,17.1,40.4L17,40v-0.1
		l0,0l0,0l0,0l0,0c0,0,0,0.1-0.1,0.199c0,0.101-0.1,0.2-0.2,0.301c0,0,0,0-0.1,0.1c0,0,0,0-0.1,0l0,0c0-0.1-0.1-0.1-0.1-0.2
		c0-0.2-0.1-0.5-0.1-0.7c0-0.1,0-0.199-0.1-0.3l0,0l0,0l0,0L16.1,39.4C16,39.6,15.9,39.8,15.8,40c-0.1,0.1-0.1,0.2-0.2,0.3
		L15.5,40.4c0,0,0,0-0.1,0.1h-0.1c-0.1,0-0.1-0.1-0.1-0.1L15.1,40.3C15,40.2,15,40.1,15,40c-0.1-0.2-0.1-0.4-0.2-0.7
		c0-0.1,0-0.1,0-0.2L14.7,39c-0.1,0-0.2,0-0.3,0l0,0l0,0v-0.1c0-0.101,0-0.101,0-0.2c0-0.101,0.1-0.2,0.1-0.3
		c0.1-0.2,0.1-0.4,0.2-0.7c0.1-0.4,0.3-0.9,0.4-1.3c0.1-0.4,0.2-0.9,0.2-1.301c0.1-0.399,0.1-0.899,0.1-1.399c0-0.101,0-0.2,0-0.3
		c0-0.101,0-0.2-0.1-0.301c-0.1,0-0.2,0-0.3,0S14.8,33.2,14.7,33.2c-0.1,0-0.2,0.1-0.3,0.1h-0.1h-0.1l-0.1-0.1
		C14,33,13.9,32.8,13.9,32.6l0,0C13.6,32.7,13.3,32.8,13,33c-0.1,0.1-0.3,0.1-0.4,0.2c-0.1,0-0.2,0-0.2,0.1c-0.1,0-0.2,0-0.2,0
		c-0.1,0-0.1-0.1-0.1-0.2c0-0.1,0-0.199,0.1-0.199c0.1-0.101,0.2-0.301,0.2-0.4s0.1-0.1,0.1-0.2l0.1-0.2c0.1-0.1,0.1-0.3,0.2-0.399
		l0,0c-0.2,0.1-0.5,0.3-0.7,0.399c-0.1,0-0.3,0.101-0.4,0.101c-0.1,0-0.1,0-0.2-0.101c0,0,0,0,0-0.1c0,0,0,0,0-0.1
		c0,0,0.1,0,0.1-0.101c0.2-0.1,0.5-0.3,0.7-0.399c0.2-0.2,0.4-0.4,0.5-0.601c0-0.1,0.1-0.1,0.1-0.2v-0.1h-0.1
		c-0.1,0-0.3,0.1-0.4,0.1c-0.3,0.101-0.5,0.2-0.8,0.301c-0.1,0-0.1,0-0.2,0.1h-0.1l0,0l0,0c0,0,0,0,0-0.1
		c0.1-0.101,0.2-0.2,0.2-0.301C11.7,30.4,11.9,30.2,12,30c0,0,0-0.1,0.1-0.1V29.8c-0.1,0-0.1,0-0.2,0L11.5,29.9c-0.1,0-0.1,0-0.2,0
		c-0.1,0-0.1,0-0.2,0l0,0c0,0,0,0,0-0.101v-0.1c0-0.101,0.1-0.101,0.1-0.2c0.2-0.2,0.3-0.4,0.5-0.6c0.2-0.2,0.3-0.4,0.5-0.601
		C12.7,27.2,13.4,26.3,14.1,25.6L14.1,25.6z"/>
</g>
</svg>
