<?xml version="1.0" standalone="no"?>
<!DOCTYPE svg PUBLIC "-//W3C//DTD SVG 1.1//EN" "http://www.w3.org/Graphics/SVG/1.1/DTD/svg11.dtd" >
<svg xmlns="http://www.w3.org/2000/svg" xmlns:xlink="http://www.w3.org/1999/xlink" version="1.1">
<metadata></metadata>
<defs>
<font id="tt_chocolatesbold_italic" horiz-adv-x="1095" >
<font-face units-per-em="2048" ascent="1638" descent="-410" />
<missing-glyph horiz-adv-x="409" />
<glyph horiz-adv-x="0" />
<glyph horiz-adv-x="682" />
<glyph horiz-adv-x="0" />
<glyph horiz-adv-x="0" />
<glyph unicode="&#xd;" horiz-adv-x="0" />
<glyph unicode=" "  horiz-adv-x="409" />
<glyph unicode="&#x09;" horiz-adv-x="409" />
<glyph unicode="&#xa0;" horiz-adv-x="409" />
<glyph unicode="!" horiz-adv-x="552" d="M57 113q7 54 52.5 93.5t99.5 39.5t88 -39.5t27 -93.5t-52.5 -93.5t-99.5 -39.5t-88 39.5t-27 93.5zM135 451l92 942h287l-174 -942h-205z" />
<glyph unicode="&#x22;" horiz-adv-x="727" d="M154 942l22 451h225l-104 -451h-143zM492 942l22 451h225l-104 -451h-143z" />
<glyph unicode="#" horiz-adv-x="1320" d="M-33 348l103 225h194l117 246h-195l105 225h194l162 349h246l-162 -349h174l162 349h246l-162 -349h195l-105 -225h-194l-117 -246h194l-102 -225h-195l-161 -348h-246l162 348h-174l-162 -348h-246l162 348h-195zM510 573h174l117 246h-174z" />
<glyph unicode="$" horiz-adv-x="1116" d="M-16 246l202 133l10.5 -21t31.5 -46.5t54 -59.5t76 -47t99 -21q113 0 194.5 71t81.5 161q0 44 -30.5 80t-78.5 64t-107 55.5t-117.5 61.5t-106.5 75.5t-78.5 104.5t-30.5 140q0 144 107.5 258t255.5 158l33 225h245l-30 -215q58 -14 108.5 -42.5t81.5 -59t53.5 -59 t31.5 -46.5l9 -18l-202 -133q-3 6 -9.5 15.5t-27 34t-43 43.5t-57 34.5t-68.5 15.5q-98 0 -165 -59.5t-67 -140.5q0 -44 30.5 -80t78.5 -64t106.5 -56t117.5 -62t107 -75.5t78.5 -104.5t30.5 -140q0 -158 -110.5 -276t-286.5 -173l-33 -223h-246l31 213q-76 12 -140.5 45 t-103.5 72t-66.5 76t-38.5 62z" />
<glyph unicode="%" horiz-adv-x="1464" d="M92 1079q0 143 111 249t254 106q119 0 197.5 -81.5t78.5 -199.5q0 -143 -110.5 -248.5t-253.5 -105.5q-119 0 -198 81t-79 199zM123 0l952 1393h256l-952 -1393h-256zM299 1096q0 -51 26.5 -82t67.5 -31q54 0 93.5 43.5t39.5 110.5q0 51 -26.5 81.5t-67.5 30.5 q-54 0 -93.5 -43t-39.5 -110zM721 240q0 143 111 248.5t255 105.5q118 0 196.5 -81.5t78.5 -199.5q0 -143 -111 -248.5t-254 -105.5q-119 0 -197.5 81.5t-78.5 199.5zM928 256q0 -52 27 -82.5t69 -30.5q53 0 93 43.5t40 110.5q0 52 -27 82.5t-69 30.5q-53 0 -93 -43.5 t-40 -110.5z" />
<glyph unicode="&#x26;" horiz-adv-x="1341" d="M6 324q0 61 19 118t49.5 99t67.5 79t74 61.5t67.5 42.5t49.5 26l19 8l2 20q-32 41 -62 114t-30 159q0 156 122 269.5t288 113.5q138 0 225.5 -87t87.5 -214q0 -67 -30.5 -130.5t-73.5 -106t-86.5 -75t-74.5 -47.5l-30 -16l-4 -21l199 -266q7 10 18 28.5t33 72.5t29 104 h225q-9 -66 -30.5 -129.5t-46 -106.5t-47 -77t-37.5 -50l-15 -16l225 -297h-307l-88 113h-21q-6 -6 -18 -16.5t-51.5 -37t-83 -47t-110.5 -37t-136 -16.5q-191 0 -304.5 104t-113.5 261zM254 348q0 -72 56 -123t145 -51q40 0 81.5 11.5t72 28t55.5 33.5t38 29l13 11 l-240 327q-9 -4 -24 -12.5t-53 -36t-67 -56.5t-53 -73t-24 -88zM500 1071q0 -44 16 -89t32 -68l17 -23q7 4 19.5 11.5t44 30.5t55.5 47t44 58.5t20 67.5q0 43 -32.5 78t-74.5 35q-51 0 -96 -45t-45 -103z" />
<glyph unicode="'" horiz-adv-x="389" d="M154 942l22 451h225l-104 -451h-143z" />
<glyph unicode="(" horiz-adv-x="737" d="M79.5 315.5q-6.5 99.5 12.5 196.5q18 125 59.5 249.5t94 222.5t112 188t115.5 155t102 113t73 72l28 24l137 -123q-17 -17 -45.5 -47.5t-103.5 -127.5t-136.5 -197t-120.5 -245.5t-79 -283.5q-18 -149 -2.5 -282.5t54 -247t78.5 -196t70 -128.5l31 -47l-170 -123 q-5 5 -13 15t-34.5 43.5t-49 70.5t-56 96t-56 119.5t-49.5 141.5t-36 161.5t-15.5 180z" />
<glyph unicode=")" horiz-adv-x="737" d="M-137 -389l28 28t69.5 77.5t98 123t104 159t98.5 191t69 214t28 231.5q0 120 -25 244.5t-60 216t-70.5 166t-60.5 112.5l-25 39l170 123q13 -14 33.5 -41t74 -116t94 -184.5t74 -242t33.5 -293.5q0 -143 -33 -284.5t-85.5 -254t-116 -215.5t-127 -177t-116 -129.5 t-85.5 -82.5l-33 -28z" />
<glyph unicode="*" horiz-adv-x="696" d="M119 1137l63 131l162 -60l27 185h143l-27 -185l179 60l26 -131l-182 -62l92 -143l-135 -82l-82 143l-123 -143l-110 82l133 143z" />
<glyph unicode="+" horiz-adv-x="860" d="M23 451l28 204h266l41 297h205l-41 -297h266l-28 -204h-266l-41 -297h-205l41 297h-266z" />
<glyph unicode="," horiz-adv-x="409" d="M-51 -215l112 215q-3 1 -8.5 2.5t-18.5 9t-23 17.5t-18.5 28.5t-8.5 40.5q0 58 47 103t106 45q49 0 82 -34.5t33 -84.5q0 -25 -14 -57t-28 -51l-15 -19l-154 -215h-92z" />
<glyph unicode="-" horiz-adv-x="819" d="M23 451l28 204h697l-29 -204h-696z" />
<glyph unicode="." horiz-adv-x="409" d="M-14 113q8 54 52.5 93.5t98.5 39.5t88 -39.5t27 -93.5t-52.5 -93.5t-99.5 -39.5t-88 39.5t-26 93.5z" />
<glyph unicode="/" horiz-adv-x="901" d="M-61 0l749 1393h266l-749 -1393h-266z" />
<glyph unicode="0" horiz-adv-x="1290" d="M96 559q0 163 37 305t100.5 245t146.5 177.5t176.5 111t188.5 36.5q190 0 315.5 -159.5t125.5 -440.5q0 -163 -37 -305t-100.5 -245t-146.5 -177.5t-176.5 -111t-188.5 -36.5q-190 0 -315.5 159.5t-125.5 440.5zM352 565q0 -190 62 -285.5t155 -95.5q50 0 99.5 23t97 74 t83.5 124t58.5 182.5t22.5 239.5q0 190 -62 285.5t-155 95.5q-50 0 -99.5 -23t-97 -74t-83.5 -124t-58.5 -182.5t-22.5 -239.5z" />
<glyph unicode="1" horiz-adv-x="860" d="M51 0l31 225h194l119 840h-20l-199 -102l-78 174l553 297h41l-170 -1209h195l-31 -225h-635z" />
<glyph unicode="2" horiz-adv-x="1054" d="M-31 0l23 164q16 10 44 28t108.5 74.5t153.5 114.5t162 140.5t153.5 159t108.5 164.5t44 163q0 84 -56.5 142t-140.5 58q-49 0 -96.5 -18t-81 -43.5t-60 -51t-39.5 -43.5l-13 -18l-166 133q7 11 20.5 29t61 64t101.5 81t142 64t183 29q175 0 289 -117t114 -285 q0 -84 -34 -172.5t-89 -163t-121 -145.5t-132.5 -125t-121.5 -95.5t-89 -62.5l-34 -22l-4 -21h512l-30 -225h-912z" />
<glyph unicode="3" d="M-27 246l203 133l10.5 -21t31.5 -46.5t53.5 -59.5t75.5 -47t99 -21q116 0 197.5 74.5t81.5 175.5q0 85 -59.5 143t-155.5 58h-215l22 164l377 348l2 20h-512l33 226h860l-24 -164l-400 -369l-2 -20q7 -1 19 -4t46.5 -15t66.5 -28t70.5 -46.5t66 -67.5t46.5 -93t19 -121 q0 -135 -74.5 -251.5t-201.5 -185.5t-275 -69q-71 0 -135 16t-109 41t-83 55.5t-62 61.5t-41 56t-24 41z" />
<glyph unicode="4" horiz-adv-x="1157" d="M-20 287l22 164l877 983h143l-131 -922h164l-31 -225h-164l-41 -287h-246l41 287h-634zM348 512h297l55 389h-20l-328 -369z" />
<glyph unicode="5" horiz-adv-x="1126" d="M4 246l203 133l10.5 -21t31.5 -46.5t53.5 -59.5t75.5 -47t99 -21q117 0 199 77.5t82 187.5q0 90 -59 148t-156 58q-45 0 -104 -17.5t-95 -35.5l-37 -18l-149 102l100 707h809l-33 -226h-563l-45 -327q88 41 170 41q186 0 303 -116.5t117 -291.5q0 -138 -74.5 -256.5 t-201.5 -188t-275 -69.5q-71 0 -135 16t-109 41t-83 55.5t-62 61.5t-41 56t-24 41z" />
<glyph unicode="6" horiz-adv-x="1146" d="M47 391q0 71 21.5 145.5t51.5 130t60.5 101t51.5 68.5l22 24l422 533h266l-422 -523h21q8 6 21.5 14.5t53.5 23t76 14.5q141 0 244.5 -119.5t103.5 -292.5q0 -149 -78 -276.5t-208 -201t-279 -73.5q-188 0 -308 123t-120 309zM305 410q0 -103 55.5 -164.5t145.5 -61.5 q115 0 195.5 86t80.5 222q0 103 -55 164t-145 61q-116 0 -196.5 -85.5t-80.5 -221.5z" />
<glyph unicode="7" horiz-adv-x="983" d="M113 0l592 1147l2 20h-594l32 226h881l-25 -164l-632 -1229h-256z" />
<glyph unicode="8" horiz-adv-x="1187" d="M39 340q0 67 18 125t47.5 97.5t64.5 71.5t70 50.5t64.5 31t47.5 16.5l18 5l4 21q-8 3 -20.5 9t-44.5 29.5t-57 51.5t-45 76.5t-20 103.5q0 163 144 284.5t362 121.5q184 0 293 -96.5t109 -235.5q0 -71 -28 -132t-68 -98.5t-79.5 -64.5t-67.5 -38l-28 -11l-4 -21 q5 -1 13.5 -3.5t32.5 -13.5t46 -24.5t48.5 -39t46 -56t32.5 -75.5t13 -97q0 -120 -74.5 -228t-206 -174.5t-285.5 -66.5q-100 0 -185 31.5t-141.5 84.5t-88 121.5t-31.5 143.5zM301 385q0 -85 59.5 -143t155.5 -58q116 0 198.5 74.5t82.5 175.5q0 85 -60.5 143t-156.5 58 q-116 0 -197.5 -74.5t-81.5 -175.5zM440 1016q0 -65 48 -110.5t124 -45.5q89 0 154 58.5t65 134.5q0 65 -47 110t-122 45q-91 0 -156.5 -58t-65.5 -134z" />
<glyph unicode="9" horiz-adv-x="1148" d="M98 883q0 149 78.5 276.5t208.5 201t279 73.5q187 0 307.5 -123.5t120.5 -309.5q0 -71 -21.5 -145.5t-52 -130t-60.5 -101t-52 -68.5l-21 -24l-422 -532h-266l421 522h-20q-8 -6 -22 -14.5t-54 -22.5t-76 -14q-141 0 -244.5 119.5t-103.5 292.5zM356 901 q0 -103 55.5 -164t145.5 -61q116 0 196.5 85.5t80.5 221.5q0 103 -55.5 164t-145.5 61q-116 0 -196.5 -85.5t-80.5 -221.5z" />
<glyph unicode=":" horiz-adv-x="409" d="M-16 98q0 58 47 103t106 45q49 0 82 -34.5t33 -84.5q0 -58 -47.5 -102.5t-106.5 -44.5q-49 0 -81.5 34t-32.5 84zM70 713q0 58 47 102.5t106 44.5q49 0 82 -34.5t33 -84.5q0 -58 -46.5 -102.5t-105.5 -44.5q-49 0 -82.5 34.5t-33.5 84.5z" />
<glyph unicode=";" horiz-adv-x="409" d="M-51 -215l112 215q-3 1 -8.5 2.5t-18.5 9t-23 17.5t-18.5 28.5t-8.5 40.5q0 58 47 103t106 45q49 0 82 -34.5t33 -84.5q0 -25 -14 -57t-28 -51l-15 -19l-154 -215h-92zM70 713q0 58 47 102.5t106 44.5q49 0 82 -34.5t33 -84.5q0 -58 -46.5 -102.5t-105.5 -44.5 q-49 0 -82.5 34.5t-33.5 84.5z" />
<glyph unicode="&#x3c;" horiz-adv-x="839" d="M14 317l29 205l717 297l-31 -225l-422 -164l-4 -20l377 -164l-31 -226z" />
<glyph unicode="=" horiz-adv-x="839" d="M14 246l29 205h676l-29 -205h-676zM70 635l28 205h676l-29 -205h-675z" />
<glyph unicode="&#x3e;" horiz-adv-x="839" d="M-8 20l31 226l423 164l3 20l-377 164l32 225l633 -297l-28 -205z" />
<glyph unicode="?" horiz-adv-x="1003" d="M84 1178q7 10 21.5 27.5t62.5 61.5t102 78t138.5 61.5t173.5 27.5q173 0 285 -108.5t112 -254.5q0 -67 -22 -124.5t-58 -100t-79.5 -81t-89 -73.5t-84 -70t-66.5 -79t-35 -92h-226q9 65 36 121.5t62.5 97t76.5 77.5t80.5 68.5t71.5 63t51.5 69t19.5 78.5q0 78 -52.5 130 t-136.5 52q-43 0 -87.5 -17t-77.5 -41t-59.5 -48t-39.5 -41l-14 -17zM250 98q0 58 47 103t106 45q49 0 83 -34.5t34 -84.5q0 -58 -47 -102.5t-106 -44.5q-49 0 -83 34t-34 84z" />
<glyph unicode="@" horiz-adv-x="1904" d="M84 494q0 190 79.5 364.5t211 300.5t309 200.5t367.5 74.5q169 0 310 -52t235 -142t146 -209.5t52 -254.5q0 -127 -40.5 -236t-106.5 -181.5t-149 -113t-169 -40.5q-52 0 -94.5 12.5t-66 30.5t-40.5 36.5t-22 31.5l-6 12h-21q-3 -5 -9 -13.5t-28.5 -29.5t-48 -37 t-67.5 -29.5t-88 -13.5q-119 0 -199 92t-80 240q0 128 57 232t145 159t185 55q41 0 73.5 -20.5t44.5 -40.5l13 -21h21l6 41h227l-61 -430q-5 -38 22.5 -70t65.5 -32q63 0 129.5 94t66.5 244q0 95 -38.5 182.5t-106.5 153.5t-169 105.5t-218 39.5q-132 0 -260 -56.5 t-224.5 -151t-156 -228t-59.5 -277.5q0 -156 67.5 -284t187.5 -200.5t267 -72.5q91 0 186 20.5t144 40.5l49 21l57 -184q-8 -4 -23 -11t-63.5 -25t-100 -31.5t-128 -24.5t-150.5 -11q-158 0 -295 57t-232.5 156t-149.5 235.5t-54 291.5zM797 557q0 -71 30.5 -109t79.5 -38 q46 0 90 38t50 84l16 123q6 46 -26.5 84.5t-78.5 38.5q-66 0 -113.5 -59t-47.5 -162z" />
<glyph unicode="A" horiz-adv-x="1310" d="M-61 0l811 1475h20l397 -1475h-266l-53 205h-535l-108 -205h-266zM440 430h348l-104 430h-20z" />
<glyph unicode="B" horiz-adv-x="1228" d="M72 0l196 1393h441q190 0 296.5 -90.5t106.5 -223.5q0 -52 -14.5 -97t-38 -76t-52 -56t-57 -40t-52 -25t-38.5 -13l-14 -4l-4 -20q11 -2 28.5 -6.5t62.5 -27t79.5 -52.5t63 -88t28.5 -130q0 -85 -42 -165t-115.5 -142t-182 -99.5t-232.5 -37.5h-460zM348 225h215 q124 0 201.5 66t77.5 164q0 79 -58.5 129.5t-160.5 50.5h-215zM438 860h195q97 0 157 50t60 120q0 58 -46.5 97.5t-127.5 39.5h-195z" />
<glyph unicode="C" horiz-adv-x="1454" d="M70 610q0 132 45 258t125 227t184.5 178t229.5 119t253 42q84 0 159.5 -18t129 -47t99 -64t74.5 -70t49.5 -64t29.5 -47l8 -18l-233 -123q-4 9 -12 24t-39 54t-67 68.5t-97.5 54t-130.5 24.5q-133 0 -259.5 -76.5t-208 -210.5t-81.5 -286q0 -190 118.5 -320.5 t286.5 -130.5q74 0 146.5 26.5t122 64t88.5 75t58 64.5l19 26l199 -123q-5 -7 -14.5 -20t-42.5 -50.5t-70 -71t-96.5 -75t-122.5 -71t-147.5 -50t-172.5 -20.5q-179 0 -324 86.5t-225.5 235t-80.5 329.5z" />
<glyph unicode="D" horiz-adv-x="1372" d="M72 0l196 1393h410q174 0 315.5 -83.5t220 -225t78.5 -310.5q0 -152 -68 -295.5t-179 -248t-260 -167.5t-304 -63h-409zM348 225h164q95 0 189.5 43t167.5 113.5t119 168.5t46 200q0 172 -114 294.5t-275 122.5h-164z" />
<glyph unicode="E" horiz-adv-x="1085" d="M72 0l196 1393h809l-33 -226h-563l-49 -348h399l-30 -225h-400l-53 -369h584l-31 -225h-829z" />
<glyph unicode="F" horiz-adv-x="1054" d="M72 0l196 1393h830l-33 -226h-584l-61 -440h420l-33 -225h-420l-70 -502h-245z" />
<glyph unicode="G" horiz-adv-x="1546" d="M70 610q0 132 45 258t125 227t184.5 178t229.5 119t253 42q81 0 155 -17.5t126.5 -45.5t97.5 -62t73.5 -68t49 -62t29.5 -45l8 -18l-221 -123q-4 9 -12.5 23.5t-39.5 51.5t-67.5 65.5t-98 51.5t-130.5 23q-133 0 -259.5 -76.5t-208 -210.5t-81.5 -286 q0 -190 118.5 -320.5t286.5 -130.5q75 0 141.5 21.5t112 56t83.5 76t60.5 82.5t38 75.5t21.5 56.5l6 21h246l-86 -614h-41l-115 205h-20q-6 -8 -18.5 -22t-56 -49.5t-94.5 -62.5t-135 -49t-176 -22q-179 0 -324 86.5t-225.5 235t-80.5 329.5z" />
<glyph unicode="H" horiz-adv-x="1392" d="M72 0l196 1393h246l-90 -635h553l90 635h246l-197 -1393h-246l76 532h-553l-76 -532h-245z" />
<glyph unicode="I" horiz-adv-x="593" d="M72 0l196 1393h246l-197 -1393h-245z" />
<glyph unicode="J" horiz-adv-x="931" d="M-51 72l129 186q8 -8 22.5 -20.5t57.5 -33t84 -20.5q87 0 154.5 65.5t82.5 170.5l105 747h-359l33 226h604l-137 -973q-29 -205 -169 -333t-327 -128q-55 0 -103.5 11.5t-79.5 28t-54 33.5t-33 28z" />
<glyph unicode="K" horiz-adv-x="1218" d="M72 0l196 1393h246l-197 -1393h-245zM473 737l502 656h266l-512 -656l356 -737h-266z" />
<glyph unicode="L" horiz-adv-x="1024" d="M72 0l196 1393h246l-166 -1168h543l-31 -225h-788z" />
<glyph unicode="M" horiz-adv-x="1679" d="M72 0l200 1434h41l518 -768l732 768h41l-201 -1434h-246l113 799h-21l-469 -492l-329 492h-21l-113 -799h-245z" />
<glyph unicode="N" horiz-adv-x="1392" d="M72 0l200 1434h41l617 -861h20l117 820h246l-203 -1434h-41l-616 860h-21l-115 -819h-245z" />
<glyph unicode="O" horiz-adv-x="1617" d="M78 696q21 151 98 288t188 235.5t253.5 156.5t289.5 58t273.5 -58t210.5 -156.5t123 -235.5q25 -89 25 -184q0 -51 -7 -104q-21 -151 -98.5 -287.5t-189 -235t-254.5 -156.5t-290 -58t-273 58t-209.5 156.5t-121.5 234.5q-25 88 -25 183q0 52 7 105zM334 696 q-6 -40 -5 -79q1 -95 35 -179q50 -118 148.5 -186t220.5 -68t239.5 67.5t200.5 186t103 258.5q5 39 5 76q1 96 -35 182q-50 118 -148.5 186t-220.5 68q-91 0 -183 -40t-166.5 -108t-127 -163.5t-66.5 -200.5z" />
<glyph unicode="P" horiz-adv-x="1198" d="M72 0l196 1393h379q225 0 361.5 -126.5t136.5 -312.5q0 -108 -48.5 -207.5t-132 -173.5t-203 -118.5t-253.5 -44.5h-133l-58 -410h-245zM408 635h133q147 0 246.5 88t99.5 207q0 100 -74.5 168.5t-198.5 68.5h-133z" />
<glyph unicode="Q" horiz-adv-x="1638" d="M70 610q0 132 45 258t125 227t184.5 178t229.5 119t253 42q179 0 324 -86.5t226 -235.5t81 -330q0 -76 -15 -149t-39 -130t-53 -107.5t-58 -86.5t-53 -62.5t-39 -38.5l-15 -13l186 -359h-287l-104 215q-6 -4 -18 -10t-50 -22t-77.5 -28t-99 -22t-116.5 -10 q-179 0 -324 86.5t-225.5 235t-80.5 329.5zM328 635q0 -190 118.5 -320.5t286.5 -130.5q99 0 198 46t176 122.5t125 183.5t48 222q0 190 -117.5 320t-285.5 130q-133 0 -259.5 -76.5t-208 -210.5t-81.5 -286z" />
<glyph unicode="R" horiz-adv-x="1280" d="M72 0l194 1393h471q149 0 259 -61q110 -62 160 -162q37 -75 36 -159q0 -29 -4 -59q-8 -52 -27.5 -100.5t-46 -85t-55.5 -67.5t-57.5 -52t-50.5 -35.5t-36.5 -21.5t-13.5 -6l-4 -21l240 -563h-267l-215 512h-266l-72 -512h-245zM420 737h225q113 0 194 63.5t93 151.5 q2 14 2 28q0 72 -52 124q-62 64 -175 63h-226z" />
<glyph unicode="S" horiz-adv-x="1116" d="M-16 246l202 133l10.5 -21t31.5 -46.5t54 -59.5t76 -47t99 -21q113 0 194.5 71t81.5 161q0 44 -30.5 80t-78.5 64t-107 55.5t-117.5 61.5t-106.5 75.5t-78.5 104.5t-30.5 140q0 109 69 210t185.5 164t245.5 63q80 0 150.5 -24.5t113.5 -59t74 -69t44 -59.5l13 -24 l-202 -133q-3 6 -9.5 15.5t-27 34t-43 43.5t-57 34.5t-68.5 15.5q-98 0 -165 -59.5t-67 -140.5q0 -44 30.5 -80t78.5 -64t106.5 -56t117.5 -62t107 -75.5t78.5 -104.5t30.5 -140q0 -119 -73.5 -226.5t-200 -174t-271.5 -66.5q-71 0 -135 16t-109 41t-83 55.5t-62 61.5 t-40.5 56t-23.5 41z" />
<glyph unicode="T" horiz-adv-x="1064" d="M113 1167l30 226h963l-31 -226h-358l-164 -1167h-246l164 1167h-358z" />
<glyph unicode="U" horiz-adv-x="1351" d="M129 481l129 912h246l-129 -912q-4 -27 -4 -53q1 -94 53 -160q66 -84 176 -84q109 0 199 84.5t108 212.5l129 912h246l-129 -912q-31 -222 -199.5 -372t-384.5 -150q-142 0 -250 68t-159 188q-37 86 -37 186q0 39 6 80z" />
<glyph unicode="V" horiz-adv-x="1269" d="M135 1393h266l199 -840h21l436 840h266l-791 -1475h-20z" />
<glyph unicode="W" horiz-adv-x="1802" d="M135 1393h266l148 -779h20l435 840l200 -840h21l364 779h266l-706 -1465h-21l-213 891l-462 -891h-21z" />
<glyph unicode="X" horiz-adv-x="1249" d="M-61 0l522 727l-275 666h267l190 -461h21l321 461h266l-463 -666l318 -727h-277l-223 522h-20l-371 -522h-276z" />
<glyph unicode="Y" horiz-adv-x="1187" d="M115 1393h276l205 -584h20l369 584h277l-578 -901l-70 -492h-245l69 492z" />
<glyph unicode="Z" d="M-51 0l6 41l760 1106l2 20h-553l33 226h942l-6 -41l-760 -1106l-4 -21h583l-30 -225h-973z" />
<glyph unicode="[" horiz-adv-x="675" d="M20 -440l269 1915h450l-30 -226h-205l-207 -1464h205l-31 -225h-451z" />
<glyph unicode="\" horiz-adv-x="901" d="M135 1393h266l357 -1393h-266z" />
<glyph unicode="]" horiz-adv-x="675" d="M-123 -440l31 225h205l206 1464h-204l30 226h451l-268 -1915h-451z" />
<glyph unicode="^" horiz-adv-x="880" d="M88 778l342 615h205l170 -615h-225l-80 307h-21l-166 -307h-225z" />
<glyph unicode="_" horiz-adv-x="733" d="M-141 -410l28 205h697l-29 -205h-696z" />
<glyph unicode="`" horiz-adv-x="491" d="M131 1219l107 174l262 -174l-80 -134z" />
<glyph unicode="a" d="M23 358q0 107 41.5 206t107.5 167.5t147.5 109t161.5 40.5q52 0 95.5 -12.5t69 -30.5t43.5 -36.5t25 -31.5l7 -12h20l11 82h225l-117 -840h-225l10 82h-20q-4 -5 -11 -13.5t-32 -29.5t-54 -37t-76.5 -29.5t-99.5 -13.5q-135 0 -232 114.5t-97 284.5zM260 383 q0 -96 52.5 -157.5t129.5 -61.5q85 0 160.5 65.5t85.5 149.5l10 82q2 14 2 28q0 68 -46 122q-56 65 -140 65q-98 0 -176 -84.5t-78 -208.5z" />
<glyph unicode="b" d="M41 0l197 1393h225l-90 -635h20q4 5 11 13.5t32 29.5t54 37t76.5 29.5t99.5 13.5q134 0 231.5 -115t97.5 -285q0 -107 -41.5 -206t-107.5 -167t-147.5 -108.5t-161.5 -40.5q-52 0 -95 12.5t-68.5 30.5t-43.5 36.5t-24 31.5l-7 12h-20l-13 -82h-225zM319 379 q-2 -15 -2 -29q0 -67 46 -121q56 -65 141 -65q98 0 176 84.5t78 208.5q0 97 -52.5 158t-130.5 61q-85 0 -158 -65t-85 -150z" />
<glyph unicode="c" horiz-adv-x="972" d="M25 367q0 137 74 256.5t196 188.5t260 69q77 0 142 -23.5t103 -56.5t64.5 -66t36.5 -57l10 -23l-209 -102q-2 5 -5.5 13.5t-18 29.5t-33 37t-50.5 29.5t-69 13.5q-96 0 -180 -86t-84 -201q0 -94 57.5 -159.5t135.5 -65.5q40 0 78 14.5t63.5 35.5t45 42.5t28.5 35.5l10 15 l180 -102q-6 -10 -17.5 -26.5t-52.5 -59t-87.5 -75t-121.5 -59t-155 -26.5q-173 0 -287 117.5t-114 290.5z" />
<glyph unicode="d" horiz-adv-x="1105" d="M23 358q0 107 41.5 206t107.5 167.5t147.5 109t161.5 40.5q52 0 95.5 -12.5t69 -30.5t43.5 -36.5t25 -31.5l7 -12h20l88 635h226l-195 -1393h-225l10 82h-20q-4 -5 -11 -13.5t-32 -29.5t-54 -37t-76.5 -29.5t-99.5 -13.5q-135 0 -232 114.5t-97 284.5zM260 383 q0 -96 52.5 -157.5t129.5 -61.5q85 0 160.5 65.5t85.5 149.5l10 82q2 14 2 28q0 68 -46 122q-56 65 -140 65q-98 0 -176 -84.5t-78 -208.5z" />
<glyph unicode="e" horiz-adv-x="983" d="M25 367q0 137 74 256.5t196 188.5t260 69q156 0 248 -78.5t92 -184.5t-109 -193t-266 -87h-256q13 -72 65 -123t126 -51q40 0 77.5 12.5t62.5 31t44 36.5t28 30l9 13l180 -103q-3 -5 -9 -13t-26.5 -31.5t-43.5 -44.5t-61 -47t-79 -44.5t-96.5 -31.5t-114.5 -13 q-173 0 -287 117.5t-114 290.5zM299 522h246q47 1 80.5 25.5t33.5 52.5q0 32 -33.5 54t-99.5 22q-135 0 -227 -154z" />
<glyph unicode="f" horiz-adv-x="655" d="M-8 -573l170 1208h-133l28 205h133l41 297q20 144 127.5 241t239.5 97q50 0 94 -13t63 -26l19 -13l-98 -194q-37 41 -88 41q-47 0 -84.5 -36.5t-46.5 -96.5l-41 -297h215l-29 -205h-215l-170 -1208h-225z" />
<glyph unicode="g" horiz-adv-x="993" d="M-102 -307q0 49 19.5 95t47.5 77.5t56 56t47 36.5l20 11l4 21q-3 1 -7.5 4t-16 13t-20.5 21.5t-16 30.5t-7 39q0 26 10.5 49.5t25 39t29 27t24.5 16.5l11 6l4 20q-3 2 -8 7t-18 22.5t-22.5 38.5t-17.5 55t-8 72q0 156 132.5 272.5t320.5 116.5h461l-29 -205h-113l-4 -21 q35 -50 35 -120q0 -84 -58.5 -164.5t-163.5 -133.5t-226 -53q-23 0 -50.5 3.5t-43.5 6.5l-17 3q-5 -2 -13.5 -5.5t-22 -19t-13.5 -35.5q0 -16 9 -27t17 -15l9 -3q63 10 114 10q190 0 298 -89.5t108 -217.5q0 -70 -35.5 -136t-99 -117.5t-159.5 -83t-208 -31.5 q-189 0 -297 89t-108 218zM135 -287q0 -48 51.5 -85.5t145.5 -37.5q107 0 171 44.5t64 99.5q0 48 -52 85.5t-146 37.5q-107 0 -170.5 -44.5t-63.5 -99.5zM295 479q0 -53 40 -92t103 -39q72 0 129.5 49t57.5 107q0 53 -41.5 92t-104.5 39q-72 0 -128 -49t-56 -107z" />
<glyph unicode="h" horiz-adv-x="1075" d="M41 0l197 1393h225l-90 -635h20q4 5 10.5 13.5t30.5 29.5t51 37t70.5 29.5t89.5 13.5q133 0 221 -109q71 -88 70 -203q0 -28 -4 -57l-72 -512h-225l72 512q2 12 2 24q1 54 -35 93q-42 47 -119 47q-75 0 -142.5 -55.5t-76.5 -118.5l-70 -502h-225z" />
<glyph unicode="i" horiz-adv-x="471" d="M20 0l119 840h226l-119 -840h-226zM176 1260q7 54 53.5 93.5t100.5 39.5q54 1 87 -39q27 -32 26 -73q0 -10 -1 -21q-6 -54 -51.5 -94t-99.5 -40q-53 0 -87 40q-28 34 -29 78q0 8 1 16z" />
<glyph unicode="j" horiz-adv-x="481" d="M-322 -543l99 195q37 -41 88 -41q47 0 84.5 36.5t46.5 96.5l154 1096h225l-154 -1096q-20 -144 -127 -241t-239 -97q-50 0 -94.5 13t-63.5 25zM186 1245q0 58 47.5 103t106.5 45q49 0 82 -34.5t33 -84.5q0 -58 -46.5 -103t-105.5 -45q-49 0 -83 34.5t-34 84.5z" />
<glyph unicode="k" horiz-adv-x="962" d="M41 0l197 1393h225l-197 -1393h-225zM369 430l303 410h246l-314 -410l225 -430h-245z" />
<glyph unicode="l" horiz-adv-x="512" d="M41 0l197 1393h225l-197 -1393h-225z" />
<glyph unicode="m" horiz-adv-x="1556" d="M31 0l119 840h225l-13 -82h21q3 5 9 13.5t27.5 29.5t45 37t61.5 29.5t78 13.5q46 0 87.5 -15t67.5 -36t46 -42t29 -36l8 -15h20q5 6 13.5 15.5t37 34.5t59.5 44t78.5 34.5t96.5 15.5q125 -1 207 -103q66 -82 67 -191q0 -27 -4 -55l-76 -532h-225l76 532q2 12 2 23 q0 47 -31 80q-38 41 -106 41t-122 -46t-63 -108l-73 -522h-226l76 532q2 12 2 23q0 47 -31 80q-38 41 -106 41t-121.5 -45.5t-62.5 -108.5l-74 -522h-225z" />
<glyph unicode="n" horiz-adv-x="1064" d="M31 0l119 840h225l-13 -82h21q4 5 10.5 13.5t30.5 29.5t51 37t70.5 29.5t89.5 13.5q133 0 221 -109q71 -88 70 -203q0 -28 -4 -57l-72 -512h-225l71 512q2 12 2 24q0 54 -35 93q-42 47 -118 47q-75 0 -142.5 -55.5t-76.5 -118.5l-70 -502h-225z" />
<glyph unicode="o" horiz-adv-x="1064" d="M29 420q17 126 93 232t190.5 167.5t240.5 61.5q173 0 287 -117.5t114 -290.5q0 -137 -74 -256.5t-196 -188.5t-260 -69q-126 0 -223.5 61.5t-143.5 167.5q-33 76 -33 163q0 34 5 69zM262 389q0 -94 56.5 -159.5t134.5 -65.5q87 0 167 75.5t95 180.5q3 21 3 41 q0 79 -48 139q-60 76 -146 76q-95 0 -178.5 -86.5t-83.5 -200.5z" />
<glyph unicode="p" d="M-49 -573l199 1413h225l-13 -82h21q4 5 11 13.5t32.5 29.5t54.5 37t76.5 29.5t99.5 13.5q135 0 232.5 -115t97.5 -285q0 -107 -42 -206t-108 -167t-147.5 -108.5t-161.5 -40.5q-52 0 -95.5 12.5t-68.5 30.5t-43 36.5t-25 31.5l-7 12h-21l-92 -655h-225zM309 379 q-2 -15 -2 -29q0 -67 47 -121q57 -65 142 -65q97 0 175.5 84.5t78.5 208.5q0 96 -53 157.5t-130 61.5q-85 0 -159 -65t-86 -150z" />
<glyph unicode="q" d="M23 358q0 107 41.5 206t107.5 167.5t147.5 109t161.5 40.5q52 0 95.5 -12.5t69 -30.5t43.5 -36.5t25 -31.5l7 -12h20l11 82h225l-199 -1413h-225l92 655h-20q-4 -5 -11 -13.5t-32 -29.5t-54 -37t-76.5 -29.5t-99.5 -13.5q-135 0 -232 114.5t-97 284.5zM260 383 q0 -96 52.5 -157.5t129.5 -61.5q85 0 160.5 65.5t85.5 149.5l10 82q2 14 2 28q0 68 -46 122q-56 65 -140 65q-98 0 -176 -84.5t-78 -208.5z" />
<glyph unicode="r" horiz-adv-x="686" d="M31 0l119 840h225l-13 -82h21q4 5 10.5 13.5t29.5 29.5t48 37t64 29.5t79 13.5q23 0 45.5 -5.5t34.5 -10.5l11 -5l-72 -215q-37 21 -88 21q-77 0 -145 -59.5t-78 -135.5l-66 -471h-225z" />
<glyph unicode="s" horiz-adv-x="819" d="M-55 123l174 143q3 -4 8 -11t23.5 -24.5t38.5 -31t53 -24.5t67 -11q64 0 99.5 28t35.5 68q0 20 -21 35.5t-54.5 27t-74.5 24t-81.5 31.5t-74 45t-54.5 69t-21 98q0 112 108 201.5t259 89.5q63 0 119 -15t90.5 -36t60.5 -42t37 -36l11 -15l-175 -143q-2 3 -6 8.5t-18 20 t-30 25t-42 19.5t-55 9q-57 0 -85 -21.5t-28 -54.5q0 -20 21 -35.5t54.5 -27t74.5 -24t81.5 -31.5t74 -45t54.5 -69t21 -98q0 -126 -110.5 -218.5t-278.5 -92.5q-69 0 -131 17t-101 41t-68.5 48t-42.5 41z" />
<glyph unicode="t" horiz-adv-x="737" d="M29 635l28 205h133l43 307h226l-43 -307h215l-29 -205h-215l-47 -338q-2 -15 -2 -28q0 -41 21 -69q28 -36 75 -36q23 0 47 10t37 20l12 11l45 -195q-9 -6 -24.5 -14.5t-65.5 -22.5t-100 -14q-132 1 -211 97q-63 77 -63 184q0 27 4 57l47 338h-133z" />
<glyph unicode="u" horiz-adv-x="1085" d="M76 328l71 512h226l-72 -512q-2 -12 -1 -24q0 -54 34 -93q42 -47 119 -47q75 0 142.5 55.5t76.5 118.5l69 502h226l-117 -840h-225l10 82h-21q-4 -5 -10.5 -13.5t-30.5 -29.5t-51 -37t-70.5 -29.5t-89.5 -13.5q-133 0 -220 109q-70 88 -70 203q0 28 4 57z" />
<glyph unicode="v" horiz-adv-x="921" d="M37 840h246l125 -420h20l244 420h246l-533 -881h-61z" />
<glyph unicode="w" horiz-adv-x="1310" d="M37 840h246l100 -379h20l265 420h20l146 -420h20l207 379h246l-482 -881h-41l-161 461h-21l-289 -461h-41z" />
<glyph unicode="x" horiz-adv-x="901" d="M-82 0l328 430l-178 410h256l96 -256h20l170 256h256l-293 -410l205 -430h-256l-125 276h-20l-203 -276h-256z" />
<glyph unicode="y" horiz-adv-x="921" d="M-70 -573l306 573l-199 840h246l112 -512h21l256 512h246l-742 -1413h-246z" />
<glyph unicode="z" horiz-adv-x="819" d="M-61 0l2 20l442 594l4 21h-338l29 205h717l-4 -21l-443 -594l-2 -20h338l-29 -205h-716z" />
<glyph unicode="{" horiz-adv-x="696" d="M16 410l29 204h31q61 0 108 41t56 103l49 358q23 162 131 255t276 93h62l-31 -225h-61q-47 0 -85.5 -35t-45.5 -88l-50 -358q-8 -57 -30 -102.5t-48 -69.5t-50.5 -39.5t-40.5 -20.5l-17 -4l-4 -20q6 -1 16 -4.5t34.5 -20t41.5 -39.5t27 -69t2 -103l-49 -358 q-7 -53 20.5 -88t73.5 -35h61l-30 -225h-62q-168 0 -250 93t-59 255l49 358q9 61 -26 102.5t-97 41.5h-31z" />
<glyph unicode="|" horiz-adv-x="573" d="M-18 -573l307 2191h246l-308 -2191h-245z" />
<glyph unicode="}" horiz-adv-x="696" d="M-123 -440l31 225h61q47 0 85.5 35t45.5 88l50 358q8 57 30.5 102.5t48.5 69.5t51 39.5t42 20.5l16 4l2 20q-6 1 -16 4.5t-34.5 20t-41.5 39.5t-27 69t-2 103l51 358q7 53 -21 88t-75 35h-61l32 225h62q168 0 250 -93t59 -255l-51 -358q-9 -61 26 -102.5t97 -41.5h30 l-28 -204h-31q-61 0 -108 -41t-56 -103l-49 -358q-23 -162 -131 -255t-276 -93h-62z" />
<glyph unicode="~" horiz-adv-x="819" d="M23 451q18 126 80.5 191t150.5 65q44 0 88.5 -23.5t81.5 -46.5t61 -23q31 0 54.5 22t29.5 60l179 -41q-18 -126 -81 -191t-151 -65q-44 0 -88.5 23.5t-81.5 46.5t-61 23q-31 0 -54.5 -22t-29.5 -60z" />
<glyph unicode="&#xa1;" horiz-adv-x="552" d="M-49 -573l176 962h205l-94 -962h-287zM143 713q0 58 47 102.5t105 44.5q49 0 83 -34.5t34 -84.5q0 -58 -47.5 -102.5t-106.5 -44.5q-49 0 -82 34.5t-33 84.5z" />
<glyph unicode="&#xa2;" horiz-adv-x="972" d="M25 371q0 90 37 175t96.5 147t132.5 106t147 61l29 205h225l-28 -205q53 -11 97.5 -36.5t71 -53.5t45.5 -54.5t26 -43.5l7 -17l-206 -102q-2 5 -6 13.5t-19 29.5t-33.5 37t-51 29.5t-69.5 13.5q-96 0 -180 -86t-84 -201q0 -94 57 -159.5t136 -65.5q40 0 77.5 14.5 t63 35.5t45 42.5t28.5 35.5l9 15l180 -102q-5 -8 -14 -21.5t-40 -48.5t-65.5 -64t-88 -56t-109.5 -35l-29 -205h-225l28 205q-120 29 -205 138t-85 253z" />
<glyph unicode="&#xa3;" horiz-adv-x="1024" d="M-31 0l23 164q9 5 24.5 15t56 49t74.5 86t67 127.5t46 172.5h-143l33 226h122q-8 61 -8 131q0 209 125.5 336t323.5 127q55 0 105.5 -14t84.5 -33.5t59.5 -39t37.5 -33.5l12 -14l-148 -174q-2 3 -7 8.5t-20.5 20t-33 25t-45 19.5t-56.5 9q-73 0 -127.5 -63t-54.5 -174 q0 -31 2 -64t4 -50l2 -17h226l-33 -226h-215q-10 -74 -32.5 -141.5t-46.5 -111t-47 -75.5t-38 -46l-14 -15l-2 -20h553l-29 -205h-881z" />
<glyph unicode="&#xa4;" horiz-adv-x="1228" d="M14 246l29 205h133l14 102h-133l29 205h133l90 635h420q205 0 330 -113.5t125 -273.5q0 -87 -42 -169t-116 -145t-182.5 -101t-233.5 -38h-174l-14 -102h461l-29 -205h-461l-35 -246h-245l34 246h-133zM465 758h174q130 0 208.5 65t78.5 162q0 79 -60 130.5t-170 51.5 h-174z" />
<glyph unicode="&#xa5;" horiz-adv-x="1187" d="M115 1393h276l205 -584h20l369 584h277l-486 -758h185l-29 -205h-256l-14 -102h256l-29 -205h-256l-19 -123h-245l18 123h-256l29 205h256l14 102h-256l29 205h184z" />
<glyph unicode="&#xa6;" horiz-adv-x="573" d="M-18 -573l122 880h246l-123 -880h-245zM166 737l123 881h246l-123 -881h-246z" />
<glyph unicode="&#xa7;" horiz-adv-x="1003" d="M-33 -154l180 123q3 -5 8 -14t23 -32t39 -40.5t55.5 -32t71.5 -14.5q74 0 130 50t56 114q0 32 -25 62t-65 56.5t-88.5 55t-97 63.5t-88.5 75t-65 97t-25 123q0 72 26 134t63 100t74 65.5t63 38.5l26 11l2 20q-5 2 -13 6.5t-29 22.5t-37 39.5t-29 60t-13 82.5 q0 145 122.5 248.5t303.5 103.5q69 0 129.5 -20t97.5 -48.5t64.5 -57t39.5 -48.5l11 -20l-182 -123q-3 5 -8 12.5t-22.5 27t-37 34.5t-49.5 27t-62 12q-65 0 -114 -44t-49 -100q0 -33 24 -63.5t62.5 -56.5t85 -53.5t93 -60.5t85 -72t62.5 -94t24 -120q0 -72 -26 -134.5 t-63 -100.5t-74 -65.5t-63 -38.5l-26 -11l-2 -21q6 -3 15.5 -8t33.5 -24.5t43 -43t34 -64t15 -85.5q0 -150 -131 -259.5t-319 -109.5q-74 0 -138.5 22t-103.5 53.5t-67 63.5t-39 54zM313 561q0 -33 18 -66t44 -56.5t52 -42.5t44 -28l18 -10q7 3 17.5 9.5t38.5 27t49.5 43 t39 57t17.5 70.5q0 33 -18 66t-44 56.5t-52 42.5t-44 28l-18 10q-7 -3 -17.5 -9.5t-38.5 -27t-49.5 -43t-39 -57t-17.5 -70.5z" />
<glyph unicode="&#xa8;" horiz-adv-x="737" d="M133 1239q0 49 45.5 91t95.5 42q46 0 79 -38.5t26 -84.5q-6 -46 -49.5 -84.5t-89.5 -38.5q-42 0 -74.5 35t-32.5 78zM502 1239q0 49 45.5 91t95.5 42q42 0 74.5 -34.5t32.5 -77.5q0 -49 -46 -91.5t-96 -42.5q-42 0 -74 35t-32 78z" />
<glyph unicode="&#xa9;" horiz-adv-x="1904" d="M84 494q0 190 79.5 364.5t211 300.5t309 200.5t367.5 74.5q158 0 295 -57t232.5 -156t149.5 -235.5t54 -291.5q0 -190 -79.5 -364.5t-211 -300.5t-309 -200.5t-367.5 -74.5q-158 0 -295 57t-232.5 156t-149.5 235.5t-54 291.5zM322 516q0 -156 67.5 -284t187.5 -200.5 t267 -72.5q132 0 260 56.5t224.5 151t156 228t59.5 277.5q0 156 -68 284t-188 200.5t-266 72.5q-132 0 -260 -56.5t-224.5 -151t-156 -228t-59.5 -277.5zM580 543q0 184 126.5 312t290.5 128q60 0 111.5 -18t81.5 -43.5t51.5 -51t30.5 -43.5l8 -18l-199 -102l-2.5 7.5t-9 17 t-17 22t-26.5 17t-37 7.5q-74 0 -123 -59t-49 -162q0 -70 33 -108.5t88 -38.5q32 0 63 23t47 46l15 23l170 -103q-5 -8 -15 -21t-43 -46.5t-70 -59t-96 -46.5t-120 -21q-133 0 -221 95.5t-88 242.5z" />
<glyph unicode="&#xaa;" horiz-adv-x="686" d="M98 977q0 90 69 150.5t185 60.5q22 0 44.5 -2t37 -4t26.5 -4t17.5 -1t5.5 5q0 39 -21.5 63.5t-55.5 24.5q-27 0 -54.5 -10t-41.5 -20l-13 -11l-86 112q3 4 9 10t26.5 22t43.5 28.5t60.5 22.5t77.5 10q123 0 190 -75.5t50 -191.5l-45 -327h-187l8 51h-10q-8 -8 -22 -20 t-54.5 -32t-76.5 -20q-82 0 -132.5 45.5t-50.5 112.5zM293 999q0 -14 14 -25t35 -11q32 0 63 20.5t45 40.5l15 20h-113q-24 0 -41.5 -13.5t-17.5 -31.5z" />
<glyph unicode="&#xab;" horiz-adv-x="901" d="M-2 420l246 368h215l-246 -368l143 -369h-215zM367 420l245 368h215l-245 -368l143 -369h-215z" />
<glyph unicode="&#xac;" horiz-adv-x="819" d="M29 492l28 204h676l-55 -389h-225l26 185h-450z" />
<glyph unicode="&#xad;" horiz-adv-x="819" d="M23 451l28 204h697l-29 -204h-696z" />
<glyph unicode="&#xae;" horiz-adv-x="1904" d="M84 494q0 190 79.5 364.5t211 300.5t309 200.5t367.5 74.5q158 0 295 -57t232.5 -156t149.5 -235.5t54 -291.5q0 -190 -79.5 -364.5t-211 -300.5t-309 -200.5t-367.5 -74.5q-158 0 -295 57t-232.5 156t-149.5 235.5t-54 291.5zM322 516q0 -156 67.5 -284t187.5 -200.5 t267 -72.5q132 0 260 56.5t224.5 151t156 228t59.5 277.5q0 156 -68 284t-188 200.5t-266 72.5q-132 0 -260 -56.5t-224.5 -151t-156 -228t-59.5 -277.5zM584 225l104 738h318q116 0 189 -68t73 -164q0 -39 -14.5 -75t-35.5 -59t-42 -41t-36 -26l-14 -8l-2 -20l115 -277 h-235l-89 246h-71l-35 -246h-225zM868 655h93q34 0 51.5 16.5t17.5 43.5q0 43 -53 43h-92z" />
<glyph unicode="&#xaf;" horiz-adv-x="604" d="M131 1229l27 184h481l-27 -184h-481z" />
<glyph unicode="&#xb0;" horiz-adv-x="655" d="M117 1118q0 116 94.5 205.5t212.5 89.5q97 0 164 -69.5t67 -167.5q0 -116 -94.5 -205.5t-212.5 -89.5q-97 0 -164 69.5t-67 167.5zM293 1133q0 -40 22.5 -64.5t57.5 -24.5q43 0 74.5 33t31.5 84q0 39 -22 63.5t-56 24.5q-44 0 -76 -32.5t-32 -83.5z" />
<glyph unicode="&#xb1;" horiz-adv-x="880" d="M-8 92l28 205h256l35 246h-266l29 205h266l41 296h205l-41 -296h266l-29 -205h-266l-35 -246h256l-28 -205h-717z" />
<glyph unicode="&#xb2;" horiz-adv-x="604" d="M78 840l18 133q12 5 32 13.5t72 34.5t91 52.5t71.5 63t32.5 69.5q0 28 -17 46t-44 18t-55 -13t-42 -25l-14 -13l-86 122q4 4 11.5 10t32 22t50.5 28.5t66 22.5t80 10q96 0 156.5 -56.5t60.5 -130.5q0 -36 -11.5 -68t-29.5 -55t-39.5 -42.5t-43.5 -31.5t-40 -20.5 t-30 -11.5l-11 -4l-2 -10h184l-22 -164h-471z" />
<glyph unicode="&#xb3;" horiz-adv-x="573" d="M63 891l119 123q4 -6 12 -14.5t35.5 -22.5t59.5 -14q33 0 51 16t18 43q0 19 -14 31t-41 12h-92l14 102l88 52l2 10h-174l23 164h420l-19 -133l-143 -80l-2 -13q5 -1 14 -3t31.5 -12t40 -24.5t31.5 -43.5t14 -66q0 -89 -77 -154t-198 -65q-40 0 -76.5 9.5t-60.5 23t-42 27 t-26 23.5z" />
<glyph unicode="&#xb4;" horiz-adv-x="491" d="M131 1219l311 174l58 -174l-326 -134z" />
<glyph unicode="&#xb5;" horiz-adv-x="1085" d="M-49 -573l199 1413h225l-72 -512q-9 -70 33.5 -117t118.5 -47q75 0 142.5 55.5t76.5 118.5l69 502h226l-119 -840h-225l12 82h-21q-2 -5 -7 -13.5t-22 -29.5t-37 -37t-53.5 -29.5t-70.5 -13.5q-32 0 -57.5 12.5t-39.5 30.5t-24 36.5t-13 31.5l-3 12h-21l-92 -655h-225z " />
<glyph unicode="&#xb6;" horiz-adv-x="839" d="M145 1026q0 150 111 258.5t256 108.5h379l-29 -205h-153l-248 -1761h-225l184 1310q-118 0 -196.5 83t-78.5 206z" />
<glyph unicode="&#xb7;" horiz-adv-x="409" d="M68 696q8 54 52.5 93.5t98.5 39.5t88 -39.5t27 -93.5t-52.5 -93.5t-99.5 -39.5t-88 39.5t-26 93.5z" />
<glyph unicode="&#xb8;" horiz-adv-x="522" d="M-102 -430l77 123q48 -41 99 -41q38 0 64 20.5t26 46.5q0 23 -18 39.5t-48 16.5h-100l104 225h134l-48 -102q57 -14 94 -59t37 -105q0 -93 -75.5 -159.5t-190.5 -66.5q-42 0 -80.5 15.5t-56.5 30.5z" />
<glyph unicode="&#xb9;" horiz-adv-x="552" d="M98 840l23 164h123l32 225l-106 -21l-20 144l258 82h81l-61 -430h123l-23 -164h-430z" />
<glyph unicode="&#xba;" horiz-adv-x="757" d="M113 1079q0 143 110.5 249t253.5 106q119 0 198 -81.5t79 -199.5q0 -143 -111 -248.5t-254 -105.5q-119 0 -197.5 81t-78.5 199zM319 1096q0 -51 27 -82t68 -31q54 0 93.5 43.5t39.5 110.5q0 51 -26.5 81.5t-67.5 30.5q-54 0 -94 -43t-40 -110z" />
<glyph unicode="&#xbb;" horiz-adv-x="901" d="M-12 51l245 369l-141 368h215l142 -368l-246 -369h-215zM356 51l246 369l-141 368h215l141 -368l-246 -369h-215z" />
<glyph unicode="&#xbc;" horiz-adv-x="1413" d="M98 821l23 164h123l32 225l-106 -20l-20 143l258 82h81l-61 -430h123l-23 -164h-430zM133 0l954 1393h256l-954 -1393h-256zM729 82l16 123l363 389h133l-49 -358h72l-23 -154h-72l-12 -82h-184l12 82h-256zM946 236h62l8 71h-10l-60 -61v-10z" />
<glyph unicode="&#xbd;" horiz-adv-x="1433" d="M98 819l23 164h123l32 225l-106 -20l-20 143l258 82h81l-61 -430h123l-23 -164h-430zM113 0l954 1393h256l-954 -1393h-256zM778 0l19 133q12 5 32 13.5t72 35t91 53t71.5 63t32.5 69.5q0 28 -17 45.5t-45 17.5q-27 0 -54.5 -13t-41.5 -25l-14 -13l-86 123q4 4 11.5 10 t31.5 22t50 28t66 22t80 10q96 0 156.5 -56t60.5 -130q0 -49 -21 -91.5t-51 -67.5t-60 -43t-51 -25l-21 -7l-3 -10h185l-23 -164h-471z" />
<glyph unicode="&#xbe;" horiz-adv-x="1382" d="M84 891l119 123q4 -6 11.5 -14.5t35 -22.5t59.5 -14q33 0 51.5 16t18.5 43q0 19 -14 31t-41 12h-93l15 102l88 52l2 10h-174l22 164h420l-18 -133l-144 -80l-2 -13q5 -1 14 -3t31.5 -12t40 -24.5t31.5 -43.5t14 -66q0 -89 -76.5 -154t-197.5 -65q-40 0 -76.5 9.5 t-60.5 23t-42 27t-26 23.5zM102 0l955 1393h256l-955 -1393h-256zM698 82l17 123l362 389h133l-49 -358h72l-23 -154h-71l-13 -82h-184l12 82h-256zM915 236h62l8 71h-10l-60 -61v-10z" />
<glyph unicode="&#xbf;" horiz-adv-x="1003" d="M-63 -252q0 66 22.5 125t58.5 103.5t80 85t89.5 78t84.5 74t66.5 82t34.5 93.5h225q-9 -65 -36 -122.5t-63 -100t-77 -81.5t-80.5 -73t-71.5 -67.5t-51.5 -72t-19.5 -79.5q0 -78 52.5 -130t135.5 -52q43 0 87.5 17t77.5 41t59.5 48t40.5 41l14 17l165 -133 q-7 -10 -21 -27.5t-62.5 -61.5t-102 -78t-138 -61.5t-173.5 -27.5q-172 0 -284.5 108t-112.5 254zM399 713q0 58 46.5 102.5t105.5 44.5q49 0 83 -34.5t34 -84.5q0 -58 -47.5 -102.5t-106.5 -44.5q-49 0 -82 34.5t-33 84.5z" />
<glyph unicode="&#xc0;" horiz-adv-x="1310" d="M-61 0l811 1475h20l397 -1475h-266l-53 205h-535l-108 -205h-266zM440 430h348l-104 430h-20zM635 1751l106 174l263 -174l-80 -133z" />
<glyph unicode="&#xc1;" horiz-adv-x="1310" d="M-61 0l811 1475h20l397 -1475h-266l-53 205h-535l-108 -205h-266zM440 430h348l-104 430h-20zM676 1751l311 174l57 -174l-325 -133z" />
<glyph unicode="&#xc2;" horiz-adv-x="1310" d="M-61 0l811 1475h20l397 -1475h-266l-53 205h-535l-108 -205h-266zM440 430h348l-104 430h-20zM508 1720l311 174l262 -174l-77 -123l-211 103l-240 -103z" />
<glyph unicode="&#xc3;" horiz-adv-x="1310" d="M-61 0l811 1475h20l397 -1475h-266l-53 205h-535l-108 -205h-266zM440 430h348l-104 430h-20zM535 1700q12 89 64 141.5t116 52.5q39 0 85.5 -30.5t69.5 -30.5q17 0 32 16t18 45l147 -51q-13 -89 -65.5 -141.5t-116.5 -52.5q-39 0 -85 30.5t-69 30.5q-18 0 -32.5 -16 t-18.5 -45z" />
<glyph unicode="&#xc4;" horiz-adv-x="1310" d="M-61 0l811 1475h20l397 -1475h-266l-53 205h-535l-108 -205h-266zM440 430h348l-104 430h-20zM502 1751q0 49 45.5 91t95.5 42q46 0 79 -38.5t26 -84.5q-6 -46 -50 -84.5t-90 -38.5q-42 0 -74 35t-32 78zM870 1751q0 49 46 91t96 42q42 0 74 -34.5t32 -77.5 q0 -49 -45.5 -91.5t-95.5 -42.5q-42 0 -74.5 35t-32.5 78z" />
<glyph unicode="&#xc5;" horiz-adv-x="1310" d="M-61 0l811 1475h20l397 -1475h-266l-53 205h-535l-108 -205h-266zM440 430h348l-104 430h-20zM575 1751q0 91 79.5 163.5t179.5 72.5q83 0 139.5 -58t56.5 -137q0 -91 -79 -163.5t-179 -72.5q-83 0 -140 58t-57 137zM709 1761q0 -35 23.5 -58.5t58.5 -23.5q41 0 72.5 31 t31.5 72q0 35 -22.5 58.5t-57.5 23.5q-42 0 -74 -31t-32 -72z" />
<glyph unicode="&#xc6;" horiz-adv-x="1740" d="M-82 0l739 1393h1076l-33 -226h-563l-50 -348h400l-31 -225h-399l-53 -369h583l-31 -225h-829l41 287h-430l-154 -287h-266zM451 512h348l92 655h-92z" />
<glyph unicode="&#xc7;" horiz-adv-x="1464" d="M70 610q0 132 45 258t125 227t184.5 178t229.5 119t253 42q84 0 159.5 -18t129 -47t99 -64t74.5 -70t49.5 -64t29.5 -47l8 -18l-233 -123q-4 9 -12 24t-39 54t-67 68.5t-97.5 54t-130.5 24.5q-133 0 -259.5 -76.5t-208 -210.5t-81.5 -286q0 -190 118.5 -320.5 t286.5 -130.5q74 0 146.5 26.5t122 64t88.5 75t58 64.5l19 26l199 -123q-5 -7 -13.5 -19t-40 -47.5t-66.5 -68t-91.5 -73t-116 -70.5t-140 -52t-163.5 -26l-37 -84q57 -14 94 -59t37 -105q0 -93 -75.5 -159t-190.5 -66q-42 0 -80.5 15t-56.5 31l-18 15l77 123q48 -41 99 -41 q38 0 64 21t26 47q0 23 -18 39t-48 16h-100l96 211q-155 21 -276.5 110.5t-189.5 229.5t-68 305z" />
<glyph unicode="&#xc8;" horiz-adv-x="1085" d="M72 0l196 1393h809l-33 -226h-563l-49 -348h399l-30 -225h-400l-53 -369h584l-31 -225h-829zM537 1700l106 174l262 -174l-80 -133z" />
<glyph unicode="&#xc9;" horiz-adv-x="1085" d="M72 0l196 1393h809l-33 -226h-563l-49 -348h399l-30 -225h-400l-53 -369h584l-31 -225h-829zM598 1700l311 174l58 -174l-326 -133z" />
<glyph unicode="&#xca;" horiz-adv-x="1085" d="M72 0l196 1393h809l-33 -226h-563l-49 -348h399l-30 -225h-400l-53 -369h584l-31 -225h-829zM444 1710l312 174l262 -174l-78 -123l-211 103l-240 -103z" />
<glyph unicode="&#xcb;" horiz-adv-x="1085" d="M72 0l196 1393h809l-33 -226h-563l-49 -348h399l-30 -225h-400l-53 -369h584l-31 -225h-829zM426 1720q0 49 45.5 91t95.5 42q46 0 79 -38t26 -84q-6 -46 -50 -84.5t-90 -38.5q-42 0 -74 34.5t-32 77.5zM795 1720q0 49 45.5 91t95.5 42q42 0 74 -34.5t32 -77.5 q0 -49 -45.5 -91t-95.5 -42q-42 0 -74 34.5t-32 77.5z" />
<glyph unicode="&#xcc;" horiz-adv-x="604" d="M82 0l197 1393h245l-196 -1393h-246zM270 1710l107 174l262 -174l-80 -133z" />
<glyph unicode="&#xcd;" horiz-adv-x="604" d="M72 0l196 1393h246l-197 -1393h-245zM301 1710l311 174l58 -174l-326 -133z" />
<glyph unicode="&#xce;" horiz-adv-x="634" d="M92 0l197 1393h246l-197 -1393h-246zM170 1720l311 174l262 -174l-77 -123l-211 103l-240 -103z" />
<glyph unicode="&#xcf;" horiz-adv-x="634" d="M92 0l197 1393h246l-197 -1393h-246zM158 1700q0 49 45.5 91t95.5 42q46 0 78.5 -38.5t25.5 -84.5q-6 -46 -49.5 -84.5t-89.5 -38.5q-42 0 -74 35t-32 78zM526 1700q0 49 46 91t96 42q42 0 74 -35t32 -78q0 -49 -45.5 -91t-95.5 -42q-42 0 -74.5 35t-32.5 78z" />
<glyph unicode="&#xd0;" horiz-adv-x="1402" d="M59 573l31 226h123l84 594h410q174 0 316 -83.5t221 -225t79 -310.5q0 -152 -68 -295.5t-179.5 -248t-260 -167.5t-303.5 -63h-410l80 573h-123zM379 225h164q95 0 189.5 43t167.5 113.5t119 168.5t46 200q0 172 -114 294.5t-275 122.5h-164l-53 -368h246l-31 -226h-246z " />
<glyph unicode="&#xd1;" horiz-adv-x="1392" d="M72 0l200 1434h41l617 -861h20l117 820h246l-203 -1434h-41l-616 860h-21l-115 -819h-245zM571 1669q12 89 64.5 142t116.5 53q39 0 85.5 -31t69.5 -31q17 0 31.5 16.5t17.5 45.5l148 -52q-13 -89 -65.5 -141.5t-116.5 -52.5q-39 0 -85 30.5t-69 30.5q-18 0 -32.5 -16 t-18.5 -45z" />
<glyph unicode="&#xd2;" horiz-adv-x="1617" d="M78 696q21 151 98 288t188 235.5t253.5 156.5t289.5 58t273.5 -58t210.5 -156.5t123 -235.5t18 -288t-98.5 -287.5t-189 -235t-254.5 -156.5t-290 -58t-273 58t-209.5 156.5t-122 235t-17.5 287.5zM334 696q-20 -140 29.5 -258.5t148.5 -186t221 -67.5t239.5 67.5 t200.5 186t103 258.5q19 140 -30.5 258.5t-148 186t-220.5 67.5q-91 0 -183 -40t-166.5 -108t-127 -163.5t-66.5 -200.5zM782 1710l107 174l262 -174l-80 -133z" />
<glyph unicode="&#xd3;" horiz-adv-x="1617" d="M78 696q21 151 98 288t188 235.5t253.5 156.5t289.5 58t273.5 -58t210.5 -156.5t123 -235.5t18 -288t-98.5 -287.5t-189 -235t-254.5 -156.5t-290 -58t-273 58t-209.5 156.5t-122 235t-17.5 287.5zM334 696q-20 -140 29.5 -258.5t148.5 -186t221 -67.5t239.5 67.5 t200.5 186t103 258.5q19 140 -30.5 258.5t-148 186t-220.5 67.5q-91 0 -183 -40t-166.5 -108t-127 -163.5t-66.5 -200.5zM823 1710l312 174l57 -174l-326 -133z" />
<glyph unicode="&#xd4;" horiz-adv-x="1617" d="M78 696q21 151 98 288t188 235.5t253.5 156.5t289.5 58t273.5 -58t210.5 -156.5t123 -235.5t18 -288t-98.5 -287.5t-189 -235t-254.5 -156.5t-290 -58t-273 58t-209.5 156.5t-122 235t-17.5 287.5zM334 696q-20 -140 29.5 -258.5t148.5 -186t221 -67.5t239.5 67.5 t200.5 186t103 258.5q19 140 -30.5 258.5t-148 186t-220.5 67.5q-91 0 -183 -40t-166.5 -108t-127 -163.5t-66.5 -200.5zM664 1741l311 174l262 -174l-78 -123l-211 102l-239 -102z" />
<glyph unicode="&#xd5;" horiz-adv-x="1617" d="M78 696q21 151 98 288t188 235.5t253.5 156.5t289.5 58t273.5 -58t210.5 -156.5t123 -235.5t18 -288t-98.5 -287.5t-189 -235t-254.5 -156.5t-290 -58t-273 58t-209.5 156.5t-122 235t-17.5 287.5zM334 696q-20 -140 29.5 -258.5t148.5 -186t221 -67.5t239.5 67.5 t200.5 186t103 258.5q19 140 -30.5 258.5t-148 186t-220.5 67.5q-91 0 -183 -40t-166.5 -108t-127 -163.5t-66.5 -200.5zM694 1669q12 89 64 142t116 53q39 0 86 -31t70 -31q17 0 31.5 16.5t17.5 45.5l148 -52q-13 -89 -66 -141.5t-117 -52.5q-39 0 -84.5 30.5t-68.5 30.5 q-18 0 -32.5 -16t-18.5 -45z" />
<glyph unicode="&#xd6;" horiz-adv-x="1617" d="M78 696q21 151 98 288t188 235.5t253.5 156.5t289.5 58t273.5 -58t210.5 -156.5t123 -235.5t18 -288t-98.5 -287.5t-189 -235t-254.5 -156.5t-290 -58t-273 58t-209.5 156.5t-122 235t-17.5 287.5zM334 696q-20 -140 29.5 -258.5t148.5 -186t221 -67.5t239.5 67.5 t200.5 186t103 258.5q19 140 -30.5 258.5t-148 186t-220.5 67.5q-91 0 -183 -40t-166.5 -108t-127 -163.5t-66.5 -200.5zM655 1751q0 49 46 91t96 42q46 0 78.5 -38.5t25.5 -84.5q-6 -46 -49.5 -84.5t-89.5 -38.5q-42 0 -74.5 35t-32.5 78zM1024 1751q0 49 45.5 91t95.5 42 q42 0 74.5 -34.5t32.5 -77.5q0 -49 -46 -91.5t-96 -42.5q-42 0 -74 35t-32 78z" />
<glyph unicode="&#xd7;" horiz-adv-x="819" d="M14 317l236 226l-172 225l151 133l177 -205l233 205l115 -133l-238 -225l174 -226l-151 -133l-177 205l-233 -205z" />
<glyph unicode="&#xd8;" horiz-adv-x="1658" d="M-43 133l27 195l133 71q-27 86 -27 211q0 165 70.5 318.5t185.5 263.5t268.5 176t313.5 66q79 0 152 -16.5t126 -42.5t98.5 -57.5t75 -63.5t50.5 -58t30 -42l10 -17l222 123l-27 -195l-133 -72q27 -94 27 -215q0 -134 -43.5 -259.5t-122.5 -226t-182.5 -176t-230 -116.5 t-259.5 -41q-79 0 -152 16.5t-126 42.5t-98.5 57.5t-75.5 63.5t-51 58t-30 43l-10 16zM348 641q0 -30 3 -57.5t6 -39.5l3 -12l867 482q-4 8 -11.5 21t-36.5 46.5t-63.5 59t-93.5 46.5t-125 21q-99 0 -198.5 -45.5t-176.5 -121.5t-125.5 -182t-48.5 -218zM422 379 q4 -8 12.5 -21t39.5 -46.5t66 -59.5t93 -47t121 -21q132 0 257.5 76t206 206t80.5 275q0 27 -2.5 57t-5.5 46l-2 16z" />
<glyph unicode="&#xd9;" horiz-adv-x="1351" d="M129 481l129 912h246l-129 -912q-18 -128 48.5 -212.5t176.5 -84.5q109 0 199 84.5t108 212.5l129 912h246l-129 -912q-31 -222 -199.5 -372t-384.5 -150q-142 0 -250 68t-159 188t-31 266zM608 1710l107 174l262 -174l-80 -133z" />
<glyph unicode="&#xda;" horiz-adv-x="1351" d="M129 481l129 912h246l-129 -912q-18 -128 48.5 -212.5t176.5 -84.5q109 0 199 84.5t108 212.5l129 912h246l-129 -912q-31 -222 -199.5 -372t-384.5 -150q-142 0 -250 68t-159 188t-31 266zM711 1710l311 174l57 -174l-325 -133z" />
<glyph unicode="&#xdb;" horiz-adv-x="1351" d="M129 481l129 912h246l-129 -912q-18 -128 48.5 -212.5t176.5 -84.5q109 0 199 84.5t108 212.5l129 912h246l-129 -912q-31 -222 -199.5 -372t-384.5 -150q-142 0 -250 68t-159 188t-31 266zM526 1700l312 174l262 -174l-78 -123l-211 102l-240 -102z" />
<glyph unicode="&#xdc;" horiz-adv-x="1351" d="M129 481l129 912h246l-129 -912q-18 -128 48.5 -212.5t176.5 -84.5q109 0 199 84.5t108 212.5l129 912h246l-129 -912q-31 -222 -199.5 -372t-384.5 -150q-142 0 -250 68t-159 188t-31 266zM520 1731q0 49 46 91t96 42q46 0 78.5 -38.5t25.5 -84.5q-6 -46 -49.5 -84.5 t-89.5 -38.5q-42 0 -74.5 35t-32.5 78zM889 1731q0 49 45.5 91t95.5 42q42 0 74.5 -35t32.5 -78q0 -49 -46 -91t-96 -42q-42 0 -74 35t-32 78z" />
<glyph unicode="&#xdd;" horiz-adv-x="1187" d="M115 1393h276l205 -584h20l369 584h277l-578 -901l-70 -492h-245l69 492zM596 1690l311 174l58 -174l-326 -134z" />
<glyph unicode="&#xde;" horiz-adv-x="1259" d="M70 -20l206 1474h246l-20 -143h102q268 0 424 -146t156 -374q0 -138 -56 -261.5t-153 -213t-237 -141.5t-300 -52h-102l-21 -143h-245zM367 348h102q191 0 323 121t132 291q0 140 -96.5 232.5t-254.5 92.5h-102z" />
<glyph unicode="&#xdf;" horiz-adv-x="1105" d="M41 0l143 1014q25 177 163 298.5t315 121.5q152 0 247 -93.5t95 -232.5q0 -55 -18.5 -105.5t-45 -88.5t-53.5 -74t-45.5 -77t-18.5 -83q0 -34 15.5 -68.5t38 -66t45 -64.5t38 -76t15.5 -88q0 -148 -104 -242.5t-279 -94.5q-18 0 -43 5t-41 10l-16 5l28 205q39 -21 80 -21 q60 0 100.5 42t40.5 106q0 39 -24 81.5t-52.5 76t-52.5 83t-24 99.5t18.5 96.5t44.5 82.5t52 71t44.5 75t18.5 80q0 52 -39.5 91.5t-95.5 39.5q-85 0 -147 -54.5t-74 -139.5l-144 -1014h-225z" />
<glyph unicode="&#xe0;" d="M23 358q0 107 41.5 206t107.5 167.5t147.5 109t161.5 40.5q52 0 95.5 -12.5t69 -30.5t43.5 -36.5t25 -31.5l7 -12h20l11 82h225l-117 -840h-225l10 82h-20q-4 -5 -11 -13.5t-32 -29.5t-54 -37t-76.5 -29.5t-99.5 -13.5q-135 0 -232 114.5t-97 284.5zM260 383 q0 -96 52.5 -157.5t129.5 -61.5q85 0 160.5 65.5t85.5 149.5l10 82q11 85 -44.5 150t-139.5 65q-98 0 -176 -84.5t-78 -208.5zM479 1157l107 174l262 -174l-80 -133z" />
<glyph unicode="&#xe1;" d="M23 358q0 107 41.5 206t107.5 167.5t147.5 109t161.5 40.5q52 0 95.5 -12.5t69 -30.5t43.5 -36.5t25 -31.5l7 -12h20l11 82h225l-117 -840h-225l10 82h-20q-4 -5 -11 -13.5t-32 -29.5t-54 -37t-76.5 -29.5t-99.5 -13.5q-135 0 -232 114.5t-97 284.5zM260 383 q0 -96 52.5 -157.5t129.5 -61.5q85 0 160.5 65.5t85.5 149.5l10 82q11 85 -44.5 150t-139.5 65q-98 0 -176 -84.5t-78 -208.5zM561 1157l311 174l58 -174l-326 -133z" />
<glyph unicode="&#xe2;" d="M23 358q0 107 41.5 206t107.5 167.5t147.5 109t161.5 40.5q52 0 95.5 -12.5t69 -30.5t43.5 -36.5t25 -31.5l7 -12h20l11 82h225l-117 -840h-225l10 82h-20q-4 -5 -11 -13.5t-32 -29.5t-54 -37t-76.5 -29.5t-99.5 -13.5q-135 0 -232 114.5t-97 284.5zM260 383 q0 -96 52.5 -157.5t129.5 -61.5q85 0 160.5 65.5t85.5 149.5l10 82q11 85 -44.5 150t-139.5 65q-98 0 -176 -84.5t-78 -208.5zM389 1167l311 174l263 -174l-78 -123l-211 103l-240 -103z" />
<glyph unicode="&#xe3;" d="M23 358q0 107 41.5 206t107.5 167.5t147.5 109t161.5 40.5q52 0 95.5 -12.5t69 -30.5t43.5 -36.5t25 -31.5l7 -12h20l11 82h225l-117 -840h-225l10 82h-20q-4 -5 -11 -13.5t-32 -29.5t-54 -37t-76.5 -29.5t-99.5 -13.5q-135 0 -232 114.5t-97 284.5zM260 383 q0 -96 52.5 -157.5t129.5 -61.5q85 0 160.5 65.5t85.5 149.5l10 82q11 85 -44.5 150t-139.5 65q-98 0 -176 -84.5t-78 -208.5zM403 1116q12 89 64.5 142t116.5 53q39 0 85.5 -31t69.5 -31q17 0 31.5 16.5t17.5 45.5l148 -51q-13 -89 -65.5 -142t-116.5 -53q-39 0 -85 30.5 t-69 30.5q-18 0 -32.5 -16t-18.5 -45z" />
<glyph unicode="&#xe4;" d="M23 358q0 107 41.5 206t107.5 167.5t147.5 109t161.5 40.5q52 0 95.5 -12.5t69 -30.5t43.5 -36.5t25 -31.5l7 -12h20l11 82h225l-117 -840h-225l10 82h-20q-4 -5 -11 -13.5t-32 -29.5t-54 -37t-76.5 -29.5t-99.5 -13.5q-135 0 -232 114.5t-97 284.5zM260 383 q0 -96 52.5 -157.5t129.5 -61.5q85 0 160.5 65.5t85.5 149.5l10 82q11 85 -44.5 150t-139.5 65q-98 0 -176 -84.5t-78 -208.5zM383 1198q0 49 45.5 91t95.5 42q46 0 79 -38.5t26 -84.5q-6 -46 -50 -84.5t-90 -38.5q-42 0 -74 35t-32 78zM752 1198q0 49 45.5 91t95.5 42 q42 0 74 -34.5t32 -77.5q0 -49 -45.5 -91.5t-95.5 -42.5q-42 0 -74 35t-32 78z" />
<glyph unicode="&#xe5;" d="M23 358q0 107 41.5 206t107.5 167.5t147.5 109t161.5 40.5q52 0 95.5 -12.5t69 -30.5t43.5 -36.5t25 -31.5l7 -12h20l11 82h225l-117 -840h-225l10 82h-20q-4 -5 -11 -13.5t-32 -29.5t-54 -37t-76.5 -29.5t-99.5 -13.5q-135 0 -232 114.5t-97 284.5zM260 383 q0 -96 52.5 -157.5t129.5 -61.5q85 0 160.5 65.5t85.5 149.5l10 82q11 85 -44.5 150t-139.5 65q-98 0 -176 -84.5t-78 -208.5zM446 1208q0 91 79.5 163.5t179.5 72.5q83 0 139.5 -58t56.5 -137q0 -91 -79 -163t-179 -72q-83 0 -140 57.5t-57 136.5zM580 1219 q0 -35 23.5 -58.5t58.5 -23.5q41 0 72.5 30.5t31.5 71.5q0 35 -22.5 58.5t-57.5 23.5q-42 0 -74 -30.5t-32 -71.5z" />
<glyph unicode="&#xe6;" horiz-adv-x="1484" d="M-20 211q0 140 108.5 230.5t282.5 90.5q33 0 68.5 -4t59.5 -9t44 -8.5t29.5 -3t9.5 6.5q0 68 -43.5 115t-106.5 47q-45 0 -88 -15.5t-64 -30.5l-20 -16l-113 154q4 5 13 12.5t38.5 27t63.5 34.5t88 27t111 12t105.5 -15t77 -36t48.5 -42t28 -36l7 -15h21q4 6 12 15.5 t37.5 34.5t63 44t89 34.5t115.5 15.5q156 0 248 -78.5t92 -184.5t-109 -193t-266 -87h-225q5 -77 48.5 -125.5t111.5 -48.5q37 0 72.5 12.5t59.5 31t42.5 36.5t27.5 30l9 13l180 -103q-3 -5 -9 -13t-26 -31.5t-43 -44.5t-60.5 -47t-77.5 -44.5t-94 -31.5t-110 -13 q-60 0 -111 14.5t-80 35.5t-50 42.5t-29 36.5l-7 14h-20q-4 -6 -12.5 -15.5t-39.5 -34t-67.5 -43.5t-98 -34.5t-130.5 -15.5q-153 0 -232 71t-79 181zM217 240q0 -32 31 -54t92 -22q43 0 81 16t61.5 38t41 44.5t24.5 38.5l7 16q-70 11 -213 11q-55 0 -90 -27t-35 -61z M840 522h215q47 1 80.5 25.5t33.5 52.5q0 32 -33 54t-100 22q-104 0 -196 -154z" />
<glyph unicode="&#xe7;" horiz-adv-x="972" d="M25 367q0 137 74 256.5t196 188.5t260 69q77 0 142 -23.5t103 -56.5t64.5 -66t36.5 -57l10 -23l-209 -102q-2 5 -5.5 13.5t-18 29.5t-33 37t-50.5 29.5t-69 13.5q-96 0 -180 -86t-84 -201q0 -94 57.5 -159.5t135.5 -65.5q40 0 78 14.5t63.5 35.5t45 42.5t28.5 35.5l10 15 l180 -102q-6 -9 -16.5 -24t-47.5 -54.5t-79.5 -70.5t-110.5 -60t-141 -35l-29 -63q57 -14 94 -59t37 -105q0 -93 -75.5 -159.5t-190.5 -66.5q-42 0 -81 15.5t-57 30.5l-18 16l78 123q48 -41 99 -41q38 0 64 20.5t26 46.5q0 23 -18 39.5t-48 16.5h-100l88 194 q-138 28 -223.5 138.5t-85.5 259.5z" />
<glyph unicode="&#xe8;" horiz-adv-x="983" d="M25 367q0 137 74 256.5t196 188.5t260 69q156 0 248 -78.5t92 -184.5t-109 -193t-266 -87h-256q13 -72 65 -123t126 -51q40 0 77.5 12.5t62.5 31t44 36.5t28 30l9 13l180 -103q-3 -5 -9 -13t-26.5 -31.5t-43.5 -44.5t-61 -47t-79 -44.5t-96.5 -31.5t-114.5 -13 q-173 0 -287 117.5t-114 290.5zM299 522h246q47 1 80.5 25.5t33.5 52.5q0 32 -33.5 54t-99.5 22q-135 0 -227 -154zM418 1157l106 174l262 -174l-79 -133z" />
<glyph unicode="&#xe9;" horiz-adv-x="983" d="M25 367q0 137 74 256.5t196 188.5t260 69q156 0 248 -78.5t92 -184.5t-109 -193t-266 -87h-256q13 -72 65 -123t126 -51q40 0 77.5 12.5t62.5 31t44 36.5t28 30l9 13l180 -103q-3 -5 -9 -13t-26.5 -31.5t-43.5 -44.5t-61 -47t-79 -44.5t-96.5 -31.5t-114.5 -13 q-173 0 -287 117.5t-114 290.5zM299 522h246q47 1 80.5 25.5t33.5 52.5q0 32 -33.5 54t-99.5 22q-135 0 -227 -154zM442 1178l312 174l57 -174l-326 -134z" />
<glyph unicode="&#xea;" horiz-adv-x="983" d="M25 367q0 137 74 256.5t196 188.5t260 69q156 0 248 -78.5t92 -184.5t-109 -193t-266 -87h-256q13 -72 65 -123t126 -51q40 0 77.5 12.5t62.5 31t44 36.5t28 30l9 13l180 -103q-3 -5 -9 -13t-26.5 -31.5t-43.5 -44.5t-61 -47t-79 -44.5t-96.5 -31.5t-114.5 -13 q-173 0 -287 117.5t-114 290.5zM297 1167l311 174l262 -174l-77 -123l-211 103l-240 -103zM299 522h246q47 1 80.5 25.5t33.5 52.5q0 32 -33.5 54t-99.5 22q-135 0 -227 -154z" />
<glyph unicode="&#xeb;" horiz-adv-x="983" d="M25 367q0 137 74 256.5t196 188.5t260 69q156 0 248 -78.5t92 -184.5t-109 -193t-266 -87h-256q13 -72 65 -123t126 -51q40 0 77.5 12.5t62.5 31t44 36.5t28 30l9 13l180 -103q-3 -5 -9 -13t-26.5 -31.5t-43.5 -44.5t-61 -47t-79 -44.5t-96.5 -31.5t-114.5 -13 q-173 0 -287 117.5t-114 290.5zM291 1198q0 49 45.5 91t95.5 42q46 0 79 -38.5t26 -84.5q-6 -46 -50 -84.5t-90 -38.5q-42 0 -74 35t-32 78zM299 522h246q47 1 80.5 25.5t33.5 52.5q0 32 -33.5 54t-99.5 22q-135 0 -227 -154zM659 1198q0 49 46 91t96 42q42 0 74 -34.5 t32 -77.5q0 -49 -45.5 -91.5t-95.5 -42.5q-42 0 -74.5 35t-32.5 78z" />
<glyph unicode="&#xec;" horiz-adv-x="491" d="M31 0l119 840h225l-119 -840h-225zM125 1178l106 174l263 -174l-80 -134z" />
<glyph unicode="&#xed;" horiz-adv-x="481" d="M20 0l119 840h226l-119 -840h-226zM145 1178l312 174l57 -174l-326 -134z" />
<glyph unicode="&#xee;" horiz-adv-x="491" d="M25 1188l311 174l262 -174l-78 -123l-211 102l-239 -102zM31 0l119 840h225l-119 -840h-225z" />
<glyph unicode="&#xef;" horiz-adv-x="481" d="M18 1219q0 49 46 91t96 42q46 0 78.5 -38.5t25.5 -84.5q-6 -46 -49.5 -84.5t-89.5 -38.5q-42 0 -74.5 35t-32.5 78zM31 0l119 840h225l-119 -840h-225zM387 1219q0 49 45.5 91t95.5 42q42 0 74.5 -35t32.5 -78q0 -49 -45.5 -91t-95.5 -42q-42 0 -74.5 35t-32.5 78z" />
<glyph unicode="&#xf0;" horiz-adv-x="983" d="M0 340q0 93 41.5 183t106.5 154t147 103t160 39q46 0 85.5 -10.5t63.5 -25.5t41 -30t24 -25l7 -11h20q0 63 -12.5 124t-31 103t-36.5 75.5t-30 49.5l-13 16l-131 -122l-123 133l130 123l-144 143l154 143l143 -143l129 123l125 -133l-129 -123q3 -3 8 -8.5t20 -24.5 t29 -40t32.5 -55t33.5 -70t28.5 -84.5t20.5 -98t7 -111t-9 -123.5l-31 -204q-28 -191 -170.5 -321t-320.5 -130q-161 0 -268 110.5t-107 270.5zM238 358q0 -85 47.5 -139.5t117.5 -54.5q88 0 158 73.5t70 182.5q0 85 -47 139.5t-117 54.5q-90 0 -159.5 -73.5t-69.5 -182.5z " />
<glyph unicode="&#xf1;" horiz-adv-x="1064" d="M31 0l119 840h225l-13 -82h21q4 5 10.5 13.5t30.5 29.5t51 37t70.5 29.5t89.5 13.5q133 0 220.5 -109t66.5 -260l-72 -512h-225l71 512q9 70 -33 117t-118 47q-75 0 -142.5 -55.5t-76.5 -118.5l-70 -502h-225zM367 1157q12 89 64 142t116 53q39 0 85.5 -31t69.5 -31 q17 0 32 16.5t18 45.5l147 -52q-13 -89 -65.5 -141.5t-116.5 -52.5q-39 0 -85 30.5t-69 30.5q-18 0 -32.5 -16t-18.5 -45z" />
<glyph unicode="&#xf2;" horiz-adv-x="1064" d="M29 420q17 126 93 232t190.5 167.5t240.5 61.5q173 0 287 -117.5t114 -290.5q0 -137 -74 -256.5t-196 -188.5t-260 -69q-126 0 -223.5 61.5t-143.5 167.5t-28 232zM262 389q0 -94 56.5 -159.5t134.5 -65.5q87 0 167 75.5t95 180.5t-44.5 180.5t-146.5 75.5 q-95 0 -178.5 -86.5t-83.5 -200.5zM412 1178l106 174l262 -174l-80 -134z" />
<glyph unicode="&#xf3;" horiz-adv-x="1064" d="M29 420q17 126 93 232t190.5 167.5t240.5 61.5q173 0 287 -117.5t114 -290.5q0 -137 -74 -256.5t-196 -188.5t-260 -69q-126 0 -223.5 61.5t-143.5 167.5t-28 232zM262 389q0 -94 56.5 -159.5t134.5 -65.5q87 0 167 75.5t95 180.5t-44.5 180.5t-146.5 75.5 q-95 0 -178.5 -86.5t-83.5 -200.5zM453 1178l311 174l57 -174l-325 -134z" />
<glyph unicode="&#xf4;" horiz-adv-x="1064" d="M29 420q17 126 93 232t190.5 167.5t240.5 61.5q173 0 287 -117.5t114 -290.5q0 -137 -74 -256.5t-196 -188.5t-260 -69q-126 0 -223.5 61.5t-143.5 167.5t-28 232zM262 389q0 -94 56.5 -159.5t134.5 -65.5q87 0 167 75.5t95 180.5t-44.5 180.5t-146.5 75.5 q-95 0 -178.5 -86.5t-83.5 -200.5zM311 1188l312 174l262 -174l-78 -123l-211 102l-240 -102z" />
<glyph unicode="&#xf5;" horiz-adv-x="1064" d="M29 420q17 126 93 232t190.5 167.5t240.5 61.5q173 0 287 -117.5t114 -290.5q0 -137 -74 -256.5t-196 -188.5t-260 -69q-126 0 -223.5 61.5t-143.5 167.5t-28 232zM262 389q0 -94 56.5 -159.5t134.5 -65.5q87 0 167 75.5t95 180.5t-44.5 180.5t-146.5 75.5 q-95 0 -178.5 -86.5t-83.5 -200.5zM334 1137q12 89 64 141.5t116 52.5q39 0 86 -30.5t70 -30.5q17 0 31.5 16t17.5 45l147 -51q-13 -89 -65.5 -142t-116.5 -53q-39 0 -85 31t-69 31q-18 0 -32.5 -16t-18.5 -46z" />
<glyph unicode="&#xf6;" horiz-adv-x="1064" d="M29 420q17 126 93 232t190.5 167.5t240.5 61.5q173 0 287 -117.5t114 -290.5q0 -137 -74 -256.5t-196 -188.5t-260 -69q-126 0 -223.5 61.5t-143.5 167.5t-28 232zM262 389q0 -94 56.5 -159.5t134.5 -65.5q87 0 167 75.5t95 180.5t-44.5 180.5t-146.5 75.5 q-95 0 -178.5 -86.5t-83.5 -200.5zM305 1219q0 49 45.5 91t95.5 42q46 0 79 -38.5t26 -84.5q-6 -46 -49.5 -84.5t-89.5 -38.5q-42 0 -74.5 35t-32.5 78zM674 1219q0 49 45.5 91t95.5 42q42 0 74.5 -35t32.5 -78q0 -49 -46 -91t-96 -42q-42 0 -74 35t-32 78z" />
<glyph unicode="&#xf7;" horiz-adv-x="839" d="M23 451l28 204h717l-29 -204h-716zM23 451l28 204h717l-29 -204h-716zM209 174q8 54 52.5 93.5t98.5 39.5q49 0 83 -34.5t34 -84.5q0 -58 -47 -102.5t-106 -44.5q-54 0 -88 39.5t-27 93.5zM313 918q0 58 47.5 102.5t106.5 44.5q49 0 83 -34.5t34 -84.5 q0 -58 -47.5 -102.5t-106.5 -44.5q-49 0 -83 34.5t-34 84.5z" />
<glyph unicode="&#xf8;" horiz-adv-x="1105" d="M-78 31l23 164l110 61q-12 41 -12 109q0 104 44 200t116 165t169.5 110t200.5 41q66 0 124.5 -18t95.5 -43.5t64 -51t39 -43.5l11 -18l189 102l-23 -164l-110 -61q12 -50 12 -113q0 -102 -44 -197t-116.5 -164t-170 -110t-200.5 -41q-66 0 -124.5 18t-95 43.5t-63.5 51 t-39 43.5l-11 18zM279 369l419 225q-2 3 -7 8.5t-20.5 20t-32 25t-42 19.5t-51.5 9q-87 0 -167 -75.5t-93 -180.5zM322 246q2 -3 6.5 -8.5t20 -20t32 -25t41.5 -19.5t51 -9q87 0 166 75.5t96 180.5l8 51z" />
<glyph unicode="&#xf9;" horiz-adv-x="1085" d="M76 328l71 512h226l-72 -512q-9 -70 33.5 -117t118.5 -47q75 0 142.5 55.5t76.5 118.5l69 502h226l-117 -840h-225l10 82h-21q-4 -5 -10.5 -13.5t-30.5 -29.5t-51 -37t-70.5 -29.5t-89.5 -13.5q-133 0 -220 109t-66 260zM422 1178l106 174l263 -174l-80 -134z" />
<glyph unicode="&#xfa;" horiz-adv-x="1085" d="M76 328l71 512h226l-72 -512q-9 -70 33.5 -117t118.5 -47q75 0 142.5 55.5t76.5 118.5l69 502h226l-117 -840h-225l10 82h-21q-4 -5 -10.5 -13.5t-30.5 -29.5t-51 -37t-70.5 -29.5t-89.5 -13.5q-133 0 -220 109t-66 260zM483 1178l312 174l57 -174l-326 -134z" />
<glyph unicode="&#xfb;" horiz-adv-x="1085" d="M76 328l71 512h226l-72 -512q-9 -70 33.5 -117t118.5 -47q75 0 142.5 55.5t76.5 118.5l69 502h226l-117 -840h-225l10 82h-21q-4 -5 -10.5 -13.5t-30.5 -29.5t-51 -37t-70.5 -29.5t-89.5 -13.5q-133 0 -220 109t-66 260zM322 1188l311 174l262 -174l-78 -123l-211 102 l-239 -102z" />
<glyph unicode="&#xfc;" horiz-adv-x="1085" d="M76 328l71 512h226l-72 -512q-9 -70 33.5 -117t118.5 -47q75 0 142.5 55.5t76.5 118.5l69 502h226l-117 -840h-225l10 82h-21q-4 -5 -10.5 -13.5t-30.5 -29.5t-51 -37t-70.5 -29.5t-89.5 -13.5q-133 0 -220 109t-66 260zM311 1198q0 49 46 91t96 42q46 0 78.5 -38.5 t25.5 -84.5q-6 -46 -49.5 -84.5t-89.5 -38.5q-42 0 -74.5 35t-32.5 78zM680 1198q0 49 45.5 91t95.5 42q42 0 74.5 -34.5t32.5 -77.5q0 -49 -46 -91.5t-96 -42.5q-42 0 -74 35t-32 78z" />
<glyph unicode="&#xfd;" horiz-adv-x="921" d="M-70 -573l306 573l-199 840h246l112 -512h21l256 512h246l-742 -1413h-246zM391 1178l311 174l58 -174l-326 -134z" />
<glyph unicode="&#xfe;" horiz-adv-x="1105" d="M-39 -573l277 1966h225l-90 -635h20q4 5 11 13.5t32.5 29.5t55 37t77 29.5t99.5 13.5q134 0 231.5 -115t97.5 -285q0 -107 -41.5 -206t-107.5 -167t-147.5 -108.5t-161.5 -40.5q-52 0 -95.5 12.5t-69 30.5t-43.5 36.5t-25 31.5l-7 12h-20l-93 -655h-225zM319 379 q-12 -85 45 -150t142 -65q97 0 175.5 84.5t78.5 208.5q0 96 -52.5 157.5t-129.5 61.5q-85 0 -159.5 -65t-86.5 -150z" />
<glyph unicode="&#xff;" horiz-adv-x="921" d="M-70 -573l306 573l-199 840h246l112 -512h21l256 512h246l-742 -1413h-246zM219 1198q0 49 45.5 91t95.5 42q46 0 79 -38.5t26 -84.5q-6 -46 -49.5 -84.5t-89.5 -38.5q-42 0 -74.5 35t-32.5 78zM588 1198q0 49 45.5 91t95.5 42q42 0 74.5 -34.5t32.5 -77.5 q0 -49 -46 -91.5t-96 -42.5q-42 0 -74 35t-32 78z" />
<glyph unicode="&#x152;" horiz-adv-x="1761" d="M72 618q0 152 68 296t179 248.5t260 167.5t304 63h870l-31 -226h-563l-49 -348h399l-32 -225h-400l-51 -369h584l-33 -225h-891q-174 0 -315.5 83.5t-220 224.5t-78.5 310zM330 643q0 -172 114 -295t275 -123h61l133 942h-61q-127 0 -247.5 -71.5t-197.5 -194t-77 -258.5 z" />
<glyph unicode="&#x153;" horiz-adv-x="1628" d="M25 367q0 137 74 256.5t196 188.5t260 69q69 0 125.5 -17t88.5 -41t54 -48t29 -41l8 -17h21q4 7 12.5 18t38.5 39t65 50t92.5 39.5t120.5 17.5q156 0 248 -78.5t92 -184.5t-108.5 -193t-265.5 -87h-226q5 -77 48.5 -125.5t111.5 -48.5q37 0 72.5 12.5t59.5 31t42.5 36.5 t27.5 30l9 13l180 -103q-3 -5 -9 -13t-26 -31.5t-43 -44.5t-60.5 -47t-77.5 -44.5t-94 -31.5t-110 -13q-63 0 -115.5 17t-82 41t-50.5 48t-29 41l-7 17h-21q-4 -7 -12.5 -18t-40 -39t-68 -50t-98.5 -39.5t-131 -17.5q-173 0 -287 117.5t-114 290.5zM262 389 q0 -94 57.5 -159.5t135.5 -65.5q96 0 180 86t84 201q0 94 -57.5 159.5t-135.5 65.5q-96 0 -180 -86t-84 -201zM985 522h215q48 1 81.5 25.5t33.5 52.5q0 32 -33.5 54t-99.5 22q-52 0 -103 -41t-94 -113z" />
<glyph unicode="&#x178;" horiz-adv-x="1187" d="M115 1393h276l205 -584h20l369 584h277l-578 -901l-70 -492h-245l69 492zM428 1731q0 49 45.5 91t95.5 42q46 0 79 -38.5t26 -84.5q-6 -46 -49.5 -84.5t-89.5 -38.5q-42 0 -74.5 35t-32.5 78zM797 1731q0 49 45.5 91t95.5 42q42 0 74 -35t32 -78q0 -49 -45.5 -91 t-95.5 -42q-42 0 -74 35t-32 78z" />
<glyph unicode="&#x2c6;" horiz-adv-x="696" d="M131 1229l311 174l263 -174l-78 -123l-211 102l-240 -102z" />
<glyph unicode="&#x2dc;" horiz-adv-x="634" d="M127 1198q12 89 64 142t116 53q39 0 86 -31t70 -31q17 0 31.5 16.5t17.5 45.5l147 -52q-13 -89 -65.5 -141.5t-116.5 -52.5q-39 0 -84.5 30.5t-68.5 30.5q-18 0 -33 -16t-19 -45z" />
<glyph unicode="&#x2000;" horiz-adv-x="993" />
<glyph unicode="&#x2001;" horiz-adv-x="1987" />
<glyph unicode="&#x2002;" horiz-adv-x="993" />
<glyph unicode="&#x2003;" horiz-adv-x="1987" />
<glyph unicode="&#x2004;" horiz-adv-x="662" />
<glyph unicode="&#x2005;" horiz-adv-x="496" />
<glyph unicode="&#x2006;" horiz-adv-x="331" />
<glyph unicode="&#x2007;" horiz-adv-x="331" />
<glyph unicode="&#x2008;" horiz-adv-x="248" />
<glyph unicode="&#x2009;" horiz-adv-x="397" />
<glyph unicode="&#x200a;" horiz-adv-x="110" />
<glyph unicode="&#x2010;" horiz-adv-x="819" d="M23 451l28 204h697l-29 -204h-696z" />
<glyph unicode="&#x2011;" horiz-adv-x="819" d="M23 451l28 204h697l-29 -204h-696z" />
<glyph unicode="&#x2012;" horiz-adv-x="819" d="M23 451l28 204h697l-29 -204h-696z" />
<glyph unicode="&#x2013;" horiz-adv-x="1003" d="M23 451l28 204h881l-29 -204h-880z" />
<glyph unicode="&#x2014;" horiz-adv-x="1331" d="M23 451l28 204h1209l-29 -204h-1208z" />
<glyph unicode="&#x2018;" horiz-adv-x="409" d="M117 1051q0 25 14.5 57t29.5 51l15 19l154 215h92l-113 -215q3 -1 8.5 -2.5t19 -9t23.5 -18t18.5 -29t8.5 -40.5q0 -58 -47.5 -102.5t-106.5 -44.5q-49 0 -82.5 34.5t-33.5 84.5z" />
<glyph unicode="&#x2019;" horiz-adv-x="413" d="M113 932l112 215q-3 1 -8.5 2.5t-19 9t-23.5 17.5t-18.5 28.5t-8.5 40.5q0 58 47.5 103t106.5 45q49 0 82 -34.5t33 -84.5q0 -25 -14.5 -57t-29.5 -51l-14 -19l-153 -215h-92z" />
<glyph unicode="&#x201a;" horiz-adv-x="389" d="M-61 -215l112 215q-3 1 -8.5 2.5t-19 9t-23.5 17.5t-18.5 28.5t-8.5 40.5q0 58 47.5 103t106.5 45q49 0 82 -34.5t33 -84.5q0 -25 -14.5 -57t-29.5 -51l-14 -19l-153 -215h-92z" />
<glyph unicode="&#x201c;" horiz-adv-x="757" d="M117 1051q0 25 14.5 57t29.5 51l15 19l154 215h92l-113 -215q3 -1 8.5 -2.5t19 -9t23.5 -18t18.5 -29t8.5 -40.5q0 -58 -47.5 -102.5t-106.5 -44.5q-49 0 -82.5 34.5t-33.5 84.5zM465 1051q0 25 14.5 57t29.5 51l15 19l154 215h92l-113 -215q3 -1 8.5 -2.5t19 -9 t23.5 -18t18.5 -29t8.5 -40.5q0 -58 -47 -102.5t-106 -44.5q-49 0 -83 34.5t-34 84.5z" />
<glyph unicode="&#x201d;" horiz-adv-x="757" d="M111 932l112 215q-3 1 -8.5 2.5t-19 9t-23.5 17.5t-18.5 28.5t-8.5 40.5q0 58 47.5 103t106.5 45q49 0 82 -34.5t33 -84.5q0 -25 -14.5 -57t-29.5 -51l-14 -19l-153 -215h-92zM459 932l112 215q-3 1 -8.5 2.5t-18.5 9t-23 17.5t-18.5 28.5t-8.5 40.5q0 58 47 103t106 45 q49 0 82 -34.5t33 -84.5q0 -25 -14 -57t-28 -51l-15 -19l-154 -215h-92z" />
<glyph unicode="&#x201e;" horiz-adv-x="757" d="M-51 -215l112 215q-3 1 -8.5 2.5t-18.5 9t-23 17.5t-18.5 28.5t-8.5 40.5q0 58 47 103t106 45q49 0 82 -34.5t33 -84.5q0 -25 -14 -57t-28 -51l-15 -19l-154 -215h-92zM297 -215l113 215q-3 1 -8.5 2.5t-19 9t-23.5 17.5t-18.5 28.5t-8.5 40.5q0 58 47 103t106 45 q49 0 82 -34.5t33 -84.5q0 -25 -14 -57t-28 -51l-15 -19l-154 -215h-92z" />
<glyph unicode="&#x2022;" horiz-adv-x="634" d="M102 500q0 84 63.5 145.5t147.5 61.5q70 0 116 -47t46 -115q0 -84 -64 -145.5t-149 -61.5q-68 0 -114 47t-46 115z" />
<glyph unicode="&#x2026;" horiz-adv-x="1269" d="M-16 98q0 58 47 103t106 45q49 0 82 -34.5t33 -84.5q0 -58 -47.5 -102.5t-106.5 -44.5q-49 0 -81.5 34t-32.5 84zM414 98q0 58 47 103t106 45q49 0 82 -34.5t33 -84.5q0 -58 -47.5 -102.5t-106.5 -44.5q-49 0 -81.5 34t-32.5 84zM844 98q0 58 47 103t106 45 q49 0 82 -34.5t33 -84.5q0 -58 -47.5 -102.5t-106.5 -44.5q-49 0 -81.5 34t-32.5 84z" />
<glyph unicode="&#x202f;" horiz-adv-x="397" />
<glyph unicode="&#x2039;" horiz-adv-x="645" d="M-4 410l436 409l123 -153l-270 -246l-4 -21l200 -245l-164 -154z" />
<glyph unicode="&#x203a;" horiz-adv-x="645" d="M2 154l270 245l2 21l-200 246l166 153l321 -409l-438 -410z" />
<glyph unicode="&#x205f;" horiz-adv-x="496" />
<glyph unicode="&#x20ac;" horiz-adv-x="1536" d="M12 451l27 184h123l16 123h-123l27 184h154q49 95 123.5 181t169.5 156.5t214.5 112.5t245.5 42q84 0 159.5 -18t129 -47t99 -64t74.5 -70t49.5 -64t29.5 -47l8 -18l-231 -123q-4 9 -12.5 24t-39.5 54t-67.5 68.5t-98.5 54t-131 24.5q-141 0 -259.5 -79.5t-186.5 -186.5 h440l-26 -184h-492l-16 -123h491l-26 -184h-441q18 -49 49 -94t76.5 -85t110 -64t137.5 -24q74 0 146 26.5t121.5 64t89 75t58.5 64.5l19 26l199 -123q-5 -7 -14.5 -20t-42.5 -50.5t-70 -71t-96.5 -75t-122.5 -71t-147.5 -50t-172.5 -20.5q-126 0 -234.5 42t-183.5 112.5 t-125.5 156.5t-72.5 181h-154z" />
<glyph unicode="&#x2122;" horiz-adv-x="1382" d="M111 1229l22 164h512l-22 -164h-164l-58 -410h-184l57 410h-163zM647 819l84 594h41l246 -287l328 287h40l-83 -594h-185l29 205h-10l-152 -133l-115 133h-10l-29 -205h-184z" />
<glyph unicode="&#x25fc;" horiz-adv-x="839" d="M0 0v840h840v-840h-840z" />
</font>
</defs>
</svg>
