<?xml version="1.0" standalone="no"?>
<!DOCTYPE svg PUBLIC "-//W3C//DTD SVG 1.1//EN" "http://www.w3.org/Graphics/SVG/1.1/DTD/svg11.dtd" >
<svg xmlns="http://www.w3.org/2000/svg" xmlns:xlink="http://www.w3.org/1999/xlink" version="1.1">
<metadata></metadata>
<defs>
<font id="tt_chocolatesthin" horiz-adv-x="1024" >
<font-face units-per-em="2048" ascent="1638" descent="-410" />
<missing-glyph horiz-adv-x="348" />
<glyph horiz-adv-x="0" />
<glyph horiz-adv-x="682" />
<glyph unicode="&#xd;" horiz-adv-x="0" />
<glyph horiz-adv-x="0" />
<glyph unicode=" "  horiz-adv-x="348" />
<glyph unicode="&#x09;" horiz-adv-x="348" />
<glyph unicode="&#xa0;" horiz-adv-x="348" />
<glyph unicode="!" horiz-adv-x="491" d="M205 20q0 15 13 28t28 13t28 -13t13 -28t-13 -27.5t-28 -12.5t-28 12.5t-13 27.5zM225 717v635h41v-635l-10 -389h-20z" />
<glyph unicode="&#x22;" horiz-adv-x="512" d="M123 1352h41l-10 -410h-21zM348 1352h41l-10 -410h-21z" />
<glyph unicode="#" horiz-adv-x="1228" d="M82 430l10 41h236l123 410h-236l10 41h236l123 430h41l-123 -430h368l123 430h41l-123 -430h236l-10 -41h-236l-123 -410h236l-10 -41h-236l-123 -430h-41l123 430h-369l-122 -430h-41l122 430h-235zM369 471h368l123 410h-368z" />
<glyph unicode="$" horiz-adv-x="1044" d="M82 225l31 21q5 -10 14 -26.5t44 -59t76.5 -75t113 -59t151.5 -26.5q165 0 277 103.5t112 244.5q0 83 -40.5 145.5t-105.5 101t-143.5 71t-157.5 65t-144 72t-105.5 103.5t-40.5 149q0 139 97.5 235t250.5 103v225h41v-225q60 -3 117 -25t95.5 -51.5t68 -59t43.5 -49.5 l14 -20l-31 -21q-5 8 -13.5 20t-40 44t-66.5 56.5t-91.5 44.5t-116.5 20q-144 0 -235.5 -86t-91.5 -211q0 -62 25 -112t68 -84t98 -62t116.5 -52t122.5 -48.5t116 -56t98 -70t68 -95.5t25 -127q0 -154 -110 -264t-279 -125v-225h-41v225q-86 0 -162 27.5t-123 66.5t-81.5 78 t-49.5 67z" />
<glyph unicode="%" horiz-adv-x="1351" d="M82 1106q0 121 78.5 204t187.5 83t187.5 -83t78.5 -204t-78.5 -204t-187.5 -83t-187.5 83t-78.5 204zM123 1106q0 -106 65.5 -176t159.5 -70t159.5 70t65.5 176t-65.5 176t-159.5 70t-159.5 -70t-65.5 -176zM287 0l737 1352h41l-737 -1352h-41zM737 246q0 121 79 203.5 t188 82.5t187.5 -82.5t78.5 -203.5t-78.5 -204t-187.5 -83t-188 83t-79 204zM778 246q0 -106 66 -176t160 -70t159.5 70t65.5 176t-65.5 176t-159.5 70t-160 -70t-66 -176z" />
<glyph unicode="&#x26;" horiz-adv-x="1280" d="M123 348q0 74 34 141.5t82 111t96 75.5t82 46l34 15q-8 7 -20 19t-44 50t-56.5 77t-44.5 94.5t-20 107.5q0 131 88.5 219.5t218.5 88.5q121 0 204 -79t83 -188q0 -69 -36 -135.5t-87 -112t-102 -81.5t-87 -53l-36 -17l451 -481q9 14 23.5 39.5t42 105.5t36.5 162h41 q-9 -82 -37 -166.5t-52 -128.5l-24 -43l205 -215h-51l-174 184q-6 -9 -18 -24t-53 -54t-86.5 -68.5t-117 -54t-145.5 -24.5q-189 0 -309.5 112.5t-120.5 276.5zM164 348q0 -149 107.5 -248.5t281.5 -99.5q69 0 134.5 22t109.5 53.5t78.5 63.5t50.5 54l16 22l-461 492 q-7 -2 -18 -7t-44 -21.5t-63 -35.5t-66.5 -50.5t-63 -66t-44.5 -81.5t-18 -97zM307 1085q0 -46 18 -96.5t43.5 -90t51 -72t43.5 -50.5l18 -18q7 3 19 8.5t47.5 25t67 40.5t70.5 54.5t67.5 68t47.5 80t19 91.5q0 94 -70 160t-176 66q-115 0 -190.5 -75.5t-75.5 -191.5z" />
<glyph unicode="'" horiz-adv-x="286" d="M123 1352h41l-10 -410h-21z" />
<glyph unicode="(" horiz-adv-x="675" d="M205 512q0 125 22.5 247t58.5 217t80 180.5t87.5 145.5t79.5 105t59 67l22 21l21 -20q-8 -8 -22 -22.5t-54.5 -64.5t-77 -105t-81.5 -142.5t-77.5 -178t-54.5 -210t-22 -240.5t21.5 -239.5t56 -211.5t76 -177t82.5 -143.5t75.5 -104t56.5 -66.5l21 -21l-21 -20 q-9 8 -23.5 22.5t-57 65t-81 106.5t-86 144.5t-81 181.5t-57 215.5t-23.5 247.5z" />
<glyph unicode=")" horiz-adv-x="675" d="M41 -451q8 8 22 22.5t54.5 64.5t77 105t81.5 142.5t77.5 178t54.5 210t22 240.5t-21.5 239.5t-56 211.5t-76 177t-82.5 143.5t-75.5 104t-56.5 66.5l-21 21l20 20q9 -8 23.5 -22.5t57 -65t81.5 -106.5t86 -144.5t81 -181.5t57.5 -215.5t23.5 -247.5t-22.5 -247t-59 -217 t-80 -180.5t-87 -145.5t-80 -105t-58.5 -67l-23 -21z" />
<glyph unicode="*" horiz-adv-x="675" d="M102 1188l11 31l204 -82v215h41v-215l205 82l10 -31l-204 -82l143 -184l-31 -21l-143 184l-143 -184l-31 21l143 184z" />
<glyph unicode="+" horiz-adv-x="798" d="M82 532v41h297v328h41v-328h297v-41h-297v-327h-41v327h-297z" />
<glyph unicode="," horiz-adv-x="319" d="M82 -164l61 144q-28 9 -28 40q0 15 13 28t28 13t28 -13t13 -28q0 -9 -3.5 -19t-6.5 -15l-3 -6l-82 -144h-20z" />
<glyph unicode="-" horiz-adv-x="798" d="M82 512v41h635v-41h-635z" />
<glyph unicode="." horiz-adv-x="327" d="M123 20q0 15 13 28t28 13t28 -13t13 -28t-13 -27.5t-28 -12.5t-28 12.5t-13 27.5z" />
<glyph unicode="/" horiz-adv-x="798" d="M61 0l635 1352h41l-635 -1352h-41z" />
<glyph unicode="0" horiz-adv-x="1187" d="M123 676q0 140 26.5 258.5t71.5 202t105.5 142t128 86.5t139.5 28t139.5 -28t128 -86.5t105.5 -142t71.5 -202t26.5 -258.5t-26.5 -258.5t-71.5 -202t-105.5 -142t-128 -86.5t-139.5 -28t-139.5 28t-128 86.5t-105.5 142t-71.5 202t-26.5 258.5zM164 676q0 -134 24 -247 t65.5 -191t96.5 -132.5t116.5 -80t127.5 -25.5t127.5 25.5t116.5 80t96.5 132.5t65.5 191t24 247t-24 247t-65.5 191t-96.5 132.5t-116.5 80t-127.5 25.5t-127.5 -25.5t-116.5 -80t-96.5 -132.5t-65.5 -191t-24 -247z" />
<glyph unicode="1" horiz-adv-x="716" d="M82 1178l348 215v-1352h225v-41h-491v41h225v1280l-287 -174z" />
<glyph unicode="2" horiz-adv-x="962" d="M41 0v20q16 12 44 32.5t109 86.5t154.5 133t163 163.5t154 186t109 192t44.5 190.5q0 140 -108 244t-260 104q-63 0 -122 -21t-98.5 -51t-70 -60.5t-44.5 -51.5l-14 -21l-30 20q5 9 15.5 24.5t47 54.5t77 68.5t105.5 54t134 24.5q167 0 288 -117t121 -272q0 -69 -25 -146 t-67 -149t-96.5 -145.5t-115 -138t-120.5 -124t-114.5 -106.5t-96.5 -82t-67 -53l-25 -19h727v-41h-819z" />
<glyph unicode="3" d="M61 225l31 21q5 -10 14 -26.5t44 -59t77 -75t113.5 -59t151.5 -26.5q167 0 278 107t111 262t-111 261.5t-278 106.5h-144v21l471 553h-696v41h768v-21l-471 -553h72q183 0 306.5 -119.5t123.5 -289.5t-123.5 -290t-306.5 -120q-63 0 -120.5 14.5t-99.5 38t-78.5 52 t-60 57t-40.5 52t-25 37.5z" />
<glyph unicode="4" horiz-adv-x="1044" d="M41 369v30l737 1035v-1024h205v-41h-205v-369h-41v369h-696zM98 410h639v895z" />
<glyph unicode="5" horiz-adv-x="1064" d="M123 225l31 21q5 -10 14 -26.5t44 -59t76.5 -75t113 -59t151.5 -26.5q169 0 279 110t110 279t-110 279t-279 110q-82 0 -169 -31t-133 -61l-46 -31v697h696v-41h-655v-584q0 3 40.5 24.5t117 44.5t149.5 23q185 0 307.5 -122.5t122.5 -307.5t-122.5 -307.5t-307.5 -122.5 q-86 0 -162 27.5t-123 66.5t-81.5 78t-48.5 67z" />
<glyph unicode="6" horiz-adv-x="1085" d="M123 410q0 57 10.5 114t25.5 97.5t30 72.5t25 48l11 16l441 594h51l-441 -594h11q5 4 13 11t36 24.5t57 31t73 24.5t87 11q179 0 304.5 -130t125.5 -320q0 -191 -126 -321t-304 -130t-304 130t-126 321zM164 410q0 -175 113 -292.5t276 -117.5t276 117.5t113 292.5 t-113 292t-276 117t-276 -117t-113 -292z" />
<glyph unicode="7" horiz-adv-x="892" d="M61 1311v41h770l-503 -1352h-41l491 1311h-717z" />
<glyph unicode="8" horiz-adv-x="1146" d="M123 358q0 61 18 114.5t47 91t64 68.5t70 50t64 32t47 18l18 5v11q-6 1 -15.5 4t-37 14t-53 25t-56 39.5t-53 55.5t-37.5 74.5t-15 94.5q0 134 112 236t277 102t277.5 -102t112.5 -236q0 -50 -14.5 -94t-38.5 -74.5t-52 -55.5t-56.5 -40t-52.5 -25t-39 -14l-14 -4v-11 q7 -2 18.5 -5.5t46 -18t65.5 -32t68.5 -49.5t65 -69t46 -90.5t18.5 -114.5q0 -102 -58.5 -193.5t-163.5 -148.5t-229 -57q-93 0 -177.5 33.5t-144 89t-94 128t-34.5 148.5zM164 358q0 -68 31 -133t84.5 -115t130.5 -80t163 -30q173 0 291.5 108t118.5 250q0 92 -52.5 174 t-148 133.5t-209.5 51.5q-86 0 -163 -30.5t-130.5 -80t-84.5 -115t-31 -133.5zM225 1055q0 -119 99 -208t249 -89t249.5 89t99.5 208t-99.5 208t-249.5 89t-249 -89t-99 -208z" />
<glyph unicode="9" horiz-adv-x="1085" d="M102 942q0 191 126 321t304 130q179 0 305 -130.5t126 -320.5q0 -57 -10.5 -114t-25.5 -97.5t-30.5 -72.5t-26.5 -48l-10 -16l-440 -594h-51l440 594h-10q-5 -4 -13.5 -11t-36 -24.5t-57 -31t-73.5 -24.5t-87 -11q-179 0 -304.5 130t-125.5 320zM143 942 q0 -175 113 -292.5t276 -117.5t276.5 117.5t113.5 292.5t-113.5 292.5t-276.5 117.5t-276 -117.5t-113 -292.5z" />
<glyph unicode=":" horiz-adv-x="327" d="M123 20q0 15 13 28t28 13t28 -13t13 -28t-13 -27.5t-28 -12.5t-28 12.5t-13 27.5zM123 799q0 15 13 28t28 13t28 -13t13 -28t-13 -28t-28 -13t-28 13t-13 28z" />
<glyph unicode=";" horiz-adv-x="319" d="M82 -164l61 144q-28 9 -28 40q0 15 13 28t28 13t28 -13t13 -28q0 -9 -3.5 -19t-6.5 -15l-3 -6l-82 -144h-20zM115 799q0 15 13 28t28 13t28 -13t13 -28t-13 -28t-28 -13t-28 13t-13 28z" />
<glyph unicode="&#x3c;" horiz-adv-x="757" d="M61 389v41l594 348v-51l-553 -317l553 -318v-51z" />
<glyph unicode="=" horiz-adv-x="778" d="M82 348v41h614v-41h-614zM82 676v41h614v-41h-614z" />
<glyph unicode="&#x3e;" horiz-adv-x="757" d="M102 41v51l553 318l-553 317v51l594 -348v-41z" />
<glyph unicode="?" horiz-adv-x="849" d="M41 1188q5 8 14.5 22t43.5 49.5t72 62.5t100 49t128 22q159 0 264 -98.5t105 -237.5q0 -58 -21 -110.5t-54.5 -94.5t-73.5 -83.5t-80.5 -86t-74 -94t-54.5 -116.5t-21 -144h-31q0 81 20.5 151.5t53 121.5t71.5 96.5t78.5 86t72 81t53 89.5t20.5 103q0 124 -92 209.5 t-236 85.5q-60 0 -116 -19t-92.5 -46t-64.5 -54.5t-41 -46.5l-13 -19zM328 20q0 15 13 28t28 13t28 -13t13 -28t-13 -27.5t-28 -12.5t-28 12.5t-13 27.5z" />
<glyph unicode="@" horiz-adv-x="1740" d="M123 614q0 151 61.5 291t163.5 242t242 163.5t291 61.5q158 0 296 -54.5t234.5 -147.5t151.5 -221.5t55 -272.5q0 -96 -28 -179t-72 -136.5t-98.5 -84t-108.5 -30.5q-46 0 -84 16.5t-59.5 40.5t-36.5 48t-20 41l-5 16q-3 -7 -9.5 -17.5t-29.5 -38.5t-49.5 -49.5t-69 -39 t-88.5 -17.5q-112 0 -199.5 101.5t-87.5 256.5t87.5 257t199.5 102q40 0 78 -14t63.5 -33.5t45 -39t29.5 -33.5l9 -14v93h41v-471q2 -7 5.5 -18t18.5 -39t34 -50t53 -39.5t74 -17.5q47 0 93.5 27t85.5 75t63 123t24 164q0 137 -51.5 258t-142 208.5t-221 138t-281.5 50.5 q-191 0 -356.5 -97.5t-263 -263t-97.5 -356.5q0 -151 57.5 -288t154.5 -235t229 -156t276 -58q69 0 136.5 12t115 28.5t85 33.5t56.5 29l18 12l19 -33q-7 -5 -19.5 -13.5t-55 -29.5t-89 -37t-119.5 -29.5t-147 -13.5q-202 0 -376.5 104t-278 283.5t-103.5 390.5zM614 604 q0 -140 74.5 -228.5t171.5 -88.5q46 0 86 17t64.5 41t42 48t25.5 41l7 17v307q-2 7 -7.5 18t-24.5 39t-42.5 50t-64 39.5t-86.5 17.5q-97 0 -171.5 -89t-74.5 -229z" />
<glyph unicode="A" horiz-adv-x="1228" d="M102 0l512 1434l512 -1434h-41l-112 307h-717l-113 -307h-41zM266 348h697l-349 973z" />
<glyph unicode="B" horiz-adv-x="1187" d="M225 0v1352h348q179 0 284.5 -91.5t105.5 -226.5q0 -52 -13.5 -96t-35.5 -72.5t-48 -51t-52 -34.5t-48 -20t-36 -10l-13 -2v-11q7 -1 18.5 -3.5t45.5 -14t65 -26.5t69 -44t65 -64.5t45.5 -89t18.5 -116.5q0 -159 -124.5 -269t-325.5 -110h-369zM266 41h328 q186 0 298 97.5t112 240.5t-112 240.5t-298 97.5h-328v-676zM266 758h328q150 0 239 78.5t89 197.5q0 120 -93 198.5t-256 78.5h-307v-553z" />
<glyph unicode="C" horiz-adv-x="1423" d="M123 676q0 142 57 275.5t150 229.5t217 154t252 58q71 0 138 -16t118 -41t95.5 -55.5t75 -61.5t52.5 -56t32 -41l11 -16l-31 -21q-7 11 -20 29t-58.5 64t-98 81t-137.5 64t-177 29q-121 0 -237 -54.5t-203.5 -145t-141 -216t-53.5 -260.5t53.5 -260.5t141 -216 t203.5 -145t237 -54.5q79 0 151.5 18t124.5 47t96.5 64t73 70t49 64t28.5 47l9 18l31 -21q-3 -7 -9.5 -19.5t-30.5 -49t-52.5 -69t-77 -73t-102.5 -69t-130.5 -48.5t-160.5 -20q-128 0 -252 58t-217 154t-150 229.5t-57 275.5z" />
<glyph unicode="D" horiz-adv-x="1331" d="M225 0v1352h307q192 0 346.5 -87.5t242 -242t87.5 -346.5t-87.5 -346.5t-242 -242t-346.5 -87.5h-307zM266 41h266q182 0 327 81.5t226.5 226.5t81.5 327t-81.5 327t-226.5 226.5t-327 81.5h-266v-1270z" />
<glyph unicode="E" d="M225 0v1352h676v-41h-635v-594h471v-41h-471v-635h656v-41h-697z" />
<glyph unicode="F" horiz-adv-x="983" d="M225 0v1352h697v-41h-656v-676h492v-41h-492v-594h-41z" />
<glyph unicode="G" horiz-adv-x="1495" d="M123 676q0 142 57 275.5t150 229.5t217 154t252 58q71 0 138 -16t118 -41t95.5 -55.5t75 -61.5t52.5 -56t32 -41l11 -16l-31 -21q-7 11 -20 29t-58.5 64t-98 81t-137.5 64t-177 29q-121 0 -237 -54.5t-203.5 -145t-141 -216t-53.5 -260.5t53.5 -260.5t141 -216 t203.5 -145t237 -54.5q79 0 151.5 18t124.5 47t96.5 64t73 70t49 64t28.5 47l9 18v245h-409v41h450v-307q-3 -7 -10 -19.5t-32 -49t-54.5 -69t-79 -73t-104.5 -69t-132 -48.5t-161 -20q-128 0 -252 58t-217 154t-150 229.5t-57 275.5z" />
<glyph unicode="H" horiz-adv-x="1331" d="M225 0v1352h41v-697h799v697h41v-1352h-41v614h-799v-614h-41z" />
<glyph unicode="I" horiz-adv-x="491" d="M225 0v1352h41v-1352h-41z" />
<glyph unicode="J" horiz-adv-x="880" d="M82 82l31 31q4 -5 11 -12.5t30.5 -27t49 -34.5t65 -27t79.5 -12q118 0 192 82t74 225v1004h-430v41h471v-1045q0 -158 -87 -253t-220 -95q-46 0 -90 12.5t-74.5 30.5t-54.5 36.5t-35 31.5z" />
<glyph unicode="K" horiz-adv-x="1054" d="M225 0v1352h41v-1352h-41zM369 737l522 615h51l-522 -615l573 -737h-51z" />
<glyph unicode="L" horiz-adv-x="962" d="M225 0v1352h41v-1311h635v-41h-676z" />
<glyph unicode="M" horiz-adv-x="1638" d="M225 0v1393l594 -891l594 891v-1393h-41v1260l-553 -830l-553 830v-1260h-41z" />
<glyph unicode="N" horiz-adv-x="1331" d="M225 0v1393l840 -1301v1260h41v-1393l-840 1301v-1260h-41z" />
<glyph unicode="O" horiz-adv-x="1597" d="M123 676q0 142 57 275.5t150 229.5t217 154t252 58t252 -58t217 -154t150 -229.5t57 -275.5t-57 -275.5t-150 -229.5t-217 -154t-252 -58t-252 58t-217 154t-150 229.5t-57 275.5zM164 676q0 -135 53.5 -260.5t141 -216t203.5 -145t237 -54.5t237 54.5t203.5 145t141 216 t53.5 260.5t-53.5 260.5t-141 216t-203.5 145t-237 54.5t-237 -54.5t-203.5 -145t-141 -216t-53.5 -260.5z" />
<glyph unicode="P" horiz-adv-x="1126" d="M225 0v1352h277q154 0 274.5 -61.5t184 -164t63.5 -225.5q0 -189 -145 -319.5t-377 -130.5h-236v-451h-41zM266 492h236q217 0 349 117.5t132 291.5t-132 292t-349 118h-236v-819z" />
<glyph unicode="Q" horiz-adv-x="1597" d="M123 676q0 142 57 275.5t150 229.5t217 154t252 58t252 -58t217 -154t150 -229.5t57 -275.5q0 -67 -13 -132.5t-34 -117t-46 -98t-50 -79.5t-46 -57.5t-34 -36.5l-13 -12l236 -348h-52l-215 318q-7 -6 -21 -16.5t-58 -37t-89.5 -47t-111.5 -37t-129 -16.5q-128 0 -252 58 t-217 154t-150 229.5t-57 275.5zM164 676q0 -135 53.5 -260.5t141 -216t203.5 -145t237 -54.5q63 0 126 16t108.5 38.5t82 45t54.5 38.5l18 16l-133 204h51l113 -174q9 8 23.5 22t51.5 62.5t65.5 102t51.5 136.5t23 169q0 135 -53.5 260.5t-141 216t-203.5 145t-237 54.5 t-237 -54.5t-203.5 -145t-141 -216t-53.5 -260.5z" />
<glyph unicode="R" horiz-adv-x="1198" d="M225 0v1352h359q210 0 335 -111.5t125 -277.5q0 -63 -17 -117t-44 -91t-60 -66.5t-65.5 -47t-59.5 -28.5t-44 -15.5t-17 -3.5v-10l359 -584h-52l-352 573h-426v-573h-41zM266 614h316q195 0 308.5 99t113.5 250t-113 249.5t-307 98.5h-318v-697z" />
<glyph unicode="S" horiz-adv-x="1044" d="M82 225l31 21q5 -10 14 -26.5t44 -59t76.5 -75t113 -59t151.5 -26.5q165 0 277 103.5t112 244.5q0 83 -40.5 145.5t-105.5 101t-143.5 71t-157.5 65t-144 72t-105.5 103.5t-40.5 149q0 140 104.5 239t263.5 99q66 0 127.5 -21t101.5 -51.5t71 -60.5t45 -51l14 -21 l-31 -21q-5 8 -13.5 20t-40 44t-66.5 56.5t-91.5 44.5t-116.5 20q-144 0 -235.5 -86t-91.5 -211q0 -62 25 -112t68 -84t98 -62t116.5 -52t122.5 -48.5t116 -56t98 -70t68 -95.5t25 -127q0 -157 -124.5 -273t-305.5 -116q-86 0 -162 27.5t-123 66.5t-81.5 78t-49.5 67z" />
<glyph unicode="T" horiz-adv-x="983" d="M61 1311v41h861v-41h-410v-1311h-41v1311h-410z" />
<glyph unicode="U" horiz-adv-x="1310" d="M225 430v922h41v-922q0 -189 112.5 -309.5t276.5 -120.5t276.5 120.5t112.5 309.5v922h41v-922q0 -204 -125 -337.5t-305 -133.5t-305 133.5t-125 337.5z" />
<glyph unicode="V" horiz-adv-x="1187" d="M102 1352h41l451 -1321l450 1321h41l-491 -1434z" />
<glyph unicode="W" horiz-adv-x="1740" d="M102 1352h41l369 -1291l358 1352l359 -1352l368 1291h41l-409 -1434l-359 1352l-358 -1352z" />
<glyph unicode="X" horiz-adv-x="1126" d="M82 0l450 717l-389 635h52l368 -604l369 604h51l-389 -635l450 -717h-51l-430 686l-430 -686h-51z" />
<glyph unicode="Y" horiz-adv-x="1064" d="M61 1352h52l419 -809l420 809h52l-451 -860v-492h-41v492z" />
<glyph unicode="Z" d="M82 0l790 1311h-729v41h799l-786 -1311h786v-41h-860z" />
<glyph unicode="[" horiz-adv-x="573" d="M205 -410v1844h307v-41h-266v-1762h266v-41h-307z" />
<glyph unicode="\" horiz-adv-x="798" d="M61 1352h41l635 -1352h-41z" />
<glyph unicode="]" horiz-adv-x="573" d="M61 -369h267v1762h-267v41h308v-1844h-308v41z" />
<glyph unicode="^" horiz-adv-x="778" d="M102 819l277 533h41l256 -533h-41l-236 481l-256 -481h-41z" />
<glyph unicode="_" horiz-adv-x="675" d="M0 -266h676v-41h-676v41z" />
<glyph unicode="`" horiz-adv-x="389" d="M61 1311l21 41l246 -154l-21 -31z" />
<glyph unicode="a" horiz-adv-x="921" d="M102 215q0 105 90 180.5t238 75.5q64 0 135.5 -12.5t111.5 -25.5l40 -13v133q0 101 -76 173.5t-190 72.5q-49 0 -93 -15t-72.5 -36t-50 -42t-31.5 -36l-9 -15l-31 21q4 7 11 18t33.5 39t57 50t80.5 39.5t105 17.5q129 0 218 -85t89 -202v-553h-41v164h-10 q-2 -4 -5.5 -11.5t-16 -29t-27.5 -40.5t-40.5 -43t-54.5 -41t-69 -28.5t-84 -11.5q-134 0 -221 76.5t-87 179.5zM143 215q0 -88 74 -151.5t193 -63.5q123 0 215 92t92 215v82q-144 41 -287 41q-132 0 -209.5 -63t-77.5 -152z" />
<glyph unicode="b" horiz-adv-x="1044" d="M184 0v1352h41v-717h11q2 4 5.5 11.5t16.5 29t28.5 40.5t42.5 43t58 41t74.5 28.5t91.5 11.5q157 0 273 -126.5t116 -314.5q0 -124 -54.5 -226t-143.5 -158t-191 -56q-66 0 -123 21t-91 51t-58.5 60.5t-34.5 51.5l-10 21h-11v-164h-41zM225 307q0 -124 95.5 -215.5 t232.5 -91.5q142 0 245 113t103 286t-103 286.5t-245 113.5q-137 0 -232.5 -91.5t-95.5 -215.5v-185z" />
<glyph unicode="c" horiz-adv-x="931" d="M102 399q0 120 57.5 222.5t152 160.5t200.5 58q60 0 116 -19t93 -46t65 -54.5t41 -46.5l13 -19l-31 -20q-4 7 -12 18t-36 39t-60 50t-83 39.5t-106 17.5q-148 0 -258.5 -117t-110.5 -283t110 -282.5t259 -116.5q63 0 120 21t93.5 51t63.5 60.5t39 51.5l12 21l30 -21 q-2 -5 -6.5 -13t-21 -31.5t-35.5 -44.5t-50.5 -47t-66 -44.5t-81.5 -31.5t-97 -13q-107 0 -201 58t-151.5 160t-57.5 222z" />
<glyph unicode="d" horiz-adv-x="1044" d="M102 399q0 94 32 176.5t86 140t125 91t147 33.5q66 0 123 -21t91 -51t58.5 -60.5t34.5 -51.5l10 -21h10v717h41v-1352h-41v164h-10q-2 -4 -5.5 -11.5t-16.5 -29t-28.5 -40.5t-42.5 -43t-58 -41t-74.5 -28.5t-91.5 -11.5q-102 0 -191.5 56t-144 158t-54.5 226zM143 399 q0 -173 103.5 -286t245.5 -113q136 0 231.5 91t95.5 216v185q0 125 -95.5 216t-231.5 91q-142 0 -245.5 -113.5t-103.5 -286.5z" />
<glyph unicode="e" horiz-adv-x="962" d="M102 399q0 119 57 222t146.5 161t186.5 58q72 0 143 -35t125 -93t87.5 -140.5t33.5 -172.5l-21 -20h-715q6 -159 111.5 -269t245.5 -110q60 0 115 21t90 51t61.5 60.5t38.5 51.5l12 21l31 -21q-5 -9 -13.5 -24t-41 -54t-69 -68.5t-97.5 -54t-127 -24.5q-102 0 -194 58 t-149 160t-57 222zM143 420h697q-5 105 -55 192.5t-128.5 137t-164.5 49.5t-164.5 -49.5t-129 -137t-55.5 -192.5z" />
<glyph unicode="f" horiz-adv-x="542" d="M61 758v41h154v389q0 84 59 144.5t136 60.5q36 0 69.5 -13t48.5 -26l15 -13l-21 -30q-51 41 -112 41q-62 0 -108 -48t-46 -116v-389h236v-41h-236v-758h-41v758h-154z" />
<glyph unicode="g" horiz-adv-x="942" d="M82 -276q0 52 18 97t43.5 73t51 48.5t43.5 29.5l18 8q-3 2 -8.5 5t-20 15t-25 26t-19.5 37.5t-9 49.5q0 41 20.5 74t41.5 46l20 13q-5 3 -13.5 9t-29.5 27.5t-37 47.5t-29.5 69.5t-13.5 92.5q0 133 93.5 220t244.5 87h338v-41h-174v-10q7 -2 19 -6.5t42 -24.5t52.5 -46 t41.5 -74t19 -105q0 -133 -93.5 -220.5t-244.5 -87.5q-45 0 -88.5 10t-64.5 20l-21 11q-3 -2 -8.5 -5t-20 -13.5t-25 -23t-19.5 -31.5t-9 -39q0 -32 20.5 -60t40.5 -41l21 -12q72 20 174 20q177 0 283 -87t106 -209t-106 -209.5t-283 -87.5t-283 87.5t-106 209.5zM123 -276 q0 -106 93.5 -181t254.5 -75t254.5 75t93.5 181t-93.5 181t-254.5 75t-254.5 -75t-93.5 -181zM174 492q0 -118 80.5 -192.5t216.5 -74.5t216.5 74.5t80.5 192.5q0 117 -80.5 191.5t-216.5 74.5t-216.5 -74.5t-80.5 -191.5z" />
<glyph unicode="h" d="M184 0v1352h41v-717h11q3 8 10 22t32.5 49.5t56.5 62.5t84 49t113 22q138 0 233 -95t95 -233v-512h-41v512q0 123 -82 205t-205 82q-127 0 -217 -94t-90 -213v-492h-41z" />
<glyph unicode="i" horiz-adv-x="368" d="M143 1188q0 15 13 28t28 13t28 -13t13 -28t-13 -28t-28 -13t-28 13t-13 28zM164 0v799h41v-799h-41z" />
<glyph unicode="j" horiz-adv-x="368" d="M-123 -502l21 31q51 -41 112 -41q62 0 108 48t46 116v1147h41v-1147q0 -84 -59 -144.5t-136 -60.5q-36 0 -69.5 12.5t-48.5 25.5zM143 1188q0 15 13 28t28 13t28 -13t13 -28t-13 -28t-28 -13t-28 13t-13 28z" />
<glyph unicode="k" horiz-adv-x="798" d="M184 0v1352h41v-1352h-41zM328 410l327 389h52l-328 -389l358 -410h-53z" />
<glyph unicode="l" horiz-adv-x="409" d="M184 0v1352h41v-1352h-41z" />
<glyph unicode="m" horiz-adv-x="1474" d="M164 0v799h41v-164h10q2 8 6.5 22t24 49.5t44.5 62.5t70.5 49t100.5 22q46 0 86 -12.5t67.5 -32.5t49.5 -44t35.5 -48t22 -44t12.5 -33l3 -12q2 9 7 24.5t26 54.5t49 68.5t80 54t115 24.5q124 0 210.5 -89t86.5 -219v-532h-41v532q0 115 -74 191t-182 76t-182 -76 t-74 -191v-532h-41v532q0 115 -74 191t-182 76q-103 0 -179.5 -86.5t-76.5 -220.5v-492h-41z" />
<glyph unicode="n" horiz-adv-x="1003" d="M164 0v799h41v-164h10q2 4 5.5 11.5t16 29t27.5 40.5t40.5 43t54.5 41t69 28.5t84 11.5q138 0 233 -95t95 -233v-512h-41v512q0 123 -82 205t-205 82t-215 -92t-92 -215v-492h-41z" />
<glyph unicode="o" d="M102 399q0 120 57.5 222.5t152 160.5t200.5 58t200.5 -58t152 -160.5t57.5 -222.5t-57.5 -222t-151.5 -160t-201 -58t-201 58t-151.5 160t-57.5 222zM143 399q0 -166 110 -282.5t259 -116.5t259 116.5t110 282.5t-110.5 283t-258.5 117t-258.5 -117t-110.5 -283z" />
<glyph unicode="p" d="M164 -532v1331h41v-164h10q2 4 5.5 11.5t16.5 29t28.5 40.5t42.5 43t58 41t74.5 28.5t91.5 11.5q76 0 147 -33.5t125 -91t86 -140t32 -176.5q0 -124 -54.5 -226t-144 -158t-191.5 -56q-66 0 -123 21t-91 51t-58.5 60.5t-34.5 51.5l-10 21h-10v-696h-41zM205 307 q0 -125 95.5 -216t231.5 -91q142 0 245.5 113t103.5 286t-103.5 286.5t-245.5 113.5q-136 0 -231.5 -91t-95.5 -216v-185z" />
<glyph unicode="q" d="M102 399q0 94 32 176.5t86 140t125 91t147 33.5q66 0 123 -21t91 -51t58.5 -60.5t34.5 -51.5l10 -21h10v164h41v-1331h-41v696h-10q-2 -4 -5.5 -11.5t-16.5 -29t-28.5 -40.5t-42.5 -43t-58 -41t-74.5 -28.5t-91.5 -11.5q-102 0 -191.5 56t-144 158t-54.5 226zM143 399 q0 -173 103.5 -286t245.5 -113q136 0 231.5 91t95.5 216v185q0 125 -95.5 216t-231.5 91q-142 0 -245.5 -113.5t-103.5 -286.5z" />
<glyph unicode="r" horiz-adv-x="614" d="M164 0v799h41v-164h10q3 8 9.5 22t30.5 49.5t51 62.5t72.5 49t94.5 22q26 0 51 -5t37 -11l12 -5l-10 -41q-51 21 -90 21q-97 0 -182.5 -93.5t-85.5 -213.5v-492h-41z" />
<glyph unicode="s" horiz-adv-x="737" d="M61 143l31 21q3 -7 10 -18t31 -39t52 -50t74.5 -39.5t98.5 -17.5q111 0 183.5 62.5t72.5 142.5q0 50 -27.5 86t-72 57t-98 38.5t-106.5 36.5t-97.5 43.5t-72 67.5t-27.5 101q0 80 72.5 142.5t183.5 62.5q49 0 93 -15t72.5 -36t50 -42t31.5 -36l9 -15l-31 -20 q-3 5 -8.5 13.5t-26 29.5t-44.5 37t-63.5 29.5t-82.5 13.5q-95 0 -155 -49.5t-60 -114.5q0 -50 27.5 -86t72 -57t98 -38.5t106.5 -36.5t97.5 -43.5t72 -67.5t27.5 -101q0 -96 -85.5 -171t-211.5 -75q-57 0 -109 19t-84.5 46t-57.5 54t-35 46z" />
<glyph unicode="t" horiz-adv-x="604" d="M61 758v41h154v307h41v-307h236v-41h-236v-594q0 -68 46 -116t108 -48q27 0 55 10t43 20l14 11l21 -31q-6 -6 -16.5 -14.5t-45.5 -22.5t-71 -14q-77 0 -136 60.5t-59 144.5v594h-154z" />
<glyph unicode="u" horiz-adv-x="1003" d="M164 287v512h41v-512q0 -123 82 -205t205 -82t215 92t92 215v492h41v-799h-41v164h-11q-3 -8 -10 -22t-32.5 -49.5t-56.5 -62.5t-84 -49t-113 -22q-138 0 -233 95t-95 233z" />
<glyph unicode="v" horiz-adv-x="819" d="M61 799h41l308 -758l307 758h41l-348 -860z" />
<glyph unicode="w" horiz-adv-x="1187" d="M61 799h41l236 -738l256 779l256 -779l235 738h41l-276 -860l-256 778l-256 -778z" />
<glyph unicode="x" horiz-adv-x="778" d="M61 0l297 410l-266 389h51l246 -359l246 359h51l-266 -389l297 -410h-51l-277 379l-276 -379h-52z" />
<glyph unicode="y" horiz-adv-x="819" d="M61 799h41l318 -758l297 758h41l-522 -1331h-41l204 522z" />
<glyph unicode="z" horiz-adv-x="737" d="M61 0l533 758h-512v41h594l-533 -758h512v-41h-594z" />
<glyph unicode="{" horiz-adv-x="573" d="M82 492v40h20q62 0 103 41t41 103v573q0 77 54 131t130 54h82v-41h-82q-61 0 -102 -41t-41 -103v-573q0 -40 -12.5 -71.5t-30.5 -48t-36.5 -27.5t-31.5 -14l-12 -3q5 -1 13.5 -3t29.5 -13.5t37 -28t29.5 -48t13.5 -71.5v-573q0 -62 41 -103t102 -41h82v-41h-82 q-76 0 -130 54t-54 131v573q0 62 -41 103t-103 41h-20z" />
<glyph unicode="|" horiz-adv-x="491" d="M225 -573v2191h41v-2191h-41z" />
<glyph unicode="}" horiz-adv-x="573" d="M61 -369h82q61 0 102.5 41.5t41.5 102.5v573q0 40 12.5 71.5t30.5 48t36.5 27.5t31.5 14l12 3q-5 1 -13.5 3t-29.5 13.5t-37 28t-29.5 48t-13.5 71.5v573q0 61 -41.5 102.5t-102.5 41.5h-82v41h82q77 0 131 -54t54 -131v-573q0 -62 41 -103t102 -41h21v-40h-21 q-61 0 -102 -41t-41 -103v-573q0 -77 -54 -131t-131 -54h-82v41z" />
<glyph unicode="~" horiz-adv-x="778" d="M82 440q0 82 50 138.5t114 56.5q34 0 66.5 -19t58.5 -46t51 -54t53.5 -46t56.5 -19q49 0 86 45t37 118l41 -10q0 -82 -50 -138t-114 -56q-41 0 -82 29t-69 63t-64.5 63t-70.5 29q-49 0 -86 -45.5t-37 -118.5z" />
<glyph unicode="&#xa1;" horiz-adv-x="409" d="M164 778q0 15 13 28t28 13t28 -13t13 -28t-13 -28t-28 -13t-28 13t-13 28zM184 82l11 389h20l10 -389v-614h-41v614z" />
<glyph unicode="&#xa2;" horiz-adv-x="931" d="M102 399q0 175 117 304t273 137v184h40v-184q57 -3 110 -23t87.5 -46.5t60.5 -53t38 -44.5l12 -18l-31 -20q-4 7 -12 18t-36 39t-60 50t-83 39.5t-106 17.5q-148 0 -258.5 -117t-110.5 -283t110 -282.5t259 -116.5q63 0 120 21t93.5 51t63.5 60.5t39 51.5l12 21l30 -21 q-5 -9 -14 -23.5t-40.5 -52t-67.5 -67t-94.5 -54.5t-121.5 -28v-184h-40v184q-156 8 -273 136.5t-117 303.5z" />
<glyph unicode="&#xa3;" horiz-adv-x="921" d="M102 0v41q10 8 26.5 22.5t59 68.5t75 116.5t59 167t26.5 219.5h-164v41h164q0 43 -41 191.5t-41 238.5q0 124 83.5 205.5t213.5 81.5q49 0 93 -15t72.5 -36t50 -42t31.5 -36l9 -15l-31 -20q-3 5 -8.5 13.5t-26 29.5t-44.5 37t-63.5 29.5t-82.5 13.5q-115 0 -185.5 -69 t-70.5 -177q0 -90 41 -238.5t41 -191.5h246v-41h-246q0 -84 -13 -162t-33.5 -135.5t-45.5 -108t-50.5 -84t-46 -58t-33.5 -35.5l-13 -11h706v-41h-758z" />
<glyph unicode="&#xa4;" horiz-adv-x="1126" d="M102 307v41h144v184h-144v41h144v779h276q217 0 349.5 -118t132.5 -292t-132.5 -292t-349.5 -118h-235v-184h491v-41h-491v-307h-41v307h-144zM287 573h235q202 0 321.5 105.5t119.5 263.5t-119.5 263.5t-321.5 105.5h-235v-738z" />
<glyph unicode="&#xa5;" horiz-adv-x="1064" d="M61 1352h52l419 -809l420 809h52l-431 -820h256v-40h-276v-205h276v-41h-276v-246h-41v246h-276v41h276v205h-276v40h256z" />
<glyph unicode="&#xa6;" horiz-adv-x="491" d="M225 266h41v-839h-41v839zM225 778v840h41v-840h-41z" />
<glyph unicode="&#xa7;" horiz-adv-x="962" d="M123 -164l31 21q4 -8 12 -20t35.5 -44t58.5 -56.5t80.5 -44.5t101.5 -20q127 0 201 68.5t74 177.5q0 58 -33 106.5t-85 84.5t-115.5 70.5t-127 72t-115.5 80t-85 104.5t-33 137q0 50 13.5 96t35.5 79t48 61t52 46.5t48 31.5t36 19l13 5v11q-8 3 -20 9t-44 27.5t-56.5 47 t-44.5 69t-20 92.5q0 117 80.5 192t214.5 75q58 0 110 -19t85 -46t58 -54.5t36 -46.5l10 -19l-30 -20q-3 7 -10 18t-31.5 39t-52.5 50t-75.5 39.5t-99.5 17.5q-119 0 -186.5 -62t-67.5 -164q0 -51 24.5 -94.5t65 -74t92 -61.5t105.5 -57t105.5 -61t92 -72.5t65 -93 t24.5 -121.5q0 -69 -25.5 -129t-61.5 -96.5t-72 -63t-62 -37.5l-25 -11v-13l22 -11t49.5 -32t62.5 -53t49 -73.5t22 -94.5q0 -125 -86.5 -206t-229.5 -81q-42 0 -82.5 11.5t-71.5 29.5t-58.5 39.5t-46.5 43.5t-33 40t-20 29zM164 573q0 -107 77.5 -186t270.5 -172 q10 4 26.5 11.5t59 35.5t75 61t59 89.5t26.5 119.5q0 107 -77.5 186.5t-270.5 172.5q-5 -2 -14 -6t-34.5 -18t-48.5 -30.5t-51.5 -44t-49 -58t-34.5 -73t-14 -88.5z" />
<glyph unicode="&#xa8;" horiz-adv-x="512" d="M61 1188q0 15 13 28t28 13t28 -13t13 -28t-13 -28t-28 -13t-28 13t-13 28zM369 1188q0 15 13 28t28 13t28 -13t13 -28t-13 -28t-28 -13t-28 13t-13 28z" />
<glyph unicode="&#xa9;" horiz-adv-x="1802" d="M143 614q0 151 61.5 291t163.5 242t242 163.5t291 61.5t291 -61.5t242 -163.5t163.5 -242t61.5 -291t-61.5 -291t-163.5 -242t-242 -163t-291 -61t-291 61t-242 163t-163.5 242t-61.5 291zM184 614q0 -143 58 -275.5t154.5 -229t229 -154t275.5 -57.5t275.5 57.5t229 154 t154.5 229t58 275.5q0 191 -97.5 356.5t-263 263t-356.5 97.5t-356.5 -97.5t-263 -263t-97.5 -356.5zM594 614q0 159 99 264t239 105q40 0 79 -13.5t66 -33.5t48 -39.5t31 -32.5l11 -14l-30 -21q-3 5 -9.5 12.5t-27 27t-43 34.5t-57 27t-68.5 12q-125 0 -211 -92t-86 -236 t86 -235.5t211 -91.5q37 0 73 12.5t60 30.5t43 36.5t28 31.5l9 12l33 -21q-4 -6 -11 -15.5t-31 -34t-51 -43.5t-68.5 -34.5t-84.5 -15.5q-140 0 -239 104.5t-99 263.5z" />
<glyph unicode="&#xaa;" horiz-adv-x="542" d="M61 983q0 64 58 114t147 50q45 0 88.5 -7.5t64.5 -15.5l21 -8v72q0 69 -47.5 116.5t-116.5 47.5q-36 0 -72 -18t-54 -36l-17 -18l-31 20q3 4 8.5 10t23.5 22t37 28.5t47.5 22.5t57.5 10q85 0 145 -60t60 -145v-348h-41v82h-10q-2 -4 -7 -11t-22.5 -25t-37 -31.5 t-51.5 -24.5t-66 -11q-75 0 -130 50.5t-55 113.5zM102 983q0 -47 42 -85t102 -38q82 0 138 50t56 114v61q-72 21 -174 21q-73 0 -118.5 -37t-45.5 -86z" />
<glyph unicode="&#xab;" horiz-adv-x="686" d="M61 399l185 338h51l-184 -338l184 -338h-51zM348 399l184 338h52l-185 -338l185 -338h-52z" />
<glyph unicode="&#xac;" horiz-adv-x="757" d="M82 532v41h594v-266h-41v225h-553z" />
<glyph unicode="&#xad;" horiz-adv-x="798" d="M82 512v41h635v-41h-635z" />
<glyph unicode="&#xae;" horiz-adv-x="1802" d="M143 614q0 151 61.5 291t163.5 242t242 163.5t291 61.5t291 -61.5t242 -163.5t163.5 -242t61.5 -291t-61.5 -291t-163.5 -242t-242 -163t-291 -61t-291 61t-242 163t-163.5 242t-61.5 291zM184 614q0 -143 58 -275.5t154.5 -229t229 -154t275.5 -57.5t275.5 57.5t229 154 t154.5 229t58 275.5q0 191 -97.5 356.5t-263 263t-356.5 97.5t-356.5 -97.5t-263 -263t-97.5 -356.5zM686 246v717h246q117 0 181.5 -62.5t64.5 -152.5q0 -46 -18 -84t-42.5 -59.5t-51.5 -36.5t-43 -20t-19 -5l194 -297h-51l-184 286h-236v-286h-41zM727 573h205 q90 0 147.5 52t57.5 123t-57.5 122.5t-147.5 51.5h-205v-349z" />
<glyph unicode="&#xaf;" horiz-adv-x="552" d="M61 1311v41h431v-41h-431z" />
<glyph unicode="&#xb0;" horiz-adv-x="573" d="M82 1157q0 91 60 153t145 62t145 -62t60 -153t-60 -153t-145 -62t-145 62t-60 153zM123 1157q0 -76 47 -125t117 -49t117 49t47 125t-47 125t-117 49t-117 -49t-47 -125z" />
<glyph unicode="&#xb1;" horiz-adv-x="839" d="M102 143v41h297v389h-297v41h297v328h41v-328h297v-41h-297v-389h297v-41h-635z" />
<glyph unicode="&#xb2;" horiz-adv-x="471" d="M61 840v30q13 7 33.5 20t73.5 53t93.5 80.5t74 97t33.5 108.5q0 47 -40 85t-93 38q-36 0 -72 -18t-54 -36l-18 -18l-31 20q3 4 8.5 10t23.5 22t37.5 28.5t48 22.5t57.5 10q68 0 121 -51t53 -113q0 -52 -28.5 -106.5t-69 -96t-81.5 -75.5t-69 -52l-29 -18h277v-41h-349z " />
<glyph unicode="&#xb3;" horiz-adv-x="481" d="M61 911l31 21q7 -8 19.5 -20t50.5 -32t74 -20q53 0 93 38t40 85t-41 85t-95 38h-69v31l184 194h-256v41h318v-31l-185 -194q75 0 130 -50.5t55 -113.5q0 -62 -53 -113t-121 -51q-29 0 -57.5 9.5t-48.5 23t-36.5 27t-24.5 23.5z" />
<glyph unicode="&#xb4;" horiz-adv-x="389" d="M61 1198l246 154l21 -41l-246 -144z" />
<glyph unicode="&#xb5;" horiz-adv-x="1003" d="M164 -532v1331h41v-492q0 -122 90.5 -214.5t206.5 -92.5t206.5 92.5t90.5 214.5v492h41v-799h-41v164h-11q-3 -8 -10 -22t-32 -49.5t-55 -62.5t-81 -49t-108 -22t-108 21t-82 51t-54.5 60.5t-33.5 51.5l-9 21h-10v-696h-41z" />
<glyph unicode="&#xb6;" horiz-adv-x="675" d="M123 1075q0 116 82.5 196.5t204.5 80.5h184v-41h-143v-1843h-41v1331q-122 0 -204.5 80t-82.5 196z" />
<glyph unicode="&#xb7;" horiz-adv-x="348" d="M133 676q0 15 13 28t28 13t28 -13t13 -28t-13 -28t-28 -13t-28 13t-13 28z" />
<glyph unicode="&#xb8;" horiz-adv-x="368" d="M61 -348l21 31q41 -31 82 -31q45 0 73.5 26.5t28.5 65.5t-28.5 65.5t-73.5 26.5h-51l51 164h41l-41 -123q61 0 102 -39t41 -94t-41 -94t-102 -39q-27 0 -53 10.5t-38 20.5z" />
<glyph unicode="&#xb9;" horiz-adv-x="450" d="M61 1239l205 154v-512h123v-41h-287v41h123v430l-143 -103z" />
<glyph unicode="&#xba;" horiz-adv-x="655" d="M61 1106q0 121 79 204t188 83t187.5 -83t78.5 -204t-78.5 -204t-187.5 -83t-188 83t-79 204zM102 1106q0 -106 66 -176t160 -70t159.5 70t65.5 176t-65.5 176t-159.5 70t-160 -70t-66 -176z" />
<glyph unicode="&#xbb;" horiz-adv-x="686" d="M102 61l185 338l-185 338h52l184 -338l-184 -338h-52zM389 61l184 338l-184 338h51l185 -338l-185 -338h-51z" />
<glyph unicode="&#xbc;" horiz-adv-x="1208" d="M102 1219l205 153v-512h123v-41h-287v41h123v430l-143 -102zM225 0l738 1352h41l-738 -1352h-41zM676 123v31l297 399h31v-389h102v-41h-102v-123h-41v123h-287zM727 164h236v307z" />
<glyph unicode="&#xbd;" horiz-adv-x="1208" d="M102 1219l205 153v-512h123v-41h-287v41h123v430l-143 -102zM225 0l738 1352h41l-738 -1352h-41zM758 0v31q12 7 33 20t74 53t93.5 80t73.5 96.5t33 108.5q0 47 -40 85t-93 38q-36 0 -72 -18t-54 -36l-18 -18l-30 21q3 4 8.5 10t23.5 22t37 28t47.5 22t57.5 10 q68 0 121 -51t53 -113q0 -52 -28.5 -106.5t-69 -96t-81.5 -75.5t-69 -52l-29 -18h277v-41h-348z" />
<glyph unicode="&#xbe;" horiz-adv-x="1249" d="M102 891l31 20q7 -8 19.5 -20t50 -31.5t73.5 -19.5q53 0 93.5 38t40.5 85t-41 84.5t-95 37.5h-69v31l184 195h-256v41h318v-31l-185 -195q75 0 130 -50t55 -113q0 -62 -53.5 -113t-121.5 -51q-45 0 -88.5 23t-64.5 46zM266 0l738 1352h40l-737 -1352h-41zM717 123v31 l297 399h30v-389h103v-41h-103v-123h-40v123h-287zM768 164h236v307z" />
<glyph unicode="&#xbf;" horiz-adv-x="849" d="M82 -238q0 58 21 110.5t54.5 94t73.5 82.5t80.5 84.5t74 90.5t54.5 110.5t21 136.5h31q0 -77 -20.5 -144t-53 -116t-71.5 -93t-78.5 -84t-72 -80t-53 -89t-20.5 -103q0 -124 92 -209t236 -85q60 0 116 19t92.5 46t64.5 54t41 46l13 19l31 -21q-5 -8 -14.5 -22t-43.5 -49 t-72 -62t-100 -49t-128 -22q-159 0 -264 98t-105 237zM440 778q0 15 13 28t28 13t28 -13t13 -28t-13 -28t-28 -13t-28 13t-13 28z" />
<glyph unicode="&#xc0;" horiz-adv-x="1228" d="M102 0l512 1434l512 -1434h-41l-112 307h-717l-113 -307h-41zM266 348h697l-349 973zM481 1761l21 41l246 -153l-21 -31z" />
<glyph unicode="&#xc1;" horiz-adv-x="1228" d="M102 0l512 1434l512 -1434h-41l-112 307h-717l-113 -307h-41zM266 348h697l-349 973zM510 1649l246 153l20 -41l-246 -143z" />
<glyph unicode="&#xc2;" horiz-adv-x="1228" d="M102 0l512 1434l512 -1434h-41l-112 307h-717l-113 -307h-41zM266 348h697l-349 973zM399 1618l215 143l215 -143l-10 -41l-205 133l-204 -133z" />
<glyph unicode="&#xc3;" horiz-adv-x="1228" d="M102 0l512 1434l512 -1434h-41l-112 307h-717l-113 -307h-41zM266 348h697l-349 973zM399 1659q0 66 37.5 109.5t85.5 43.5q28 0 55 -21t45.5 -45.5t41.5 -45.5t43 -21q33 0 57 32.5t24 90.5l41 -10q0 -66 -37 -110t-85 -44q-28 0 -55 21t-45.5 46t-41.5 46t-43 21 q-33 0 -57.5 -32.5t-24.5 -90.5z" />
<glyph unicode="&#xc4;" horiz-adv-x="1228" d="M102 0l512 1434l512 -1434h-41l-112 307h-717l-113 -307h-41zM266 348h697l-349 973zM418 1659q0 15 13 28t28 13t28 -13t13 -28t-13 -28t-28 -13t-28 13t-13 28zM725 1659q0 15 13 28t28 13t28 -13t13 -28t-13 -28t-28 -13t-28 13t-13 28z" />
<glyph unicode="&#xc5;" horiz-adv-x="1228" d="M102 0l512 1434l512 -1434h-41l-112 307h-717l-113 -307h-41zM266 348h697l-349 973zM440 1718q0 69 52.5 121.5t121.5 52.5t121.5 -52.5t52.5 -121.5t-52.5 -121.5t-121.5 -52.5t-121.5 52.5t-52.5 121.5zM481 1718q0 -54 39.5 -93.5t93.5 -39.5t94 39.5t40 93.5 t-40 93.5t-94 39.5t-93.5 -39.5t-39.5 -93.5z" />
<glyph unicode="&#xc6;" horiz-adv-x="1617" d="M61 0l512 1352h922v-41h-635v-594h471v-41h-471v-635h656v-41h-697v369h-573l-144 -369h-41zM256 410h563v901h-215z" />
<glyph unicode="&#xc7;" horiz-adv-x="1423" d="M123 676q0 142 57 275.5t150 229.5t217 154t252 58q71 0 138 -16t118 -41t95.5 -55.5t75 -61.5t52.5 -56t32 -41l11 -16l-31 -21q-7 11 -20 29t-58.5 64t-98 81t-137.5 64t-177 29q-121 0 -237 -54.5t-203.5 -145t-141 -216t-53.5 -260.5t53.5 -260.5t141 -216 t203.5 -145t237 -54.5q79 0 151.5 18t124.5 47t96.5 64t73 70t49 64t28.5 47l9 18l31 -21q-3 -7 -9.5 -19.5t-30.5 -49t-52.5 -69t-77 -73t-102.5 -69t-130.5 -48.5t-160.5 -20l-35 -102q61 0 102 -39t41 -94t-41 -94.5t-102 -39.5q-27 0 -52.5 10t-37.5 20l-12 11l20 31 q41 -31 82 -31q45 0 73.5 27t28.5 66t-28.5 65.5t-73.5 26.5h-51l45 143q-122 7 -237.5 66t-203 153.5t-141 225t-53.5 272.5z" />
<glyph unicode="&#xc8;" d="M225 0v1352h676v-41h-635v-594h471v-41h-471v-635h656v-41h-697zM412 1720l20 41l246 -153l-21 -31z" />
<glyph unicode="&#xc9;" d="M225 0v1352h676v-41h-635v-594h471v-41h-471v-635h656v-41h-697zM469 1608l246 153l20 -41l-246 -143z" />
<glyph unicode="&#xca;" d="M225 0v1352h676v-41h-635v-594h471v-41h-471v-635h656v-41h-697zM358 1618l215 143l215 -143l-10 -41l-205 133l-204 -133z" />
<glyph unicode="&#xcb;" d="M225 0v1352h676v-41h-635v-594h471v-41h-471v-635h656v-41h-697zM379 1679q0 15 13 28t28 13t28 -13t13 -28t-13 -28t-28 -13t-28 13t-13 28zM686 1679q0 15 13 28t28 13t28 -13t13 -28t-13 -28t-28 -13t-28 13t-13 28z" />
<glyph unicode="&#xcc;" horiz-adv-x="491" d="M102 1720l21 41l246 -153l-21 -31zM225 0v1352h41v-1352h-41z" />
<glyph unicode="&#xcd;" horiz-adv-x="491" d="M143 1608l246 153l21 -41l-246 -143zM225 0v1352h41v-1352h-41z" />
<glyph unicode="&#xce;" horiz-adv-x="491" d="M31 1618l215 143l215 -143l-10 -41l-205 133l-205 -133zM225 0v1352h41v-1352h-41z" />
<glyph unicode="&#xcf;" horiz-adv-x="491" d="M51 1618q0 15 13 28t28 13t28 -13t13 -28t-13 -28t-28 -13t-28 13t-13 28zM225 0v1352h41v-1352h-41zM358 1618q0 15 13 28t28 13t28 -13t13 -28t-13 -28t-28 -13t-28 13t-13 28z" />
<glyph unicode="&#xd0;" horiz-adv-x="1351" d="M102 655v41h144v656h307q192 0 346.5 -87.5t242 -242t87.5 -346.5t-87.5 -346.5t-242 -242t-346.5 -87.5h-307v655h-144zM287 41h266q182 0 327 81.5t226.5 226.5t81.5 327t-81.5 327t-226.5 226.5t-327 81.5h-266v-615h348v-41h-348v-614z" />
<glyph unicode="&#xd1;" horiz-adv-x="1331" d="M225 0v1393l840 -1301v1260h41v-1393l-840 1301v-1260h-41zM471 1618q0 66 37.5 110t85.5 44q28 0 55 -21t45 -46t41 -46t43 -21q33 0 57.5 32.5t24.5 90.5l41 -10q0 -66 -37.5 -110t-85.5 -44q-28 0 -55 21t-45 46t-41 46t-43 21q-33 0 -57.5 -32.5t-24.5 -90.5z" />
<glyph unicode="&#xd2;" horiz-adv-x="1597" d="M123 676q0 142 57 275.5t150 229.5t217 154t252 58t252 -58t217 -154t150 -229.5t57 -275.5t-57 -275.5t-150 -229.5t-217 -154t-252 -58t-252 58t-217 154t-150 229.5t-57 275.5zM164 676q0 -135 53.5 -260.5t141 -216t203.5 -145t237 -54.5t237 54.5t203.5 145t141 216 t53.5 260.5t-53.5 260.5t-141 216t-203.5 145t-237 54.5t-237 -54.5t-203.5 -145t-141 -216t-53.5 -260.5zM676 1720l20 41l246 -153l-20 -31z" />
<glyph unicode="&#xd3;" horiz-adv-x="1597" d="M123 676q0 142 57 275.5t150 229.5t217 154t252 58t252 -58t217 -154t150 -229.5t57 -275.5t-57 -275.5t-150 -229.5t-217 -154t-252 -58t-252 58t-217 154t-150 229.5t-57 275.5zM164 676q0 -135 53.5 -260.5t141 -216t203.5 -145t237 -54.5t237 54.5t203.5 145t141 216 t53.5 260.5t-53.5 260.5t-141 216t-203.5 145t-237 54.5t-237 -54.5t-203.5 -145t-141 -216t-53.5 -260.5zM696 1608l246 153l21 -41l-246 -143z" />
<glyph unicode="&#xd4;" horiz-adv-x="1597" d="M123 676q0 142 57 275.5t150 229.5t217 154t252 58t252 -58t217 -154t150 -229.5t57 -275.5t-57 -275.5t-150 -229.5t-217 -154t-252 -58t-252 58t-217 154t-150 229.5t-57 275.5zM164 676q0 -135 53.5 -260.5t141 -216t203.5 -145t237 -54.5t237 54.5t203.5 145t141 216 t53.5 260.5t-53.5 260.5t-141 216t-203.5 145t-237 54.5t-237 -54.5t-203.5 -145t-141 -216t-53.5 -260.5zM604 1638l215 144l215 -144l-10 -41l-205 134l-205 -134z" />
<glyph unicode="&#xd5;" horiz-adv-x="1597" d="M123 676q0 142 57 275.5t150 229.5t217 154t252 58t252 -58t217 -154t150 -229.5t57 -275.5t-57 -275.5t-150 -229.5t-217 -154t-252 -58t-252 58t-217 154t-150 229.5t-57 275.5zM164 676q0 -135 53.5 -260.5t141 -216t203.5 -145t237 -54.5t237 54.5t203.5 145t141 216 t53.5 260.5t-53.5 260.5t-141 216t-203.5 145t-237 54.5t-237 -54.5t-203.5 -145t-141 -216t-53.5 -260.5zM588 1618q0 66 37.5 110t85.5 44q28 0 55 -21t45 -46t41 -46t43 -21q33 0 57.5 32.5t24.5 90.5l41 -10q0 -66 -37.5 -110t-85.5 -44q-28 0 -55 21t-45 46t-41 46 t-43 21q-33 0 -57.5 -32.5t-24.5 -90.5z" />
<glyph unicode="&#xd6;" horiz-adv-x="1597" d="M123 676q0 142 57 275.5t150 229.5t217 154t252 58t252 -58t217 -154t150 -229.5t57 -275.5t-57 -275.5t-150 -229.5t-217 -154t-252 -58t-252 58t-217 154t-150 229.5t-57 275.5zM164 676q0 -135 53.5 -260.5t141 -216t203.5 -145t237 -54.5t237 54.5t203.5 145t141 216 t53.5 260.5t-53.5 260.5t-141 216t-203.5 145t-237 54.5t-237 -54.5t-203.5 -145t-141 -216t-53.5 -260.5zM604 1659q0 15 13 28t28 13t28 -13t13 -28t-13 -28t-28 -13t-28 13t-13 28zM911 1659q0 15 13 28t28 13t28 -13t13 -28t-13 -28t-28 -13t-28 13t-13 28z" />
<glyph unicode="&#xd7;" horiz-adv-x="675" d="M82 307l225 246l-225 246l31 30l225 -245l225 245l31 -30l-225 -246l225 -246l-31 -31l-225 246l-225 -246z" />
<glyph unicode="&#xd8;" horiz-adv-x="1638" d="M82 184v41l154 103q-4 6 -10 17t-22 46.5t-28.5 73.5t-22.5 96t-10 115q0 142 57 275.5t150 229.5t217 154t252 58q102 0 197.5 -33.5t166 -86.5t120.5 -108.5t79 -109.5l174 112v-41l-153 -102q4 -6 10 -17t22 -46.5t28 -73.5t22 -96t10 -115q0 -142 -57 -275.5 t-150 -229.5t-217 -154t-252 -58q-102 0 -197.5 33.5t-166 86.5t-120.5 108.5t-79 109.5zM184 676q0 -82 20.5 -164t41.5 -123l20 -41l1086 686q-34 55 -82 106.5t-114 101.5t-154 80t-183 30q-121 0 -237 -54.5t-203.5 -145t-141 -216t-53.5 -260.5zM287 317 q34 -55 82 -106.5t114 -101t153.5 -79.5t182.5 -30q121 0 237 54.5t203.5 145t141 216t53.5 260.5q0 82 -20.5 164t-41.5 123l-20 41z" />
<glyph unicode="&#xd9;" horiz-adv-x="1310" d="M225 430v922h41v-922q0 -189 112.5 -309.5t276.5 -120.5t276.5 120.5t112.5 309.5v922h41v-922q0 -204 -125 -337.5t-305 -133.5t-305 133.5t-125 337.5zM492 1720l20 41l246 -153l-21 -31z" />
<glyph unicode="&#xda;" horiz-adv-x="1310" d="M225 430v922h41v-922q0 -189 112.5 -309.5t276.5 -120.5t276.5 120.5t112.5 309.5v922h41v-922q0 -204 -125 -337.5t-305 -133.5t-305 133.5t-125 337.5zM573 1608l246 153l21 -41l-246 -143z" />
<glyph unicode="&#xdb;" horiz-adv-x="1310" d="M225 430v922h41v-922q0 -189 112.5 -309.5t276.5 -120.5t276.5 120.5t112.5 309.5v922h41v-922q0 -204 -125 -337.5t-305 -133.5t-305 133.5t-125 337.5zM440 1618l215 143l215 -143l-10 -41l-205 133l-204 -133z" />
<glyph unicode="&#xdc;" horiz-adv-x="1310" d="M225 430v922h41v-922q0 -189 112.5 -309.5t276.5 -120.5t276.5 120.5t112.5 309.5v922h41v-922q0 -204 -125 -337.5t-305 -133.5t-305 133.5t-125 337.5zM461 1659q0 15 13 28t28 13t28 -13t13 -28t-13 -28t-28 -13t-28 13t-13 28zM768 1659q0 15 13 28t28 13t28 -13 t13 -28t-13 -28t-28 -13t-28 13t-13 28z" />
<glyph unicode="&#xdd;" horiz-adv-x="1064" d="M61 1352h52l419 -809l420 809h52l-451 -860v-492h-41v492zM461 1587l246 154l20 -41l-246 -144z" />
<glyph unicode="&#xde;" horiz-adv-x="1167" d="M225 -41v1516h41v-205h164q135 0 251 -43.5t195 -118t123.5 -176t44.5 -215.5t-44.5 -215.5t-123.5 -176t-195 -118t-251 -43.5h-164v-205h-41zM266 205h164q256 0 415 146.5t159 365.5t-159 365.5t-415 146.5h-164v-1024z" />
<glyph unicode="&#xdf;" d="M164 0v983q0 167 104.5 288.5t243.5 121.5q136 0 221.5 -81.5t85.5 -205.5q0 -45 -19 -91t-46 -84t-54 -75t-46 -79t-19 -81q0 -43 21.5 -83t53 -70t69 -64.5t69 -65.5t53 -75t21.5 -92q0 -121 -68.5 -193.5t-177.5 -72.5q-27 0 -53 5t-38 10l-12 5v43q0 -2 12.5 -7 t38 -10.5t52.5 -5.5q93 0 149 60t56 166q0 43 -21.5 83t-53 70t-69 64.5t-69 65.5t-53 75t-21.5 92q0 55 29 113t63 100t63 96t29 101q0 109 -72.5 177.5t-193.5 68.5q-124 0 -215.5 -108.5t-91.5 -260.5v-983h-41z" />
<glyph unicode="&#xe0;" horiz-adv-x="921" d="M102 215q0 105 90 180.5t238 75.5q64 0 135.5 -12.5t111.5 -25.5l40 -13v133q0 101 -76 173.5t-190 72.5q-49 0 -93 -15t-72.5 -36t-50 -42t-31.5 -36l-9 -15l-31 21q4 7 11 18t33.5 39t57 50t80.5 39.5t105 17.5q129 0 218 -85t89 -202v-553h-41v164h-10 q-2 -4 -5.5 -11.5t-16 -29t-27.5 -40.5t-40.5 -43t-54.5 -41t-69 -28.5t-84 -11.5q-134 0 -221 76.5t-87 179.5zM143 215q0 -88 74 -151.5t193 -63.5q123 0 215 92t92 215v82q-144 41 -287 41q-132 0 -209.5 -63t-77.5 -152zM328 1178l20 41l246 -154l-21 -31z" />
<glyph unicode="&#xe1;" horiz-adv-x="921" d="M102 215q0 105 90 180.5t238 75.5q64 0 135.5 -12.5t111.5 -25.5l40 -13v133q0 101 -76 173.5t-190 72.5q-49 0 -93 -15t-72.5 -36t-50 -42t-31.5 -36l-9 -15l-31 21q4 7 11 18t33.5 39t57 50t80.5 39.5t105 17.5q129 0 218 -85t89 -202v-553h-41v164h-10 q-2 -4 -5.5 -11.5t-16 -29t-27.5 -40.5t-40.5 -43t-54.5 -41t-69 -28.5t-84 -11.5q-134 0 -221 76.5t-87 179.5zM143 215q0 -88 74 -151.5t193 -63.5q123 0 215 92t92 215v82q-144 41 -287 41q-132 0 -209.5 -63t-77.5 -152zM369 1065l245 154l21 -41l-246 -144z" />
<glyph unicode="&#xe2;" horiz-adv-x="921" d="M102 215q0 105 90 180.5t238 75.5q64 0 135.5 -12.5t111.5 -25.5l40 -13v133q0 101 -76 173.5t-190 72.5q-49 0 -93 -15t-72.5 -36t-50 -42t-31.5 -36l-9 -15l-31 21q4 7 11 18t33.5 39t57 50t80.5 39.5t105 17.5q129 0 218 -85t89 -202v-553h-41v164h-10 q-2 -4 -5.5 -11.5t-16 -29t-27.5 -40.5t-40.5 -43t-54.5 -41t-69 -28.5t-84 -11.5q-134 0 -221 76.5t-87 179.5zM143 215q0 -88 74 -151.5t193 -63.5q123 0 215 92t92 215v82q-144 41 -287 41q-132 0 -209.5 -63t-77.5 -152zM256 1075l215 144l215 -144l-10 -41l-205 133 l-205 -133z" />
<glyph unicode="&#xe3;" horiz-adv-x="921" d="M102 215q0 105 90 180.5t238 75.5q64 0 135.5 -12.5t111.5 -25.5l40 -13v133q0 101 -76 173.5t-190 72.5q-49 0 -93 -15t-72.5 -36t-50 -42t-31.5 -36l-9 -15l-31 21q4 7 11 18t33.5 39t57 50t80.5 39.5t105 17.5q129 0 218 -85t89 -202v-553h-41v164h-10 q-2 -4 -5.5 -11.5t-16 -29t-27.5 -40.5t-40.5 -43t-54.5 -41t-69 -28.5t-84 -11.5q-134 0 -221 76.5t-87 179.5zM143 215q0 -88 74 -151.5t193 -63.5q123 0 215 92t92 215v82q-144 41 -287 41q-132 0 -209.5 -63t-77.5 -152zM266 1085q0 66 37.5 110t85.5 44q28 0 55 -21 t45 -45.5t41 -45.5t43 -21q33 0 57.5 32.5t24.5 90.5l41 -10q0 -66 -37.5 -110t-85.5 -44q-28 0 -55 21t-45 45.5t-41 45.5t-43 21q-33 0 -57.5 -32.5t-24.5 -90.5z" />
<glyph unicode="&#xe4;" horiz-adv-x="921" d="M102 215q0 105 90 180.5t238 75.5q64 0 135.5 -12.5t111.5 -25.5l40 -13v133q0 101 -76 173.5t-190 72.5q-49 0 -93 -15t-72.5 -36t-50 -42t-31.5 -36l-9 -15l-31 21q4 7 11 18t33.5 39t57 50t80.5 39.5t105 17.5q129 0 218 -85t89 -202v-553h-41v164h-10 q-2 -4 -5.5 -11.5t-16 -29t-27.5 -40.5t-40.5 -43t-54.5 -41t-69 -28.5t-84 -11.5q-134 0 -221 76.5t-87 179.5zM143 215q0 -88 74 -151.5t193 -63.5q123 0 215 92t92 215v82q-144 41 -287 41q-132 0 -209.5 -63t-77.5 -152zM287 1126q0 15 13 28t28 13t28 -13t13 -28 t-13 -28t-28 -13t-28 13t-13 28zM594 1126q0 15 13 28t28 13t28 -13t13 -28t-13 -28t-28 -13t-28 13t-13 28z" />
<glyph unicode="&#xe5;" horiz-adv-x="921" d="M102 215q0 105 90 180.5t238 75.5q64 0 135.5 -12.5t111.5 -25.5l40 -13v133q0 101 -76 173.5t-190 72.5q-49 0 -93 -15t-72.5 -36t-50 -42t-31.5 -36l-9 -15l-31 21q4 7 11 18t33.5 39t57 50t80.5 39.5t105 17.5q129 0 218 -85t89 -202v-553h-41v164h-10 q-2 -4 -5.5 -11.5t-16 -29t-27.5 -40.5t-40.5 -43t-54.5 -41t-69 -28.5t-84 -11.5q-134 0 -221 76.5t-87 179.5zM143 215q0 -88 74 -151.5t193 -63.5q123 0 215 92t92 215v82q-144 41 -287 41q-132 0 -209.5 -63t-77.5 -152zM297 1178q0 69 52.5 121.5t121.5 52.5 t121.5 -52.5t52.5 -121.5t-52.5 -121.5t-121.5 -52.5t-121.5 52.5t-52.5 121.5zM338 1178q0 -54 39.5 -94t93.5 -40t93.5 40t39.5 94t-39.5 93.5t-93.5 39.5t-93.5 -39.5t-39.5 -93.5z" />
<glyph unicode="&#xe6;" horiz-adv-x="1515" d="M102 215q0 103 87 179.5t221 76.5q64 0 135.5 -12.5t110.5 -25.5l40 -13v72q0 135 -78 221t-188 86q-43 0 -83 -12.5t-66.5 -30.5t-46.5 -36.5t-30 -31.5l-9 -12l-31 20q4 6 11 15.5t32.5 34.5t54 44t74 34.5t94.5 15.5q69 0 125 -25.5t86.5 -61.5t51.5 -72t27 -61l7 -26 h10q3 10 10 26.5t34.5 59t61.5 75t93.5 59t128.5 26.5q87 0 172 -58t141 -161.5t56 -221.5l-21 -20h-676q6 -157 109 -268t229 -111q60 0 113 19t85 46t56 54t33 46l10 19l31 -20q-4 -8 -11.5 -22t-36 -49.5t-63 -62.5t-93 -49t-124.5 -22q-52 0 -99.5 14.5t-81.5 38t-63 52 t-47.5 57t-32 52t-19.5 37.5l-5 15h-10q-3 -11 -8.5 -29t-30.5 -63.5t-58.5 -81t-95 -64t-135.5 -28.5q-120 0 -203.5 77t-83.5 179zM143 215q0 -87 70.5 -151t175.5 -64q123 0 215 92t92 215v82q-143 41 -286 41q-119 0 -193 -63.5t-74 -151.5zM737 420h656 q-5 104 -54.5 192.5t-123 137.5t-150.5 49t-150.5 -49t-123 -137.5t-54.5 -192.5z" />
<glyph unicode="&#xe7;" horiz-adv-x="931" d="M102 399q0 120 57.5 222.5t152 160.5t200.5 58q60 0 116 -19t93 -46t65 -54.5t41 -46.5l13 -19l-31 -20q-4 7 -12 18t-36 39t-60 50t-83 39.5t-106 17.5q-148 0 -258.5 -117t-110.5 -283t110 -282.5t259 -116.5q63 0 120 21t93.5 51t63.5 60.5t39 51.5l12 21l30 -21 q-2 -5 -6.5 -13t-21 -31.5t-35.5 -44.5t-50.5 -47t-66 -44.5t-81.5 -31.5t-97 -13l-31 -82q61 0 102.5 -39t41.5 -94t-41.5 -94t-102.5 -39q-27 0 -52.5 10.5t-37.5 20.5l-12 10l20 31q41 -31 82 -31q45 0 74 26.5t29 65.5t-29 65.5t-74 26.5h-51l41 123 q-152 16 -260.5 138.5t-108.5 301.5z" />
<glyph unicode="&#xe8;" horiz-adv-x="962" d="M102 399q0 119 57 222t146.5 161t186.5 58q72 0 143 -35t125 -93t87.5 -140.5t33.5 -172.5l-21 -20h-715q6 -159 111.5 -269t245.5 -110q60 0 115 21t90 51t61.5 60.5t38.5 51.5l12 21l31 -21q-5 -9 -13.5 -24t-41 -54t-69 -68.5t-97.5 -54t-127 -24.5q-102 0 -194 58 t-149 160t-57 222zM143 420h697q-5 105 -55 192.5t-128.5 137t-164.5 49.5t-164.5 -49.5t-129 -137t-55.5 -192.5zM358 1178l21 41l246 -154l-21 -31z" />
<glyph unicode="&#xe9;" horiz-adv-x="962" d="M102 399q0 119 57 222t146.5 161t186.5 58q72 0 143 -35t125 -93t87.5 -140.5t33.5 -172.5l-21 -20h-715q6 -159 111.5 -269t245.5 -110q60 0 115 21t90 51t61.5 60.5t38.5 51.5l12 21l31 -21q-5 -9 -13.5 -24t-41 -54t-69 -68.5t-97.5 -54t-127 -24.5q-102 0 -194 58 t-149 160t-57 222zM143 420h697q-5 105 -55 192.5t-128.5 137t-164.5 49.5t-164.5 -49.5t-129 -137t-55.5 -192.5zM399 1085l246 154l21 -41l-246 -143z" />
<glyph unicode="&#xea;" horiz-adv-x="962" d="M102 399q0 119 57 222t146.5 161t186.5 58q72 0 143 -35t125 -93t87.5 -140.5t33.5 -172.5l-21 -20h-715q6 -159 111.5 -269t245.5 -110q60 0 115 21t90 51t61.5 60.5t38.5 51.5l12 21l31 -21q-5 -9 -13.5 -24t-41 -54t-69 -68.5t-97.5 -54t-127 -24.5q-102 0 -194 58 t-149 160t-57 222zM143 420h697q-5 105 -55 192.5t-128.5 137t-164.5 49.5t-164.5 -49.5t-129 -137t-55.5 -192.5zM276 1075l216 144l215 -144l-11 -41l-204 133l-205 -133z" />
<glyph unicode="&#xeb;" horiz-adv-x="962" d="M102 399q0 119 57 222t146.5 161t186.5 58q72 0 143 -35t125 -93t87.5 -140.5t33.5 -172.5l-21 -20h-715q6 -159 111.5 -269t245.5 -110q60 0 115 21t90 51t61.5 60.5t38.5 51.5l12 21l31 -21q-5 -9 -13.5 -24t-41 -54t-69 -68.5t-97.5 -54t-127 -24.5q-102 0 -194 58 t-149 160t-57 222zM143 420h697q-5 105 -55 192.5t-128.5 137t-164.5 49.5t-164.5 -49.5t-129 -137t-55.5 -192.5zM297 1126q0 15 13 28t28 13t28 -13t13 -28t-13 -28t-28 -13t-28 13t-13 28zM604 1126q0 15 13 28t28 13t28 -13t13 -28t-13 -28t-28 -13t-28 13t-13 28z" />
<glyph unicode="&#xec;" horiz-adv-x="389" d="M41 1198l20 41l246 -154l-20 -30zM164 0v799h41v-799h-41z" />
<glyph unicode="&#xed;" horiz-adv-x="368" d="M61 1085l246 154l21 -41l-246 -143zM164 0v799h41v-799h-41z" />
<glyph unicode="&#xee;" horiz-adv-x="368" d="M-31 1096l215 143l215 -143l-10 -41l-205 133l-204 -133zM164 0v799h41v-799h-41z" />
<glyph unicode="&#xef;" horiz-adv-x="368" d="M-10 1106q0 15 13 28t28 13t28 -13t13 -28t-13 -28t-28 -13t-28 13t-13 28zM164 0v799h41v-799h-41zM297 1106q0 15 13 28t28 13t28 -13t13 -28t-13 -28t-28 -13t-28 13t-13 28z" />
<glyph unicode="&#xf0;" horiz-adv-x="921" d="M82 348q0 166 105 277.5t253 111.5q63 0 118 -21t88.5 -51t57.5 -60.5t34 -51.5l10 -21h10q0 97 -25.5 194t-61.5 166t-72 124t-61 82l-26 28l-143 -143l-31 31l143 143q-46 41 -107 87t-97 70t-41 27l20 31q143 -82 256 -184l143 143l31 -31l-143 -143 q10 -10 27.5 -29.5t61.5 -83.5t78 -132.5t61.5 -172.5t27.5 -207v-184q0 -166 -105.5 -277.5t-253.5 -111.5t-253 111.5t-105 277.5zM123 348q0 -151 92 -249.5t225 -98.5t225.5 98.5t92.5 249.5t-92.5 249.5t-225.5 98.5t-225 -98.5t-92 -249.5z" />
<glyph unicode="&#xf1;" horiz-adv-x="1003" d="M164 0v799h41v-164h10q2 4 5.5 11.5t16 29t27.5 40.5t40.5 43t54.5 41t69 28.5t84 11.5q138 0 233 -95t95 -233v-512h-41v512q0 123 -82 205t-205 82t-215 -92t-92 -215v-492h-41zM297 1106q0 66 37.5 110t85.5 44q28 0 55 -21t45 -46t41 -46t43 -21q33 0 57.5 32.5 t24.5 90.5l41 -10q0 -66 -37.5 -110t-85.5 -44q-28 0 -55 21t-45 46t-41 46t-43 21q-33 0 -57.5 -32.5t-24.5 -90.5z" />
<glyph unicode="&#xf2;" d="M102 399q0 120 57.5 222.5t152 160.5t200.5 58t200.5 -58t152 -160.5t57.5 -222.5t-57.5 -222t-151.5 -160t-201 -58t-201 58t-151.5 160t-57.5 222zM143 399q0 -166 110 -282.5t259 -116.5t259 116.5t110 282.5t-110.5 283t-258.5 117t-258.5 -117t-110.5 -283z M389 1178l21 41l245 -154l-20 -31z" />
<glyph unicode="&#xf3;" d="M102 399q0 120 57.5 222.5t152 160.5t200.5 58t200.5 -58t152 -160.5t57.5 -222.5t-57.5 -222t-151.5 -160t-201 -58t-201 58t-151.5 160t-57.5 222zM143 399q0 -166 110 -282.5t259 -116.5t259 116.5t110 282.5t-110.5 283t-258.5 117t-258.5 -117t-110.5 -283z M430 1065l21 -31l245 144l-20 41z" />
<glyph unicode="&#xf4;" d="M102 399q0 120 57.5 222.5t152 160.5t200.5 58t200.5 -58t152 -160.5t57.5 -222.5t-57.5 -222t-151.5 -160t-201 -58t-201 58t-151.5 160t-57.5 222zM143 399q0 -166 110 -282.5t259 -116.5t259 116.5t110 282.5t-110.5 283t-258.5 117t-258.5 -117t-110.5 -283z M287 1075l215 144l215 -144l-10 -41l-205 133l-205 -133z" />
<glyph unicode="&#xf5;" d="M102 399q0 120 57.5 222.5t152 160.5t200.5 58t200.5 -58t152 -160.5t57.5 -222.5t-57.5 -222t-151.5 -160t-201 -58t-201 58t-151.5 160t-57.5 222zM143 399q0 -166 110 -282.5t259 -116.5t259 116.5t110 282.5t-110.5 283t-258.5 117t-258.5 -117t-110.5 -283z M297 1085l41 -10q0 58 24.5 90.5t57.5 32.5q20 0 43 -21t41 -45.5t45 -45.5t55 -21q48 0 85.5 44t37.5 110l-41 10q0 -58 -24.5 -90.5t-57.5 -32.5q-20 0 -43 21t-41 45.5t-45 45.5t-55 21q-48 0 -85.5 -44t-37.5 -110z" />
<glyph unicode="&#xf6;" d="M102 399q0 120 57.5 222.5t152 160.5t200.5 58t200.5 -58t152 -160.5t57.5 -222.5t-57.5 -222t-151.5 -160t-201 -58t-201 58t-151.5 160t-57.5 222zM143 399q0 -166 110 -282.5t259 -116.5t259 116.5t110 282.5t-110.5 283t-258.5 117t-258.5 -117t-110.5 -283z M338 1126q0 15 13 28t28 13t28 -13t13 -28t-13 -28t-28 -13t-28 13t-13 28zM645 1126q0 15 13 28t28 13t28 -13t13 -28t-13 -28t-28 -13t-28 13t-13 28z" />
<glyph unicode="&#xf7;" horiz-adv-x="798" d="M82 532v41h635v-41h-635zM358 205q0 15 13 28t28 13t28 -13t13 -28t-13 -28t-28 -13t-28 13t-13 28zM358 901q0 15 13 28t28 13t28 -13t13 -28t-13 -28t-28 -13t-28 13t-13 28z" />
<glyph unicode="&#xf8;" horiz-adv-x="1085" d="M41 92v41l133 76q-41 87 -41 190q0 120 57.5 222.5t152 160.5t200.5 58t201 -60t151 -159l149 86v-41l-135 -78q43 -91 43 -189q0 -120 -57 -222t-151.5 -160t-200.5 -58q-107 0 -202 59t-151 158zM174 399q0 -92 35 -170l651 371q-50 91 -135.5 145t-181.5 54 q-148 0 -258.5 -117t-110.5 -283zM225 197q50 -90 135.5 -143.5t182.5 -53.5q148 0 258 116.5t110 282.5q0 95 -34 170z" />
<glyph unicode="&#xf9;" horiz-adv-x="1003" d="M164 287v512h41v-512q0 -123 82 -205t205 -82t215 92t92 215v492h41v-799h-41v164h-11q-3 -8 -10 -22t-32.5 -49.5t-56.5 -62.5t-84 -49t-113 -22q-138 0 -233 95t-95 233zM348 1178l21 41l245 -154l-20 -31z" />
<glyph unicode="&#xfa;" horiz-adv-x="1003" d="M164 287v512h41v-512q0 -123 82 -205t205 -82t215 92t92 215v492h41v-799h-41v164h-11q-3 -8 -10 -22t-32.5 -49.5t-56.5 -62.5t-84 -49t-113 -22q-138 0 -233 95t-95 233zM410 1065l245 154l21 -41l-246 -144z" />
<glyph unicode="&#xfb;" horiz-adv-x="1003" d="M164 287v512h41v-512q0 -123 82 -205t205 -82t215 92t92 215v492h41v-799h-41v164h-11q-3 -8 -10 -22t-32.5 -49.5t-56.5 -62.5t-84 -49t-113 -22q-138 0 -233 95t-95 233zM297 1096l215 143l215 -143l-10 -41l-205 133l-205 -133z" />
<glyph unicode="&#xfc;" horiz-adv-x="1003" d="M164 287v512h41v-512q0 -123 82 -205t205 -82t215 92t92 215v492h41v-799h-41v164h-11q-3 -8 -10 -22t-32.5 -49.5t-56.5 -62.5t-84 -49t-113 -22q-138 0 -233 95t-95 233zM328 1126q0 15 13 28t28 13t28 -13t13 -28t-13 -28t-28 -13t-28 13t-13 28zM635 1126q0 15 13 28 t28 13t28 -13t13 -28t-13 -28t-28 -13t-28 13t-13 28z" />
<glyph unicode="&#xfd;" horiz-adv-x="819" d="M61 799h41l318 -758l297 758h41l-522 -1331h-41l204 522zM340 1065l246 154l20 -41l-246 -144z" />
<glyph unicode="&#xfe;" horiz-adv-x="1044" d="M184 -532v1884h41v-717h11q2 4 5.5 11.5t16.5 29t28.5 40.5t42.5 43t58 41t74.5 28.5t91.5 11.5q157 0 273 -126.5t116 -314.5q0 -124 -54.5 -226t-143.5 -158t-191 -56q-66 0 -123 21t-91 51t-58.5 60.5t-34.5 51.5l-10 21h-11v-696h-41zM225 307q0 -124 95.5 -215.5 t232.5 -91.5q142 0 245 113t103 286t-103 286.5t-245 113.5q-137 0 -232.5 -91.5t-95.5 -215.5v-185z" />
<glyph unicode="&#xff;" horiz-adv-x="819" d="M61 799h41l318 -758l297 758h41l-522 -1331h-41l204 522zM225 1106q0 15 13 28t28 13t28 -13t13 -28t-13 -28t-28 -13t-28 13t-13 28zM532 1106q0 15 13 28t28 13t28 -13t13 -28t-13 -28t-28 -13t-28 13t-13 28z" />
<glyph unicode="&#x152;" horiz-adv-x="1720" d="M123 676q0 192 87.5 346.5t242 242t346.5 87.5h798v-41h-634v-594h471v-41h-471v-635h655v-41h-819q-192 0 -346.5 87.5t-242 242t-87.5 346.5zM164 676q0 -182 81.5 -327t226.5 -226.5t327 -81.5h123v1270h-123q-182 0 -327 -81.5t-226.5 -226.5t-81.5 -327z" />
<glyph unicode="&#x153;" horiz-adv-x="1775" d="M205 399q0 90 33.5 172.5t87.5 140.5t125 93t143 35q59 0 110.5 -17t87.5 -44t65.5 -60t47.5 -66t30.5 -60t17.5 -44l5 -17h9q2 6 5 17.5t16.5 43.5t30 61t45.5 64.5t62.5 61t82 43t102.5 17.5q87 0 171.5 -58t140.5 -161.5t56 -221.5l-20 -20h-676q6 -157 109 -268 t229 -111q60 0 113 19t85 46t56 54t33 46l10 19l31 -20q-4 -8 -11.5 -22t-36 -49.5t-63 -62.5t-93 -49t-124.5 -22q-56 0 -106 17t-85 44t-64 59.5t-47 65.5t-30 60t-17 44l-5 17h-9q-2 -6 -5 -17.5t-17 -43t-31 -60.5t-47.5 -64.5t-66 -61t-87 -43t-110.5 -17.5 q-97 0 -186.5 58t-146 160.5t-56.5 221.5zM246 399q0 -82 30 -157t78.5 -127.5t111.5 -83.5t128 -31t128 31t111.5 83.5t78.5 127.5t30 157t-30 157t-78.5 127.5t-111.5 84t-128 31.5t-128 -31.5t-111.5 -84t-78.5 -127.5t-30 -157zM983 420h655q-5 104 -54.5 192.5 t-122.5 137.5t-150 49t-150.5 -49t-123 -137.5t-54.5 -192.5z" />
<glyph unicode="&#x178;" horiz-adv-x="1064" d="M61 1352h52l419 -809l420 809h52l-451 -860v-492h-41v492zM338 1659q0 15 13 28t28 13t28 -13t13 -28t-13 -28t-28 -13t-28 13t-13 28zM645 1659q0 15 13 28t28 13t28 -13t13 -28t-13 -28t-28 -13t-28 13t-13 28z" />
<glyph unicode="&#x2c6;" horiz-adv-x="552" d="M61 1208l215 144l216 -144l-11 -41l-205 133l-204 -133z" />
<glyph unicode="&#x2dc;" horiz-adv-x="552" d="M61 1167q0 66 37.5 110t85.5 44q28 0 55 -21t45.5 -45.5t41.5 -45.5t43 -21q33 0 57.5 32.5t24.5 90.5l41 -11q0 -66 -37.5 -109.5t-85.5 -43.5q-28 0 -55 21t-45.5 45.5t-41.5 45.5t-43 21q-33 0 -57.5 -32.5t-24.5 -90.5z" />
<glyph unicode="&#x2000;" horiz-adv-x="946" />
<glyph unicode="&#x2001;" horiz-adv-x="1892" />
<glyph unicode="&#x2002;" horiz-adv-x="946" />
<glyph unicode="&#x2003;" horiz-adv-x="1892" />
<glyph unicode="&#x2004;" horiz-adv-x="630" />
<glyph unicode="&#x2005;" horiz-adv-x="473" />
<glyph unicode="&#x2006;" horiz-adv-x="315" />
<glyph unicode="&#x2007;" horiz-adv-x="315" />
<glyph unicode="&#x2008;" horiz-adv-x="236" />
<glyph unicode="&#x2009;" horiz-adv-x="378" />
<glyph unicode="&#x200a;" horiz-adv-x="105" />
<glyph unicode="&#x2010;" horiz-adv-x="798" d="M82 512v41h635v-41h-635z" />
<glyph unicode="&#x2011;" horiz-adv-x="798" d="M82 512v41h635v-41h-635z" />
<glyph unicode="&#x2012;" horiz-adv-x="798" d="M82 512v41h635v-41h-635z" />
<glyph unicode="&#x2013;" horiz-adv-x="962" d="M82 512v41h799v-41h-799z" />
<glyph unicode="&#x2014;" horiz-adv-x="1290" d="M82 512v41h1126v-41h-1126z" />
<glyph unicode="&#x2018;" horiz-adv-x="319" d="M123 1167q0 9 3 19t6 16l3 6l82 144h21l-62 -144q29 -10 29 -41q0 -15 -13 -28t-28 -13t-28 13t-13 28z" />
<glyph unicode="&#x2019;" horiz-adv-x="319" d="M82 1126l61 144q-28 10 -28 41q0 15 13 28t28 13t28 -13t13 -28q0 -9 -3.5 -19t-6.5 -16l-3 -6l-82 -144h-20z" />
<glyph unicode="&#x201a;" horiz-adv-x="319" d="M82 -164l61 144q-28 9 -28 40q0 15 13 28t28 13t28 -13t13 -28q0 -9 -3.5 -19t-6.5 -15l-3 -6l-82 -144h-20z" />
<glyph unicode="&#x201c;" horiz-adv-x="524" d="M123 1167q0 9 3 19t6 16l3 6l82 144h21l-62 -144q29 -10 29 -41q0 -15 -13 -28t-28 -13t-28 13t-13 28zM328 1167q0 9 3 19t6 16l3 6l82 144h20l-61 -144q29 -10 29 -41q0 -15 -13 -28t-28 -13t-28 13t-13 28z" />
<glyph unicode="&#x201d;" horiz-adv-x="524" d="M82 1126l61 144q-28 10 -28 41q0 15 13 28t28 13t28 -13t13 -28q0 -9 -3.5 -19t-6.5 -16l-3 -6l-82 -144h-20zM287 1126l61 144q-29 10 -29 41q0 15 13 28t28 13t28 -13t13 -28q0 -9 -3 -19t-6 -16l-3 -6l-82 -144h-20z" />
<glyph unicode="&#x201e;" horiz-adv-x="524" d="M82 -164l61 144q-28 9 -28 40q0 15 13 28t28 13t28 -13t13 -28q0 -9 -3.5 -19t-6.5 -15l-3 -6l-82 -144h-20zM287 -164l61 144q-3 1 -8 3.5t-13 12.5t-8 24q0 15 13 28t28 13t28 -13t13 -28q0 -9 -3 -19t-6 -15l-3 -6l-82 -144h-20z" />
<glyph unicode="&#x2022;" horiz-adv-x="512" d="M164 481q0 38 27 65t65 27t65 -27t27 -65t-27 -65t-65 -27t-65 27t-27 65z" />
<glyph unicode="&#x2026;" horiz-adv-x="983" d="M123 20q0 15 13 28t28 13t28 -13t13 -28t-13 -27.5t-28 -12.5t-28 12.5t-13 27.5zM451 20q0 15 13 28t28 13t27.5 -13t12.5 -28t-12.5 -27.5t-27.5 -12.5t-28 12.5t-13 27.5zM778 20q0 15 13 28t28 13t28 -13t13 -28t-13 -27.5t-28 -12.5t-28 12.5t-13 27.5z" />
<glyph unicode="&#x202f;" horiz-adv-x="378" />
<glyph unicode="&#x2039;" horiz-adv-x="542" d="M61 389l349 369l30 -31l-317 -338l317 -338l-30 -31z" />
<glyph unicode="&#x203a;" horiz-adv-x="542" d="M102 51l318 338l-318 338l31 31l348 -369l-348 -369z" />
<glyph unicode="&#x205f;" horiz-adv-x="473" />
<glyph unicode="&#x20ac;" horiz-adv-x="1484" d="M61 512v41h134q-11 62 -11 123q0 27 3 58t5 48l3 17h-134v41h142q24 108 84 207.5t144.5 176.5t197 123t231.5 46q71 0 138 -16t118 -41t95.5 -55.5t75 -61.5t52.5 -56t33 -41l10 -16l-30 -21q-7 11 -20 29t-59 64t-98.5 81t-137.5 64t-177 29q-112 0 -216.5 -42.5 t-183.5 -113.5t-135 -163.5t-79 -192.5h594v-41h-604q-11 -62 -11 -123q0 -27 2.5 -58t5.5 -48l3 -17h604v-41h-594q23 -100 79 -192.5t135 -163.5t183.5 -113.5t216.5 -42.5q79 0 151.5 18t124.5 47t96.5 64t73.5 70t49 64t29 47l9 18l30 -21q-3 -7 -9.5 -19.5t-30.5 -49 t-52.5 -69t-77 -73t-102.5 -69t-130.5 -48.5t-160.5 -20q-119 0 -231.5 46t-197 123t-144 176.5t-82.5 207.5h-144z" />
<glyph unicode="&#x2122;" horiz-adv-x="1167" d="M41 1311v41h410v-41h-185v-451h-41v451h-184zM553 860v512l246 -287l245 287v-512h-40v400l-205 -236l-205 236v-400h-41z" />
<glyph unicode="&#x25fc;" horiz-adv-x="798" d="M0 0v799h799v-799h-799z" />
</font>
</defs>
</svg>
