<?xml version="1.0" standalone="no"?>
<!DOCTYPE svg PUBLIC "-//W3C//DTD SVG 1.1//EN" "http://www.w3.org/Graphics/SVG/1.1/DTD/svg11.dtd" >
<svg xmlns="http://www.w3.org/2000/svg" xmlns:xlink="http://www.w3.org/1999/xlink" version="1.1">
<metadata></metadata>
<defs>
<font id="tt_chocolatesitalic" horiz-adv-x="1064" >
<font-face units-per-em="2048" ascent="1638" descent="-410" />
<missing-glyph horiz-adv-x="368" />
<glyph horiz-adv-x="0" />
<glyph horiz-adv-x="682" />
<glyph unicode="&#xd;" horiz-adv-x="0" />
<glyph horiz-adv-x="0" />
<glyph unicode=" "  horiz-adv-x="368" />
<glyph unicode="&#x09;" horiz-adv-x="368" />
<glyph unicode="&#xa0;" horiz-adv-x="368" />
<glyph unicode="!" horiz-adv-x="532" d="M90 53q0 33 30.5 61.5t63.5 28.5q29 0 50.5 -22.5t21.5 -50.5q0 -33 -30.5 -61.5t-63.5 -28.5q-29 0 -50.5 22.5t-21.5 50.5zM188 389l19 348l88 635h123l-88 -635l-80 -348h-62z" />
<glyph unicode="&#x22;" horiz-adv-x="583" d="M143 942l31 430h133l-92 -430h-72zM430 942l31 430h133l-92 -430h-72z" />
<glyph unicode="#" horiz-adv-x="1280" d="M14 389l58 123h215l151 348h-215l60 123h215l166 389h133l-166 -389h276l166 389h133l-166 -389h215l-59 -123h-215l-152 -348h215l-57 -123h-215l-168 -389h-133l168 389h-277l-167 -389h-134l168 389h-215zM420 512h276l152 348h-277z" />
<glyph unicode="$" d="M-6 246l123 71q3 -9 9 -24t31 -54t57.5 -68.5t90.5 -54t127 -24.5q157 0 259 88.5t102 214.5q0 52 -25.5 95t-67.5 71.5t-96 57t-110 51.5t-110 55.5t-96 68t-67.5 90t-25.5 120.5q0 95 61 187t151.5 149.5t178.5 62.5l32 225h123l-30 -215q62 -9 117.5 -35t90 -57.5 t61 -62t37.5 -50.5l11 -20l-123 -72q-3 7 -9.5 18t-30 39t-50 50t-71 39.5t-93.5 17.5q-139 0 -225 -74.5t-86 -183.5q0 -56 33 -100.5t85.5 -75t116 -58.5t127 -60.5t116 -72t85.5 -101t33 -140.5q0 -110 -62.5 -209.5t-161 -162t-204.5 -73.5l-31 -225h-123l29 215 q-85 6 -156 37.5t-112.5 72.5t-70.5 81.5t-40 67.5z" />
<glyph unicode="%" horiz-adv-x="1402" d="M113 1073q0 86 50.5 166t127.5 127t153 47q100 0 174 -82t74 -192q0 -130 -107 -235t-227 -105q-98 0 -171.5 82t-73.5 192zM154 0l942 1372h143l-942 -1372h-143zM236 1079q0 -72 41 -120t98 -48q71 0 131.5 65t60.5 157q0 72 -40 119.5t-97 47.5q-71 0 -132.5 -65 t-61.5 -156zM700 233q0 130 107 235t227 105q98 0 172 -82t74 -192q0 -86 -51 -166t-128 -127t-153 -47q-100 0 -174 82t-74 192zM825 240q0 -72 40.5 -120t97.5 -48q71 0 132.5 65t61.5 156q0 72 -41 120t-98 48q-71 0 -132 -65t-61 -156z" />
<glyph unicode="&#x26;" horiz-adv-x="1320" d="M47 315q0 59 21 115t54 98.5t73 81t80.5 65t73.5 46t54 28.5l21 9q-5 5 -13 14.5t-29 40.5t-37 63t-29 79.5t-13 93.5q0 98 52 182.5t136.5 133t178.5 48.5q118 0 197 -81t79 -193q0 -50 -19.5 -99.5t-50 -88t-68 -73.5t-75 -60.5t-68 -44t-49.5 -27.5l-20 -9l313 -389 q10 13 25.5 35.5t45 92.5t38.5 138h123q-8 -55 -27 -112t-41.5 -99t-44 -76.5t-35.5 -52.5l-14 -18l199 -256h-164l-131 164q-7 -8 -20.5 -22t-57.5 -49.5t-92 -62.5t-121.5 -49t-147.5 -22q-178 0 -287.5 102.5t-109.5 253.5zM180 322q0 -110 73.5 -175t209.5 -65 q57 0 114.5 18t98.5 43.5t73.5 51t48.5 43.5l17 18l-330 420q-12 -5 -33 -15.5t-73.5 -45.5t-92.5 -73t-73 -98t-33 -122zM438 1057q0 -36 10 -74t24 -66t28.5 -51t24.5 -35l10 -12q11 4 30 13t67 38.5t84.5 63t66.5 86t30 108.5q0 68 -46 115t-114 47q-88 0 -151.5 -66 t-63.5 -167z" />
<glyph unicode="'" horiz-adv-x="296" d="M143 942l31 430h133l-92 -430h-72z" />
<glyph unicode="(" horiz-adv-x="706" d="M120 316q-5 99 13 196q18 125 58 248t91 220t108 184.5t110.5 150t97 109t70.5 69.5l26 23l72 -72q-11 -9 -29.5 -26.5t-71.5 -75.5t-101.5 -121.5t-107.5 -162t-101.5 -199t-71.5 -230.5t-29 -260q0 -131 26 -260.5t62.5 -221t73 -163.5t62.5 -108l26 -36l-92 -74 q-5 5 -12.5 14.5t-32.5 42t-46.5 68t-53.5 93t-53.5 116.5t-46.5 138.5t-33.5 159t-13.5 178.5z" />
<glyph unicode=")" horiz-adv-x="706" d="M-121 -420q11 9 29.5 26.5t71.5 75.5t101.5 121.5t107.5 162t101.5 199t71.5 230.5t29 260q0 131 -25.5 260.5t-62.5 221t-74 163.5t-63 108l-25 36l92 72q12 -13 31.5 -38.5t69.5 -110.5t88.5 -177.5t70 -235t31.5 -288.5q0 -113 -19.5 -225.5t-53 -206.5t-76 -183 t-90.5 -160t-95.5 -133.5t-90 -108t-76 -78.5t-53.5 -49l-19 -16z" />
<glyph unicode="*" horiz-adv-x="675" d="M141 1157l43 82l174 -72l29 205h82l-29 -205l195 72l18 -82l-194 -72l100 -163l-80 -52l-98 164l-148 -164l-63 52l145 163z" />
<glyph unicode="+" horiz-adv-x="819" d="M29 492l16 122h287l45 318h123l-45 -318h286l-16 -122h-287l-45 -318h-123l45 318h-286z" />
<glyph unicode="," horiz-adv-x="368" d="M-47 -184l104 164q-6 2 -14.5 6.5t-22.5 22.5t-14 42q0 34 30.5 63t63.5 29q29 0 50.5 -22.5t21.5 -50.5q0 -16 -7 -33.5t-15 -26.5l-7 -10l-139 -184h-51z" />
<glyph unicode="-" horiz-adv-x="798" d="M25 471l16 123h676l-17 -123h-675z" />
<glyph unicode="." horiz-adv-x="368" d="M8 61q4 31 33.5 56.5t60.5 25.5q29 0 50.5 -22.5t21.5 -50.5q0 -33 -30.5 -61.5t-63.5 -28.5q-31 0 -53.5 25t-18.5 56z" />
<glyph unicode="/" horiz-adv-x="870" d="M-41 0l797 1372h143l-797 -1372h-143z" />
<glyph unicode="0" horiz-adv-x="1249" d="M104 545q0 163 36 305.5t97 244t140.5 174.5t167 108.5t176.5 35.5q176 0 294 -154.5t118 -431.5q0 -163 -36 -305.5t-97 -244t-140.5 -174.5t-167 -108.5t-176.5 -35.5q-176 0 -294 154.5t-118 431.5zM248 545q0 -224 81 -338.5t206 -114.5q68 0 132.5 27.5t123.5 86.5 t103 143.5t70.5 207.5t26.5 270q0 224 -81.5 338.5t-207.5 114.5q-67 0 -131.5 -27.5t-123 -86.5t-103 -143.5t-70.5 -207.5t-26 -270z" />
<glyph unicode="1" horiz-adv-x="788" d="M61 0l19 133h205l149 1065h-10l-256 -143l-47 102l467 256h10l-180 -1280h205l-19 -133h-543z" />
<glyph unicode="2" horiz-adv-x="1024" d="M-41 0l12 92q18 11 48.5 31.5t118.5 84.5t168 129t178 157.5t168.5 178.5t118.5 183.5t48 179.5q0 105 -72 174.5t-188 69.5q-55 0 -109.5 -22t-94 -54t-71 -63.5t-47.5 -53.5l-16 -22l-102 72q7 11 21 29.5t60.5 66.5t96.5 84t127 66t154 30q167 0 277 -109t110 -260 q0 -84 -40 -179t-104.5 -179.5t-142.5 -167.5t-155.5 -149.5t-142 -118t-104.5 -79.5l-40 -28l-3 -10h605l-19 -133h-860z" />
<glyph unicode="3" horiz-adv-x="1044" d="M-27 246l123 71q3 -9 9 -24t31.5 -54t58 -68.5t90.5 -54t127 -24.5q160 0 262 95t102 241q0 116 -75 187t-205 71h-205l14 102l481 441l2 10h-593l18 133h809l-12 -92l-494 -451l-2 -10q180 0 293 -110t113 -273q0 -126 -71 -236t-192.5 -175.5t-263.5 -65.5 q-67 0 -126.5 16t-100.5 41t-75.5 55.5t-55.5 61.5t-35.5 56t-20.5 41z" />
<glyph unicode="4" horiz-adv-x="1116" d="M4 328l14 102l859 1004h71l-137 -973h184l-18 -133h-184l-45 -328h-134l45 328h-655zM217 461h461l90 645h-10l-539 -635z" />
<glyph unicode="5" horiz-adv-x="1105" d="M35 246l123 71q3 -9 9 -24t31 -54t57.5 -68.5t90.5 -54t127 -24.5q164 0 265.5 100.5t101.5 264.5q0 125 -73.5 197.5t-203.5 72.5q-68 0 -141 -25.5t-112 -51.5l-38 -25l-84 61l97 686h747l-18 -133h-615l-61 -440q12 7 34.5 17t86.5 27t123 17q179 0 291 -112t112 -283 q0 -139 -71.5 -255.5t-193 -183.5t-265.5 -67q-67 0 -126.5 16t-100.5 41t-75.5 55.5t-55.5 61.5t-35.5 56t-20.5 41z" />
<glyph unicode="6" horiz-adv-x="1105" d="M55 373q0 71 21 144t51 127t60.5 97t51.5 65l21 23l455 543h153l-465 -543h11q10 8 28.5 20t69.5 32t96 20q160 0 269.5 -119t109.5 -295q0 -143 -74.5 -265.5t-197 -192.5t-260.5 -70q-174 0 -287 118t-113 296zM201 387q0 -129 76.5 -212t195.5 -83q146 0 257.5 111.5 t111.5 269.5q0 129 -77 212t-196 83q-147 0 -257.5 -111t-110.5 -270z" />
<glyph unicode="7" horiz-adv-x="942" d="M133 1239l19 133h819l-10 -72l-664 -1300h-143l632 1229l2 10h-655z" />
<glyph unicode="8" horiz-adv-x="1167" d="M47 322q0 69 19.5 128.5t50.5 100.5t69 75t76 54t69 33.5t51 18.5l19 5v11q-8 3 -21 8.5t-46.5 27.5t-59 50.5t-46.5 79t-21 110.5q0 158 135.5 273.5t337.5 115.5q171 0 273 -91t102 -222q0 -56 -15.5 -105t-41 -84t-56 -63.5t-60.5 -46.5t-55.5 -30.5t-40.5 -17.5 l-16 -5v-11q10 -3 27 -8.5t59.5 -31t75 -58.5t59.5 -95t27 -136q0 -86 -42 -167.5t-113.5 -143.5t-173.5 -100t-214 -38q-191 0 -309.5 108t-118.5 255zM195 354q0 -104 84.5 -183t214.5 -79q153 0 266.5 97t113.5 214q0 104 -84.5 183.5t-214.5 79.5q-153 0 -266.5 -97.5 t-113.5 -214.5zM350 1020q0 -89 65 -150t179 -61q137 0 225 78t88 182q0 89 -65 150t-180 61q-136 0 -224 -78t-88 -182z" />
<glyph unicode="9" horiz-adv-x="1105" d="M106 885q0 143 75 265.5t197.5 192.5t260.5 70q174 0 286.5 -118t112.5 -296q0 -71 -21 -144t-51 -127t-60 -97t-51 -65l-21 -23l-455 -543h-154l465 543h-10q-10 -8 -28.5 -20t-70 -32t-96.5 -20q-161 0 -270 118.5t-109 295.5zM252 899q0 -129 76.5 -212t195.5 -83 q146 0 257.5 111.5t111.5 269.5q0 129 -76.5 212t-195.5 83q-147 0 -258 -111t-111 -270z" />
<glyph unicode=":" horiz-adv-x="368" d="M8 53q0 33 30.5 61.5t63.5 28.5q29 0 50.5 -22.5t21.5 -50.5q0 -33 -30.5 -61.5t-63.5 -28.5q-29 0 -50.5 22.5t-21.5 50.5zM106 750q0 33 31 61.5t64 28.5q29 0 49 -22.5t20 -51.5q0 -33 -30.5 -61.5t-63.5 -28.5q-29 0 -49.5 23t-20.5 51z" />
<glyph unicode=";" horiz-adv-x="368" d="M-47 -184l104 164q-6 2 -14.5 6.5t-22.5 22.5t-14 42q0 34 30.5 63t63.5 29q29 0 50.5 -22.5t21.5 -50.5q0 -16 -7 -33.5t-15 -26.5l-7 -10l-139 -184h-51zM104 750q0 33 31 61.5t64 28.5q29 0 50 -23t21 -51q0 -33 -30.5 -61.5t-63.5 -28.5q-29 0 -50.5 23t-21.5 51z " />
<glyph unicode="&#x3c;" horiz-adv-x="798" d="M6 338l19 133l680 317l-21 -143l-524 -235l-2 -11l458 -235l-20 -144z" />
<glyph unicode="=" horiz-adv-x="778" d="M0 287l16 123h656l-17 -123h-655zM51 655l19 123h655l-18 -123h-656z" />
<glyph unicode="&#x3e;" horiz-adv-x="798" d="M2 20l21 144l524 235l2 11l-459 235l21 143l589 -317l-18 -133z" />
<glyph unicode="?" horiz-adv-x="931" d="M106 1188q7 9 19.5 24t54.5 54t87.5 68.5t116 54t142.5 24.5q159 0 266 -102t107 -234q0 -64 -22.5 -119.5t-60 -98t-82.5 -82.5t-92 -80.5t-88 -83t-71 -100.5t-39 -124h-122q10 74 39.5 138.5t68.5 111t83.5 88.5t87 79.5t77 76.5t55.5 87t21 103q0 91 -65 149t-181 58 q-49 0 -97.5 -17t-83.5 -41t-62.5 -48t-41.5 -41l-14 -17zM244 53q0 33 30.5 61.5t63.5 28.5q29 0 50.5 -22.5t21.5 -50.5q0 -33 -31 -61.5t-64 -28.5q-28 0 -49.5 22.5t-21.5 50.5z" />
<glyph unicode="@" horiz-adv-x="1822" d="M98 514q0 176 79 343t206.5 288t295.5 194.5t339 73.5q145 0 273.5 -54t217 -143.5t140 -209t51.5 -248.5q0 -120 -35.5 -223t-93 -169.5t-127.5 -103.5t-141 -37q-46 0 -84 15t-59.5 36t-36.5 42t-20 36l-5 15h-11q-3 -6 -10 -15.5t-31.5 -34.5t-53.5 -44t-77.5 -34.5 t-103.5 -15.5q-100 0 -175 92t-75 232q0 92 33.5 175t86 138.5t115 88t122.5 32.5q40 0 73.5 -10.5t52 -25.5t32 -30t18.5 -25l4 -11h10l8 61h123l-61 -430q-9 -60 31.5 -112t88.5 -52q105 0 187 106t82 294q0 107 -42.5 206t-116 173.5t-180 118.5t-227.5 44 q-144 0 -284 -61.5t-247 -164t-173 -245t-66 -295.5q0 -167 75.5 -306t208.5 -219.5t294 -80.5q100 0 197.5 23t145.5 46l48 23l35 -112q-7 -4 -20.5 -11t-59 -25t-93.5 -31.5t-122.5 -24.5t-148.5 -11q-193 0 -352.5 97t-250 262t-90.5 360zM696 559q0 -97 44.5 -154 t107.5 -57q75 0 137.5 50.5t71.5 113.5l24 184q9 63 -38.5 113.5t-122.5 50.5q-85 0 -154.5 -84t-69.5 -217z" />
<glyph unicode="A" horiz-adv-x="1239" d="M-41 0l758 1454h10l348 -1454h-143l-55 256h-646l-129 -256h-143zM301 389h543l-164 727h-10z" />
<glyph unicode="B" horiz-adv-x="1198" d="M102 0l193 1372h389q171 0 274 -89t103 -210q0 -69 -28.5 -126t-69.5 -89t-81.5 -53.5t-69.5 -28.5l-28 -8l-2 -10q6 -1 15.5 -3.5t37.5 -12.5t54 -24t57 -40t53.5 -57.5t38 -79t15.5 -103.5q0 -86 -40 -166t-110 -140t-172 -96t-219 -36h-410zM254 133h276 q172 0 275.5 89t103.5 218q0 107 -79 176.5t-222 69.5h-276zM350 809h256q136 0 221.5 70t85.5 165q0 82 -65.5 138.5t-181.5 56.5h-256z" />
<glyph unicode="C" horiz-adv-x="1423" d="M90 604q0 160 70 310.5t182.5 259t259 174t293.5 65.5q73 0 140 -17t116 -44t91 -60t69.5 -65.5t47 -59.5t27.5 -44l9 -17l-123 -72q-5 10 -14.5 26.5t-45 59t-77 75t-111.5 59t-147 26.5q-115 0 -231 -54t-206.5 -142.5t-147 -212.5t-56.5 -255q0 -143 63.5 -263.5 t173 -190.5t238.5 -70q65 0 128 16t112 41t93.5 55.5t76 61.5t54.5 56t35 41l11 16l102 -72q-9 -14 -27 -37.5t-80 -83.5t-130 -106t-175 -83.5t-219 -37.5q-166 0 -304.5 86t-218 234.5t-79.5 324.5z" />
<glyph unicode="D" horiz-adv-x="1351" d="M102 0l193 1372h348q179 0 318.5 -78.5t214.5 -215.5t75 -308q0 -211 -108.5 -388.5t-292.5 -279.5t-399 -102h-349zM254 133h215q129 0 246 48.5t203 131.5t137 198.5t51 244.5q0 211 -133 347t-348 136h-215z" />
<glyph unicode="E" d="M102 0l193 1372h737l-18 -133h-604l-66 -471h440l-18 -133h-440l-72 -502h625l-19 -133h-758z" />
<glyph unicode="F" horiz-adv-x="1003" d="M102 0l193 1372h758l-19 -133h-624l-80 -563h461l-19 -133h-461l-75 -543h-134z" />
<glyph unicode="G" horiz-adv-x="1505" d="M90 604q0 160 70 310.5t182.5 259t259 174t293.5 65.5q73 0 140 -17t116 -44t91 -60t69.5 -65.5t47 -59.5t27.5 -44l9 -17l-123 -72q-5 10 -14.5 26.5t-45 59t-77 75t-111.5 59t-147 26.5q-115 0 -231 -54t-206.5 -142.5t-147 -212.5t-56.5 -255q0 -143 63.5 -263.5 t173 -190.5t238.5 -70q63 0 123.5 14t107 36.5t89 50t72 55t51 50t32.5 36.5l10 14l29 195h-359l19 133h491l-53 -369q-9 -14 -27 -37.5t-80 -83.5t-130 -106t-175 -83.5t-219 -37.5q-166 0 -304.5 86t-218 234.5t-79.5 324.5z" />
<glyph unicode="H" horiz-adv-x="1361" d="M102 0l193 1372h133l-94 -665h686l94 665h133l-192 -1372h-133l79 573h-686l-79 -573h-134z" />
<glyph unicode="I" horiz-adv-x="542" d="M102 0l193 1372h133l-192 -1372h-134z" />
<glyph unicode="J" horiz-adv-x="911" d="M-29 82l86 102q3 -4 9 -10t26 -22t41.5 -28t53 -22t63.5 -10q102 0 178.5 72.5t93.5 193.5l123 881h-399l20 133h533l-144 -1014q-26 -182 -143.5 -290.5t-280.5 -108.5q-49 0 -93.5 12.5t-73.5 30.5t-51 36.5t-32 31.5z" />
<glyph unicode="K" horiz-adv-x="1126" d="M102 0l193 1372h133l-192 -1372h-134zM422 737l539 635h163l-549 -635l408 -737h-164z" />
<glyph unicode="L" horiz-adv-x="993" d="M102 0l193 1372h133l-174 -1239h594l-19 -133h-727z" />
<glyph unicode="M" horiz-adv-x="1658" d="M102 0l199 1413h31l479 -819l709 819h30l-198 -1413h-133l145 1034h-10l-576 -665l-387 665h-10l-145 -1034h-134z" />
<glyph unicode="N" horiz-adv-x="1361" d="M102 0l199 1413h31l626 -1075h11l145 1034h133l-198 -1413h-31l-627 1075h-10l-145 -1034h-134z" />
<glyph unicode="O" horiz-adv-x="1597" d="M90 604q0 160 70 310.5t182.5 259t259 174t293.5 65.5q166 0 304.5 -86t218 -234.5t79.5 -324.5q0 -160 -70.5 -310.5t-183 -259t-259.5 -174t-294 -65.5q-165 0 -303 86t-217.5 234.5t-79.5 324.5zM233 616q0 -143 64 -264t173.5 -190.5t238.5 -69.5q115 0 231.5 54 t207 142.5t147.5 212.5t57 255q0 143 -63.5 263.5t-173 190.5t-238.5 70q-115 0 -231.5 -54t-207.5 -142.5t-148 -212.5t-57 -255z" />
<glyph unicode="P" horiz-adv-x="1167" d="M102 0l193 1372h317q110 0 202 -33t152.5 -90t94 -133.5t33.5 -163.5q0 -104 -46.5 -199.5t-126.5 -166.5t-195 -113.5t-245 -42.5h-184l-61 -430h-134zM315 563h185q195 0 321.5 110t126.5 265q0 129 -95 215t-259 86h-184z" />
<glyph unicode="Q" horiz-adv-x="1607" d="M90 604q0 160 70 310.5t182.5 259t259 174t293.5 65.5q166 0 304.5 -86t218 -234.5t79.5 -324.5q0 -77 -16.5 -152t-42.5 -133t-58 -110.5t-63.5 -89.5t-57.5 -64.5t-43 -40.5l-16 -14l180 -328h-163l-130 246q-7 -5 -20 -13.5t-55 -29.5t-85.5 -37t-108.5 -29.5 t-128 -13.5q-165 0 -303 86t-217.5 234.5t-79.5 324.5zM233 616q0 -143 64 -264t173.5 -190.5t238.5 -69.5q77 0 155 26t117 52l39 25l-98 174h163l50 -93q9 7 23.5 21.5t52 62t66 99.5t52 133t23.5 164q0 143 -63.5 263.5t-173 190.5t-238.5 70q-115 0 -231.5 -54 t-207.5 -142.5t-148 -212.5t-57 -255z" />
<glyph unicode="R" horiz-adv-x="1228" d="M102 0l193 1372h410q198 0 313 -103.5t115 -260.5q0 -68 -18.5 -128t-47.5 -100.5t-64.5 -74.5t-71 -53.5t-64.5 -33.5t-47 -19l-19 -5l-2 -10l266 -584h-164l-239 553h-349l-77 -553h-134zM332 686h276q170 0 274.5 89t104.5 218q0 107 -79 176.5t-222 69.5h-276z" />
<glyph unicode="S" d="M-6 246l123 71q3 -9 9 -24t31 -54t57.5 -68.5t90.5 -54t127 -24.5q157 0 259 88.5t102 214.5q0 52 -25.5 95t-67.5 71.5t-96 57t-110 51.5t-110 55.5t-96 68t-67.5 90t-25.5 120.5q0 101 65.5 196t176 154t233.5 59q52 0 100 -12.5t83 -32.5t65 -44t50 -47.5t34 -43.5 t20 -33l6 -12l-123 -72q-3 7 -9.5 18t-30 39t-50 50t-71 39.5t-93.5 17.5q-139 0 -225 -74.5t-86 -183.5q0 -56 33 -100.5t85.5 -75t116 -58.5t127 -60.5t116 -72t85.5 -101t33 -140.5q0 -118 -70 -222.5t-191 -168.5t-261 -64q-67 0 -126.5 16t-100.5 41t-75.5 55.5 t-55.5 61.5t-35.5 56t-20.5 41z" />
<glyph unicode="T" horiz-adv-x="1034" d="M133 1239l19 133h911l-19 -133h-389l-174 -1239h-133l174 1239h-389z" />
<glyph unicode="U" horiz-adv-x="1331" d="M166 451l129 921h133l-129 -921q-5 -38 -5 -73q0 -116 59 -190q77 -96 225 -96t250.5 96t125.5 263l131 921h132l-130 -921q-20 -146 -95 -258.5t-188 -173t-245 -60.5q-203 0 -313 136q-87 107 -86 266q0 43 6 90z" />
<glyph unicode="V" horiz-adv-x="1198" d="M152 1372h143l235 -1096h11l542 1096h144l-738 -1454h-10z" />
<glyph unicode="W" horiz-adv-x="1761" d="M172 1372h143l154 -1024h10l500 1086l197 -1086h10l440 1024h143l-634 -1454h-11l-204 1086l-512 -1086h-11z" />
<glyph unicode="X" horiz-adv-x="1177" d="M-41 0l543 727l-299 645h153l244 -532h10l391 532h154l-479 -645l338 -727h-154l-282 614h-11l-454 -614h-154z" />
<glyph unicode="Y" horiz-adv-x="1116" d="M131 1372h154l258 -717h10l459 717h153l-573 -880l-70 -492h-133l70 492z" />
<glyph unicode="Z" horiz-adv-x="1044" d="M-41 0l2 20l877 1209l2 10h-645l18 133h860l-2 -20l-876 -1209l-2 -10h696l-19 -133h-911z" />
<glyph unicode="[" horiz-adv-x="634" d="M41 -430l264 1884h369l-19 -133h-235l-227 -1618h235l-18 -133h-369z" />
<glyph unicode="\" horiz-adv-x="870" d="M152 1372h143l412 -1372h-144z" />
<glyph unicode="]" horiz-adv-x="634" d="M-102 -430l18 133h236l227 1618h-236l19 133h368l-264 -1884h-368z" />
<glyph unicode="^" horiz-adv-x="808" d="M92 799l336 573h133l176 -573h-143l-117 409h-10l-231 -409h-144z" />
<glyph unicode="_" horiz-adv-x="716" d="M-152 -348l17 123h717l-17 -123h-717z" />
<glyph unicode="`" horiz-adv-x="450" d="M135 1260l78 112l242 -164l-52 -82z" />
<glyph unicode="a" d="M33 352q0 103 41.5 199t107 162.5t147 106.5t160.5 40q57 0 106.5 -17t79 -41t51 -48t30.5 -41l8 -17h10l19 123h122l-116 -819h-123l18 123h-10q-5 -7 -14 -18t-40 -39t-66 -50t-90 -39.5t-112 -17.5q-134 0 -231.5 113.5t-97.5 279.5zM166 362q0 -122 68 -201t167 -79 q120 0 215 75.5t107 170.5l22 164q2 14 2 27q0 79 -62 143q-72 74 -191 75q-124 0 -226 -108.5t-102 -266.5z" />
<glyph unicode="b" horiz-adv-x="1085" d="M82 0l192 1372h123l-94 -676h10q5 7 14 18t39.5 39t65 50t89.5 39.5t112 17.5q134 0 233 -113.5t99 -279.5q0 -103 -42 -199t-107.5 -162.5t-148 -106.5t-161.5 -40q-57 0 -106.5 17t-79 41t-51 48t-29.5 41l-9 17h-10l-16 -123h-123zM252 328q-2 -14 -2 -27 q0 -80 62 -144q72 -75 192 -75q124 0 224.5 108.5t100.5 266.5q0 123 -67.5 201.5t-165.5 78.5q-120 0 -215 -75t-107 -170z" />
<glyph unicode="c" horiz-adv-x="931" d="M33 358q0 98 43.5 191.5t113 161t160 108.5t180.5 41q52 0 98.5 -12t78.5 -31t59 -42t43.5 -45.5t28 -41.5t16.5 -31l4 -12l-110 -61q-2 6 -7.5 16.5t-25 37t-44 46.5t-66.5 36.5t-91 16.5q-130 0 -239 -109.5t-109 -258.5q0 -121 75 -204t181 -83q55 0 106 18t85 43.5 t60 51t38 43.5l12 18l92 -61q-6 -10 -16.5 -25.5t-49 -56.5t-82.5 -72t-115.5 -56.5t-148.5 -25.5q-155 0 -262.5 117t-107.5 282z" />
<glyph unicode="d" horiz-adv-x="1085" d="M33 352q0 103 41.5 199t107 162.5t147 106.5t160.5 40q57 0 106.5 -17t79 -41t51 -48t30.5 -41l8 -17h10l94 676h123l-192 -1372h-123l18 123h-10q-5 -7 -14 -18t-40 -39t-66 -50t-90 -39.5t-112 -17.5q-134 0 -231.5 113.5t-97.5 279.5zM166 362q0 -122 68 -201t167 -79 q120 0 215 75.5t107 170.5l22 164q2 14 2 27q0 79 -62 143q-72 74 -191 75q-124 0 -226 -108.5t-102 -266.5z" />
<glyph unicode="e" horiz-adv-x="952" d="M33 358q0 98 43.5 192t112.5 161t157 108t174 41q150 0 237 -72t87 -172q0 -110 -97.5 -189t-257.5 -79h-327q0 -110 73.5 -188t186.5 -78q55 0 106 18t85 43.5t60 51t38 43.5l12 18l92 -61q-6 -10 -16.5 -25.5t-49 -56.5t-82.5 -72t-115.5 -56.5t-148.5 -25.5 q-155 0 -262.5 117t-107.5 282zM178 471h328q93 0 148 40t55 95t-52.5 93t-152.5 38q-106 0 -200.5 -78.5t-125.5 -187.5z" />
<glyph unicode="f" horiz-adv-x="573" d="M25 -553l176 1249h-144l17 123h143l45 318q18 128 97 202t188 74q36 0 75 -15.5t60 -30.5l20 -15l-65 -103q-47 41 -98 41q-56 0 -100.5 -43t-53.5 -110l-45 -318h225l-16 -123h-225l-177 -1249h-122z" />
<glyph unicode="g" horiz-adv-x="942" d="M-102 -307q0 52 20.5 99.5t50 78.5t59 54t50.5 33l20 11l2 11q-3 1 -7 4t-15.5 13.5t-20 23t-15.5 33t-7 42.5q0 29 10.5 54.5t25.5 42.5t30 29.5t25 17.5l11 6l2 10q-3 3 -9 8.5t-20.5 24.5t-25.5 40.5t-20 56t-9 71.5q0 152 118 257t300 105h379l-16 -123h-103l-2 -10 q3 -2 7.5 -6.5t16 -19.5t20.5 -32.5t16.5 -46t7.5 -59.5q0 -149 -118.5 -253.5t-299.5 -104.5q-36 0 -68.5 5t-46.5 10l-14 5l-9 -3t-20.5 -9.5t-25.5 -16.5t-20 -25.5t-9 -35.5q0 -24 15 -42.5t31 -25.5l15 -6q75 21 136 21q176 0 277 -84t101 -203q0 -66 -33.5 -128.5 t-93 -111.5t-149 -78.5t-193.5 -29.5q-176 0 -276 83.5t-100 203.5zM31 -295q0 -76 67 -126t195 -50q149 0 232 62.5t83 150.5q0 76 -66.5 126t-193.5 50q-150 0 -233.5 -62.5t-83.5 -150.5zM190 469q0 -79 56.5 -130.5t152.5 -51.5q115 0 191 66.5t76 160.5 q0 79 -56.5 130.5t-152.5 51.5q-115 0 -191 -66.5t-76 -160.5z" />
<glyph unicode="h" d="M82 0l192 1372h123l-94 -676h10q5 7 13.5 18t38.5 39t62.5 50t82.5 39.5t102 17.5q132 0 216 -102q67 -82 67 -192q0 -26 -4 -54l-72 -512h-123l72 512q2 16 2 32q0 73 -46 127q-56 66 -149 66q-106 0 -197.5 -76t-103.5 -169l-69 -492h-123z" />
<glyph unicode="i" horiz-adv-x="409" d="M41 0l115 819h123l-115 -819h-123zM193 1221q0 33 30.5 61.5t63.5 28.5q31 0 52.5 -25.5t16.5 -56.5q-3 -31 -32 -56.5t-60 -25.5q-29 0 -50 23t-21 51z" />
<glyph unicode="j" horiz-adv-x="409" d="M-317 -512l65 102q45 -41 96 -41q56 0 101.5 43.5t54.5 110.5l158 1116h123l-158 -1116q-18 -128 -97 -202t-188 -74q-36 0 -75 15.5t-59 30.5zM193 1221q0 33 30.5 61.5t63.5 28.5q29 0 50 -23t21 -51q0 -33 -30.5 -61.5t-63.5 -28.5q-29 0 -50 23t-21 51z" />
<glyph unicode="k" horiz-adv-x="880" d="M82 0l192 1372h123l-192 -1372h-123zM348 430l330 389h143l-329 -389l245 -430h-143z" />
<glyph unicode="l" horiz-adv-x="491" d="M82 0l192 1372h123l-192 -1372h-123z" />
<glyph unicode="m" horiz-adv-x="1515" d="M61 0l115 819h123l-16 -123h10q4 7 11 18t31.5 39t51.5 50t69 39.5t85 17.5q49 0 90.5 -19t66 -46t42 -54t24.5 -46l6 -19h10q4 7 12.5 19.5t38 44.5t62 56t84 44t106.5 20q125 0 204 -96q63 -77 63 -179q0 -26 -4 -53l-76 -532h-123l76 532q2 16 2 31q1 65 -41 114 q-52 60 -137 60q-91 0 -161.5 -59.5t-82.5 -145.5l-76 -532h-123l76 532q2 16 2 31q0 68 -44 116q-54 58 -134 58q-89 0 -161.5 -61t-86.5 -164l-72 -512h-123z" />
<glyph unicode="n" horiz-adv-x="1044" d="M61 0l115 819h123l-16 -123h10q5 7 13.5 18t38.5 39t62.5 50t82.5 39.5t102 17.5q132 0 215 -102q67 -82 67 -191q0 -27 -4 -55l-71 -512h-123l72 512q2 16 2 32q0 73 -46 127q-56 66 -149 66q-106 0 -197.5 -76t-103.5 -169l-70 -492h-123z" />
<glyph unicode="o" horiz-adv-x="1024" d="M33 358q0 98 43.5 191.5t113 161t160 108.5t180.5 41q155 0 263 -117t108 -282q0 -98 -43.5 -191.5t-113.5 -161t-160.5 -108.5t-180.5 -41q-155 0 -262.5 117t-107.5 282zM166 369q0 -121 75 -204t181 -83q62 0 124 29t111 78t80 118.5t31 143.5q0 121 -74.5 203.5 t-179.5 82.5q-130 0 -239 -109.5t-109 -258.5z" />
<glyph unicode="p" d="M-16 -553l192 1372h123l-16 -123h10q5 7 13.5 18t39.5 39t65 50t89 39.5t112 17.5q134 0 232 -113.5t98 -279.5q0 -103 -41.5 -199t-107 -162.5t-147.5 -106.5t-161 -40q-57 0 -106.5 17t-79 41t-50.5 48t-29 41l-9 17h-10l-95 -676h-122zM229 328q-2 -15 -2 -30 q0 -77 62 -140q74 -76 194 -76q124 0 225 108.5t101 266.5q0 122 -68 201t-166 79q-120 0 -213.5 -75t-107.5 -170z" />
<glyph unicode="q" d="M33 352q0 103 41.5 199t107 162.5t147 106.5t160.5 40q57 0 106.5 -17t79 -41t51 -48t30.5 -41l8 -17h10l19 123h122l-194 -1372h-123l96 676h-10q-5 -7 -14 -18t-40 -39t-66 -50t-90 -39.5t-112 -17.5q-134 0 -231.5 113.5t-97.5 279.5zM166 362q0 -122 68 -201t167 -79 q120 0 215 75.5t107 170.5l22 164q2 14 2 27q0 80 -62 143q-72 75 -191 75q-124 0 -226 -108.5t-102 -266.5z" />
<glyph unicode="r" horiz-adv-x="655" d="M61 0l115 819h123l-16 -123h10q5 7 13.5 18t36.5 39t57.5 50t73.5 39.5t87 17.5q23 0 45.5 -5t33.5 -10l11 -5l-49 -123q-39 10 -80 10q-92 0 -174 -71.5t-94 -163.5l-70 -492h-123z" />
<glyph unicode="s" horiz-adv-x="757" d="M-43 133l104 82q3 -5 9.5 -14t28 -32t44.5 -40.5t59.5 -32t73.5 -14.5q95 0 156.5 47.5t61.5 106.5q0 36 -31 63.5t-77.5 44t-100.5 38.5t-100.5 45.5t-77.5 67.5t-31 103q0 105 93.5 183.5t238.5 78.5q55 0 103.5 -14.5t78.5 -36t52.5 -42.5t31.5 -35l10 -15l-104 -82 q-3 4 -9 11t-25.5 24.5t-40.5 31t-52.5 24.5t-63.5 11q-88 0 -134 -35t-46 -88q0 -36 31 -63.5t77.5 -44t100.5 -38.5t100.5 -45.5t77.5 -67.5t31 -103q0 -120 -103 -206.5t-264 -86.5q-60 0 -113.5 18t-86.5 43.5t-57.5 51t-34.5 43.5z" />
<glyph unicode="t" horiz-adv-x="655" d="M57 696l17 123h143l45 307h123l-45 -307h225l-16 -123h-225l-66 -460q-2 -14 -2 -28q0 -49 26 -83q34 -43 89 -43q23 0 50 10t43 20l15 11l37 -103q-10 -7 -27.5 -17t-64 -27t-82.5 -17q-109 1 -167 75q-44 57 -44 144q0 27 4 58l66 460h-144z" />
<glyph unicode="u" d="M104 307l72 512h123l-72 -512q-2 -16 -2 -31q-1 -72 47 -128q58 -66 150 -66q106 0 197.5 76t103.5 170l70 491h120l-114 -819h-123l18 123h-10q-5 -7 -14 -18t-39 -39t-62.5 -50t-83 -39.5t-102.5 -17.5q-131 -1 -215 101q-67 82 -68 193q0 26 4 54z" />
<glyph unicode="v" horiz-adv-x="870" d="M53 819h133l172 -594h11l340 594h133l-500 -860h-31z" />
<glyph unicode="w" horiz-adv-x="1239" d="M53 819h133l127 -553h11l309 594h10l141 -594h11l282 553h133l-438 -860h-31l-141 594h-10l-309 -594h-31z" />
<glyph unicode="x" horiz-adv-x="829" d="M-61 0l346 420l-201 399h143l150 -317h10l240 317h143l-311 -399l227 -420h-143l-178 338h-11l-272 -338h-143z" />
<glyph unicode="y" horiz-adv-x="870" d="M-16 -553l292 553l-223 819h133l176 -645h11l336 645h133l-725 -1372h-133z" />
<glyph unicode="z" horiz-adv-x="747" d="M-61 0l2 10l534 676l2 10h-420l17 123h645v-10l-537 -676l-2 -10h430l-16 -123h-655z" />
<glyph unicode="{" horiz-adv-x="624" d="M23 451l16 122h31q61 0 107.5 41t55.5 103l68 471q15 115 101 190.5t202 75.5h62l-19 -133h-61q-61 0 -102 -35.5t-50 -97.5l-67 -471q-6 -46 -26.5 -83.5t-44.5 -58.5t-47 -35t-39 -19l-15 -5v-8l15 -5t31.5 -18.5t38 -36t25.5 -58t4 -83.5l-65 -471q-9 -61 21.5 -97 t92.5 -36h62l-19 -133h-61q-116 0 -181 75.5t-48 190.5l65 471q9 61 -26 102.5t-97 41.5h-30z" />
<glyph unicode="|" horiz-adv-x="542" d="M23 -573l307 2191h133l-307 -2191h-133z" />
<glyph unicode="}" horiz-adv-x="624" d="M-102 -430l18 133h61q61 0 102 35.5t50 97.5l68 471q6 46 26 83.5t44 58.5t46.5 35t38.5 19l15 5l2 8l-15 5t-31.5 18.5t-38.5 36t-26 58t-4 83.5l65 471q9 61 -21.5 97t-92.5 36h-62l19 133h61q115 0 180 -75t50 -191l-66 -471q-9 -61 26 -102.5t97 -41.5h31l-19 -122 h-30q-61 0 -107 -41t-55 -103l-68 -471q-15 -115 -101 -190.5t-202 -75.5h-61z" />
<glyph unicode="~" horiz-adv-x="778" d="M25 461q15 105 76.5 165t148.5 60q42 0 79 -22.5t59 -49t49 -49t50 -22.5q40 0 70 32t39 91l109 -31q-15 -105 -78 -165t-150 -60q-42 0 -78.5 22.5t-58.5 49t-48.5 49t-49.5 22.5q-40 0 -70 -32t-39 -91z" />
<glyph unicode="&#xa1;" horiz-adv-x="532" d="M25 -553l90 635l78 348h61l-16 -348l-91 -635h-122zM188 750q0 33 31 61.5t64 28.5q29 0 49 -22.5t20 -51.5q0 -33 -30.5 -61.5t-63.5 -28.5q-29 0 -49.5 23t-20.5 51z" />
<glyph unicode="&#xa2;" horiz-adv-x="931" d="M33 356q0 95 37.5 182.5t98.5 151t138.5 106t159.5 54.5l29 194h122l-28 -194q59 -9 108.5 -33t77.5 -52.5t48 -56t27 -45.5l7 -18l-110 -61q-2 6 -7.5 16.5t-25 37t-44 46.5t-66.5 36.5t-91 16.5q-130 0 -238 -109.5t-108 -258.5q0 -121 74.5 -204t179.5 -83 q55 0 106 18t85 43.5t60 51t38 43.5l12 18l92 -61q-4 -8 -13 -21.5t-40.5 -48.5t-68.5 -63.5t-98 -56t-128 -36.5l-27 -194h-123l27 194q-133 22 -222 129t-89 258z" />
<glyph unicode="&#xa3;" horiz-adv-x="972" d="M-20 0l12 82q10 7 27 20t62.5 61t83 104t75 150t51.5 197h-154l19 134h153q7 41 -5.5 135t-12.5 139q0 174 109 282.5t280 108.5q52 0 98.5 -13.5t76 -33t51.5 -39.5t32 -33l10 -14l-94 -92q-3 4 -8.5 10t-24 22t-39 28t-53.5 22t-67 10q-98 0 -164 -72t-66 -198 q0 -39 8 -130t2 -132h236l-19 -134h-235q-13 -92 -41 -175t-60 -136.5t-61.5 -94t-49.5 -58.5l-19 -17l-3 -10h615l-17 -123h-808z" />
<glyph unicode="&#xa4;" horiz-adv-x="1187" d="M41 287l16 123h144l20 133h-143l16 123h144l98 706h348q205 0 321.5 -104.5t116.5 -266.5q0 -192 -154 -325t-399 -133h-215l-20 -133h471l-17 -123h-471l-41 -287h-133l41 287h-143zM371 666h215q181 0 286 91t105 230q0 113 -81 182.5t-230 69.5h-215z" />
<glyph unicode="&#xa5;" horiz-adv-x="1116" d="M131 1372h154l258 -717h10l459 717h153l-522 -799h225l-16 -122h-266l-21 -144h266l-18 -123h-266l-25 -184h-133l25 184h-267l19 123h266l21 144h-267l17 122h225z" />
<glyph unicode="&#xa6;" horiz-adv-x="542" d="M23 -573l120 860h133l-120 -860h-133zM209 758l121 860h133l-121 -860h-133z" />
<glyph unicode="&#xa7;" horiz-adv-x="1003" d="M6 -174l105 82q3 -6 9.5 -16.5t28.5 -37t46.5 -47t65 -37t83.5 -16.5q107 0 175.5 60t68.5 145q0 48 -27 89t-70 73t-95.5 63t-105 65.5t-95.5 73t-70 94t-27 120.5q0 73 29 136.5t71 102t83.5 66t70.5 38.5l29 11l2 10q-5 3 -14 8t-31.5 24.5t-40 43t-31.5 63t-14 84.5 q0 136 109.5 233t273.5 97q60 0 113.5 -18t86.5 -43.5t57.5 -51t35.5 -43.5l10 -18l-104 -82q-3 5 -10 14t-28.5 32t-45.5 40.5t-60.5 32t-73.5 14.5q-107 0 -168 -54t-61 -138q0 -44 26 -82.5t67.5 -69t91.5 -61t100.5 -64.5t92 -72.5t67.5 -92.5t26 -117 q0 -53 -15.5 -101.5t-41 -83.5t-56 -64.5t-60.5 -48.5t-55.5 -32.5t-41.5 -19.5l-15 -5v-10q6 -3 16 -9t35.5 -28t45 -47.5t35.5 -68.5t16 -91q0 -136 -115 -238t-278 -102q-66 0 -123.5 20t-92.5 48.5t-60 57.5t-36 49zM231 549q0 -75 59 -137t191 -125q10 4 26 11t58 33 t74 55.5t58 78.5t26 102q0 75 -58.5 137t-189.5 125q-10 -4 -26.5 -11t-58.5 -33t-74 -55.5t-58.5 -78.5t-26.5 -102z" />
<glyph unicode="&#xa8;" horiz-adv-x="604" d="M129 1210q0 33 30.5 61.5t63.5 28.5q29 0 50.5 -22.5t21.5 -50.5q0 -33 -30.5 -61.5t-63.5 -28.5q-29 0 -50.5 22.5t-21.5 50.5zM446 1210q0 33 31 61.5t64 28.5q29 0 50 -22.5t21 -50.5q0 -33 -30.5 -61.5t-63.5 -28.5q-29 0 -50.5 22.5t-21.5 50.5z" />
<glyph unicode="&#xa9;" horiz-adv-x="1843" d="M98 514q0 176 79 343t206.5 288t295.5 194.5t339 73.5q145 0 274.5 -57t221 -154t145 -229.5t53.5 -278.5q0 -141 -50.5 -277.5t-140 -247t-205 -196t-252 -132t-273.5 -46.5q-193 0 -352.5 97t-250 262t-90.5 360zM231 524q0 -167 75.5 -306t208.5 -219.5t294 -80.5 q144 0 284 61.5t246.5 164t172 245t65.5 295.5q0 167 -75 306t-207.5 219.5t-293.5 80.5q-144 0 -284 -61.5t-247 -164t-173 -245t-66 -295.5zM563 557q0 116 59.5 215t155 155t201.5 56q49 0 92 -16t69.5 -38.5t46 -45t27.5 -38.5l9 -16l-111 -61q-2 4 -6.5 10t-20 22 t-32 28t-41.5 22t-51 10q-115 0 -190 -81.5t-75 -219.5q0 -99 52 -155t141 -56q29 0 60 11.5t55 28t44 33.5t31 29l11 11l94 -62q-5 -7 -15 -19t-42 -42t-66 -52.5t-85.5 -41.5t-103.5 -19q-133 0 -221 94.5t-88 237.5z" />
<glyph unicode="&#xaa;" horiz-adv-x="624" d="M98 983q0 85 68.5 145t175.5 60q37 0 79.5 -5t66.5 -11l24 -5l4 21q9 54 -23.5 88.5t-93.5 34.5q-36 0 -71.5 -15.5t-52.5 -31.5l-17 -15l-51 72q3 4 9.5 10t27.5 22t44 28t57.5 22t68.5 10q114 0 171.5 -62t43.5 -163l-49 -348h-113l10 71h-10q-3 -4 -9 -10t-25 -22 t-39.5 -28t-51.5 -22t-63 -10q-83 0 -132 46.5t-49 117.5zM223 995q0 -29 23 -51t57 -22q72 0 130 40t63 82l4 31q-90 10 -172 10q-41 0 -73 -28t-32 -62z" />
<glyph unicode="&#xab;" horiz-adv-x="788" d="M37 410l233 348h133l-233 -348l135 -349h-133zM344 410l234 348h133l-234 -348l135 -349h-133z" />
<glyph unicode="&#xac;" horiz-adv-x="808" d="M49 502l17 123h645l-43 -318h-123l26 195h-522z" />
<glyph unicode="&#xad;" horiz-adv-x="798" d="M25 471l16 123h676l-17 -123h-675z" />
<glyph unicode="&#xae;" horiz-adv-x="1843" d="M98 514q0 176 79 343t206.5 288t295.5 194.5t339 73.5q145 0 274.5 -57t221 -154t145 -229.5t53.5 -278.5q0 -141 -50.5 -277.5t-140 -247t-205 -196t-252 -132t-273.5 -46.5q-193 0 -352.5 97t-250 262t-90.5 360zM231 524q0 -167 75.5 -306t208.5 -219.5t294 -80.5 q144 0 284 61.5t246.5 164t172 245t65.5 295.5q0 167 -75 306t-207.5 219.5t-293.5 80.5q-144 0 -284 -61.5t-247 -164t-173 -245t-66 -295.5zM616 225l103 738h266q117 0 186.5 -62t69.5 -151q0 -45 -17.5 -84t-43 -62.5t-51 -40.5t-43.5 -24l-17 -7l-2 -10l133 -297h-143 l-117 267h-164l-37 -267h-123zM793 614h143q81 0 126.5 35.5t45.5 89.5q0 44 -36 72.5t-103 28.5h-144z" />
<glyph unicode="&#xaf;" horiz-adv-x="563" d="M135 1260l17 112h440l-17 -112h-440z" />
<glyph unicode="&#xb0;" horiz-adv-x="614" d="M121 1147q13 100 96.5 173t183.5 73t162.5 -73t48.5 -173q-13 -100 -96.5 -173t-183.5 -73t-162.5 73t-48.5 173zM223 1147q-9 -68 26 -111t97 -43t108.5 43t55.5 111t-25 110.5t-96 42.5q-63 0 -110 -42.5t-56 -110.5z" />
<glyph unicode="&#xb1;" horiz-adv-x="860" d="M6 123l17 123h276l45 307h-287l17 123h286l46 317h122l-45 -317h287l-16 -123h-287l-45 -307h276l-16 -123h-676z" />
<glyph unicode="&#xb2;" horiz-adv-x="552" d="M88 840l12 82q13 6 35.5 17t79 45t99.5 68t78.5 80t35.5 87q0 36 -24.5 58.5t-65.5 22.5q-32 0 -65 -15t-51 -31l-17 -15l-60 82q11 10 29.5 25.5t73 41t104.5 25.5q84 0 141.5 -56.5t57.5 -129.5q0 -49 -25 -95t-60.5 -77.5t-71 -55.5t-60.5 -35l-25 -12l-2 -10h215 l-14 -102h-420z" />
<glyph unicode="&#xb3;" horiz-adv-x="542" d="M88 911l84 82q5 -7 13.5 -17t38 -27t61.5 -17q48 0 81 27t33 61q0 31 -24.5 53.5t-65.5 22.5h-71l10 71l147 113l2 10h-225l14 103h389l-12 -82l-170 -123l-2 -10q58 -8 95.5 -47t37.5 -99q0 -85 -74.5 -149t-179.5 -64q-50 0 -95.5 23t-66.5 46z" />
<glyph unicode="&#xb4;" horiz-adv-x="450" d="M129 1208l289 164l47 -112l-307 -134z" />
<glyph unicode="&#xb5;" d="M-16 -553l192 1372h123l-72 -512q-12 -92 45.5 -158.5t149.5 -66.5q106 0 196.5 76t102.5 170l70 491h122l-114 -819h-123l16 123h-10q-5 -7 -14.5 -18t-39.5 -39t-60.5 -50t-76 -39.5t-88.5 -17.5t-79 12.5t-57 30.5t-35.5 36.5t-19.5 31.5l-5 12h-10l-91 -635h-122z " />
<glyph unicode="&#xb6;" horiz-adv-x="727" d="M147 1040q0 134 103.5 233t238.5 99h267l-15 -102h-133l-256 -1823h-133l187 1331q-111 0 -185 76t-74 186z" />
<glyph unicode="&#xb7;" horiz-adv-x="368" d="M96 678q0 33 30.5 61.5t63.5 28.5q28 0 50 -23t22 -51q0 -33 -30.5 -61.5t-63.5 -28.5q-29 0 -50.5 23t-21.5 51z" />
<glyph unicode="&#xb8;" horiz-adv-x="430" d="M-96 -399l53 82q37 -31 78 -31t66.5 23t25.5 57q0 28 -19.5 45.5t-54.5 17.5h-71l90 205h92l-58 -123q56 -8 89.5 -44.5t33.5 -90.5q0 -70 -63.5 -126t-145.5 -56q-27 0 -56 10t-44 20z" />
<glyph unicode="&#xb9;" horiz-adv-x="512" d="M119 840l14 102h113l41 297h-11l-96 -41l-39 92l242 123h51l-65 -471h112l-14 -102h-348z" />
<glyph unicode="&#xba;" horiz-adv-x="696" d="M113 1087q0 80 50.5 157t127.5 123t153 46q99 0 172.5 -81t73.5 -187q0 -122 -106 -224t-224 -102q-99 0 -173 81t-74 187zM236 1094q0 -67 42 -114.5t99 -47.5q69 0 129.5 62.5t60.5 144.5q0 67 -41.5 114t-97.5 47q-70 0 -131 -62t-61 -144z" />
<glyph unicode="&#xbb;" horiz-adv-x="788" d="M-12 61l233 349l-135 348h133l135 -348l-233 -349h-133zM295 61l233 349l-135 348h133l136 -348l-234 -349h-133z" />
<glyph unicode="&#xbc;" horiz-adv-x="1331" d="M119 819l14 103h113l41 297h-11l-96 -41l-39 92l242 123h51l-65 -471h112l-14 -103h-348zM133 0l940 1372h144l-941 -1372h-143zM682 113l12 82l340 378h103l-50 -348h72l-16 -112h-72l-16 -113h-123l16 113h-266zM852 225h113l18 133h-10l-121 -122v-11z" />
<glyph unicode="&#xbd;" horiz-adv-x="1320" d="M119 819l14 103h113l41 297h-11l-96 -41l-39 92l242 123h51l-65 -471h112l-14 -103h-348zM133 0l940 1372h144l-941 -1372h-143zM696 0l13 82q7 3 18.5 9t45.5 24.5t65 38t69 48t65 55.5t45.5 59.5t18.5 62.5q0 36 -24.5 59t-65.5 23q-32 0 -65 -15.5t-51 -31.5l-17 -15 l-59 82q11 10 29.5 25.5t73 41t104.5 25.5q84 0 141 -56.5t57 -129.5q0 -49 -25 -95t-60.5 -77t-70.5 -55t-60 -36l-25 -11l-3 -11h215l-14 -102h-420z" />
<glyph unicode="&#xbe;" horiz-adv-x="1310" d="M88 891l84 82q5 -7 13.5 -17.5t38 -27.5t61.5 -17q48 0 81 27t33 61q0 31 -24.5 53.5t-65.5 22.5h-71l10 72l147 113l2 10h-225l14 102h389l-12 -82l-170 -123l-2 -10q58 -8 95.5 -46.5t37.5 -98.5q0 -85 -74.5 -149t-179.5 -64q-50 0 -95.5 23t-66.5 46zM113 0l940 1372 h143l-940 -1372h-143zM662 113l12 82l340 378h102l-49 -348h72l-17 -112h-71l-17 -113h-123l17 113h-266zM831 225h113l19 133h-11l-121 -122v-11z" />
<glyph unicode="&#xbf;" horiz-adv-x="931" d="M-55 -258q0 64 22.5 119.5t59.5 98t82 82.5t91.5 80.5t87 83t70.5 100.5t39 124h123q-10 -74 -39.5 -138.5t-68.5 -111t-83.5 -88.5t-87 -79.5t-77 -76.5t-55.5 -87t-21 -103q0 -91 65.5 -149t180.5 -58q49 0 97.5 17t83.5 41t62.5 48t41.5 41l14 17l104 -72 q-7 -9 -19.5 -24t-55 -54t-88.5 -68.5t-116.5 -54t-142.5 -24.5q-159 0 -264.5 101.5t-105.5 234.5zM434 750q0 33 29.5 61.5t62.5 28.5q29 0 50.5 -23t21.5 -51q0 -33 -30 -61.5t-64 -28.5q-27 0 -48.5 23t-21.5 51z" />
<glyph unicode="&#xc0;" horiz-adv-x="1239" d="M-41 0l758 1454h10l348 -1454h-143l-55 256h-646l-129 -256h-143zM301 389h543l-164 727h-10zM594 1751l78 113l241 -164l-51 -82z" />
<glyph unicode="&#xc1;" horiz-adv-x="1239" d="M-41 0l758 1454h10l348 -1454h-143l-55 256h-646l-129 -256h-143zM301 389h543l-164 727h-10zM627 1700l288 164l48 -113l-308 -133z" />
<glyph unicode="&#xc2;" horiz-adv-x="1239" d="M-41 0l758 1454h10l348 -1454h-143l-55 256h-646l-129 -256h-143zM301 389h543l-164 727h-10zM502 1669l278 154l234 -154l-53 -92l-201 113l-230 -113z" />
<glyph unicode="&#xc3;" horiz-adv-x="1239" d="M-41 0l758 1454h10l348 -1454h-143l-55 256h-646l-129 -256h-143zM301 389h543l-164 727h-10zM530 1659q11 80 60.5 132t99.5 52q31 0 56.5 -14.5t40 -31.5t34 -31.5t39.5 -14.5q18 0 38.5 25t27.5 67l88 -20q-10 -80 -59 -132.5t-99 -52.5q-31 0 -57 14.5t-40.5 32 t-34.5 32t-40 14.5q-17 0 -37 -25.5t-26 -67.5z" />
<glyph unicode="&#xc4;" horiz-adv-x="1239" d="M-41 0l758 1454h10l348 -1454h-143l-55 256h-646l-129 -256h-143zM301 389h543l-164 727h-10zM510 1692q0 33 30.5 61.5t63.5 28.5q29 0 50.5 -23t21.5 -51q0 -33 -30.5 -61.5t-63.5 -28.5q-29 0 -50.5 23t-21.5 51zM827 1692q0 33 31 61.5t64 28.5q29 0 50 -23t21 -51 q0 -33 -30.5 -61.5t-63.5 -28.5q-29 0 -50.5 23t-21.5 51z" />
<glyph unicode="&#xc5;" horiz-adv-x="1239" d="M-41 0l758 1454h10l348 -1454h-143l-55 256h-646l-129 -256h-143zM301 389h543l-164 727h-10zM569 1720q0 84 70 149.5t154 65.5q77 0 127.5 -59t40.5 -135t-78.5 -135.5t-145.5 -59.5q-70 0 -119 52t-49 122zM662 1733q0 -37 27.5 -66t62.5 -29q38 0 74 32t42 71 q5 38 -22.5 70t-65.5 32q-42 0 -80 -35.5t-38 -74.5z" />
<glyph unicode="&#xc6;" horiz-adv-x="1669" d="M-61 0q62 119 318 612t396 760h983l-18 -133h-604l-66 -471h441l-19 -133h-440l-72 -502h625l-19 -133h-757l45 328h-512l-168 -328h-133zM311 461h461l109 778h-164z" />
<glyph unicode="&#xc7;" horiz-adv-x="1423" d="M90 602q0 108 32 213t88 193t133 164t165.5 128.5t188.5 82.5t198 30q73 0 140 -17t116 -44t91 -60t69.5 -65.5t47 -59.5t27.5 -44l9 -17l-123 -72q-5 10 -14.5 26.5t-45 59t-77 75t-111.5 59t-147 26.5q-115 0 -231 -54t-206.5 -142.5t-147 -212.5t-56.5 -255 q0 -143 63.5 -263.5t173 -190.5t238.5 -70q65 0 128 16t112 41t93.5 55.5t76 61.5t54.5 56t35 41l11 16l102 -72q-5 -7 -14 -19.5t-41 -48.5t-67.5 -69t-92 -73t-116 -69t-138.5 -49t-160 -20l-47 -102q54 -8 88.5 -45t34.5 -91q0 -69 -64 -125.5t-145 -56.5 q-27 0 -56.5 10.5t-44.5 20.5l-16 10l52 82q36 -31 77 -31q42 0 67.5 23t25.5 57q0 29 -19 46.5t-53 17.5h-72l84 190q-222 31 -369 212t-147 425z" />
<glyph unicode="&#xc8;" d="M102 0l193 1372h737l-18 -133h-604l-66 -471h440l-18 -133h-440l-72 -502h625l-19 -133h-758zM537 1710l77 113l242 -164l-51 -82z" />
<glyph unicode="&#xc9;" d="M102 0l193 1372h737l-18 -133h-604l-66 -471h440l-18 -133h-440l-72 -502h625l-19 -133h-758zM602 1659l289 164l47 -113l-307 -133z" />
<glyph unicode="&#xca;" d="M102 0l193 1372h737l-18 -133h-604l-66 -471h440l-18 -133h-440l-72 -502h625l-19 -133h-758zM451 1669l278 154l234 -154l-54 -92l-200 113l-230 -113z" />
<glyph unicode="&#xcb;" d="M102 0l193 1372h737l-18 -133h-604l-66 -471h440l-18 -133h-440l-72 -502h625l-19 -133h-758zM496 1712q0 33 30.5 61.5t63.5 28.5q29 0 50.5 -22.5t21.5 -50.5q0 -33 -31 -62t-64 -29q-29 0 -50 23t-21 51zM813 1712q0 33 30.5 61.5t63.5 28.5q29 0 50.5 -22.5 t21.5 -50.5q0 -33 -30.5 -62t-63.5 -29q-29 0 -50.5 23t-21.5 51z" />
<glyph unicode="&#xcc;" horiz-adv-x="491" d="M70 0l192 1372h133l-192 -1372h-133zM178 1710l78 113l242 -164l-52 -82z" />
<glyph unicode="&#xcd;" horiz-adv-x="491" d="M72 0l192 1372h133l-192 -1372h-133zM254 1659l289 164l47 -113l-307 -133z" />
<glyph unicode="&#xce;" horiz-adv-x="512" d="M82 0l192 1372h134l-193 -1372h-133zM131 1669l279 154l233 -154l-53 -92l-201 113l-229 -113z" />
<glyph unicode="&#xcf;" horiz-adv-x="522" d="M92 0l193 1372h133l-193 -1372h-133zM150 1651q0 33 30.5 61.5t63.5 28.5q29 0 50 -23t21 -51q0 -33 -30.5 -61.5t-63.5 -28.5q-29 0 -50 23t-21 51zM467 1651q0 33 30.5 61.5t63.5 28.5q29 0 50.5 -23t21.5 -51q0 -33 -30.5 -61.5t-63.5 -28.5q-29 0 -50.5 23t-21.5 51z " />
<glyph unicode="&#xd0;" horiz-adv-x="1382" d="M86 614l18 134h134l88 624h348q178 0 317 -78.5t215 -215.5t76 -308q0 -158 -64.5 -301t-172.5 -245.5t-255.5 -163t-308.5 -60.5h-348l86 614h-133zM285 133h215q129 0 246 48.5t203 131.5t137 198.5t51 244.5q0 211 -133.5 347t-348.5 136h-215l-69 -491h317l-18 -134 h-318z" />
<glyph unicode="&#xd1;" horiz-adv-x="1361" d="M102 0l199 1413h31l626 -1075h11l145 1034h133l-198 -1413h-31l-627 1075h-10l-145 -1034h-134zM586 1618q11 80 60.5 132t98.5 52q31 0 56.5 -14.5t40 -31.5t34 -31.5t39.5 -14.5q18 0 38.5 25t27.5 67l88 -20q-10 -80 -59 -132.5t-99 -52.5q-31 0 -57 14.5t-40.5 32 t-34.5 32t-40 14.5q-17 0 -37 -25.5t-26 -67.5z" />
<glyph unicode="&#xd2;" horiz-adv-x="1597" d="M90 604q0 160 70 310.5t182.5 259t259 174t293.5 65.5q166 0 304.5 -86t218 -234.5t79.5 -324.5q0 -160 -70.5 -310.5t-183 -259t-259.5 -174t-294 -65.5q-165 0 -303 86t-217.5 234.5t-79.5 324.5zM233 616q0 -143 64 -264t173.5 -190.5t238.5 -69.5q115 0 231.5 54 t207 142.5t147.5 212.5t57 255q0 143 -63.5 263.5t-173 190.5t-238.5 70q-115 0 -231.5 -54t-207.5 -142.5t-148 -212.5t-57 -255zM764 1710l78 113l241 -164l-51 -82z" />
<glyph unicode="&#xd3;" horiz-adv-x="1597" d="M90 604q0 160 70 310.5t182.5 259t259 174t293.5 65.5q166 0 304.5 -86t218 -234.5t79.5 -324.5q0 -160 -70.5 -310.5t-183 -259t-259.5 -174t-294 -65.5q-165 0 -303 86t-217.5 234.5t-79.5 324.5zM233 616q0 -143 64 -264t173.5 -190.5t238.5 -69.5q115 0 231.5 54 t207 142.5t147.5 212.5t57 255q0 143 -63.5 263.5t-173 190.5t-238.5 70q-115 0 -231.5 -54t-207.5 -142.5t-148 -212.5t-57 -255zM797 1659l288 164l48 -113l-308 -133z" />
<glyph unicode="&#xd4;" horiz-adv-x="1597" d="M90 604q0 160 70 310.5t182.5 259t259 174t293.5 65.5q166 0 304.5 -86t218 -234.5t79.5 -324.5q0 -160 -70.5 -310.5t-183 -259t-259.5 -174t-294 -65.5q-165 0 -303 86t-217.5 234.5t-79.5 324.5zM233 616q0 -143 64 -264t173.5 -190.5t238.5 -69.5q115 0 231.5 54 t207 142.5t147.5 212.5t57 255q0 143 -63.5 263.5t-173 190.5t-238.5 70q-115 0 -231.5 -54t-207.5 -142.5t-148 -212.5t-57 -255zM698 1690l279 153l233 -153l-53 -93l-201 113l-229 -113z" />
<glyph unicode="&#xd5;" horiz-adv-x="1597" d="M90 604q0 160 70 310.5t182.5 259t259 174t293.5 65.5q166 0 304.5 -86t218 -234.5t79.5 -324.5q0 -160 -70.5 -310.5t-183 -259t-259.5 -174t-294 -65.5q-165 0 -303 86t-217.5 234.5t-79.5 324.5zM233 616q0 -143 64 -264t173.5 -190.5t238.5 -69.5q115 0 231.5 54 t207 142.5t147.5 212.5t57 255q0 143 -63.5 263.5t-173 190.5t-238.5 70q-115 0 -231.5 -54t-207.5 -142.5t-148 -212.5t-57 -255zM709 1618q11 80 60.5 132t98.5 52q31 0 56.5 -14.5t40 -31.5t34 -31.5t39.5 -14.5q18 0 38.5 25t27.5 67l88 -20q-10 -80 -59 -132.5 t-99 -52.5q-31 0 -57 14.5t-40.5 32t-34.5 32t-40 14.5q-17 0 -37 -25.5t-26 -67.5z" />
<glyph unicode="&#xd6;" horiz-adv-x="1597" d="M90 604q0 160 70 310.5t182.5 259t259 174t293.5 65.5q166 0 304.5 -86t218 -234.5t79.5 -324.5q0 -160 -70.5 -310.5t-183 -259t-259.5 -174t-294 -65.5q-165 0 -303 86t-217.5 234.5t-79.5 324.5zM233 616q0 -143 64 -264t173.5 -190.5t238.5 -69.5q115 0 231.5 54 t207 142.5t147.5 212.5t57 255q0 143 -63.5 263.5t-173 190.5t-238.5 70q-115 0 -231.5 -54t-207.5 -142.5t-148 -212.5t-57 -255zM698 1692q0 33 31 61.5t64 28.5q29 0 50 -23t21 -51q0 -33 -30.5 -61.5t-63.5 -28.5q-29 0 -50.5 23t-21.5 51zM1016 1692q0 33 30.5 61.5 t63.5 28.5q29 0 50.5 -23t21.5 -51q0 -33 -31 -61.5t-64 -28.5q-29 0 -50 23t-21 51z" />
<glyph unicode="&#xd7;" horiz-adv-x="778" d="M25 317l258 236l-193 235l94 82l193 -235l258 235l70 -82l-259 -235l193 -236l-94 -81l-191 235l-260 -235z" />
<glyph unicode="&#xd8;" horiz-adv-x="1597" d="M-39 164l16 123l148 82q-37 109 -37 235q0 160 70 310.5t182.5 259t259.5 174t295 65.5q169 0 308.5 -86t217.5 -233l203 114l-18 -123l-146 -81q35 -107 35 -240q0 -158 -70 -308t-182.5 -258t-259 -173.5t-293.5 -65.5q-169 0 -308.5 86t-217.5 231zM233 616 q0 -94 23 -174l1034 580q-62 118 -172 188t-241 70q-115 0 -231.5 -54t-207.5 -142.5t-148 -212.5t-57 -255zM293 350q62 -118 173 -188t243 -70q115 0 231.5 54t207 142.5t147.5 212t57 253.5q0 92 -23 176z" />
<glyph unicode="&#xd9;" horiz-adv-x="1331" d="M166 451l129 921h133l-129 -921q-23 -167 54 -263t225 -96t250.5 96t125.5 263l131 921h132l-130 -921q-20 -146 -95 -258.5t-188 -173t-245 -60.5q-202 0 -312.5 136t-80.5 356zM608 1710l78 113l242 -164l-51 -82z" />
<glyph unicode="&#xda;" horiz-adv-x="1331" d="M166 451l129 921h133l-129 -921q-23 -167 54 -263t225 -96t250.5 96t125.5 263l131 921h132l-130 -921q-20 -146 -95 -258.5t-188 -173t-245 -60.5q-202 0 -312.5 136t-80.5 356zM684 1659l29 -82l307 133l-47 113z" />
<glyph unicode="&#xdb;" horiz-adv-x="1331" d="M166 451l129 921h133l-129 -921q-23 -167 54 -263t225 -96t250.5 96t125.5 263l131 921h132l-130 -921q-20 -146 -95 -258.5t-188 -173t-245 -60.5q-202 0 -312.5 136t-80.5 356zM543 1669l278 154l234 -154l-54 -92l-200 113l-230 -113z" />
<glyph unicode="&#xdc;" horiz-adv-x="1331" d="M166 451l129 921h133l-129 -921q-23 -167 54 -263t225 -96t250.5 96t125.5 263l131 921h132l-130 -921q-20 -146 -95 -258.5t-188 -173t-245 -60.5q-202 0 -312.5 136t-80.5 356zM565 1692q0 -28 21.5 -51t50.5 -23q33 0 63.5 28.5t30.5 61.5q0 28 -21.5 51t-50.5 23 q-33 0 -63.5 -28.5t-30.5 -61.5zM883 1692q0 -28 21 -51t50 -23q33 0 64 28.5t31 61.5q0 28 -21.5 51t-50.5 23q-33 0 -63.5 -28.5t-30.5 -61.5z" />
<glyph unicode="&#xdd;" horiz-adv-x="1116" d="M131 1372h154l258 -717h10l459 717h153l-573 -880l-70 -492h-133l70 492zM578 1636l288 164l47 -112l-307 -134z" />
<glyph unicode="&#xde;" horiz-adv-x="1208" d="M96 -41l211 1495h133l-24 -174h143q252 0 401.5 -140t149.5 -356q0 -129 -53.5 -245t-146.5 -201t-226 -134.5t-285 -49.5h-143l-27 -195h-133zM274 276h144q115 0 217 39.5t174 106t114 157t42 189.5q0 168 -116 278.5t-308 110.5h-144z" />
<glyph unicode="&#xdf;" horiz-adv-x="1075" d="M82 0l143 1014q25 175 148 287t286 112q131 0 214 -81t83 -202q0 -58 -22 -111t-54 -92.5t-63.5 -77t-53.5 -81t-22 -88.5q0 -36 19.5 -73.5t47.5 -70.5t55.5 -68t47 -80t19.5 -93q0 -145 -86 -230t-242 -85q-23 0 -48 4.5t-38.5 9.5t-13.5 6l16 123q0 -1 11 -6t33.5 -10 t45.5 -5q85 0 137 50.5t52 130.5q0 36 -19.5 73.5t-47.5 70.5t-55.5 68t-47 80t-19.5 93q0 57 22 108.5t53 90.5t62.5 76.5t53.5 82t22 90.5q0 70 -51.5 122t-126.5 52q-117 0 -196.5 -73.5t-98.5 -202.5l-143 -1014h-123z" />
<glyph unicode="&#xe0;" d="M33 352q0 103 41.5 199t107 162.5t147 106.5t160.5 40q57 0 106.5 -17t79 -41t51 -48t30.5 -41l8 -17h10l19 123h122l-116 -819h-123l18 123h-10q-5 -7 -14 -18t-40 -39t-66 -50t-90 -39.5t-112 -17.5q-134 0 -231.5 113.5t-97.5 279.5zM166 362q0 -122 68 -201t167 -79 q120 0 215 75.5t107 170.5l22 164q12 96 -60 170.5t-191 74.5q-124 0 -226 -108.5t-102 -266.5zM471 1167l78 113l242 -164l-52 -82z" />
<glyph unicode="&#xe1;" d="M33 352q0 103 41.5 199t107 162.5t147 106.5t160.5 40q57 0 106.5 -17t79 -41t51 -48t30.5 -41l8 -17h10l19 123h122l-116 -819h-123l18 123h-10q-5 -7 -14 -18t-40 -39t-66 -50t-90 -39.5t-112 -17.5q-134 0 -231.5 113.5t-97.5 279.5zM166 362q0 -122 68 -201t167 -79 q120 0 215 75.5t107 170.5l22 164q12 96 -60 170.5t-191 74.5q-124 0 -226 -108.5t-102 -266.5zM526 1116l29 -82l307 133l-47 113z" />
<glyph unicode="&#xe2;" d="M33 352q0 103 41.5 199t107 162.5t147 106.5t160.5 40q57 0 106.5 -17t79 -41t51 -48t30.5 -41l8 -17h10l19 123h122l-116 -819h-123l18 123h-10q-5 -7 -14 -18t-40 -39t-66 -50t-90 -39.5t-112 -17.5q-134 0 -231.5 113.5t-97.5 279.5zM166 362q0 -122 68 -201t167 -79 q120 0 215 75.5t107 170.5l22 164q12 96 -60 170.5t-191 74.5q-124 0 -226 -108.5t-102 -266.5zM385 1137l29 -93l229 113l201 -113l53 93l-233 153z" />
<glyph unicode="&#xe3;" d="M33 352q0 103 41.5 199t107 162.5t147 106.5t160.5 40q57 0 106.5 -17t79 -41t51 -48t30.5 -41l8 -17h10l19 123h122l-116 -819h-123l18 123h-10q-5 -7 -14 -18t-40 -39t-66 -50t-90 -39.5t-112 -17.5q-134 0 -231.5 113.5t-97.5 279.5zM166 362q0 -122 68 -201t167 -79 q120 0 215 75.5t107 170.5l22 164q12 96 -60 170.5t-191 74.5q-124 0 -226 -108.5t-102 -266.5zM418 1085l90 -20q5 42 25 67t38 25q20 0 40 -14.5t34.5 -31.5t40.5 -31.5t57 -14.5q50 0 99 52t59 132l-88 21q-7 -42 -27.5 -67t-37.5 -25q-20 0 -39.5 14.5t-34 31.5 t-40 31.5t-56.5 14.5q-49 0 -99 -52.5t-61 -132.5z" />
<glyph unicode="&#xe4;" d="M33 352q0 103 41.5 199t107 162.5t147 106.5t160.5 40q57 0 106.5 -17t79 -41t51 -48t30.5 -41l8 -17h10l19 123h122l-116 -819h-123l18 123h-10q-5 -7 -14 -18t-40 -39t-66 -50t-90 -39.5t-112 -17.5q-134 0 -231.5 113.5t-97.5 279.5zM166 362q0 -122 68 -201t167 -79 q120 0 215 75.5t107 170.5l22 164q12 96 -60 170.5t-191 74.5q-124 0 -226 -108.5t-102 -266.5zM406 1159q0 33 30.5 61.5t63.5 28.5q29 0 50 -22.5t21 -50.5q0 -33 -30.5 -62t-63.5 -29q-29 0 -50 23t-21 51zM723 1159q0 33 30.5 61.5t63.5 28.5q29 0 50.5 -22.5 t21.5 -50.5q0 -33 -30.5 -62t-63.5 -29q-29 0 -50.5 23t-21.5 51z" />
<glyph unicode="&#xe5;" d="M33 352q0 103 41.5 199t107 162.5t147 106.5t160.5 40q57 0 106.5 -17t79 -41t51 -48t30.5 -41l8 -17h10l19 123h122l-116 -819h-123l18 123h-10q-5 -7 -14 -18t-40 -39t-66 -50t-90 -39.5t-112 -17.5q-134 0 -231.5 113.5t-97.5 279.5zM166 362q0 -122 68 -201t167 -79 q120 0 215 75.5t107 170.5l22 164q12 96 -60 170.5t-191 74.5q-124 0 -226 -108.5t-102 -266.5zM473 1178q0 84 69.5 149.5t153.5 65.5q76 0 127.5 -59t40.5 -136q-10 -76 -78 -135t-145 -59q-70 0 -119 52t-49 122zM565 1190q0 -37 27.5 -65.5t62.5 -28.5q38 0 74.5 32 t42.5 70q5 38 -22.5 70t-65.5 32q-42 0 -80.5 -35.5t-38.5 -74.5z" />
<glyph unicode="&#xe6;" horiz-adv-x="1484" d="M8 197q0 122 105.5 208.5t281.5 86.5q64 0 124.5 -10t88.5 -20l29 -11l8 61q12 92 -45 158.5t-149 66.5q-34 0 -69.5 -10.5t-61.5 -25.5t-47 -30t-31 -25l-11 -11l-81 72q5 6 13.5 16.5t39.5 37t65 46.5t89 36.5t112 16.5q60 0 110 -20t78 -48.5t47.5 -57t25.5 -48.5 l7 -20h11q5 8 15.5 21t45 46.5t73 59t99 46.5t123.5 21q136 0 218.5 -72.5t82.5 -171.5q0 -111 -96 -189.5t-256 -78.5h-297q-1 -115 63 -190.5t164 -75.5q49 0 94.5 17t76 41t54 48t34.5 41l11 17l93 -62q-3 -5 -8 -13t-22.5 -31.5t-38 -44.5t-54 -47t-69.5 -44.5 t-85.5 -31.5t-101.5 -13q-48 0 -90.5 12.5t-72 32.5t-53.5 44t-38.5 47.5t-24.5 43.5t-14 33l-4 12h-11q-5 -9 -14.5 -24t-44.5 -54t-75 -68.5t-106 -54t-138 -24.5q-124 0 -198.5 69t-74.5 169zM141 207q0 -57 44.5 -91t131.5 -34q105 0 194 75.5t107 170.5l5 20 q-101 21 -244 21q-121 0 -179.5 -44.5t-58.5 -117.5zM772 471h297q93 0 148 40t55 95t-49 93t-138 38q-99 0 -190.5 -79t-122.5 -187z" />
<glyph unicode="&#xe7;" horiz-adv-x="931" d="M33 358q0 98 43.5 191.5t113 161t160 108.5t180.5 41q52 0 98.5 -12t78.5 -31t59 -42t43.5 -45.5t28 -41.5t16.5 -31l4 -12l-110 -61q-2 6 -7.5 16.5t-25 37t-44 46.5t-66.5 36.5t-91 16.5q-130 0 -239 -109.5t-109 -258.5q0 -121 75 -204t181 -83q55 0 106 18t85 43.5 t60 51t38 43.5l12 18l92 -61q-6 -10 -16.5 -25.5t-49 -56t-82.5 -71.5t-115.5 -56.5t-148.5 -26.5l-47 -102q56 -8 89.5 -45t33.5 -91q0 -69 -64 -125.5t-145 -56.5q-27 0 -56 10.5t-44 20.5l-16 10l53 82q37 -31 78 -31t66.5 23t25.5 57q0 28 -19.5 46t-52.5 18h-72l84 194 q-124 29 -204 138t-80 251z" />
<glyph unicode="&#xe8;" horiz-adv-x="952" d="M33 358q0 98 43.5 192t112.5 161t157 108t174 41q150 0 237 -72t87 -172q0 -110 -97.5 -189t-257.5 -79h-327q0 -110 73.5 -188t186.5 -78q55 0 106 18t85 43.5t60 51t38 43.5l12 18l92 -61q-6 -10 -16.5 -25.5t-49 -56.5t-82.5 -72t-115.5 -56.5t-148.5 -25.5 q-155 0 -262.5 117t-107.5 282zM178 471h328q93 0 148 40t55 95t-52.5 93t-152.5 38q-106 0 -200.5 -78.5t-125.5 -187.5zM410 1167l77 113l242 -164l-51 -82z" />
<glyph unicode="&#xe9;" horiz-adv-x="952" d="M33 358q0 98 43.5 192t112.5 161t157 108t174 41q150 0 237 -72t87 -172q0 -110 -97.5 -189t-257.5 -79h-327q0 -110 73.5 -188t186.5 -78q55 0 106 18t85 43.5t60 51t38 43.5l12 18l92 -61q-6 -10 -16.5 -25.5t-49 -56.5t-82.5 -72t-115.5 -56.5t-148.5 -25.5 q-155 0 -262.5 117t-107.5 282zM178 471h328q93 0 148 40t55 95t-52.5 93t-152.5 38q-106 0 -200.5 -78.5t-125.5 -187.5zM406 1137l288 163l47 -112l-307 -133z" />
<glyph unicode="&#xea;" horiz-adv-x="952" d="M33 358q0 98 43.5 192t112.5 161t157 108t174 41q150 0 237 -72t87 -172q0 -110 -97.5 -189t-257.5 -79h-327q0 -110 73.5 -188t186.5 -78q55 0 106 18t85 43.5t60 51t38 43.5l12 18l92 -61q-6 -10 -16.5 -25.5t-49 -56.5t-82.5 -72t-115.5 -56.5t-148.5 -25.5 q-155 0 -262.5 117t-107.5 282zM178 471h328q93 0 148 40t55 95t-52.5 93t-152.5 38q-106 0 -200.5 -78.5t-125.5 -187.5zM311 1126l279 154l233 -154l-53 -92l-201 113l-229 -113z" />
<glyph unicode="&#xeb;" horiz-adv-x="952" d="M33 358q0 98 43.5 192t112.5 161t157 108t174 41q150 0 237 -72t87 -172q0 -110 -97.5 -189t-257.5 -79h-327q0 -110 73.5 -188t186.5 -78q55 0 106 18t85 43.5t60 51t38 43.5l12 18l92 -61q-6 -10 -16.5 -25.5t-49 -56.5t-82.5 -72t-115.5 -56.5t-148.5 -25.5 q-155 0 -262.5 117t-107.5 282zM178 471h328q93 0 148 40t55 95t-52.5 93t-152.5 38q-106 0 -200.5 -78.5t-125.5 -187.5zM313 1159q0 33 31 61.5t64 28.5q29 0 50 -22.5t21 -50.5q0 -33 -30.5 -62t-63.5 -29q-29 0 -50.5 23t-21.5 51zM631 1159q0 33 30.5 61.5t63.5 28.5 q29 0 50.5 -22.5t21.5 -50.5q0 -33 -31 -62t-64 -29q-29 0 -50 23t-21 51z" />
<glyph unicode="&#xec;" horiz-adv-x="409" d="M41 0l115 819h123l-115 -819h-123zM86 1188l78 112l242 -163l-52 -82z" />
<glyph unicode="&#xed;" horiz-adv-x="409" d="M41 0l115 819h123l-115 -819h-123zM139 1137l289 163l47 -112l-307 -133z" />
<glyph unicode="&#xee;" horiz-adv-x="409" d="M8 1147l279 153l233 -153l-53 -92l-201 112l-229 -112zM41 0l115 819h123l-115 -819h-123z" />
<glyph unicode="&#xef;" horiz-adv-x="409" d="M37 1200q0 33 30.5 61.5t63.5 28.5q29 0 49.5 -22.5t20.5 -50.5q0 -33 -30.5 -62t-64.5 -29q-27 0 -48 23t-21 51zM41 0l115 819h123l-115 -819h-123zM344 1200q0 33 30 61.5t64 28.5q27 0 48.5 -22.5t21.5 -50.5q0 -34 -30 -62.5t-64 -28.5q-27 0 -48.5 23t-21.5 51z " />
<glyph unicode="&#xf0;" horiz-adv-x="962" d="M27 315q0 95 37.5 182t97.5 148t138 97t157 36q55 0 101 -17t73 -41t46.5 -48t26.5 -41l7 -17h10q9 80 -3 160.5t-35 137.5t-47.5 102.5t-42.5 68.5l-18 23l-151 -133l-72 82l152 133q-36 32 -84.5 70t-78.5 60l-30 23l84 93q113 -82 203 -164l152 133l71 -82l-153 -133 q3 -3 7.5 -9t20 -26t29 -42t33 -57.5t32.5 -71t29 -84t21 -96.5t8 -107t-8 -117l-29 -199q-26 -182 -155.5 -301t-293.5 -119q-146 0 -240.5 100.5t-94.5 255.5zM160 326q0 -109 62 -176.5t159 -67.5q123 0 211 93t88 237q0 110 -61 176.5t-158 66.5q-124 0 -212.5 -92.5 t-88.5 -236.5z" />
<glyph unicode="&#xf1;" horiz-adv-x="1044" d="M61 0l115 819h123l-16 -123h10q5 7 13.5 18t38.5 39t62.5 50t82.5 39.5t102 17.5q132 0 215 -101.5t63 -246.5l-71 -512h-123l72 512q12 93 -44.5 159t-148.5 66q-106 0 -197.5 -76t-103.5 -169l-70 -492h-123zM381 1106q11 80 60.5 132t99.5 52q31 0 56.5 -14.5 t40 -31.5t34 -31.5t39.5 -14.5q17 0 37.5 25t27.5 67l88 -20q-10 -80 -58.5 -132.5t-98.5 -52.5q-31 0 -57 14.5t-40.5 32t-34.5 32t-40 14.5q-18 0 -38.5 -25.5t-25.5 -67.5z" />
<glyph unicode="&#xf2;" horiz-adv-x="1024" d="M33 358q0 98 43.5 191.5t113 161t160 108.5t180.5 41q155 0 263 -117t108 -282q0 -98 -43.5 -191.5t-113.5 -161t-160.5 -108.5t-180.5 -41q-155 0 -262.5 117t-107.5 282zM166 369q0 -121 75 -204t181 -83q62 0 124 29t111 78t80 118.5t31 143.5q0 121 -74.5 203.5 t-179.5 82.5q-130 0 -239 -109.5t-109 -258.5zM399 1167l78 113l242 -164l-51 -82z" />
<glyph unicode="&#xf3;" horiz-adv-x="1024" d="M33 358q0 98 43.5 191.5t113 161t160 108.5t180.5 41q155 0 263 -117t108 -282q0 -98 -43.5 -191.5t-113.5 -161t-160.5 -108.5t-180.5 -41q-155 0 -262.5 117t-107.5 282zM166 369q0 -121 75 -204t181 -83q62 0 124 29t111 78t80 118.5t31 143.5q0 121 -74.5 203.5 t-179.5 82.5q-130 0 -239 -109.5t-109 -258.5zM455 1116l288 164l48 -113l-308 -133z" />
<glyph unicode="&#xf4;" horiz-adv-x="1024" d="M33 358q0 98 43.5 191.5t113 161t160 108.5t180.5 41q155 0 263 -117t108 -282q0 -98 -43.5 -191.5t-113.5 -161t-160.5 -108.5t-180.5 -41q-155 0 -262.5 117t-107.5 282zM166 369q0 -121 75 -204t181 -83q62 0 124 29t111 78t80 118.5t31 143.5q0 121 -74.5 203.5 t-179.5 82.5q-130 0 -239 -109.5t-109 -258.5zM311 1126l279 154l233 -154l-53 -92l-201 113l-229 -113z" />
<glyph unicode="&#xf5;" horiz-adv-x="1024" d="M33 358q0 98 43.5 191.5t113 161t160 108.5t180.5 41q155 0 263 -117t108 -282q0 -98 -43.5 -191.5t-113.5 -161t-160.5 -108.5t-180.5 -41q-155 0 -262.5 117t-107.5 282zM166 369q0 -121 75 -204t181 -83q62 0 124 29t111 78t80 118.5t31 143.5q0 121 -74.5 203.5 t-179.5 82.5q-130 0 -239 -109.5t-109 -258.5zM336 1085q11 80 61 132.5t99 52.5q31 0 56.5 -14.5t40 -31.5t34 -31.5t39.5 -14.5q17 0 37.5 25t27.5 67l88 -21q-10 -80 -58.5 -132t-98.5 -52q-31 0 -57 14.5t-41 31.5t-35 31.5t-40 14.5q-18 0 -38 -25t-25 -67z" />
<glyph unicode="&#xf6;" horiz-adv-x="1024" d="M33 358q0 98 43.5 191.5t113 161t160 108.5t180.5 41q155 0 263 -117t108 -282q0 -98 -43.5 -191.5t-113.5 -161t-160.5 -108.5t-180.5 -41q-155 0 -262.5 117t-107.5 282zM166 369q0 -121 75 -204t181 -83q62 0 124 29t111 78t80 118.5t31 143.5q0 121 -74.5 203.5 t-179.5 82.5q-130 0 -239 -109.5t-109 -258.5zM338 1159q0 33 30.5 61.5t63.5 28.5q29 0 50.5 -22.5t21.5 -50.5q0 -33 -30.5 -62t-63.5 -29q-29 0 -50.5 23t-21.5 51zM655 1159q0 33 31 61.5t64 28.5q29 0 50 -22.5t21 -50.5q0 -33 -30.5 -62t-63.5 -29q-29 0 -50.5 23 t-21.5 51z" />
<glyph unicode="&#xf7;" horiz-adv-x="798" d="M29 492l16 122h676l-16 -122h-676zM242 176q0 33 30.5 61.5t63.5 28.5q29 0 49.5 -22.5t20.5 -50.5q0 -33 -30.5 -62t-64.5 -29q-27 0 -48 23t-21 51zM344 913q0 33 30.5 62t63.5 29q29 0 50.5 -23t21.5 -51q0 -33 -30.5 -61.5t-63.5 -28.5q-29 0 -50.5 22.5t-21.5 50.5z " />
<glyph unicode="&#xf8;" d="M-76 41l17 123l127 74q-15 66 -15 120q0 98 43.5 191.5t113.5 161t160.5 108.5t180.5 41q100 0 184.5 -50t132.5 -136l185 104l-19 -123l-127 -75q15 -69 15 -125q0 -128 -73 -244t-188 -184t-237 -68q-100 0 -185 50t-135 136zM188 371q0 -21 5 -66l557 303 q-36 60 -92.5 94.5t-122.5 34.5q-84 0 -164 -48.5t-131.5 -134t-51.5 -183.5zM227 211q32 -60 89.5 -94.5t125.5 -34.5q84 0 163.5 48.5t131 133.5t51.5 182q0 39 -6 66z" />
<glyph unicode="&#xf9;" d="M104 307l72 512h123l-72 -512q-12 -92 45.5 -158.5t149.5 -66.5q106 0 197.5 76t103.5 170l70 491h120l-114 -819h-123l18 123h-10q-5 -7 -14 -18t-39 -39t-62.5 -50t-83 -39.5t-102.5 -17.5q-132 0 -215.5 101.5t-63.5 246.5zM399 1167l78 113l242 -164l-51 -82z" />
<glyph unicode="&#xfa;" d="M104 307l72 512h123l-72 -512q-12 -92 45.5 -158.5t149.5 -66.5q106 0 197.5 76t103.5 170l70 491h120l-114 -819h-123l18 123h-10q-5 -7 -14 -18t-39 -39t-62.5 -50t-83 -39.5t-102.5 -17.5q-132 0 -215.5 101.5t-63.5 246.5zM475 1116l289 164l47 -113l-307 -133z" />
<glyph unicode="&#xfb;" d="M104 307l72 512h123l-72 -512q-12 -92 45.5 -158.5t149.5 -66.5q106 0 197.5 76t103.5 170l70 491h120l-114 -819h-123l18 123h-10q-5 -7 -14 -18t-39 -39t-62.5 -50t-83 -39.5t-102.5 -17.5q-132 0 -215.5 101.5t-63.5 246.5zM336 1147l278 153l234 -153l-53 -92 l-201 112l-229 -112z" />
<glyph unicode="&#xfc;" d="M104 307l72 512h123l-72 -512q-12 -92 45.5 -158.5t149.5 -66.5q106 0 197.5 76t103.5 170l70 491h120l-114 -819h-123l18 123h-10q-5 -7 -14 -18t-39 -39t-62.5 -50t-83 -39.5t-102.5 -17.5q-132 0 -215.5 101.5t-63.5 246.5zM358 1159q0 33 31 61.5t64 28.5 q29 0 50 -22.5t21 -50.5q0 -33 -30.5 -62t-63.5 -29q-29 0 -50.5 23t-21.5 51zM676 1159q0 33 30.5 61.5t63.5 28.5q29 0 50.5 -22.5t21.5 -50.5q0 -33 -30.5 -62t-63.5 -29q-29 0 -50.5 23t-21.5 51z" />
<glyph unicode="&#xfd;" horiz-adv-x="870" d="M-16 -553l292 553l-223 819h133l176 -645h11l336 645h133l-725 -1372h-133zM373 1116l289 164l47 -113l-308 -133z" />
<glyph unicode="&#xfe;" horiz-adv-x="1085" d="M4 -553l270 1925h123l-94 -676h10q5 7 14 18t39.5 39t65 50t89.5 39.5t112 17.5q135 0 232.5 -113t97.5 -280q0 -103 -41.5 -199t-107 -162.5t-147.5 -106.5t-161 -40q-57 0 -106.5 17t-79 41t-51 48t-29.5 41l-9 17h-10l-94 -676h-123zM250 328q-14 -95 60 -170.5 t194 -75.5q124 0 224.5 108.5t100.5 266.5q0 123 -67.5 201.5t-165.5 78.5q-120 0 -214 -75t-108 -170z" />
<glyph unicode="&#xff;" horiz-adv-x="870" d="M-16 -553l292 553l-223 819h133l176 -645h11l336 645h133l-725 -1372h-133zM252 1139q0 33 30.5 61.5t63.5 28.5q29 0 50.5 -23t21.5 -51q0 -33 -30.5 -61.5t-63.5 -28.5q-29 0 -50.5 23t-21.5 51zM569 1139q0 33 31 61.5t64 28.5q29 0 50 -23t21 -51q0 -33 -30.5 -61.5 t-63.5 -28.5q-29 0 -50.5 23t-21.5 51z" />
<glyph unicode="&#x152;" horiz-adv-x="1720" d="M88 602q0 158 64.5 301t172.5 245.5t255.5 163t308.5 60.5h799l-19 -133h-604l-68 -471h441l-19 -133h-440l-70 -502h625l-18 -133h-820q-179 0 -318.5 78.5t-214.5 215.5t-75 308zM233 616q0 -211 133.5 -347t348.5 -136h61l156 1106h-62q-129 0 -246 -48.5t-203 -131.5 t-137 -198.5t-51 -244.5z" />
<glyph unicode="&#x153;" horiz-adv-x="1597" d="M33 358q0 98 43.5 192t112.5 161t157 108t174 41q72 0 129.5 -24t89 -59t52.5 -69.5t27 -58.5l7 -24h11q5 10 15 25.5t45.5 56t76 71.5t106.5 56.5t138 25.5q137 0 220 -72.5t83 -171.5q0 -110 -97.5 -189t-257.5 -79h-297q-1 -115 64.5 -190.5t165.5 -75.5q49 0 94.5 17 t75.5 41t53.5 48t34.5 41l10 17l94 -62q-5 -9 -15 -24t-45.5 -54t-76 -68.5t-106.5 -54t-138 -24.5q-69 0 -125.5 24.5t-88.5 59t-54 69t-29 58.5l-8 25h-10q-5 -10 -15 -25.5t-45 -56.5t-74.5 -72t-103.5 -56.5t-133 -25.5q-148 0 -254 117.5t-106 281.5zM166 369 q0 -120 73 -203.5t173 -83.5q122 0 229 110.5t107 258.5q0 120 -73 203t-171 83q-79 0 -157 -48.5t-129.5 -135t-51.5 -184.5zM885 471h297q95 0 148.5 40t53.5 95t-48 93t-136 38q-99 0 -191.5 -79t-123.5 -187z" />
<glyph unicode="&#x178;" horiz-adv-x="1116" d="M131 1372h154l258 -717h10l459 717h153l-573 -880l-70 -492h-133l70 492zM453 1692q0 33 30.5 61.5t63.5 28.5q29 0 50 -23t21 -51q0 -33 -30.5 -61.5t-63.5 -28.5q-29 0 -50 23t-21 51zM770 1692q0 33 30.5 61.5t63.5 28.5q29 0 50.5 -23t21.5 -51q0 -33 -30.5 -61.5 t-63.5 -28.5q-29 0 -50.5 23t-21.5 51z" />
<glyph unicode="&#x2c6;" horiz-adv-x="634" d="M131 1219l279 153l233 -153l-53 -93l-201 113l-229 -113z" />
<glyph unicode="&#x2dc;" horiz-adv-x="583" d="M123 1167q11 80 61 132.5t99 52.5q31 0 56.5 -14.5t40 -31.5t34 -31.5t39.5 -14.5q17 0 37.5 25t27.5 67l88 -21q-10 -80 -58.5 -132t-98.5 -52q-31 0 -57 14.5t-41 31.5t-35 31.5t-40 14.5q-18 0 -38 -25t-25 -67z" />
<glyph unicode="&#x2000;" horiz-adv-x="967" />
<glyph unicode="&#x2001;" horiz-adv-x="1935" />
<glyph unicode="&#x2002;" horiz-adv-x="967" />
<glyph unicode="&#x2003;" horiz-adv-x="1935" />
<glyph unicode="&#x2004;" horiz-adv-x="645" />
<glyph unicode="&#x2005;" horiz-adv-x="483" />
<glyph unicode="&#x2006;" horiz-adv-x="322" />
<glyph unicode="&#x2007;" horiz-adv-x="322" />
<glyph unicode="&#x2008;" horiz-adv-x="241" />
<glyph unicode="&#x2009;" horiz-adv-x="387" />
<glyph unicode="&#x200a;" horiz-adv-x="107" />
<glyph unicode="&#x2010;" horiz-adv-x="798" d="M25 471l16 123h676l-17 -123h-675z" />
<glyph unicode="&#x2011;" horiz-adv-x="798" d="M25 471l16 123h676l-17 -123h-675z" />
<glyph unicode="&#x2012;" horiz-adv-x="798" d="M25 471l16 123h676l-17 -123h-675z" />
<glyph unicode="&#x2013;" horiz-adv-x="983" d="M25 471l16 123h860l-16 -123h-860z" />
<glyph unicode="&#x2014;" horiz-adv-x="1310" d="M25 471l16 123h1188l-17 -123h-1187z" />
<glyph unicode="&#x2018;" horiz-adv-x="368" d="M158 1126q2 14 9.5 29.5t14.5 24.5l6 8l138 184h51l-105 -164q6 -2 14.5 -6.5t23 -22.5t14.5 -42q0 -34 -31 -63.5t-64 -29.5q-31 0 -53 25.5t-18 56.5z" />
<glyph unicode="&#x2019;" horiz-adv-x="368" d="M127 1044l104 164q-6 2 -14.5 6.5t-22.5 23t-14 42.5q0 34 30.5 63t63.5 29q31 0 53.5 -25.5t18.5 -56.5q-2 -14 -9 -29t-13 -23l-7 -9l-139 -185h-51z" />
<glyph unicode="&#x201a;" horiz-adv-x="368" d="M-47 -184l104 164q-6 2 -14.5 6.5t-22.5 22.5t-14 42q0 34 30.5 63t63.5 29q29 0 50.5 -22.5t21.5 -50.5q0 -16 -7 -33.5t-15 -26.5l-7 -10l-139 -184h-51z" />
<glyph unicode="&#x201c;" horiz-adv-x="614" d="M158 1118q0 16 7.5 33.5t14.5 26.5l8 10l138 184h51l-105 -164q6 -2 14.5 -6.5t23 -22.5t14.5 -42q0 -34 -31 -63.5t-64 -29.5q-29 0 -50 23t-21 51zM403 1118q0 16 7.5 33.5t15.5 26.5l8 10l137 184h52l-105 -164q6 -2 14.5 -6.5t22.5 -22.5t14 -42q0 -35 -30.5 -64 t-63.5 -29q-29 0 -50.5 23t-21.5 51z" />
<glyph unicode="&#x201d;" horiz-adv-x="614" d="M127 1044l104 164q-6 2 -14.5 6.5t-22.5 23t-14 42.5q0 34 30.5 63t63.5 29q29 0 50.5 -23t21.5 -51q0 -16 -7 -33t-15 -27l-7 -9l-139 -185h-51zM373 1044l104 164q-6 2 -14.5 6.5t-22.5 23t-14 42.5q0 34 30.5 63t63.5 29q29 0 50.5 -23t21.5 -51q0 -16 -7 -33t-15 -27 l-7 -9l-139 -185h-51z" />
<glyph unicode="&#x201e;" horiz-adv-x="614" d="M-47 -184l104 164q-6 2 -14.5 6.5t-22.5 22.5t-14 42q0 34 30.5 63t63.5 29q29 0 50.5 -22.5t21.5 -50.5q0 -16 -7 -33.5t-15 -26.5l-7 -10l-139 -184h-51zM199 -184l104 164q-6 2 -14.5 6.5t-22.5 22.5t-14 42q0 34 30.5 63t63.5 29q29 0 50.5 -22.5t21.5 -50.5 q0 -16 -7 -33.5t-15 -26.5l-7 -10l-139 -184h-51z" />
<glyph unicode="&#x2022;" horiz-adv-x="552" d="M113 508q0 58 47 102.5t106 44.5q49 0 82 -34t33 -84q0 -58 -47.5 -103t-106.5 -45q-49 0 -81.5 34.5t-32.5 84.5z" />
<glyph unicode="&#x2026;" horiz-adv-x="1085" d="M8 53q0 33 30.5 61.5t63.5 28.5q29 0 50.5 -22.5t21.5 -50.5q0 -33 -30.5 -61.5t-63.5 -28.5q-29 0 -50.5 22.5t-21.5 50.5zM367 53q0 33 30.5 61.5t63.5 28.5q28 0 49.5 -22.5t21.5 -50.5q0 -33 -30.5 -61.5t-63.5 -28.5q-29 0 -50 22.5t-21 50.5zM725 53 q0 33 30.5 61.5t63.5 28.5q28 0 50 -22.5t22 -50.5q0 -33 -30.5 -61.5t-63.5 -28.5q-29 0 -50.5 22.5t-21.5 50.5z" />
<glyph unicode="&#x202f;" horiz-adv-x="387" />
<glyph unicode="&#x2039;" horiz-adv-x="573" d="M14 399l422 379l70 -82l-328 -297l246 -297l-94 -82z" />
<glyph unicode="&#x203a;" horiz-adv-x="573" d="M-27 102l328 297l-244 297l93 82l315 -379l-422 -379z" />
<glyph unicode="&#x205f;" horiz-adv-x="483" />
<glyph unicode="&#x20ac;" horiz-adv-x="1505" d="M27 481l16 123h123l24 164h-122l16 123h152q42 101 116 194t169 166.5t214 117.5t242 44q73 0 140 -17t116 -44t91 -60t69.5 -65.5t47 -59.5t27.5 -44l9 -17l-123 -72q-5 10 -14.5 26.5t-45.5 59t-77.5 75t-111.5 59t-147 26.5q-93 0 -184 -33t-164 -88.5t-131 -124 t-94 -143.5h518l-16 -123h-553l-25 -164h553l-16 -123h-518q16 -75 54.5 -143.5t96 -124t138.5 -88.5t174 -33q65 0 128 16t112.5 41t94 55.5t76 61.5t55 56t35.5 41l11 16l102 -72q-5 -7 -14 -19.5t-41.5 -49t-68 -69t-92.5 -73t-117 -69t-139.5 -48.5t-160.5 -20 q-123 0 -229.5 44t-181 117.5t-122 166.5t-61.5 194h-151z" />
<glyph unicode="&#x2122;" horiz-adv-x="1228" d="M117 1270l14 102h451l-15 -102h-174l-61 -430h-103l62 430h-174zM608 840l78 553h21l217 -287l295 287h20l-78 -553h-102l43 297h-10l-191 -185l-137 185h-10l-43 -297h-103z" />
<glyph unicode="&#x25fc;" horiz-adv-x="819" d="M0 0v819h819v-819h-819z" />
</font>
</defs>
</svg>
