<?xml version="1.0" standalone="no"?>
<!DOCTYPE svg PUBLIC "-//W3C//DTD SVG 1.1//EN" "http://www.w3.org/Graphics/SVG/1.1/DTD/svg11.dtd" >
<svg xmlns="http://www.w3.org/2000/svg" xmlns:xlink="http://www.w3.org/1999/xlink" version="1.1">
<metadata></metadata>
<defs>
<font id="tt_chocolatesblack_italic" horiz-adv-x="1167" >
<font-face units-per-em="2048" ascent="1638" descent="-410" />
<missing-glyph horiz-adv-x="450" />
<glyph horiz-adv-x="0" />
<glyph horiz-adv-x="682" />
<glyph horiz-adv-x="0" />
<glyph horiz-adv-x="0" />
<glyph unicode="&#xd;" horiz-adv-x="0" />
<glyph unicode=" "  horiz-adv-x="450" />
<glyph unicode="&#x09;" horiz-adv-x="450" />
<glyph unicode="&#xa0;" horiz-adv-x="450" />
<glyph unicode="!" horiz-adv-x="737" d="M86 162q0 91 71.5 159t164.5 68q76 0 127 -52.5t51 -129.5q0 -91 -71.5 -159t-164.5 -68q-76 0 -127 52.5t-51 129.5zM205 573l18 861h492l-223 -861h-287z" />
<glyph unicode="&#x22;" horiz-adv-x="921" d="M156 963l4 471h368l-127 -471h-245zM586 963l4 471h368l-127 -471h-245z" />
<glyph unicode="#" horiz-adv-x="1474" d="M4 328l135 307h154l63 164h-174l135 307h154l139 328h348l-139 -328h123l139 328h349l-140 -328h174l-135 -307h-153l-64 -164h174l-135 -307h-154l-137 -328h-348l137 328h-123l-137 -328h-348l137 328h-174zM641 635h123l63 164h-122z" />
<glyph unicode="$" horiz-adv-x="1228" d="M-27 246l365 266q2 -6 7 -15.5t22.5 -34t37 -43.5t51.5 -34.5t66 -15.5q66 0 103 30.5t37 75.5q0 22 -27.5 43t-72 40.5t-98 42t-107 55.5t-98 74.5t-72 104t-27.5 138.5q0 171 107.5 292.5t262.5 168.5l31 225h389l-28 -205q58 -17 109.5 -46.5t84 -59.5t56.5 -57 t34 -45l11 -17l-365 -266l-5.5 11t-15.5 24.5t-25 31t-33 24.5t-40 11q-50 0 -77 -24.5t-27 -61.5q0 -18 27.5 -35.5t72 -35t98 -39t106.5 -55t97.5 -76t72 -108t27.5 -145.5q0 -89 -35 -171t-94 -144t-132 -108t-154 -72l-33 -236h-389l33 226q-72 17 -135 50.5 t-101.5 69.5t-66 69.5t-39.5 54.5z" />
<glyph unicode="%" horiz-adv-x="1576" d="M96 1108q0 152 114 259.5t273 107.5q132 0 213.5 -82t81.5 -207q0 -152 -113.5 -259.5t-273.5 -107.5q-132 0 -213.5 82t-81.5 207zM102 0l979 1434h389l-978 -1434h-390zM375 1133q0 -30 15 -49t36 -19q28 0 51 27t23 69q0 30 -15 49t-36 19q-28 0 -51 -27t-23 -69z M795 248q0 152 113.5 259t273.5 107q132 0 213.5 -81.5t81.5 -206.5q0 -152 -113.5 -259.5t-273.5 -107.5q-130 0 -212.5 82.5t-82.5 206.5zM1073 272q0 -30 15 -48.5t36 -18.5q28 0 51 27t23 69q0 30 -15 49t-36 19q-28 0 -51 -27.5t-23 -69.5z" />
<glyph unicode="&#x26;" horiz-adv-x="1474" d="M-14 324q0 69 19 131.5t50 107t68 82.5t74 61.5t68 40.5t50 24l19 7l2 21q-3 4 -9 10.5t-20.5 30.5t-25.5 51t-20 70.5t-9 89.5q0 187 130 305.5t347 118.5q177 0 275 -88.5t98 -231.5q0 -78 -27 -150.5t-65.5 -119.5t-77 -83t-65.5 -52l-27 -17l-2 -20l84 -119h18 q7 7 18 20t35 56t35 88h307q-17 -80 -46 -152t-58.5 -117t-56 -78.5t-43.5 -48.5l-17 -14l258 -348h-477l-72 102h-22q-5 -6 -15.5 -15.5t-48 -34t-79.5 -43.5t-111.5 -34.5t-143.5 -15.5q-191 0 -304 104t-113 261zM381 379q0 -45 36 -79t91 -34q36 0 70 20.5t50 41.5 l15 20l-143 205q-41 -24 -80 -71t-39 -103zM604 1087q0 -33 12 -69t24 -56l13 -20l10.5 10.5t23 27t29.5 40.5t23.5 47t10.5 51q0 32 -17 51t-45 19q-35 0 -59.5 -27.5t-24.5 -73.5z" />
<glyph unicode="'" horiz-adv-x="491" d="M156 963l4 471h368l-127 -471h-245z" />
<glyph unicode="(" horiz-adv-x="880" d="M82 321q-7 102 12 201q18 128 62 255t99.5 228t119 194t123 160t108 117.5t78.5 75.5l29 25l237 -205q-16 -16 -42 -45t-95.5 -121t-126 -186.5t-110.5 -231.5t-72 -266q-17 -140 -3.5 -265.5t48.5 -232.5t71.5 -185.5t64.5 -122.5l28 -44l-297 -204q-5 5 -14 15.5 t-37 45.5t-52 73t-60 99.5t-61 123.5t-54 146t-39 166t-17 184z" />
<glyph unicode=")" horiz-adv-x="880" d="M-127 -328q10 9 26 26.5t63.5 74t91 116.5t96 151t90.5 181t64 201.5t26 218.5q0 112 -22.5 228.5t-54.5 203t-63.5 156.5t-53.5 107l-23 36l295 205q14 -15 36 -43t79.5 -121t101.5 -193t80 -251.5t36 -302.5q0 -113 -21.5 -227t-58 -210t-84 -187.5t-99.5 -166 t-104 -140.5t-99.5 -114t-84 -83t-58.5 -52l-21 -18z" />
<glyph unicode="*" horiz-adv-x="757" d="M117 1126l100 205l135 -61l13 164h225l-33 -164l152 61l43 -205l-162 -51l88 -112l-193 -134l-73 144l-111 -144l-156 134l117 112z" />
<glyph unicode="+" horiz-adv-x="962" d="M37 410l43 307h246l36 266h308l-37 -266h246l-43 -307h-246l-37 -267h-307l37 267h-246z" />
<glyph unicode="," horiz-adv-x="573" d="M-37 -266l160 266q-54 14 -86.5 54.5t-32.5 103.5q0 94 71.5 162.5t164.5 68.5q76 0 127 -52.5t51 -129.5q0 -44 -22.5 -96t-45.5 -81l-22 -30l-201 -266h-164z" />
<glyph unicode="-" horiz-adv-x="901" d="M37 410l43 307h737l-43 -307h-737z" />
<glyph unicode="." horiz-adv-x="573" d="M6 184q10 84 79.5 144.5t154.5 60.5q84 0 135.5 -60t40.5 -145q-12 -85 -80.5 -144.5t-153.5 -59.5t-136.5 59.5t-39.5 144.5z" />
<glyph unicode="/" horiz-adv-x="1024" d="M-61 0l712 1434h430l-712 -1434h-430z" />
<glyph unicode="0" horiz-adv-x="1433" d="M121 391.5q-26 145.5 0 325.5q20 144 67.5 267t114 212.5t150 153t176.5 94.5t192 31q124 0 224.5 -50t168 -143.5t94 -239t1.5 -325.5q-26 -180 -93 -325.5t-161 -239t-208.5 -143.5t-238.5 -50t-224.5 50t-168.5 143.5t-94 239zM592 717q-52 -369 70 -369 q124 0 176 369q52 368 -72 368q-25 0 -47 -15t-46 -53t-45 -114t-36 -186z" />
<glyph unicode="1" horiz-adv-x="1024" d="M61 0l58 410h164l63 450h-20l-111 -61l-121 307l711 389h82l-154 -1085h164l-57 -410h-779z" />
<glyph unicode="2" horiz-adv-x="1208" d="M-20 0l43 307q13 7 36.5 19.5t90.5 53t128 83t135.5 105t128 123t90 134t36.5 140.5q0 42 -28.5 71t-70.5 29q-26 0 -53 -12.5t-47 -31t-36.5 -36.5t-24.5 -31l-9 -12l-293 246q4 6 11.5 16.5t34 40t57.5 57t82.5 60.5t107 56.5t132 40t157.5 16.5q201 0 329 -128 t128 -317q0 -77 -27 -151.5t-70 -132.5t-95.5 -110t-105 -89t-95.5 -64t-70 -40l-27 -13l-4 -20h410l-57 -410h-1024z" />
<glyph unicode="3" horiz-adv-x="1218" d="M-37 246l363 246q3 -5 8 -13.5t22.5 -29.5t37 -37t52 -29.5t66.5 -13.5q56 0 97.5 34.5t41.5 75.5q0 38 -30.5 66t-79.5 28h-226l33 226l223 205l2 20h-399l59 410h953l-35 -246l-328 -287l-2 -20q6 -1 17 -4t42.5 -15t60 -28t63.5 -46t60.5 -66.5t42.5 -92t17 -119.5 q0 -147 -82 -273.5t-227 -202t-319 -75.5q-84 0 -158.5 16t-127 41t-96 55.5t-71 61.5t-46.5 56t-27 41z" />
<glyph unicode="4" horiz-adv-x="1249" d="M-31 225l49 348l879 861h266l-114 -820h122l-55 -389h-123l-30 -225h-451l31 225h-574zM506 614h133l20 144h-20l-131 -123z" />
<glyph unicode="5" horiz-adv-x="1249" d="M-27 246l363 246q3 -5 8 -13.5t22.5 -29.5t37 -37t52 -29.5t66.5 -13.5q56 0 98 34.5t42 75.5q0 38 -31 66t-80 28q-27 0 -66.5 -10.5t-65.5 -20.5l-26 -10l-243 164l104 738h932l-60 -410h-481l-14 -113q51 11 112 11q168 0 280 -118.5t112 -295.5q0 -109 -48.5 -210 t-132 -175.5t-200.5 -119t-248 -44.5q-84 0 -158.5 16t-127 41t-96 55.5t-71 61.5t-46.5 56t-27 41z" />
<glyph unicode="6" horiz-adv-x="1269" d="M43 434q0 80 21.5 162t52.5 141.5t62.5 107.5t52.5 73l22 24l387 492h471l-397 -492h20q35 21 107 21q147 0 242.5 -110t95.5 -290q0 -161 -88.5 -300.5t-237 -221.5t-317.5 -82q-214 0 -354 139t-140 336zM508 475q0 -46 25 -76t61 -30q44 0 82.5 41t38.5 98 q0 46 -25.5 76t-60.5 30q-45 0 -83 -40.5t-38 -98.5z" />
<glyph unicode="7" horiz-adv-x="1105" d="M82 0l510 1004l2 20h-492l58 410h1003l-45 -328l-565 -1106h-471z" />
<glyph unicode="8" horiz-adv-x="1310" d="M33 360q0 85 33 157.5t79.5 115t93.5 72.5t80 41l33 12l2 20q-7 3 -18 9t-39 29t-50 51t-39.5 75.5t-17.5 101.5q0 84 40 161.5t112 137.5t181 96t237 36q217 0 339 -101.5t122 -249.5q0 -71 -26 -133t-63 -99.5t-74 -64.5t-63 -38l-26 -11l-2 -20q9 -3 24 -9.5t53 -31.5 t67 -56.5t53 -87t24 -120.5q0 -98 -44.5 -187t-125 -157.5t-203 -109t-268.5 -40.5q-244 0 -379 113.5t-135 287.5zM516 457q0 -40 23.5 -64t64.5 -24q51 0 85 32.5t34 83.5q0 40 -24.5 64t-65.5 24q-51 0 -84 -32.5t-33 -83.5zM635 1024q-3 -23 13.5 -42t39.5 -19t45 19 t25 42t-13.5 42t-39.5 19t-45 -19t-25 -42z" />
<glyph unicode="9" horiz-adv-x="1269" d="M86 870q0 161 89 301t238 222t318 82q107 0 199.5 -38t156 -103t100 -152t36.5 -183q0 -80 -21.5 -162t-52.5 -141.5t-62.5 -107t-52.5 -72.5l-22 -24l-387 -492h-471l397 492h-21q-32 -21 -104 -21q-147 0 -243.5 109.5t-96.5 289.5zM551 926q0 -46 26 -76.5t62 -30.5 q44 0 82.5 41t38.5 98q0 46 -25.5 76.5t-60.5 30.5q-45 0 -84 -41t-39 -98z" />
<glyph unicode=":" horiz-adv-x="573" d="M4 162q0 91 71.5 159t164.5 68q76 0 127 -52.5t51 -129.5q0 -91 -71.5 -159t-164.5 -68q-76 0 -127 52.5t-51 129.5zM76 674q0 92 71 159.5t164 67.5q76 0 127 -52.5t51 -129.5q0 -92 -71 -159.5t-164 -67.5q-76 0 -127 52.5t-51 129.5z" />
<glyph unicode=";" horiz-adv-x="573" d="M-37 -266l160 266q-54 14 -86.5 54.5t-32.5 103.5q0 94 71.5 162.5t164.5 68.5q76 0 127 -52.5t51 -129.5q0 -44 -22.5 -96t-45.5 -81l-22 -30l-201 -266h-164zM76 674q0 92 71 159.5t164 67.5q76 0 127 -52.5t51 -129.5q0 -92 -71 -159.5t-164 -67.5q-76 0 -127 52.5 t-51 129.5z" />
<glyph unicode="&#x3c;" horiz-adv-x="983" d="M20 287l43 307l820 287l-47 -328l-404 -102l-2 -21l375 -102l-47 -328z" />
<glyph unicode="=" horiz-adv-x="901" d="M8 205l41 287h737l-41 -287h-737zM70 635l39 287h737l-39 -287h-737z" />
<glyph unicode="&#x3e;" horiz-adv-x="983" d="M20 0l46 328l405 102l2 21l-375 102l45 328l740 -287l-43 -307z" />
<glyph unicode="?" horiz-adv-x="1146" d="M86 1188q4 6 11.5 16.5t34 40t57.5 57t81.5 60.5t105 56.5t129.5 40t154 16.5q218 0 346 -114t128 -282q0 -70 -28 -130t-70 -99.5t-92.5 -77.5t-94 -66t-75 -63t-36.5 -70h-389q8 58 42.5 111t77 91t84.5 72.5t70.5 70t28.5 69.5q0 41 -30 69.5t-78 28.5 q-36 0 -77 -35.5t-64 -71.5l-23 -36zM270 162q0 91 71.5 159t164.5 68q76 0 127 -52.5t51 -129.5q0 -92 -71 -159.5t-164 -67.5q-76 0 -127.5 52.5t-51.5 129.5z" />
<glyph unicode="@" horiz-adv-x="2088" d="M94 483q0 208 84 396t226.5 322.5t338 214t410.5 79.5q144 0 274 -39t227.5 -107t169.5 -158t109 -194.5t37 -212.5q0 -130 -44.5 -243.5t-119.5 -191t-175.5 -121.5t-211.5 -44q-57 0 -104 12.5t-73 31t-43.5 36.5t-23.5 30l-6 13h-20q-3 -5 -9 -13.5t-28 -29.5 t-46.5 -37t-64.5 -29.5t-83 -13.5q-138 0 -219 87t-81 245q0 106 31.5 196t84 148t118 90.5t135.5 32.5q32 0 60 -10.5t45.5 -25.5t30.5 -30t19 -25l5 -11h20l11 61h307l-68 -471q19 -20 39 -20q67 0 115.5 77.5t48.5 225.5q0 80 -37.5 157.5t-103 139t-163 99.5t-208.5 38 q-134 0 -255.5 -51t-211.5 -139.5t-143.5 -214.5t-53.5 -269q0 -228 138 -371t360 -143q91 0 181.5 20.5t134.5 41.5l45 20l81 -287l-27.5 -11t-72 -24.5t-109 -31t-131 -24.5t-145.5 -11q-178 0 -329 60t-255 165t-162.5 251t-58.5 314zM958 549q0 -88 60 -88 q41 0 66.5 38.5t25.5 118.5q0 89 -59 89q-41 0 -67 -39t-26 -119z" />
<glyph unicode="A" horiz-adv-x="1433" d="M-82 0l889 1516h41l463 -1516h-471l-31 143h-348l-72 -143h-471zM608 471h144l-37 164h-21z" />
<glyph unicode="B" horiz-adv-x="1361" d="M82 0l201 1434h512q217 0 338.5 -101.5t121.5 -249.5q0 -67 -27.5 -122.5t-66.5 -88t-78 -55t-67 -31.5l-27 -8l-2 -20q5 -1 14.5 -3.5t37 -13t52 -24.5t55 -39t52 -55t36.5 -74.5t15 -95.5q0 -67 -25.5 -132.5t-77 -123.5t-123.5 -102t-172 -69.5t-216 -25.5h-553z M588 389h102q33 0 63.5 28.5t30.5 61.5q0 28 -22 51t-49 23h-103zM662 922h61q25 0 48.5 21.5t23.5 45.5q0 22 -16 38.5t-38 16.5h-61z" />
<glyph unicode="C" horiz-adv-x="1536" d="M74 635q0 164 74.5 319t196 269t285.5 183t335 69q96 0 180 -20.5t142 -53t105 -72t75 -78.5t47.5 -71.5t26.5 -53.5l7 -20l-397 -205q-2 7 -7.5 18t-25.5 39t-45.5 50t-69.5 39.5t-96 17.5q-140 0 -250 -114.5t-110 -280.5q0 -132 75 -216.5t187 -84.5q57 0 110.5 19 t88.5 46t62 54t40 46l12 19l340 -205q-5 -8 -13.5 -22t-41 -54.5t-70 -77t-99.5 -81.5t-130 -77.5t-162 -54.5t-194 -22q-192 0 -348.5 91.5t-243 246t-86.5 338.5z" />
<glyph unicode="D" horiz-adv-x="1515" d="M82 0l201 1434h491q145 0 270 -51t210.5 -137.5t134.5 -203.5t49 -247q0 -156 -70.5 -302.5t-187 -254.5t-276.5 -173t-331 -65h-491zM588 389h41q122 0 229 110.5t107 258.5q0 120 -73 203t-171 83h-41z" />
<glyph unicode="E" horiz-adv-x="1249" d="M82 0l201 1434h942l-54 -390h-491l-21 -143h328l-51 -369h-328l-20 -143h512l-56 -389h-962z" />
<glyph unicode="F" horiz-adv-x="1208" d="M82 0l201 1434h962l-57 -410h-512l-29 -205h348l-57 -409h-348l-58 -410h-450z" />
<glyph unicode="G" horiz-adv-x="1638" d="M74 635q0 164 74.5 319t196 269t285.5 183t335 69q96 0 180 -20.5t142 -53t105 -72t75 -78.5t47.5 -71.5t26.5 -53.5l7 -20l-397 -205q-2 7 -7.5 18t-25.5 39t-45.5 50t-69.5 39.5t-96 17.5q-67 0 -132 -30t-115.5 -81.5t-81.5 -126.5t-31 -159q0 -129 72.5 -214 t171.5 -85q123 0 215.5 81.5t109.5 204.5h410l-99 -696h-61l-158 184h-20q-6 -7 -18 -19.5t-54.5 -44.5t-91 -56t-128 -44t-165.5 -20q-138 0 -260.5 54t-209 145t-137 215.5t-50.5 261.5z" />
<glyph unicode="H" horiz-adv-x="1576" d="M82 0l201 1434h450l-80 -574h308l79 574h451l-201 -1434h-450l63 451h-307l-64 -451h-450z" />
<glyph unicode="I" horiz-adv-x="819" d="M82 0l201 1434h450l-201 -1434h-450z" />
<glyph unicode="J" horiz-adv-x="1062" d="M-74 63l211 347q56 -41 117 -41q63 0 109.5 44t56.5 119l69 492h-286l57 410h737l-127 -902q-22 -160 -113.5 -292.5t-224 -206.5t-274.5 -74q-69 0 -128.5 10.5t-95 26t-61.5 31t-37 25.5z" />
<glyph unicode="K" horiz-adv-x="1474" d="M82 0l201 1434h450l-201 -1434h-450zM657 737l363 697h471l-404 -697l244 -737h-471z" />
<glyph unicode="L" d="M82 0l201 1434h450l-143 -1024h450l-57 -410h-901z" />
<glyph unicode="M" horiz-adv-x="1843" d="M82 0l207 1475h41l602 -676l790 676h41l-207 -1475h-450l76 532h-21l-305 -266l-227 266h-21l-76 -532h-450z" />
<glyph unicode="N" horiz-adv-x="1556" d="M82 0l205 1454h82l551 -594h20l80 574h450l-202 -1454h-82l-553 593h-21l-80 -573h-450z" />
<glyph unicode="O" horiz-adv-x="1720" d="M80 717q21 151 102.5 291t200 242.5t271.5 163.5t311 61t293.5 -61t225 -163.5t131.5 -242.5q28 -93 28 -192q0 -49 -7 -99q-28 -202 -156.5 -376.5t-322.5 -278t-405 -103.5t-376 103q-164 104 -244 278q-59 129 -59 274q0 50 7 103zM551 717q-5 -32 -4 -62 q-1 -109 59 -187q76 -99 202.5 -99t231 98.5t125.5 249.5q5 32 5 62q0 109 -60 187q-76 99 -202.5 99t-231 -98.5t-125.5 -249.5z" />
<glyph unicode="P" horiz-adv-x="1351" d="M82 0l201 1434h471q124 0 227.5 -38t172 -103t106.5 -151.5t38 -183.5q0 -115 -53 -223t-144 -188.5t-221 -129t-276 -48.5h-20l-52 -369h-450zM639 758h20q68 0 117 47.5t49 114.5q0 54 -35 89t-90 35h-20z" />
<glyph unicode="Q" horiz-adv-x="1761" d="M74 635q0 164 74.5 319t196 269t285.5 183t335 69q193 0 350 -91.5t243.5 -246t86.5 -338.5q0 -94 -24.5 -185t-59.5 -154.5t-70 -114t-59 -75.5l-25 -24l209 -410h-512l-80 164q-129 -41 -272 -41q-192 0 -348.5 91.5t-243 246t-86.5 338.5zM547 670q0 -132 75 -216.5 t187 -84.5q140 0 250 114.5t110 280.5q0 132 -75 216.5t-187 84.5q-140 0 -250 -114.5t-110 -280.5z" />
<glyph unicode="R" horiz-adv-x="1474" d="M82 0l201 1434h573q127 0 230 -39.5t167 -106.5q65 -67 93 -157q19 -60 19 -125q0 -32 -5 -64q-10 -69 -37.5 -130t-60 -100t-64 -66.5t-52 -40.5t-20.5 -11l-2 -21l207 -573h-471l-137 492h-123l-68 -492h-450zM649 840h123q46 0 78.5 28t38.5 74q1 9 1 18q0 34 -19 56 q-24 28 -70 28h-123z" />
<glyph unicode="S" horiz-adv-x="1228" d="M-27 246l365 266q2 -6 7 -15.5t22.5 -34t37 -43.5t51.5 -34.5t66 -15.5q66 0 103 30.5t37 75.5q0 22 -27.5 43t-72 40.5t-98 42t-107 55.5t-98 74.5t-72 104t-27.5 138.5q0 100 44.5 192t121 160.5t187.5 109t237 40.5q95 0 177.5 -25.5t133.5 -61.5t88 -72t53 -62 l15 -25l-365 -266l-5.5 11t-15.5 24.5t-25 31t-33 24.5t-40 11q-50 0 -77 -24.5t-27 -61.5q0 -18 27.5 -35.5t72 -35t98 -39t106.5 -55t97.5 -76t72 -108t27.5 -145.5q0 -102 -48.5 -198t-131 -168t-199 -116t-245.5 -44q-84 0 -158.5 16t-127 41t-96 55.5t-71 61.5 t-46.5 56t-27 41z" />
<glyph unicode="T" horiz-adv-x="1187" d="M102 1024l58 410h1065l-58 -410h-307l-143 -1024h-451l144 1024h-308z" />
<glyph unicode="U" horiz-adv-x="1515" d="M135 532l127 902h451l-127 -902q-2 -17 -2 -32q0 -53 26 -87q34 -44 97 -44t109 44t56 119l127 902h451l-127 -902q-34 -247 -224 -410t-450 -163q-171 0 -296.5 74.5t-182.5 205.5q-41 95 -41 205q0 43 6 88z" />
<glyph unicode="V" horiz-adv-x="1392" d="M98 1434h471l138 -553h20l293 553h471l-889 -1516h-41z" />
<glyph unicode="W" horiz-adv-x="1843" d="M98 1434h471l113 -512h20l324 553l168 -553h20l256 512h472l-781 -1475h-41l-219 635l-395 -635h-41z" />
<glyph unicode="X" horiz-adv-x="1433" d="M-61 0l473 737l-232 697h471l103 -369h20l205 369h471l-424 -697l264 -737h-471l-133 430h-20l-256 -430h-471z" />
<glyph unicode="Y" horiz-adv-x="1351" d="M98 1434h471l129 -471h21l260 471h471l-584 -942l-67 -492h-451l68 492z" />
<glyph unicode="Z" horiz-adv-x="1228" d="M-41 0l6 41l586 963l2 20h-430l57 410h1086l-4 -41l-586 -963l-4 -20h430l-58 -410h-1085z" />
<glyph unicode="[" horiz-adv-x="819" d="M18 -451l275 1946h594l-47 -328h-205l-182 -1290h204l-45 -328h-594z" />
<glyph unicode="\" horiz-adv-x="1024" d="M139 1434h430l312 -1434h-430z" />
<glyph unicode="]" horiz-adv-x="819" d="M-125 -451l45 328h205l182 1290h-205l48 328h593l-274 -1946h-594z" />
<glyph unicode="^" horiz-adv-x="962" d="M86 758l340 676h307l152 -676h-307l-39 307h-21l-125 -307h-307z" />
<glyph unicode="_" horiz-adv-x="737" d="M-168 -471l43 307h737l-43 -307h-737z" />
<glyph unicode="`" horiz-adv-x="532" d="M131 1229l133 205l279 -185l-92 -153z" />
<glyph unicode="a" d="M16 377q0 111 44 214.5t111.5 174.5t149.5 113.5t158 42.5q46 0 84 -12.5t60 -31t37 -36.5t20 -30l6 -13h21l12 82h368l-124 -881h-369l12 82h-20q-3 -5 -9.5 -13.5t-28.5 -29.5t-48 -37t-68 -29.5t-88 -13.5q-129 0 -228.5 121t-99.5 297zM410 422q0 -53 31 -89t73 -36 q53 0 98 47.5t45 114.5q0 53 -30.5 89t-73.5 36q-52 0 -97.5 -48t-45.5 -114z" />
<glyph unicode="b" horiz-adv-x="1187" d="M20 0l201 1434h389l-82 -594h21l8.5 8.5t26 20t43 25t60 19.5t77.5 9q129 0 228.5 -121t99.5 -297q0 -111 -44 -214.5t-111.5 -174.5t-149.5 -113.5t-158 -42.5q-46 0 -84 12.5t-60 30.5t-37 36.5t-20 31.5l-6 12h-21l-12 -82h-369zM449 422q0 -53 31 -89t73 -36 q54 0 99.5 48t45.5 114q0 53 -31 89t-73 36q-54 0 -99.5 -48t-45.5 -114z" />
<glyph unicode="c" horiz-adv-x="1034" d="M16 391q0 136 81 259t216.5 197.5t286.5 74.5q65 0 121.5 -13.5t95.5 -35.5t71 -48t51.5 -52t32.5 -48t18 -35l5 -14l-340 -164q-1 3 -3.5 8t-11.5 17t-20 21.5t-29 17.5t-38 8q-54 0 -99.5 -48t-45.5 -114q0 -53 31 -89t73 -36q36 0 70 20.5t50 40.5l15 21l295 -164 q-7 -10 -19.5 -27.5t-57 -61.5t-95.5 -78t-133.5 -61.5t-171.5 -27.5q-194 0 -321.5 127t-127.5 305z" />
<glyph unicode="d" horiz-adv-x="1187" d="M16 377q0 111 44 214.5t111.5 174.5t149.5 113.5t158 42.5q40 0 74.5 -8.5t55.5 -20.5t36 -24t21 -21l6 -8h20l84 594h389l-202 -1434h-369l12 82h-20q-3 -5 -9.5 -13.5t-28.5 -29.5t-48 -37t-68 -29.5t-88 -13.5q-129 0 -228.5 121t-99.5 297zM410 422q0 -53 31 -89 t73 -36q53 0 98 47.5t45 114.5q0 53 -30.5 89t-73.5 36q-52 0 -97.5 -48t-45.5 -114z" />
<glyph unicode="e" horiz-adv-x="1054" d="M16 391q0 135 80.5 258.5t211.5 198t272 74.5q97 0 176.5 -25.5t129 -66.5t76.5 -91t27 -102q0 -104 -103.5 -186t-260.5 -82h-195q-1 -7 -1 -13q-1 -30 19 -52q24 -28 62 -28q36 0 69.5 18t48.5 36l15 18l295 -164q-6 -9 -18.5 -24t-56.5 -54t-94.5 -68.5t-132.5 -54 t-171 -24.5q-194 0 -321.5 127t-127.5 305zM457 553h73q22 0 39 13.5t17 27.5q0 10 -13.5 20.5t-33.5 10.5q-23 0 -47 -21.5t-35 -50.5z" />
<glyph unicode="f" horiz-adv-x="798" d="M-23 -594l160 1137h-123l47 338h123l37 266q28 198 168 324t326 126q55 0 110 -10.5t83 -20.5l28 -10l-131 -348q-37 31 -98 31q-32 0 -61.5 -27.5t-35.5 -64.5l-37 -266h185l-47 -338h-185l-159 -1137h-390z" />
<glyph unicode="g" horiz-adv-x="1064" d="M-127 -340q0 52 18.5 100t45 79t53 55t44.5 34l19 11l4 20q-3 2 -9 5t-20.5 14t-25.5 24.5t-20 36t-9 47.5q0 23 7 45.5t18 39.5t25 32.5t27.5 26.5t24.5 19t18 13l7 4l2 21q-3 2 -8 6.5t-17.5 20.5t-22 35t-17.5 52t-8 70q0 76 39.5 150.5t106 131.5t161.5 92.5 t199 35.5h512l-41 -287h-103l-2 -21q23 -48 23 -114q0 -59 -31 -115.5t-85.5 -101t-137 -72t-178.5 -27.5h-103q-16 0 -31.5 -14t-15.5 -31q0 -14 11 -25.5t26 -11.5h72q196 0 314 -100t118 -235q0 -74 -40 -146t-110.5 -129t-177 -92t-229.5 -35q-107 0 -194.5 28.5 t-143 76t-85.5 107t-30 124.5zM264 -313q0 -31 27.5 -53.5t75.5 -22.5q55 0 90 27t35 61q0 31 -28 53.5t-75 22.5q-55 0 -90 -27t-35 -61zM399 504q0 -28 21.5 -51t50.5 -23q33 0 63.5 28.5t30.5 61.5q0 28 -21 51t-50 23q-33 0 -64 -28.5t-31 -61.5z" />
<glyph unicode="h" d="M20 0l201 1434h389l-86 -615h21q3 4 9 11t27 25t44.5 31.5t61 24.5t77.5 11q129 0 212 -116q64 -89 64 -215q0 -38 -6 -79l-71 -512h-390l72 512q5 31 -17 56.5t-53 25.5q-32 0 -60.5 -25.5t-33.5 -56.5l-71 -512h-390z" />
<glyph unicode="i" horiz-adv-x="614" d="M10 0l123 881h389l-123 -881h-389zM178 1270q12 85 80.5 145t153.5 60q84 0 136 -60q42 -49 42 -114q0 -15 -2 -31q-12 -85 -80.5 -145t-153.5 -60q-84 0 -136 60q-42 49 -42 114q0 15 2 31z" />
<glyph unicode="j" horiz-adv-x="604" d="M-350 -594l131 348q37 -30 98 -30q31 0 59.5 27t34.5 65l150 1065h389l-150 -1065q-28 -198 -167.5 -324.5t-325.5 -126.5q-55 0 -109.5 10.5t-81.5 20.5zM166 1247q0 92 71 160t164 68q76 0 127.5 -53t51.5 -130q0 -91 -71.5 -159t-164.5 -68q-76 0 -127 52.5t-51 129.5 z" />
<glyph unicode="k" horiz-adv-x="1126" d="M20 0l201 1434h389l-200 -1434h-390zM494 451l202 430h389l-223 -430l121 -451h-389z" />
<glyph unicode="l" horiz-adv-x="634" d="M20 0l201 1434h389l-200 -1434h-390z" />
<glyph unicode="m" horiz-adv-x="1679" d="M20 0l123 881h369l-10 -82h20q4 5 11.5 13.5t32.5 29.5t51.5 37t66.5 29.5t80 13.5t76.5 -12.5t59.5 -31t40.5 -36.5t25.5 -30l7 -13h20q5 5 14 13.5t38.5 29.5t60.5 37t77.5 29.5t92.5 13.5q129 0 212 -116q64 -89 64 -215q0 -38 -6 -79l-71 -512h-390l72 512 q6 38 -11 60t-48 22t-54.5 -22t-29.5 -60l-72 -512h-389l72 512q6 37 -11 59.5t-49 22.5q-31 0 -54.5 -22t-29.5 -60l-71 -512h-390z" />
<glyph unicode="n" d="M20 0l123 881h369l-10 -82h20q4 5 11.5 13.5t32.5 29.5t51.5 37t66.5 29.5t80 13.5q129 0 212 -116q64 -89 64 -215q0 -38 -6 -79l-71 -512h-390l72 512q5 31 -17 56.5t-53 25.5t-60.5 -25.5t-33.5 -56.5l-71 -512h-390z" />
<glyph unicode="o" horiz-adv-x="1146" d="M23 440q17 127 100 237.5t211 177.5t268 67t249 -67t161 -177q39 -83 39 -176q0 -30 -4 -62q-14 -95 -66.5 -183t-129.5 -153.5t-178 -105t-206 -39.5q-140 0 -249.5 66.5t-161.5 176.5q-38 82 -38 173q0 32 5 65zM412 440q-2 -13 -2 -25q0 -45 25 -77q32 -42 79 -41.5 t90.5 42t52.5 101.5q1 11 1 21q0 47 -26 81q-32 42 -79 42t-90.5 -42t-50.5 -102z" />
<glyph unicode="p" horiz-adv-x="1187" d="M-63 -594l206 1475h369l-10 -82h20q3 5 9.5 13.5t28.5 29.5t48 37t68 29.5t88 13.5q129 0 228.5 -121t99.5 -297q0 -111 -44 -214.5t-112 -174.5t-150 -113.5t-157 -42.5q-40 0 -74.5 8.5t-55.5 20.5t-36 24t-21 20l-6 9h-20l-90 -635h-389zM449 422q0 -53 31 -89t73 -36 q54 0 99.5 48t45.5 114q0 53 -31 89t-73 36q-54 0 -99.5 -48t-45.5 -114z" />
<glyph unicode="q" horiz-adv-x="1187" d="M16 377q0 111 44 214.5t111.5 174.5t149.5 113.5t158 42.5q46 0 84 -12.5t60 -31t37 -36.5t20 -30l6 -13h21l12 82h368l-206 -1475h-389l88 635h-21l-8.5 -8.5t-26 -20t-43 -25t-60 -19.5t-77.5 -9q-129 0 -228.5 121t-99.5 297zM410 422q0 -53 31 -89t73 -36 q53 0 98 47.5t45 114.5q0 53 -30.5 89t-73.5 36q-52 0 -97.5 -48t-45.5 -114z" />
<glyph unicode="r" horiz-adv-x="839" d="M20 0l123 881h369l-10 -82h20q3 5 9 13.5t27 29.5t43.5 37t58.5 29.5t73 13.5q23 0 45.5 -5t33.5 -11l11 -5l-112 -369q-60 21 -111 21q-46 0 -84.5 -33.5t-44.5 -79.5l-61 -440h-390z" />
<glyph unicode="s" horiz-adv-x="911" d="M-66 123l267 215q4 -8 13 -20t38 -32t61 -20q30 0 49 13.5t19 29.5q0 12 -33 24.5t-79.5 29.5t-93 42.5t-79.5 74.5t-33 114q0 125 126.5 226.5t308.5 101.5q80 0 148.5 -17t108.5 -41t68.5 -48t39.5 -41l11 -17l-253 -205q-6 8 -16.5 20t-41 32t-57.5 20q-16 0 -26 -3 t-13.5 -10t-4.5 -12.5t-1 -17.5q0 -10 25 -21t62 -21.5t81 -30.5t81 -45t62 -69t25 -100q0 -59 -35.5 -119t-95.5 -108t-148 -78.5t-186 -30.5q-63 0 -118.5 9t-95 23.5t-72 32t-52.5 35t-34.5 32t-19.5 23.5z" />
<glyph unicode="t" horiz-adv-x="880" d="M14 543l47 338h123l41 286h389l-41 -286h185l-47 -338h-185l-18 -133q-1 -8 -1 -15q0 -28 17 -50q22 -28 54 -28q27 0 53.5 7.5t39.5 15.5l13 8l33 -348q-109 -41 -232 -41q-186 1 -290 127q-82 100 -82 243q0 39 6 81l18 133h-123z" />
<glyph unicode="u" horiz-adv-x="1187" d="M72 369l71 512h389l-71 -512q-5 -31 16.5 -56.5t52.5 -25.5t61 25.5t34 56.5l71 512h389l-122 -881h-369l10 82h-20q-4 -5 -11.5 -13.5t-32.5 -29.5t-51.5 -37t-66.5 -29.5t-80 -13.5q-129 0 -212 116q-64 89 -64 215q0 38 6 79z" />
<glyph unicode="v" horiz-adv-x="1024" d="M0 881h410l69 -308h21l155 308h410l-621 -922h-82z" />
<glyph unicode="w" horiz-adv-x="1413" d="M0 881h410l96 -267h20l207 308l121 -308h20l170 267h410l-580 -922h-40l-172 389h-21l-279 -389h-40z" />
<glyph unicode="x" horiz-adv-x="1064" d="M-82 0l299 451l-156 430h410l41 -226h20l103 226h409l-274 -430l172 -451h-410l-61 225h-20l-123 -225h-410z" />
<glyph unicode="y" horiz-adv-x="1064" d="M-63 -594l294 574l-211 901h410l66 -410h20l160 410h409l-759 -1475h-389z" />
<glyph unicode="z" horiz-adv-x="931" d="M-61 0l6 41l354 481l2 21h-266l47 338h829l-4 -41l-354 -482l-4 -20h266l-47 -338h-829z" />
<glyph unicode="{" horiz-adv-x="798" d="M-12 348l49 348h61q63 0 98.5 34.5t45.5 109.5l24 184q34 248 169.5 359.5t410.5 111.5h20l-47 -328h-20q-62 0 -97 -33.5t-45 -107.5l-26 -186q-8 -59 -25.5 -107.5t-38 -79.5t-43.5 -54.5t-44.5 -35.5t-38.5 -19.5t-27 -9.5l-11 -2l-4 -20q2 0 6 -1t16.5 -4.5t23.5 -10 t27 -18t27 -27.5t23.5 -39t17 -52.5t7.5 -68.5t-6 -86l-27 -187q-10 -74 15.5 -107.5t88.5 -33.5h21l-47 -328h-21q-274 0 -376 111t-68 360l25 185q10 75 -15 109t-88 34h-61z" />
<glyph unicode="|" horiz-adv-x="731" d="M2 -573l307 2191h363l-307 -2191h-363z" />
<glyph unicode="}" horiz-adv-x="798" d="M-125 -451l45 328h21q63 0 98 33.5t45 107.5l27 187q11 80 39 141.5t59 91.5t60.5 48t48.5 22l20 4l2 20q-2 0 -6 1t-16 5t-22.5 10.5t-26 17.5t-26.5 27.5t-23.5 39.5t-17 52.5t-7 68.5t5.5 86l24 186q10 74 -15 107.5t-87 33.5h-21l48 328h20q274 0 377 -111.5 t67 -359.5l-26 -184q-10 -75 15.5 -109.5t88.5 -34.5h62l-49 -348h-62q-63 0 -98 -34t-45 -109l-27 -185q-36 -249 -169.5 -360t-407.5 -111h-21z" />
<glyph unicode="~" horiz-adv-x="942" d="M20 430q22 161 97.5 244.5t173.5 83.5q44 0 89.5 -20.5t83.5 -41t62 -20.5q18 0 36 20.5t27 41.5l9 20l279 -62q-22 -161 -97.5 -244t-173.5 -83q-44 0 -89.5 20.5t-83.5 41t-62 20.5q-18 0 -36 -20.5t-27 -40.5l-9 -21z" />
<glyph unicode="&#xa1;" horiz-adv-x="737" d="M-63 -594l217 819h286l-12 -819h-491zM145 592q0 91 71.5 159t164.5 68q76 0 127 -52.5t51 -129.5q0 -92 -71 -159.5t-164 -67.5q-76 0 -127.5 52.5t-51.5 129.5z" />
<glyph unicode="&#xa2;" horiz-adv-x="1034" d="M16 387q0 92 33 174t89.5 144t125.5 108.5t148 77.5l30 215h369l-31 -215q49 -20 89 -49.5t62.5 -57.5t37.5 -53t21 -40l5 -15l-340 -164q-1 3 -3.5 8t-11.5 17t-20 21.5t-29 17.5t-38 8q-53 0 -98 -47.5t-45 -114.5q0 -53 30 -89t72 -36q36 0 70 20.5t50 40.5l15 21 l295 -164q-4 -7 -12.5 -18.5t-36.5 -43t-59 -58.5t-80 -57.5t-101 -47.5l-28 -215h-369l29 215q-118 50 -193.5 154t-75.5 243z" />
<glyph unicode="&#xa3;" d="M-20 0l28 205q7 6 20 17t46.5 50t61.5 83t56 114.5t39 144.5h-125l41 287h103q-8 27 -8 74q0 98 44 190t118.5 160t178.5 109t218 41q63 0 124.5 -12.5t104.5 -30.5t77 -36.5t51 -31.5l16 -12l-252 -328q-4 7 -11.5 17t-34.5 27t-59 17q-52 0 -90.5 -37.5t-38.5 -89.5 q0 -15 3 -29t6 -21l3 -7h205l-41 -287h-205q-6 -40 -21.5 -78t-34 -63.5t-36 -45t-29.5 -29.5l-12 -9l-4 -20h512l-51 -369h-1003z" />
<glyph unicode="&#xa4;" horiz-adv-x="1392" d="M14 246l35 246h144l8 61h-144l35 246h144l90 635h471q137 0 245 -31.5t174.5 -87t101 -127.5t34.5 -156q0 -95 -45 -180.5t-128.5 -152.5t-214.5 -106.5t-292 -39.5h-21l-8 -61h412l-35 -246h-412l-35 -246h-450l35 246h-144zM686 799h21q68 0 116.5 47.5t48.5 114.5 q0 54 -34.5 89t-89.5 35h-21z" />
<glyph unicode="&#xa5;" horiz-adv-x="1310" d="M98 1434h471l109 -471h20l240 471h471l-508 -840h184l-28 -205h-226l-8 -61h226l-29 -205h-225l-17 -123h-450l16 123h-225l28 205h226l8 61h-225l28 205h185z" />
<glyph unicode="&#xa6;" horiz-adv-x="731" d="M2 -573l127 901h363l-127 -901h-363zM184 717l125 901h363l-125 -901h-363z" />
<glyph unicode="&#xa7;" horiz-adv-x="1146" d="M-35 -102l309 163l5.5 -11t16 -24.5t26.5 -31t36 -24.5t45 -11q51 0 84 32t33 77q0 26 -31.5 51.5t-78 47t-101.5 54.5t-101.5 71t-78 100t-31.5 138q0 73 23.5 133.5t57 95.5t67 59t56.5 33l24 9l2 19l-6 4q-6 4 -16 11.5t-22 19t-23.5 29t-21.5 38t-16 49t-6 60.5 q0 169 136 287t349 118q86 0 160.5 -25.5t119.5 -61.5t77.5 -72t45.5 -62l13 -25l-309 -164q-6 9 -16 22.5t-40 36.5t-57 23q-42 0 -68 -24.5t-26 -63.5q0 -26 30 -53t75 -50t97 -57.5t97 -73t75 -99t30 -132.5t-23.5 -132.5t-57 -95t-67 -58.5t-56.5 -32l-24 -9l-4 -19 l8 -5q7 -5 18.5 -14.5t25.5 -22.5t28.5 -32t26 -40t19 -49t7.5 -58q0 -81 -37.5 -156.5t-102.5 -133t-161.5 -92t-206.5 -34.5q-67 0 -127 14.5t-102.5 38.5t-78.5 52t-58.5 56.5t-38.5 52.5t-22 39zM469 563q0 -33 22 -56t44 -29l22 -7q9 5 22 14.5t34.5 39t21.5 59.5 q0 33 -22.5 56t-44.5 30l-23 6q-9 -5 -21.5 -14.5t-33.5 -39t-21 -59.5z" />
<glyph unicode="&#xa8;" horiz-adv-x="798" d="M139 1272q0 67 48.5 114.5t115.5 47.5q56 0 90.5 -35t34.5 -90q0 -67 -48 -114.5t-116 -47.5q-55 0 -90 35.5t-35 89.5zM528 1272q0 67 48 114.5t116 47.5q55 0 90 -35.5t35 -89.5q0 -67 -48.5 -114.5t-115.5 -47.5q-56 0 -90.5 35t-34.5 90z" />
<glyph unicode="&#xa9;" horiz-adv-x="2088" d="M94 483q0 208 84 396t226 322.5t338 214t411 79.5q237 0 421 -103t283 -282.5t99 -404.5q0 -208 -84 -396t-226 -322.5t-337 -214t-410 -79.5q-178 0 -329 60t-255 165t-162.5 251t-58.5 314zM444 514q0 -228 139 -371t361 -143q178 0 329.5 86.5t242 242t90.5 345.5 q0 228 -137.5 371t-358.5 143q-180 0 -332 -86.5t-243 -242t-91 -345.5zM641 528q0 198 133 326.5t336 128.5q69 0 126 -22t89.5 -53.5t55 -63.5t30.5 -54l8 -22l-284 -133q-1 3 -2 8t-6 17t-11.5 21.5t-18.5 17.5t-26 8q-41 0 -66.5 -39t-25.5 -119q0 -88 59 -88 q23 0 43.5 17.5t29.5 35.5l9 18l246 -133q-5 -9 -14.5 -23.5t-43.5 -51.5t-73.5 -65.5t-103 -51.5t-132.5 -23q-165 0 -261.5 95t-96.5 249z" />
<glyph unicode="&#xaa;" horiz-adv-x="778" d="M121 993q0 94 73 154.5t212 60.5q25 0 53.5 -2.5t35.5 -3.5t13 2q0 22 -18.5 39t-45.5 17q-18 0 -39.5 -8t-34.5 -16l-12 -7l-120 164q4 3 12 8.5t33 20t52 25t67.5 19.5t80.5 9q135 0 214.5 -83.5t64.5 -193.5l-51 -358h-244l6 51h-10q-7 -8 -20 -20t-58.5 -32 t-95.5 -20q-70 0 -119 52t-49 122zM391 1028q0 -18 21 -18q22 0 44 13.5t31 31.5h-69q-12 0 -19.5 -7.5t-7.5 -19.5z" />
<glyph unicode="&#xab;" horiz-adv-x="1044" d="M-20 440l260 400h327l-260 -400l150 -399h-328zM410 440l260 400h327l-260 -400l150 -399h-328z" />
<glyph unicode="&#xac;" horiz-adv-x="901" d="M49 492l43 307h737l-65 -471h-328l23 164h-410z" />
<glyph unicode="&#xad;" horiz-adv-x="901" d="M37 410l43 307h737l-43 -307h-737z" />
<glyph unicode="&#xae;" horiz-adv-x="2088" d="M94 483q0 208 84 396t226 322.5t338 214t411 79.5q237 0 421 -103t283 -282.5t99 -404.5q0 -208 -84 -396t-226 -322.5t-337 -214t-410 -79.5q-178 0 -329 60t-255 165t-162.5 251t-58.5 314zM444 514q0 -228 139 -371t361 -143q178 0 329.5 86.5t242 242t90.5 345.5 q0 228 -137.5 371t-358.5 143q-180 0 -332 -86.5t-243 -242t-91 -345.5zM643 205l107 758h327q175 0 260.5 -74.5t71.5 -181.5q-4 -32 -19 -59.5t-32.5 -44.5t-34 -29t-28 -17t-11.5 -4l-2 -21l98 -327h-327l-52 225h-20l-31 -225h-307zM1010 635h20q23 0 38.5 13.5 t18.5 35.5q4 24 -7.5 38.5t-35.5 14.5h-20z" />
<glyph unicode="&#xaf;" horiz-adv-x="655" d="M129 1208l31 226h532l-30 -226h-533z" />
<glyph unicode="&#xb0;" horiz-adv-x="737" d="M143 1157q15 116 109 196.5t217 80.5q122 0 192.5 -80t55.5 -197q-17 -116 -110.5 -196t-215.5 -80q-123 0 -194 80t-54 196zM338 1157q-6 -38 17 -65t61 -27t69 27t37 65q5 38 -18.5 65t-61.5 27t-69 -27t-35 -65z" />
<glyph unicode="&#xb1;" horiz-adv-x="962" d="M-2 51l43 307h235l29 205h-246l43 307h246l37 267h307l-37 -267h246l-43 -307h-246l-28 -205h235l-43 -307h-778z" />
<glyph unicode="&#xb2;" horiz-adv-x="696" d="M98 840l23 161q11 4 29.5 12t66 32t83.5 47.5t65.5 55t29.5 58.5q0 19 -11.5 31t-31.5 12q-19 0 -39 -10.5t-31 -20.5l-10 -10l-118 164q4 4 11.5 11t34.5 25t58 31.5t81 24.5t105 11q115 0 181.5 -55.5t66.5 -131.5q0 -50 -22 -90.5t-53 -62t-62.5 -35.5t-53.5 -18 l-22 -5l-2 -12h185l-31 -225h-533z" />
<glyph unicode="&#xb3;" horiz-adv-x="716" d="M109 922l143 143q45 -41 86 -41q24 0 40.5 13.5t16.5 31.5q0 15 -12 26t-33 11h-71l14 102l86 31v10h-184l30 205h492l-25 -164l-155 -90l-2 -12q6 -1 15.5 -3t33.5 -13t43 -26.5t34 -47t15 -70.5q0 -79 -87 -144t-218 -65q-55 0 -102 10.5t-75 25.5t-48.5 30.5 t-28.5 26.5z" />
<glyph unicode="&#xb4;" horiz-adv-x="532" d="M135 1249l332 185l76 -205l-359 -133z" />
<glyph unicode="&#xb5;" horiz-adv-x="1187" d="M-63 -594l206 1475h389l-71 -512q-5 -31 16.5 -56.5t52.5 -25.5t61 25.5t34 56.5l71 512h389l-122 -881h-369l8 61h-20q-1 -2 -2.5 -6.5t-8 -15t-15 -18.5t-23 -14.5t-31.5 -6.5q-27 0 -43 15t-19 31l-2 15h-20l-92 -655h-389z" />
<glyph unicode="&#xb6;" horiz-adv-x="1064" d="M125 1022q0 109 58.5 205t151.5 151.5t193 55.5h574l-43 -308h-185l-241 -1720h-389l182 1290q-127 0 -214 94.5t-87 231.5z" />
<glyph unicode="&#xb7;" horiz-adv-x="409" d="M-2 717q10 85 79 145t154 60t136.5 -60t40.5 -145q-12 -85 -80.5 -145t-153.5 -60t-136.5 60t-39.5 145z" />
<glyph unicode="&#xb8;" horiz-adv-x="573" d="M-104 -451l118 123q37 -41 88 -41q25 0 47.5 21.5t22.5 46.5q0 22 -15 38.5t-34 16.5h-117l96 246h164l-59 -123q79 -13 119.5 -61t40.5 -117q0 -90 -82 -160.5t-195 -70.5q-40 0 -74.5 8.5t-55.5 20t-36.5 23.5t-21.5 20z" />
<glyph unicode="&#xb9;" horiz-adv-x="675" d="M98 840l31 225h113l24 164h-112l30 225h389l-55 -389h123l-31 -225h-512z" />
<glyph unicode="&#xba;" horiz-adv-x="839" d="M137 1108q0 152 114 259.5t273 107.5q132 0 213.5 -82t81.5 -207q0 -152 -113.5 -259.5t-273.5 -107.5q-132 0 -213.5 82t-81.5 207zM416 1133q0 -30 15 -49t36 -19q28 0 51 27t23 69q0 30 -15.5 49t-36.5 19q-28 0 -50.5 -27t-22.5 -69z" />
<glyph unicode="&#xbb;" horiz-adv-x="1044" d="M-35 41l260 399l-147 400h328l147 -400l-260 -399h-328zM395 41l260 399l-147 400h328l147 -400l-260 -399h-328z" />
<glyph unicode="&#xbc;" horiz-adv-x="1597" d="M94 819l31 225h113l24 164h-112l30 226h389l-55 -390h123l-31 -225h-512zM143 0l979 1434h389l-979 -1434h-389zM829 82l25 164l422 389h143l-49 -348h62l-29 -205h-62l-10 -82h-276l10 82h-236zM1059 256h61l10 61z" />
<glyph unicode="&#xbd;" horiz-adv-x="1679" d="M94 819l31 225h113l24 164h-112l30 226h389l-55 -390h123l-31 -225h-512zM143 0l979 1434h389l-979 -1434h-389zM942 0l23 162q11 4 29.5 12t66 32t83.5 47.5t65.5 55t29.5 58.5q0 19 -12 31t-31 12t-39 -10t-31 -20l-10 -11l-121 163q4 4 11.5 11t34.5 25t58 31.5 t81.5 24.5t105.5 11q116 0 183 -55.5t67 -130.5q0 -50 -22 -90.5t-53 -62t-62.5 -35.5t-53.5 -19l-22 -4l-2 -13h184l-30 -225h-533z" />
<glyph unicode="&#xbe;" horiz-adv-x="1617" d="M106 901l144 143q45 -40 86 -40q24 0 40.5 13.5t16.5 31.5q0 14 -12 25t-33 11h-72l15 103l86 31v10h-184l30 205h492l-25 -164l-155 -90l-3 -13q6 -1 15.5 -3t34 -12.5t43 -26.5t34 -47t15.5 -70q0 -79 -87 -144t-218 -65q-55 0 -102 10.5t-75.5 25.5t-49 30t-28.5 25z M164 0l981 1434h389l-981 -1434h-389zM852 82l22 164l424 389h144l-49 -348h61l-29 -205h-61l-12 -82h-277l12 82h-235zM1081 256h62l8 61z" />
<glyph unicode="&#xbf;" horiz-adv-x="1146" d="M-72 -240q0 70 27.5 127.5t69 92.5t90.5 67.5t92 56t75 55t37 66.5h390q-7 -49 -32.5 -92t-58 -70.5t-69.5 -55.5t-67 -49t-50 -48.5t-20 -56.5q0 -41 29 -70t77 -29q36 0 77 36t64 72l23 36l293 -246q-4 -6 -11.5 -16.5t-34 -40t-57 -57t-81 -60.5t-105 -56.5 t-129.5 -40t-154 -16.5q-218 0 -346.5 113.5t-128.5 281.5zM371 592q0 91 72 159t165 68q76 0 126 -52.5t50 -129.5q0 -92 -71 -159.5t-164 -67.5q-76 0 -127 52.5t-51 129.5z" />
<glyph unicode="&#xc0;" horiz-adv-x="1433" d="M-82 0l889 1516h41l463 -1516h-471l-31 143h-348l-72 -143h-471zM608 471h144l-37 164h-21zM651 1792l133 205l279 -185l-92 -153z" />
<glyph unicode="&#xc1;" horiz-adv-x="1433" d="M-82 0l889 1516h41l463 -1516h-471l-31 143h-348l-72 -143h-471zM608 471h144l-37 164h-21zM694 1812l332 185l76 -205l-359 -133z" />
<glyph unicode="&#xc2;" horiz-adv-x="1433" d="M-82 0l889 1516h41l463 -1516h-471l-31 143h-348l-72 -143h-471zM557 1772l334 184l280 -184l-94 -154l-221 92l-250 -92zM608 471h144l-37 164h-21z" />
<glyph unicode="&#xc3;" horiz-adv-x="1433" d="M-82 0l889 1516h41l463 -1516h-471l-31 143h-348l-72 -143h-471zM571 1741q16 109 65.5 167t108.5 58q35 0 65.5 -18t55.5 -36t45 -18q23 0 38 18t19 36l3 18l176 -61q-14 -109 -64.5 -167.5t-109.5 -58.5q-35 0 -65 18t-54.5 36t-44.5 18q-23 0 -38 -18t-19 -36l-4 -18z M608 471h144l-37 164h-21z" />
<glyph unicode="&#xc4;" horiz-adv-x="1433" d="M-82 0l889 1516h41l463 -1516h-471l-31 143h-348l-72 -143h-471zM526 1763q0 67 48.5 114.5t115.5 47.5q56 0 90.5 -35t34.5 -90q0 -67 -48 -114.5t-116 -47.5q-55 0 -90 35.5t-35 89.5zM608 471h144l-37 164h-21zM915 1763q0 67 48 114.5t116 47.5q55 0 90 -35.5 t35 -89.5q0 -67 -48.5 -114.5t-115.5 -47.5q-56 0 -90.5 35t-34.5 90z" />
<glyph unicode="&#xc5;" horiz-adv-x="1433" d="M-82 0l889 1516h41l463 -1516h-471l-31 143h-348l-72 -143h-471zM608 471h144l-37 164h-21zM631 1802q14 93 91.5 159.5t176.5 66.5t158 -66.5t45 -159.5q-12 -93 -89.5 -159t-176.5 -66t-158 66t-47 159zM784 1802q-3 -31 19 -56.5t53 -25.5t60 25.5t32 56.5 q5 31 -16.5 56.5t-52.5 25.5t-61 -25.5t-34 -56.5z" />
<glyph unicode="&#xc6;" horiz-adv-x="1925" d="M-102 0l774 1434h1229l-54 -390h-491l-21 -143h328l-51 -369h-328l-20 -143h512l-56 -389h-962l30 225h-317l-102 -225h-471zM647 594h195l65 471h-30z" />
<glyph unicode="&#xc7;" horiz-adv-x="1536" d="M74 635q0 164 74.5 319t196 269t285.5 183t335 69q96 0 180 -20.5t142 -53t105 -72t75 -78.5t47.5 -71.5t26.5 -53.5l7 -20l-397 -205q-2 7 -7.5 18t-25.5 39t-45.5 50t-69.5 39.5t-96 17.5q-140 0 -250 -114.5t-110 -280.5q0 -132 75 -216.5t187 -84.5q57 0 110.5 19 t88.5 46t62 54t40 46l12 19l340 -205q-4 -8 -12.5 -21t-39.5 -52t-66.5 -74.5t-94.5 -79.5t-123.5 -76t-153.5 -56t-184 -28l-36 -84q77 -13 117 -61t40 -117q0 -90 -81.5 -160.5t-194.5 -70.5q-40 0 -75 8.5t-56 20t-36.5 23.5t-21.5 20l-6 9l121 123q35 -41 86 -41 q25 0 47.5 21.5t22.5 46.5q0 22 -15 38.5t-34 16.5h-117l84 215q-247 38 -403 226.5t-156 439.5z" />
<glyph unicode="&#xc8;" horiz-adv-x="1249" d="M82 0l201 1434h942l-54 -390h-491l-21 -143h328l-51 -369h-328l-20 -143h512l-56 -389h-962zM563 1751l133 205l279 -184l-92 -154z" />
<glyph unicode="&#xc9;" horiz-adv-x="1249" d="M82 0l201 1434h942l-54 -390h-491l-21 -143h328l-51 -369h-328l-20 -143h512l-56 -389h-962zM649 1772l332 184l76 -205l-359 -133z" />
<glyph unicode="&#xca;" horiz-adv-x="1249" d="M82 0l201 1434h942l-54 -390h-491l-21 -143h328l-51 -369h-328l-20 -143h512l-56 -389h-962zM506 1772l334 184l280 -184l-94 -154l-221 92l-250 -92z" />
<glyph unicode="&#xcb;" horiz-adv-x="1249" d="M82 0l201 1434h942l-54 -390h-491l-21 -143h328l-51 -369h-328l-20 -143h512l-56 -389h-962zM471 1743q0 67 48.5 114.5t115.5 47.5q56 0 90.5 -35t34.5 -90q0 -67 -48 -114.5t-116 -47.5q-55 0 -90 35.5t-35 89.5zM860 1743q0 67 48 114.5t116 47.5q55 0 90 -35.5 t35 -89.5q0 -67 -48.5 -114.5t-115.5 -47.5q-56 0 -90.5 35t-34.5 90z" />
<glyph unicode="&#xcc;" horiz-adv-x="819" d="M82 0l201 1434h450l-201 -1434h-450zM328 1751l133 205l278 -184l-92 -154z" />
<glyph unicode="&#xcd;" horiz-adv-x="819" d="M82 0l201 1434h450l-201 -1434h-450zM393 1772l332 184l76 -205l-359 -133z" />
<glyph unicode="&#xce;" horiz-adv-x="819" d="M82 0l201 1434h450l-201 -1434h-450zM250 1772l334 184l280 -184l-94 -154l-221 92l-250 -92z" />
<glyph unicode="&#xcf;" horiz-adv-x="819" d="M82 0l201 1434h450l-201 -1434h-450zM215 1743q0 67 48.5 114.5t115.5 47.5q56 0 90.5 -35t34.5 -90q0 -67 -48 -114.5t-116 -47.5q-55 0 -90 35.5t-35 89.5zM604 1743q0 67 48 114.5t116 47.5q55 0 90 -35.5t35 -89.5q0 -67 -48.5 -114.5t-115.5 -47.5q-56 0 -90.5 35 t-34.5 90z" />
<glyph unicode="&#xd0;" horiz-adv-x="1515" d="M57 553l43 307h103l80 574h491q145 0 270 -51t211.5 -137.5t135.5 -203.5t49 -247q0 -156 -70.5 -302.5t-188 -254.5t-277.5 -173t-331 -65h-491l78 553h-103zM588 389h41q122 0 229 110.5t107 258.5q0 120 -73 203t-171 83h-41l-27 -184h123l-43 -307h-123z" />
<glyph unicode="&#xd1;" horiz-adv-x="1556" d="M82 0l205 1454h82l551 -594h20l80 574h450l-202 -1454h-82l-553 593h-21l-80 -573h-450zM649 1700q16 109 65.5 167t108.5 58q35 0 65.5 -18t55.5 -36t45 -18q23 0 38 18t19 36l3 18l176 -61q-14 -109 -64.5 -167.5t-109.5 -58.5q-35 0 -65 18t-54.5 36t-44.5 18 q-23 0 -38.5 -18t-19.5 -36l-4 -18z" />
<glyph unicode="&#xd2;" horiz-adv-x="1720" d="M80 717q21 151 102.5 291t200 242.5t271.5 163.5t311 61t293.5 -61t225 -163.5t131.5 -242.5t21 -291q-28 -202 -156.5 -376.5t-322.5 -278t-405 -103.5t-376 103.5t-244.5 278t-51.5 376.5zM551 717q-21 -150 55.5 -249t202.5 -99t230.5 98.5t125.5 249.5 q21 150 -55.5 249t-202.5 99t-230.5 -98.5t-125.5 -249.5zM809 1751l133 205l279 -184l-93 -154z" />
<glyph unicode="&#xd3;" horiz-adv-x="1720" d="M80 717q21 151 102.5 291t200 242.5t271.5 163.5t311 61t293.5 -61t225 -163.5t131.5 -242.5t21 -291q-28 -202 -156.5 -376.5t-322.5 -278t-405 -103.5t-376 103.5t-244.5 278t-51.5 376.5zM551 717q-21 -150 55.5 -249t202.5 -99t230.5 98.5t125.5 249.5 q21 150 -55.5 249t-202.5 99t-230.5 -98.5t-125.5 -249.5zM809 1769l332 185l76 -205l-359 -133z" />
<glyph unicode="&#xd4;" horiz-adv-x="1720" d="M80 717q21 151 102.5 291t200 242.5t271.5 163.5t311 61t293.5 -61t225 -163.5t131.5 -242.5t21 -291q-28 -202 -156.5 -376.5t-322.5 -278t-405 -103.5t-376 103.5t-244.5 278t-51.5 376.5zM551 717q-21 -150 55.5 -249t202.5 -99t230.5 98.5t125.5 249.5 q21 150 -55.5 249t-202.5 99t-230.5 -98.5t-125.5 -249.5zM702 1792l334 184l281 -184l-94 -154l-222 93l-249 -93z" />
<glyph unicode="&#xd5;" horiz-adv-x="1720" d="M80 717q21 151 102.5 291t200 242.5t271.5 163.5t311 61t293.5 -61t225 -163.5t131.5 -242.5t21 -291q-28 -202 -156.5 -376.5t-322.5 -278t-405 -103.5t-376 103.5t-244.5 278t-51.5 376.5zM551 717q-21 -150 55.5 -249t202.5 -99t230.5 98.5t125.5 249.5 q21 150 -55.5 249t-202.5 99t-230.5 -98.5t-125.5 -249.5zM731 1700q16 109 65.5 167t108.5 58q35 0 65.5 -18t55.5 -36t45 -18q23 0 37.5 18t17.5 36l4 18l177 -61q-14 -109 -64.5 -167.5t-109.5 -58.5q-35 0 -65 18t-54.5 36t-44.5 18q-23 0 -38.5 -18t-19.5 -36l-4 -18z " />
<glyph unicode="&#xd6;" horiz-adv-x="1720" d="M80 717q21 151 102.5 291t200 242.5t271.5 163.5t311 61t293.5 -61t225 -163.5t131.5 -242.5t21 -291q-28 -202 -156.5 -376.5t-322.5 -278t-405 -103.5t-376 103.5t-244.5 278t-51.5 376.5zM551 717q-21 -150 55.5 -249t202.5 -99t230.5 98.5t125.5 249.5 q21 150 -55.5 249t-202.5 99t-230.5 -98.5t-125.5 -249.5zM666 1743q0 67 48.5 114.5t114.5 47.5q56 0 90.5 -35t34.5 -90q0 -67 -47.5 -114.5t-115.5 -47.5q-55 0 -90 35.5t-35 89.5zM1055 1743q0 67 48 114.5t116 47.5q55 0 89.5 -35.5t34.5 -89.5q0 -67 -48.5 -114.5 t-114.5 -47.5q-56 0 -90.5 35t-34.5 90z" />
<glyph unicode="&#xd7;" horiz-adv-x="970" d="M29 352l221 195l-166 194l254 226l156 -181l204 181l193 -226l-223 -194l168 -195l-254 -223l-156 180l-205 -180z" />
<glyph unicode="&#xd8;" horiz-adv-x="1802" d="M-47 102l37 267l143 71q-18 85 -18 191q0 132 47.5 260t132.5 232t196 184t244.5 124t270.5 44q81 0 156.5 -16t130 -41t102 -55.5t79 -61.5t53.5 -56t32 -41l10 -16l276 143l-37 -266l-143 -82q18 -84 18 -186q0 -163 -74 -317.5t-196 -268.5t-285.5 -183t-334.5 -69 q-115 0 -215 29.5t-161.5 71.5t-106 84.5t-62.5 71.5l-19 30zM586 676l565 297q-3 4 -8.5 10t-24.5 22t-41 28t-57 22t-72 10q-126 0 -229.5 -98.5t-126.5 -249.5zM649 461q3 -4 9 -10t26 -22t42 -28t56 -22t68 -10q126 0 231 99t125 249l4 31z" />
<glyph unicode="&#xd9;" horiz-adv-x="1515" d="M135 532l127 902h451l-127 -902q-10 -75 24 -119t97 -44t109 44t56 119l127 902h451l-127 -902q-34 -247 -224 -410t-450 -163q-171 0 -296.5 74.5t-182.5 205.5t-35 293zM666 1751l133 205l278 -184l-92 -154z" />
<glyph unicode="&#xda;" horiz-adv-x="1515" d="M135 532l127 902h451l-127 -902q-10 -75 24 -119t97 -44t109 44t56 119l127 902h451l-127 -902q-34 -247 -224 -410t-450 -163q-171 0 -296.5 74.5t-182.5 205.5t-35 293zM752 1772l331 184l76 -205l-358 -133z" />
<glyph unicode="&#xdb;" horiz-adv-x="1515" d="M135 532l127 902h451l-127 -902q-10 -75 24 -119t97 -44t109 44t56 119l127 902h451l-127 -902q-34 -247 -224 -410t-450 -163q-171 0 -296.5 74.5t-182.5 205.5t-35 293zM588 1772l334 184l280 -184l-94 -154l-221 92l-250 -92z" />
<glyph unicode="&#xdc;" horiz-adv-x="1515" d="M135 532l127 902h451l-127 -902q-10 -75 24 -119t97 -44t109 44t56 119l127 902h451l-127 -902q-34 -247 -224 -410t-450 -163q-171 0 -296.5 74.5t-182.5 205.5t-35 293zM567 1763q0 67 48.5 114.5t115.5 47.5q56 0 90.5 -35t34.5 -90q0 -67 -48 -114.5t-116 -47.5 q-55 0 -90 35.5t-35 89.5zM956 1763q0 67 48 114.5t116 47.5q55 0 90 -35.5t35 -89.5q0 -67 -48.5 -114.5t-115.5 -47.5q-56 0 -90.5 35t-34.5 90z" />
<glyph unicode="&#xdd;" horiz-adv-x="1310" d="M78 1434h471l129 -471h20l260 471h472l-584 -942l-68 -492h-450l67 492zM627 1751l331 184l76 -204l-358 -134z" />
<glyph unicode="&#xde;" horiz-adv-x="1454" d="M80 -20l207 1474h450l-16 -123h61q151 0 271.5 -47t195.5 -129.5t108 -195t15 -242.5t-82.5 -243t-163.5 -195t-233 -129.5t-285 -47.5h-61l-17 -122h-450zM592 492h72q78 0 151 67.5t86 157.5q12 91 -42 158t-132 67h-72z" />
<glyph unicode="&#xdf;" horiz-adv-x="1208" d="M20 0l144 1024q16 111 97 215.5t202.5 170t245.5 65.5q187 0 304 -115.5t117 -284.5q0 -58 -23.5 -114.5t-51 -93.5t-51 -82.5t-23.5 -84.5q0 -34 17.5 -75.5t39 -76t39 -85.5t17.5 -101q0 -166 -123.5 -274t-337.5 -108q-27 0 -57.5 5t-47.5 10l-16 5l47 338 q18 -10 59 -10q34 0 64.5 28.5t30.5 61.5q0 24 -16.5 57t-36 61t-36 67t-16.5 75q0 48 20.5 97.5t45 84.5t45 82.5t20.5 91.5q0 35 -23 58.5t-57 23.5q-38 0 -69 -27t-37 -65l-143 -1024h-390z" />
<glyph unicode="&#xe0;" d="M16 377q0 111 44 214.5t111.5 174.5t149.5 113.5t158 42.5q46 0 84 -12.5t60 -31t37 -36.5t20 -30l6 -13h21l12 82h368l-124 -881h-369l12 82h-20q-3 -5 -9.5 -13.5t-28.5 -29.5t-48 -37t-68 -29.5t-88 -13.5q-129 0 -228.5 121t-99.5 297zM410 422q0 -53 31 -89t73 -36 q53 0 98 47.5t45 114.5q0 53 -30.5 89t-73.5 36q-52 0 -97.5 -48t-45.5 -114zM451 1208l133 205l278 -184l-92 -154z" />
<glyph unicode="&#xe1;" d="M16 377q0 111 44 214.5t111.5 174.5t149.5 113.5t158 42.5q46 0 84 -12.5t60 -31t37 -36.5t20 -30l6 -13h21l12 82h368l-124 -881h-369l12 82h-20q-3 -5 -9.5 -13.5t-28.5 -29.5t-48 -37t-68 -29.5t-88 -13.5q-129 0 -228.5 121t-99.5 297zM410 422q0 -53 31 -89t73 -36 q53 0 98 47.5t45 114.5q0 53 -30.5 89t-73.5 36q-52 0 -97.5 -48t-45.5 -114zM535 1229l331 184l76 -205l-358 -133z" />
<glyph unicode="&#xe2;" d="M16 377q0 111 44 214.5t111.5 174.5t149.5 113.5t158 42.5q46 0 84 -12.5t60 -31t37 -36.5t20 -30l6 -13h21l12 82h368l-124 -881h-369l12 82h-20q-3 -5 -9.5 -13.5t-28.5 -29.5t-48 -37t-68 -29.5t-88 -13.5q-129 0 -228.5 121t-99.5 297zM391 1229l334 184l281 -184 l-95 -154l-221 92l-250 -92zM410 422q0 -53 31 -89t73 -36q53 0 98 47.5t45 114.5q0 53 -30.5 89t-73.5 36q-52 0 -97.5 -48t-45.5 -114z" />
<glyph unicode="&#xe3;" d="M16 377q0 111 44 214.5t111.5 174.5t149.5 113.5t158 42.5q46 0 84 -12.5t60 -31t37 -36.5t20 -30l6 -13h21l12 82h368l-124 -881h-369l12 82h-20q-3 -5 -9.5 -13.5t-28.5 -29.5t-48 -37t-68 -29.5t-88 -13.5q-129 0 -228.5 121t-99.5 297zM410 422q0 -53 31 -89t73 -36 q53 0 98 47.5t45 114.5q0 53 -30.5 89t-73.5 36q-52 0 -97.5 -48t-45.5 -114zM418 1188q16 109 65.5 167t108.5 58q35 0 65.5 -18t55.5 -36t45 -18q23 0 37.5 18t18.5 36l3 18l176 -61q-14 -109 -64.5 -167.5t-109.5 -58.5q-35 0 -65 18t-54.5 36t-44.5 18q-23 0 -38 -18 t-19 -36l-4 -18z" />
<glyph unicode="&#xe4;" d="M16 377q0 111 44 214.5t111.5 174.5t149.5 113.5t158 42.5q46 0 84 -12.5t60 -31t37 -36.5t20 -30l6 -13h21l12 82h368l-124 -881h-369l12 82h-20q-3 -5 -9.5 -13.5t-28.5 -29.5t-48 -37t-68 -29.5t-88 -13.5q-129 0 -228.5 121t-99.5 297zM385 1251q0 67 48.5 114.5 t115.5 47.5q56 0 90.5 -35t34.5 -90q0 -67 -48 -114.5t-116 -47.5q-55 0 -90 35.5t-35 89.5zM410 422q0 -53 31 -89t73 -36q53 0 98 47.5t45 114.5q0 53 -30.5 89t-73.5 36q-52 0 -97.5 -48t-45.5 -114zM774 1251q0 67 48 114.5t116 47.5q55 0 90 -35.5t35 -89.5 q0 -67 -48.5 -114.5t-115.5 -47.5q-56 0 -90.5 35t-34.5 90z" />
<glyph unicode="&#xe5;" d="M16 377q0 111 44 214.5t111.5 174.5t149.5 113.5t158 42.5q46 0 84 -12.5t60 -31t37 -36.5t20 -30l6 -13h21l12 82h368l-124 -881h-369l12 82h-20q-3 -5 -9.5 -13.5t-28.5 -29.5t-48 -37t-68 -29.5t-88 -13.5q-129 0 -228.5 121t-99.5 297zM410 422q0 -53 31 -89t73 -36 q53 0 98 47.5t45 114.5q0 53 -30.5 89t-73.5 36q-52 0 -97.5 -48t-45.5 -114zM469 1270q14 93 91.5 159t176.5 66t158 -66t45 -159q-12 -93 -89.5 -159.5t-176.5 -66.5t-158 66.5t-47 159.5zM623 1270q-3 -31 19 -56.5t52 -25.5q31 0 60 25.5t32 56.5q5 31 -16.5 56.5 t-52.5 25.5t-60 -25.5t-34 -56.5z" />
<glyph unicode="&#xe6;" horiz-adv-x="1525" d="M-29 221q0 133 107.5 222t294.5 89q21 0 46.5 -2t44.5 -4t36 -4t26 -1t9 5q0 40 -25 64t-66 24q-27 0 -60 -15t-52 -31l-19 -15l-172 225q6 6 16.5 15.5t46 34.5t73.5 44t95.5 34.5t114.5 15.5q55 0 102 -12.5t75 -31t48 -36.5t28 -30l8 -13h20q5 5 14 13.5t41 29.5 t66.5 37t90 29.5t112.5 13.5q164 0 266 -88t102 -197q0 -104 -103.5 -186t-260.5 -82h-195q-5 -38 18.5 -65.5t61.5 -27.5q36 0 69.5 18t48.5 36l15 18l295 -164q-6 -9 -18.5 -24t-56.5 -54t-94.5 -68.5t-132.5 -54t-171 -24.5q-57 0 -106 12.5t-77.5 30.5t-49 36.5 t-27.5 31.5l-8 12h-21q-4 -5 -12.5 -13.5t-39.5 -29.5t-68 -37t-100.5 -29.5t-135.5 -13.5q-143 0 -231.5 78.5t-88.5 183.5zM379 283q0 -14 11 -25.5t24 -11.5q27 0 50.5 20.5t33.5 41.5l10 20h-82q-17 0 -32 -14t-15 -31zM928 553h73q22 0 39 13.5t17 27.5 q0 10 -13.5 20.5t-33.5 10.5q-23 0 -46.5 -21t-35.5 -51z" />
<glyph unicode="&#xe7;" horiz-adv-x="1034" d="M16 391q0 136 81 259t216.5 197.5t286.5 74.5q65 0 121.5 -13.5t95.5 -35.5t71 -48t51.5 -52t32.5 -48t18 -35l5 -14l-340 -164q-1 3 -3.5 8t-11.5 17t-20 21.5t-29 17.5t-38 8q-54 0 -99.5 -48t-45.5 -114q0 -53 31 -89t73 -36q36 0 70 20.5t50 40.5l15 21l295 -164 q-6 -9 -17 -24.5t-51 -55.5t-85.5 -72.5t-118.5 -62t-152 -37.5l-41 -86q79 -13 119.5 -61t40.5 -117q0 -90 -82 -160.5t-195 -70.5q-40 0 -74.5 8.5t-55.5 20t-36.5 23.5t-21.5 20l-6 9l119 123q37 -41 88 -41q25 0 47 21.5t22 46.5q0 22 -15 38.5t-34 16.5h-117l84 215 q-154 32 -249 150.5t-95 271.5z" />
<glyph unicode="&#xe8;" horiz-adv-x="1054" d="M16 391q0 135 80.5 258.5t211.5 198t272 74.5q97 0 176.5 -25.5t129 -66.5t76.5 -91t27 -102q0 -104 -103.5 -186t-260.5 -82h-195q-5 -38 18.5 -65.5t61.5 -27.5q36 0 69.5 18t48.5 36l15 18l295 -164q-6 -9 -18.5 -24t-56.5 -54t-94.5 -68.5t-132.5 -54t-171 -24.5 q-194 0 -321.5 127t-127.5 305zM436 1208l133 205l279 -184l-92 -154zM457 553h73q22 0 39 13.5t17 27.5q0 10 -13.5 20.5t-33.5 10.5q-23 0 -47 -21.5t-35 -50.5z" />
<glyph unicode="&#xe9;" horiz-adv-x="1054" d="M16 391q0 135 80.5 258.5t211.5 198t272 74.5q97 0 176.5 -25.5t129 -66.5t76.5 -91t27 -102q0 -104 -103.5 -186t-260.5 -82h-195q-5 -38 18.5 -65.5t61.5 -27.5q36 0 69.5 18t48.5 36l15 18l295 -164q-6 -9 -18.5 -24t-56.5 -54t-94.5 -68.5t-132.5 -54t-171 -24.5 q-194 0 -321.5 127t-127.5 305zM457 553h73q22 0 39 13.5t17 27.5q0 10 -13.5 20.5t-33.5 10.5q-23 0 -47 -21.5t-35 -50.5zM463 1249l332 185l75 -205l-358 -133z" />
<glyph unicode="&#xea;" horiz-adv-x="1054" d="M16 391q0 135 80.5 258.5t211.5 198t272 74.5q97 0 176.5 -25.5t129 -66.5t76.5 -91t27 -102q0 -104 -103.5 -186t-260.5 -82h-195q-5 -38 18.5 -65.5t61.5 -27.5q36 0 69.5 18t48.5 36l15 18l295 -164q-6 -9 -18.5 -24t-56.5 -54t-94.5 -68.5t-132.5 -54t-171 -24.5 q-194 0 -321.5 127t-127.5 305zM315 1229l334 184l281 -184l-94 -154l-222 92l-249 -92zM457 553h73q22 0 39 13.5t17 27.5q0 10 -13.5 20.5t-33.5 10.5q-23 0 -47 -21.5t-35 -50.5z" />
<glyph unicode="&#xeb;" horiz-adv-x="1054" d="M16 391q0 135 80.5 258.5t211.5 198t272 74.5q97 0 176.5 -25.5t129 -66.5t76.5 -91t27 -102q0 -104 -103.5 -186t-260.5 -82h-195q-5 -38 18.5 -65.5t61.5 -27.5q36 0 69.5 18t48.5 36l15 18l295 -164q-6 -9 -18.5 -24t-56.5 -54t-94.5 -68.5t-132.5 -54t-171 -24.5 q-194 0 -321.5 127t-127.5 305zM289 1251q0 67 48.5 114.5t115.5 47.5q56 0 90.5 -35t34.5 -90q0 -67 -48 -114.5t-116 -47.5q-55 0 -90 35.5t-35 89.5zM457 553h73q22 0 39 13.5t17 27.5q0 10 -13.5 20.5t-33.5 10.5q-23 0 -47 -21.5t-35 -50.5zM678 1251q0 67 48 114.5 t116 47.5q55 0 90 -35.5t35 -89.5q0 -67 -48.5 -114.5t-115.5 -47.5q-56 0 -90.5 35t-34.5 90z" />
<glyph unicode="&#xec;" horiz-adv-x="653" d="M10 0l123 881h389l-123 -881h-389zM168 1208l133 205l279 -184l-93 -154z" />
<glyph unicode="&#xed;" horiz-adv-x="653" d="M10 0l123 881h389l-123 -881h-389zM195 1249l331 185l76 -205l-358 -133z" />
<glyph unicode="&#xee;" horiz-adv-x="653" d="M10 0l123 881h389l-123 -881h-389zM70 1229l333 184l281 -184l-94 -154l-221 92l-250 -92z" />
<glyph unicode="&#xef;" horiz-adv-x="653" d="M10 0l123 881h389l-123 -881h-389zM66 1251q0 67 48.5 114.5t114.5 47.5q56 0 90.5 -35t34.5 -90q0 -67 -48 -114.5t-116 -47.5q-55 0 -89.5 35.5t-34.5 89.5zM455 1251q0 67 47.5 114.5t115.5 47.5q55 0 90 -35.5t35 -89.5q0 -67 -48.5 -114.5t-114.5 -47.5 q-56 0 -90.5 35t-34.5 90z" />
<glyph unicode="&#xf0;" horiz-adv-x="1105" d="M-6 371q0 104 42 199.5t109 163t153.5 107.5t174.5 40q23 0 45 -3.5t38.5 -9t31.5 -12t25.5 -13t18 -12t11.5 -9.5l4 -3h21q0 40 -9.5 78t-22.5 63.5t-26 45t-22 28.5l-10 10l-95 -81l-233 225l92 82l-90 82l280 245l91 -81l94 81l233 -225l-92 -82q3 -3 7.5 -8.5t19 -24 t27 -39.5t31 -54.5t31 -68t27 -81.5t19.5 -94.5t8 -106t-8 -117.5l-33 -233q-31 -216 -193 -360t-370 -144q-93 0 -174 33.5t-136.5 89.5t-87.5 131.5t-32 157.5zM385 403q0 -46 26 -76t62 -30q44 0 82.5 41t38.5 98q0 46 -26 76.5t-62 30.5q-44 0 -82.5 -41.5t-38.5 -98.5z " />
<glyph unicode="&#xf1;" d="M20 0l123 881h369l-10 -82h20q4 5 11.5 13.5t32.5 29.5t51.5 37t66.5 29.5t80 13.5q129 0 212 -116t58 -294l-71 -512h-390l72 512q5 31 -17 56.5t-53 25.5t-60.5 -25.5t-33.5 -56.5l-71 -512h-390zM393 1188q16 109 65.5 167t108.5 58q35 0 65.5 -18t55.5 -36t45 -18 q23 0 38 18t19 36l3 18l176 -61q-14 -109 -64.5 -167.5t-109.5 -58.5q-35 0 -65 18t-54.5 36t-44.5 18q-23 0 -38.5 -18t-19.5 -36l-4 -18z" />
<glyph unicode="&#xf2;" horiz-adv-x="1146" d="M23 440q17 127 100 237.5t211 177.5t268 67t249 -67t161 -177.5t35 -237.5q-14 -95 -66.5 -183t-129.5 -153.5t-178 -105t-206 -39.5q-140 0 -249.5 66.5t-161 177t-33.5 237.5zM412 440q-9 -60 23 -101.5t79 -41.5t90.5 41.5t52.5 101.5q7 60 -25 102t-79 42t-90.5 -42 t-50.5 -102zM436 1208l133 205l279 -184l-92 -154z" />
<glyph unicode="&#xf3;" horiz-adv-x="1146" d="M23 440q17 127 100 237.5t211 177.5t268 67t249 -67t161 -177.5t35 -237.5q-14 -95 -66.5 -183t-129.5 -153.5t-178 -105t-206 -39.5q-140 0 -249.5 66.5t-161 177t-33.5 237.5zM412 440q-9 -60 23 -101.5t79 -41.5t90.5 41.5t52.5 101.5q7 60 -25 102t-79 42t-90.5 -42 t-50.5 -102zM479 1229l332 184l76 -205l-359 -133z" />
<glyph unicode="&#xf4;" horiz-adv-x="1146" d="M23 440q17 127 100 237.5t211 177.5t268 67t249 -67t161 -177.5t35 -237.5q-14 -95 -66.5 -183t-129.5 -153.5t-178 -105t-206 -39.5q-140 0 -249.5 66.5t-161 177t-33.5 237.5zM336 1229l334 184l280 -184l-94 -154l-221 92l-250 -92zM412 440q-9 -60 23 -101.5 t79 -41.5t90.5 41.5t52.5 101.5q7 60 -25 102t-79 42t-90.5 -42t-50.5 -102z" />
<glyph unicode="&#xf5;" horiz-adv-x="1146" d="M23 440q17 127 100 237.5t211 177.5t268 67t249 -67t161 -177.5t35 -237.5q-14 -95 -66.5 -183t-129.5 -153.5t-178 -105t-206 -39.5q-140 0 -249.5 66.5t-161 177t-33.5 237.5zM379 1167q16 109 66 167.5t108 58.5q35 0 65.5 -18t55.5 -36t45 -18q23 0 37.5 18t17.5 36 l4 18l176 -62q-14 -108 -64.5 -166.5t-109.5 -58.5q-35 0 -65 18t-54.5 36t-44.5 18q-23 0 -38 -18t-19 -36l-4 -18zM412 440q-9 -60 23 -101.5t79 -41.5t90.5 41.5t52.5 101.5q7 60 -25 102t-79 42t-90.5 -42t-50.5 -102z" />
<glyph unicode="&#xf6;" horiz-adv-x="1146" d="M23 440q17 127 100 237.5t211 177.5t268 67t249 -67t161 -177.5t35 -237.5q-14 -95 -66.5 -183t-129.5 -153.5t-178 -105t-206 -39.5q-140 0 -249.5 66.5t-161 177t-33.5 237.5zM328 1231q0 67 48.5 114.5t115.5 47.5q56 0 90 -35t34 -90q0 -67 -47.5 -114.5 t-115.5 -47.5q-55 0 -90 35.5t-35 89.5zM412 440q-9 -60 23 -101.5t79 -41.5t90.5 41.5t52.5 101.5q7 60 -25 102t-79 42t-90.5 -42t-50.5 -102zM717 1231q0 67 48 114.5t116 47.5q55 0 90 -35.5t35 -89.5q0 -67 -48.5 -114.5t-115.5 -47.5q-56 0 -90.5 35t-34.5 90z" />
<glyph unicode="&#xf7;" horiz-adv-x="983" d="M41 430l43 307h819l-43 -307h-819zM229 162q0 84 64 145.5t149 61.5q76 0 122.5 -54t35.5 -131q-10 -76 -72 -130t-139 -54q-68 0 -114 47t-46 115zM342 961q0 84 64.5 145t148.5 61q76 0 122.5 -53.5t35.5 -130.5q-10 -76 -72 -130t-139 -54q-68 0 -114 47t-46 115z" />
<glyph unicode="&#xf8;" d="M-100 20l30 226l103 61q-8 25 -8 76q0 105 48.5 204.5t128 172.5t187 117.5t221.5 44.5q72 0 135 -17t102 -41t67.5 -48t40.5 -41l12 -17l219 102l-33 -225l-100 -62q6 -24 6 -75q0 -105 -48 -204t-127.5 -172.5t-187.5 -118t-221 -44.5q-72 0 -135 17t-101.5 41t-67 48 t-40.5 41l-12 17zM406 481l229 113q-37 20 -68 20q-61 0 -103.5 -35.5t-57.5 -97.5zM449 287q38 -21 69 -21q61 0 102.5 35t59.5 98z" />
<glyph unicode="&#xf9;" horiz-adv-x="1187" d="M72 369l71 512h389l-71 -512q-5 -31 16.5 -56.5t52.5 -25.5t61 25.5t34 56.5l71 512h389l-122 -881h-369l10 82h-20q-4 -5 -11.5 -13.5t-32.5 -29.5t-51.5 -37t-66.5 -29.5t-80 -13.5q-129 0 -212 116t-58 294zM436 1208l133 205l279 -184l-92 -154z" />
<glyph unicode="&#xfa;" horiz-adv-x="1187" d="M72 369l71 512h389l-71 -512q-5 -31 16.5 -56.5t52.5 -25.5t61 25.5t34 56.5l71 512h389l-122 -881h-369l10 82h-20q-4 -5 -11.5 -13.5t-32.5 -29.5t-51.5 -37t-66.5 -29.5t-80 -13.5q-129 0 -212 116t-58 294zM520 1229l332 184l76 -205l-359 -133z" />
<glyph unicode="&#xfb;" horiz-adv-x="1187" d="M72 369l71 512h389l-71 -512q-5 -31 16.5 -56.5t52.5 -25.5t61 25.5t34 56.5l71 512h389l-122 -881h-369l10 82h-20q-4 -5 -11.5 -13.5t-32.5 -29.5t-51.5 -37t-66.5 -29.5t-80 -13.5q-129 0 -212 116t-58 294zM360 1249l334 185l281 -185l-94 -153l-222 92l-249 -92z " />
<glyph unicode="&#xfc;" horiz-adv-x="1187" d="M72 369l71 512h389l-71 -512q-5 -31 16.5 -56.5t52.5 -25.5t61 25.5t34 56.5l71 512h389l-122 -881h-369l10 82h-20q-4 -5 -11.5 -13.5t-32.5 -29.5t-51.5 -37t-66.5 -29.5t-80 -13.5q-129 0 -212 116t-58 294zM350 1251q0 67 48.5 114.5t115.5 47.5q56 0 90.5 -35 t34.5 -90q0 -67 -48 -114.5t-116 -47.5q-55 0 -90 35.5t-35 89.5zM739 1251q0 67 48 114.5t116 47.5q55 0 90 -35.5t35 -89.5q0 -67 -48.5 -114.5t-115.5 -47.5q-56 0 -90.5 35t-34.5 90z" />
<glyph unicode="&#xfd;" horiz-adv-x="1064" d="M-63 -594l294 574l-211 901h410l66 -410h20l160 410h409l-759 -1475h-389zM418 1229l332 184l75 -205l-358 -133z" />
<glyph unicode="&#xfe;" horiz-adv-x="1187" d="M-63 -594l284 2028h389l-84 -594h21q3 3 9 8.5t26.5 20t43.5 25t60.5 19.5t77.5 9q129 0 228.5 -121t99.5 -297q0 -111 -44 -214.5t-112 -174.5t-150 -113.5t-157 -42.5q-40 0 -74.5 8.5t-55.5 20.5t-36 24t-21 20l-6 9h-20l-90 -635h-389zM449 422q0 -53 31 -89t73 -36 q47 0 90.5 41.5t52.5 101.5t-23 102t-79 42q-54 0 -99.5 -48t-45.5 -114z" />
<glyph unicode="&#xff;" horiz-adv-x="1064" d="M-63 -594l294 574l-211 901h410l66 -410h20l160 410h409l-759 -1475h-389zM268 1251q0 67 48.5 114.5t115.5 47.5q56 0 90.5 -35t34.5 -90q0 -67 -48 -114.5t-116 -47.5q-55 0 -90 35.5t-35 89.5zM657 1251q0 67 48 114.5t116 47.5q55 0 90 -35.5t35 -89.5 q0 -67 -48.5 -114.5t-115.5 -47.5q-56 0 -90.5 35t-34.5 90z" />
<glyph unicode="&#x152;" horiz-adv-x="1945" d="M74 639q0 156 70 302.5t187 254.5t276.5 173t330.5 65h983l-53 -390h-492l-20 -143h327l-51 -369h-327l-21 -143h512l-55 -389h-1004q-144 0 -269 51t-210.5 137.5t-134.5 203.5t-49 247zM549 676q0 -120 72.5 -203.5t171.5 -83.5h41l92 655h-41q-122 0 -229 -110 t-107 -258z" />
<glyph unicode="&#x153;" horiz-adv-x="1699" d="M16 391q0 136 81 259t216.5 197.5t286.5 74.5q69 0 126.5 -12.5t90 -31t55.5 -36.5t31 -30l8 -13h21q4 5 12 13.5t38.5 29.5t66.5 37t97 29.5t130 13.5q164 0 266.5 -88t102.5 -197q0 -104 -103.5 -186t-261.5 -82h-215q-5 -38 18.5 -65.5t61.5 -27.5q36 0 69.5 18 t48.5 36l15 18l295 -164q-6 -9 -18.5 -24t-56.5 -54t-94.5 -68.5t-132.5 -54t-171 -24.5q-57 0 -106 12.5t-77.5 30.5t-49 36.5t-28.5 31.5l-8 12h-20q-4 -5 -12 -13.5t-39 -29.5t-67 -37t-97.5 -29.5t-130.5 -13.5q-194 0 -321.5 127t-127.5 305zM408 422q0 -53 31 -89 t73 -36q54 0 99.5 48t45.5 114q0 53 -31 89t-73 36q-54 0 -99.5 -48t-45.5 -114zM1092 553h94q22 0 38.5 13.5t16.5 27.5q0 10 -13.5 20.5t-33.5 10.5q-37 0 -64 -20.5t-38 -51.5z" />
<glyph unicode="&#x178;" horiz-adv-x="1310" d="M78 1434h471l129 -471h20l260 471h472l-584 -942l-68 -492h-450l67 492zM467 1784q0 67 48.5 114.5t115.5 47.5q56 0 90.5 -35t34.5 -90q0 -67 -48 -114.5t-116 -47.5q-55 0 -90 35.5t-35 89.5zM856 1784q0 67 48 114.5t116 47.5q55 0 90 -35.5t35 -89.5 q0 -67 -48.5 -114.5t-115.5 -47.5q-56 0 -90.5 35t-34.5 90z" />
<glyph unicode="&#x2c6;" horiz-adv-x="737" d="M135 1249l334 185l281 -185l-95 -153l-221 92l-250 -92z" />
<glyph unicode="&#x2dc;" horiz-adv-x="675" d="M129 1208q16 109 66 167.5t108 58.5q35 0 65.5 -18t55.5 -36t45 -18q23 0 37.5 18t17.5 36l4 18l177 -62q-14 -108 -65 -166.5t-110 -58.5q-35 0 -65 18t-54 36t-44 18q-23 0 -38.5 -18t-19.5 -36l-4 -18z" />
<glyph unicode="&#x2000;" horiz-adv-x="1014" />
<glyph unicode="&#x2001;" horiz-adv-x="2028" />
<glyph unicode="&#x2002;" horiz-adv-x="1014" />
<glyph unicode="&#x2003;" horiz-adv-x="2028" />
<glyph unicode="&#x2004;" horiz-adv-x="676" />
<glyph unicode="&#x2005;" horiz-adv-x="507" />
<glyph unicode="&#x2006;" horiz-adv-x="338" />
<glyph unicode="&#x2007;" horiz-adv-x="338" />
<glyph unicode="&#x2008;" horiz-adv-x="253" />
<glyph unicode="&#x2009;" horiz-adv-x="405" />
<glyph unicode="&#x200a;" horiz-adv-x="112" />
<glyph unicode="&#x2010;" horiz-adv-x="901" d="M37 410l43 307h737l-43 -307h-737z" />
<glyph unicode="&#x2011;" horiz-adv-x="901" d="M37 410l43 307h737l-43 -307h-737z" />
<glyph unicode="&#x2012;" horiz-adv-x="901" d="M37 410l43 307h737l-43 -307h-737z" />
<glyph unicode="&#x2013;" horiz-adv-x="1085" d="M37 410l43 307h921l-43 -307h-921z" />
<glyph unicode="&#x2014;" horiz-adv-x="1413" d="M37 410l43 307h1249l-43 -307h-1249z" />
<glyph unicode="&#x2018;" horiz-adv-x="532" d="M121 1001q0 41 19 87.5t38 73.5l19 26l188 246h143l-147 -246q113 -29 113 -139q0 -86 -64 -147.5t-149 -61.5q-69 0 -114.5 46.5t-45.5 114.5z" />
<glyph unicode="&#x2019;" horiz-adv-x="532" d="M119 840l147 245q-112 29 -112 140q0 86 64 147.5t149 61.5q68 0 113.5 -47t45.5 -115q0 -41 -19 -87.5t-37 -72.5l-19 -27l-189 -245h-143z" />
<glyph unicode="&#x201a;" horiz-adv-x="532" d="M-35 -246l148 246q-113 29 -113 139q0 85 64.5 147t148.5 62q70 0 115 -47t45 -115q0 -41 -19 -87.5t-38 -72.5l-19 -26l-188 -246h-144z" />
<glyph unicode="&#x201c;" horiz-adv-x="942" d="M121 1001q0 41 19 87.5t38 73.5l19 26l188 246h143l-147 -246q113 -29 113 -139q0 -86 -64 -147.5t-149 -61.5q-69 0 -114.5 46.5t-45.5 114.5zM530 1001q0 41 19 87.5t38 73.5l19 26l189 246h143l-147 -246q112 -29 112 -139q0 -86 -64 -147.5t-149 -61.5 q-69 0 -114.5 46.5t-45.5 114.5z" />
<glyph unicode="&#x201d;" horiz-adv-x="942" d="M119 840l147 245q-112 29 -112 140q0 86 64 147.5t149 61.5q68 0 113.5 -47t45.5 -115q0 -41 -19 -87.5t-37 -72.5l-19 -27l-189 -245h-143zM528 840l148 245q-113 29 -113 140q0 86 64 147.5t149 61.5q68 0 114 -47t46 -115q0 -41 -19 -87.5t-38 -72.5l-19 -27 l-188 -245h-144z" />
<glyph unicode="&#x201e;" horiz-adv-x="942" d="M-35 -246l148 246q-113 29 -113 139q0 85 64.5 147t148.5 62q70 0 115 -47t45 -115q0 -41 -19 -87.5t-38 -72.5l-19 -26l-188 -246h-144zM375 -246l147 246q-112 29 -112 139q0 86 64 147.5t149 61.5q68 0 113.5 -47t45.5 -115q0 -41 -19 -87.5t-37 -72.5l-19 -26 l-189 -246h-143z" />
<glyph unicode="&#x2022;" horiz-adv-x="798" d="M90 489q0 126 96 218t222 92q116 0 185 -81t52 -196q-15 -115 -107 -195.5t-208 -80.5q-104 0 -172 70t-68 173z" />
<glyph unicode="&#x2026;" horiz-adv-x="1556" d="M0 141q0 84 64.5 145.5t148.5 61.5q70 0 115 -47t45 -115q0 -84 -64.5 -145t-148.5 -61q-70 0 -115 46.5t-45 114.5zM512 141q0 84 64 145.5t149 61.5q68 0 114 -47t46 -115q0 -84 -64 -145t-149 -61q-69 0 -114.5 46.5t-45.5 114.5zM1024 141q0 84 64.5 145.5 t148.5 61.5q70 0 115 -47t45 -115q0 -84 -64.5 -145t-148.5 -61q-70 0 -115 46.5t-45 114.5z" />
<glyph unicode="&#x202f;" horiz-adv-x="405" />
<glyph unicode="&#x2039;" horiz-adv-x="737" d="M-4 410l493 450l158 -184l-280 -256l-5 -21l211 -256l-211 -184z" />
<glyph unicode="&#x203a;" horiz-adv-x="757" d="M0 143l283 256l2 21l-209 256l209 184l366 -450l-493 -451z" />
<glyph unicode="&#x205f;" horiz-adv-x="507" />
<glyph unicode="&#x20ac;" horiz-adv-x="1617" d="M29 492l26 184h103l10 82h-102l26 184h133q50 103 129.5 196t183 169.5t236.5 122t273 45.5q96 0 180 -20.5t142 -53t105 -72t75 -78.5t47.5 -71.5t26.5 -53.5l7 -20l-375 -195q-3 7 -9.5 19t-30 42t-51 52.5t-73.5 41.5t-98 19q-97 0 -168.5 -43.5t-107.5 -99.5h338 l-27 -184h-410l-10 -82h410l-27 -184h-338q21 -57 80 -100.5t156 -43.5q57 0 113 20t94.5 49t69 57.5t44.5 48.5l15 20l319 -195q-5 -8 -13.5 -22t-41 -54.5t-70 -77t-99.5 -81.5t-130 -77.5t-162 -54.5t-194 -22q-140 0 -260 45.5t-202 122t-135.5 169.5t-74.5 196h-133z " />
<glyph unicode="&#x2122;" horiz-adv-x="1587" d="M102 1167l37 267h604l-36 -267h-164l-51 -368h-277l51 368h-164zM737 799l92 655h21l315 -307l402 307h20l-92 -655h-276l22 164h-10l-105 -82l-79 82h-11l-22 -164h-277z" />
<glyph unicode="&#x25fc;" horiz-adv-x="880" d="M0 0v881h881v-881h-881z" />
</font>
</defs>
</svg>
