<?xml version="1.0" encoding="utf-8"?>
<!-- Generator: Adobe Illustrator 16.0.3, SVG Export Plug-In . SVG Version: 6.00 Build 0)  -->
<!DOCTYPE svg PUBLIC "-//W3C//DTD SVG 1.1//EN" "http://www.w3.org/Graphics/SVG/1.1/DTD/svg11.dtd">
<svg version="1.1" id="Layer_1" xmlns="http://www.w3.org/2000/svg" xmlns:xlink="http://www.w3.org/1999/xlink" x="0px" y="0px"
	 width="53px" height="50px" viewBox="0 -10.1 53 50" style="enable-background:new 0 -10.1 53 50;" xml:space="preserve">
<style type="text/css">
<![CDATA[
	.st0{fill:#55B2A9;}
	.st1{fill:#FFFFFF;}
]]>
</style>
<rect y="-10.1" class="st0" width="53" height="50.1"/>
<g>
	<g>
		<path class="st1" d="M14.4,2.2c-3.3,5.8-1.3,9.5-0.7,11.6c0.5,1.6,3.1,4.6,5,6.8c-1.5-2-4.2-6-4.7-10.6C13.7,6.7,14,4.1,14.4,2.2z
			"/>
		<path class="st1" d="M38.6,2.2C39,4.1,39.3,6.7,39,10c-0.5,4.5-3.2,8.6-4.7,10.6c2-2.2,4.5-5.2,5-6.8C39.9,11.7,41.9,8,38.6,2.2z"
			/>
		<path class="st1" d="M33.6-2.2c-1.1-0.5-2.3-0.8-3.3-1c0.4,0.6,2.8,4.9,2.5,11.8c-0.3,7.5-4.4,17.5-4.4,17.5s-0.3,0.2-0.7,0.3
			c-0.5,0.1-0.7,0-0.7,0s0.3-1.8,0.4-3.4c0.1-1.7,0.9-6.2,1.4-14.9c0.4-7.9-0.9-11-1.1-11.5c-0.7,0-1.2,0-1.2,0s-0.5,0-1.2,0
			c-0.3,0.5-1.5,3.6-1.1,11.5c0.5,8.8,1.3,13.3,1.4,14.9c0.1,1.7,0.4,3.4,0.4,3.4s-0.3,0.1-0.7,0c-0.5-0.1-0.7-0.3-0.7-0.3
			s-4.1-10-4.4-17.5c-0.3-6.9,2.1-11.2,2.5-11.8c-1,0.2-2.2,0.5-3.3,1c-1,1.1-3.5,4.7-2.7,10.9c1,7.7,2.9,10,3.9,11.9
			c0.8,1.4,2,3.6,2.6,4.7c0.5,0.5,0.8,0.9,0.8,0.9s0.2,0.5,0.6,1.5c0.4,1,0.5,1.4,0.7,1.5s1.2,0.3,1.2,0.3s1-0.1,1.2-0.3
			c0.2-0.1,0.3-0.6,0.7-1.5c0.4-1,0.6-1.5,0.6-1.5s0.3-0.4,0.8-0.9c0.6-1.1,1.8-3.3,2.6-4.7c1-1.9,2.9-4.2,3.9-11.9
			C37.1,2.5,34.6-1,33.6-2.2z"/>
	</g>
	<path class="st1" d="M28,30.4h-0.5h-2H25c-0.2,0-0.3,0.1-0.3,0.3S24.8,31,25,31h0v1.8c0,0.3,0.2,0.5,0.5,0.5h2
		c0.3,0,0.5-0.2,0.5-0.5V31h0c0.2,0,0.3-0.1,0.3-0.3S28.2,30.4,28,30.4z"/>
</g>
</svg>
