<?xml version="1.0" encoding="utf-8"?>
<!-- Generator: Adobe Illustrator 16.0.3, SVG Export Plug-In . SVG Version: 6.00 Build 0)  -->
<!DOCTYPE svg PUBLIC "-//W3C//DTD SVG 1.1//EN" "http://www.w3.org/Graphics/SVG/1.1/DTD/svg11.dtd">
<svg version="1.1" id="Layer_1" xmlns="http://www.w3.org/2000/svg" xmlns:xlink="http://www.w3.org/1999/xlink" x="0px" y="0px"
	 width="367.1px" height="367.1px" viewBox="0 0 367.1 367.1" style="enable-background:new 0 0 367.1 367.1;" xml:space="preserve"
	>
<style type="text/css">
<![CDATA[
	.st0{fill:#55B2A9;}
	.st1{fill:#FFFFFF;}
]]>
</style>
<g>
	<circle class="st0" cx="183.6" cy="183.6" r="183.6"/>
	<g>
		<g>
			<path class="st1" d="M121.8,118.7c-17.1,29.5-6.7,48.3-3.4,59.2c2.5,8.1,15.6,23.5,25.6,34.6c-7.7-10-21.5-30.9-24.1-54
				C118,141.5,119.7,128.2,121.8,118.7z"/>
			<path class="st1" d="M245.4,118.7c2.1,9.5,3.8,22.8,1.9,39.7c-2.6,23.1-16.5,44-24.1,54c10.1-11.1,23.2-26.5,25.6-34.6
				C252.1,167,262.5,148.2,245.4,118.7z"/>
			<path class="st1" d="M219.9,96.4c-5.7-2.5-11.5-4.1-16.7-5c1.9,3.2,14.2,25.1,12.8,60.5c-1.5,38.5-22.7,89.3-22.7,89.3
				s-1.3,1.1-3.6,1.5c-2.4,0.4-3.6,0-3.6,0s1.5-9,2.1-17.5c0.6-8.5,4.7-31.6,7.1-76.3c2.1-40.5-4.5-56.4-5.8-59c-3.7-0.1-6,0-6,0
				s-2.3-0.2-6,0c-1.3,2.6-7.9,18.5-5.8,59c2.4,44.7,6.4,67.8,7.1,76.3c0.6,8.5,2.1,17.5,2.1,17.5s-1.3,0.4-3.6,0
				c-2.4-0.4-3.6-1.5-3.6-1.5s-21.2-50.9-22.7-89.3c-1.4-35.4,10.8-57.3,12.8-60.5c-5.2,1-11,2.5-16.7,5c-5.1,5.8-18,23.9-13.9,55.9
				c5.1,39.5,14.7,51.1,20.1,60.7c3.9,7,10.2,18.4,13.3,24c2.4,2.7,4,4.4,4,4.4s1.1,2.6,3,7.5c1.9,4.9,2.8,7.3,3.6,7.9
				s6.2,1.3,6.2,1.3s5.3-0.6,6.2-1.3c0.9-0.6,1.7-3,3.6-7.9c1.9-4.9,3-7.5,3-7.5s1.6-1.8,4-4.4c3.1-5.6,9.4-17,13.3-24
				c5.3-9.6,15-21.2,20.1-60.7C237.9,120.3,225,102.2,219.9,96.4z"/>
		</g>
		<path class="st1" d="M191.4,262.8h-2.7h-10.3h-2.7c-0.8,0-1.4,0.6-1.4,1.4s0.6,1.4,1.4,1.4h0.1v9.2c0,1.4,1.1,2.6,2.6,2.6h10.3
			c1.4,0,2.6-1.1,2.6-2.6v-9.2h0.1c0.8,0,1.4-0.6,1.4-1.4S192.1,262.8,191.4,262.8z"/>
	</g>
</g>
</svg>
