<?xml version="1.0" encoding="utf-8"?>
<!-- Generator: Adobe Illustrator 16.0.3, SVG Export Plug-In . SVG Version: 6.00 Build 0)  -->
<!DOCTYPE svg PUBLIC "-//W3C//DTD SVG 1.1//EN" "http://www.w3.org/Graphics/SVG/1.1/DTD/svg11.dtd">
<svg version="1.1" id="Layer_1" xmlns="http://www.w3.org/2000/svg" xmlns:xlink="http://www.w3.org/1999/xlink" x="0px" y="0px"
	 width="367.1px" height="367.1px" viewBox="0 0 367.1 367.1" style="enable-background:new 0 0 367.1 367.1;" xml:space="preserve"
	>
<style type="text/css">
<![CDATA[
	.st0{fill:#FFFFFF;}
	.st1{fill:#00A6CC;}
]]>
</style>
<circle class="st1" cx="183.6" cy="183.6" r="183.6"/>
<g>
	<path class="st0" d="M211.6,113.4h-56c-8.5,0-15.4,6.9-15.4,15.4v15.7c0,8.5,6.9,15.4,15.4,15.4h56c8.5,0,15.4-6.9,15.4-15.4v-15.7
		C227,120.3,220.1,113.4,211.6,113.4z M219.6,144.5c0,4.4-3.6,8-8,8h-56c-4.4,0-8-3.6-8-8v-15.7c0-4.4,3.6-8,8-8h56c4.4,0,8,3.6,8,8
		V144.5z"/>
	<path class="st0" d="M242.5,197.6c14.2,0,26.7-6.6,34.1-16.7v-3.2v-4.4v-21.6v-8.6c0-3.8-3-6.8-6.8-6.8H97.3c-3.8,0-6.8,3-6.8,6.8
		v8.6l0,0V181c7.4,10,19.9,16.7,34.1,16.7l0,0"/>
	<path class="st0" d="M242.5,205.7H124.6c-13.2,0-25.2-4.7-34.1-12.4v43.1l0,0v10.6c0,3.8,3,6.8,6.8,6.8h172.6c3.8,0,6.8-3,6.8-6.8
		v-10.6v-43.1C267.7,201,255.7,205.7,242.5,205.7z"/>
</g>
</svg>
