<?xml version="1.0" encoding="utf-8"?>
<!-- Generator: Adobe Illustrator 16.0.3, SVG Export Plug-In . SVG Version: 6.00 Build 0)  -->
<!DOCTYPE svg PUBLIC "-//W3C//DTD SVG 1.1//EN" "http://www.w3.org/Graphics/SVG/1.1/DTD/svg11.dtd">
<svg version="1.1" id="Layer_1" xmlns="http://www.w3.org/2000/svg" xmlns:xlink="http://www.w3.org/1999/xlink" x="0px" y="0px"
	 width="53px" height="50px" viewBox="0 -10.1 53 50" style="enable-background:new 0 -10.1 53 50;" xml:space="preserve">
<style type="text/css">
<![CDATA[
	.st0{fill:#FFFFFF;}
	.st1{fill:#00A6CC;}
]]>
</style>
<rect y="-10.1" class="st1" width="53" height="50.1"/>
<g>
	<path class="st0" d="M32.3-1.5H20.7c-1.8,0-3.2,1.4-3.2,3.2v3.3c0,1.8,1.4,3.2,3.2,3.2h11.6c1.8,0,3.2-1.4,3.2-3.2V1.7
		C35.5-0.1,34-1.5,32.3-1.5z M33.9,4.9c0,0.9-0.7,1.7-1.7,1.7H20.7c-0.9,0-1.7-0.7-1.7-1.7V1.7C19,0.7,19.7,0,20.7,0h11.6
		c0.9,0,1.7,0.7,1.7,1.7V4.9z"/>
	<path class="st0" d="M38.7,15.9c2.9,0,5.5-1.4,7.1-3.5v-0.7v-0.9V6.4V4.6c0-0.8-0.6-1.4-1.4-1.4H8.6c-0.8,0-1.4,0.6-1.4,1.4v1.8
		l0,0v6.1c1.5,2.1,4.1,3.5,7.1,3.5l0,0"/>
	<path class="st0" d="M38.7,17.6H14.2c-2.7,0-5.2-1-7.1-2.6V24l0,0v2.2c0,0.8,0.6,1.4,1.4,1.4h35.8c0.8,0,1.4-0.6,1.4-1.4V24V15
		C43.9,16.6,41.4,17.6,38.7,17.6z"/>
</g>
</svg>
