<?xml version="1.0" encoding="utf-8"?>
<!-- Generator: Adobe Illustrator 16.0.3, SVG Export Plug-In . SVG Version: 6.00 Build 0)  -->
<!DOCTYPE svg PUBLIC "-//W3C//DTD SVG 1.1//EN" "http://www.w3.org/Graphics/SVG/1.1/DTD/svg11.dtd">
<svg version="1.1" id="Layer_1" xmlns="http://www.w3.org/2000/svg" xmlns:xlink="http://www.w3.org/1999/xlink" x="0px" y="0px"
	 width="367.1px" height="367.1px" viewBox="0 0 367.1 367.1" style="enable-background:new 0 0 367.1 367.1;" xml:space="preserve"
	>
<style type="text/css">
<![CDATA[
	.st0{fill:#E93333;}
	.st1{fill:#FFFFFF;}
]]>
</style>
<g>
	<circle class="st0" cx="183.6" cy="183.6" r="183.6"/>
	<g>
		<path class="st1" d="M270.7,132.1H96.4c-3.8,0-6.9,3.1-6.9,6.9v30.5h76c7.1-11.9,20.2-20,35.1-20s28,8,35.1,20h41.8V139
			C277.6,135.2,274.5,132.1,270.7,132.1z"/>
		<path class="st1" d="M238,173.9c2.2,5,3.5,10.6,3.5,16.5c0,22.5-18.3,40.8-40.8,40.8c-22.5,0-40.8-18.3-40.8-40.8
			c0-5.9,1.2-11.4,3.5-16.5H89.6v69.8c0,3.8,3.1,6.9,6.9,6.9h174.3c3.8,0,6.9-3.1,6.9-6.9v-69.8H238z"/>
		<circle class="st1" cx="200.3" cy="190.5" r="26.2"/>
		<polygon class="st1" points="258,127.7 255.8,122.2 236.9,122.2 234.4,127.7 		"/>
		<polygon class="st1" points="130.4,127.7 128.8,122.2 115,122.2 113.1,127.7 		"/>
		<path class="st1" d="M207.7,116.6h-48.1l-6.5,11.4h60.2L207.7,116.6z M191.2,125.2h-16.1v-5.9h16.1V125.2z"/>
	</g>
</g>
</svg>
