<?xml version="1.0" encoding="utf-8"?>
<!-- Generator: Adobe Illustrator 16.0.3, SVG Export Plug-In . SVG Version: 6.00 Build 0)  -->
<!DOCTYPE svg PUBLIC "-//W3C//DTD SVG 1.1//EN" "http://www.w3.org/Graphics/SVG/1.1/DTD/svg11.dtd">
<svg version="1.1" id="Layer_1" xmlns="http://www.w3.org/2000/svg" xmlns:xlink="http://www.w3.org/1999/xlink" x="0px" y="0px"
	 width="53px" height="50px" viewBox="0 -10.1 53 50" style="enable-background:new 0 -10.1 53 50;" xml:space="preserve">
<style type="text/css">
<![CDATA[
	.st0{fill:#E587A2;}
	.st1{fill:#FFFFFF;}
]]>
</style>
<rect y="-10.1" class="st0" width="53" height="50.1"/>
<g>
	<path class="st1" d="M40.6,22.2v1.7c0,2.6-6.5,4.8-14.6,4.8c-3.2,0-6.1-0.3-8.5-0.9c2.6,0.8,6.2,1.4,10.2,1.4
		c8.1,0,14.6-2.1,14.6-4.8C42.2,23.6,41.6,22.8,40.6,22.2z"/>
	<path class="st1" d="M40,19.7v0.6c0,2.6-6.5,4.8-14.6,4.8c-6.4,0-11.8-1.3-13.8-3.2c1.1,2.3,7.1,4,14.4,4c8.1,0,14.6-2.1,14.6-4.8
		C40.6,20.6,40.4,20.1,40,19.7z"/>
	<path class="st1" d="M26,21c-8.1,0-14.6-2.1-14.6-4.8V16c-0.4,0.4-0.6,0.9-0.6,1.4c0,2.6,6.5,4.8,14.6,4.8c7.7,0,14-1.9,14.6-4.4
		C38.1,19.6,32.5,21,26,21z"/>
	<path class="st1" d="M26.5,17.3c-8.1,0-14.6-2.1-14.6-4.8v-0.5c-0.4,0.4-0.5,0.8-0.5,1.3c0,2.6,6.5,4.8,14.6,4.8
		c7.4,0,13.6-1.8,14.5-4.2C38.6,15.9,33.1,17.3,26.5,17.3z"/>
	<path class="st1" d="M40,7.8v0.5c0,2.6-6.5,4.8-14.6,4.8c-5.9,0-11-1.2-13.3-2.8c0.9,2.4,7,4.2,14.5,4.2c8.1,0,14.6-2.1,14.6-4.8
		C41.1,9,40.7,8.4,40,7.8z"/>
	<ellipse class="st1" cx="25.4" cy="5.5" rx="14.6" ry="4.8"/>
</g>
</svg>
