<?xml version="1.0" encoding="utf-8"?>
<!-- Generator: Adobe Illustrator 16.0.3, SVG Export Plug-In . SVG Version: 6.00 Build 0)  -->
<!DOCTYPE svg PUBLIC "-//W3C//DTD SVG 1.1//EN" "http://www.w3.org/Graphics/SVG/1.1/DTD/svg11.dtd">
<svg version="1.1" id="Layer_1" xmlns="http://www.w3.org/2000/svg" xmlns:xlink="http://www.w3.org/1999/xlink" x="0px" y="0px"
	 width="367.1px" height="367.1px" viewBox="0 0 367.1 367.1" style="enable-background:new 0 0 367.1 367.1;" xml:space="preserve"
	>
<style type="text/css">
<![CDATA[
	.st0{fill:#E587A2;}
	.st1{fill:#FFFFFF;}
]]>
</style>
<g>
	<circle class="st0" cx="183.6" cy="183.6" r="183.6"/>
	<g>
		<path class="st1" d="M272.8,231.1v11c0,16.6-41.2,30-91.9,30c-20.1,0-38.7-2.1-53.8-5.7c16.6,5.3,39.2,8.5,64.1,8.5
			c50.8,0,91.9-13.4,91.9-30C283.2,240,279.4,235.3,272.8,231.1z"/>
		<path class="st1" d="M268.9,215.3v3.6c0,16.6-41.2,30-91.9,30c-40.2,0-74.3-8.4-86.8-20.1c7,14.3,45,25.2,90.8,25.2
			c50.8,0,91.9-13.4,91.9-30C272.8,221,271.4,218.1,268.9,215.3z"/>
		<path class="st1" d="M180.9,224c-50.8,0-91.9-13.4-91.9-30v-1.9c-2.6,2.8-3.9,5.7-3.9,8.7c0,16.6,41.2,30,91.9,30
			c48.5,0,88.3-12.3,91.7-27.8C257,215.2,222.1,224,180.9,224z"/>
		<path class="st1" d="M184.3,200.8c-50.8,0-91.9-13.4-91.9-30v-3c-2.2,2.6-3.4,5.3-3.4,8.1c0,16.6,41.2,30,91.9,30
			c46.8,0,85.4-11.4,91.2-26.2C260.4,191.9,225.5,200.8,184.3,200.8z"/>
		<path class="st1" d="M268.9,140.9v3.2c0,16.6-41.2,30-91.9,30c-37.3,0-69.5-7.3-83.9-17.7c5.6,14.8,44.3,26.3,91.2,26.3
			c50.8,0,91.9-13.4,91.9-30C276.2,148.5,273.6,144.5,268.9,140.9z"/>
		<ellipse class="st1" cx="177" cy="126" rx="91.9" ry="30"/>
	</g>
</g>
</svg>
