<?xml version="1.0" encoding="utf-8"?>
<!-- Generator: Adobe Illustrator 16.0.3, SVG Export Plug-In . SVG Version: 6.00 Build 0)  -->
<!DOCTYPE svg PUBLIC "-//W3C//DTD SVG 1.1//EN" "http://www.w3.org/Graphics/SVG/1.1/DTD/svg11.dtd">
<svg version="1.1" id="Layer_1" xmlns="http://www.w3.org/2000/svg" xmlns:xlink="http://www.w3.org/1999/xlink" x="0px" y="0px"
	 width="367.1px" height="367.1px" viewBox="0 0 367.1 367.1" style="enable-background:new 0 0 367.1 367.1;" xml:space="preserve"
	>
<style type="text/css">
<![CDATA[
	.st0{fill:#FFFFFF;}
	.st1{fill:#D82157;}
]]>
</style>
<g>
	<circle class="st1" cx="183.6" cy="183.6" r="183.6"/>
	<g>
		<path class="st0" d="M224.7,208.8c-6.1,0-11.8-4.4-13.1-10.2l-4.7-20.7l-15,70.6c-1.3,6.1-6.3,10.1-12.5,10.1
			c-6.1,0-11.6-3.9-13.5-9.5l-13.6-40.4h-21.8c-7.6,0-13.3-5.8-13.3-13.5s5.7-13.5,13.3-13.5H162c5.9,0,11,3.8,12.9,9.6l1,2.9
			l17.5-82.2c1.3-6.1,6.5-10.1,13-10.1c6.5,0,11.8,4,13.2,10l16,69.8h29.3c13.6-21.5,11-50.3-7.8-69c-21.8-21.8-57-21.8-78.8,0
			l-0.1-0.1l-0.1,0.1c-21.8-21.7-57-21.6-78.7,0.1c-21.8,21.8-21.8,57,0,78.8l-0.1,0.1l39.4,39.4l39.5,39.5l39.6-39.6l22.3-22.3
			H224.7z"/>
		<path class="st0" d="M304.9,187.8c-24.7,0-49.4,0-74.2,0c-5.7-24.8-11.3-49.7-17-74.5c-1.6-7.1-12.9-7.2-14.5,0
			c-7.3,34.6-14.7,69.1-22,103.7c-2.7-7.9-5.3-15.8-8-23.7c-1.1-3.2-3.8-5.5-7.2-5.5c-10.5,0-21,0-31.5,0c-9.7,0-9.7,15,0,15
			c8.7,0,17.4,0,26.1,0c5,14.8,10,29.7,15,44.5c2.2,6.6,12.8,7.7,14.5,0c6.9-32.4,13.8-64.8,20.6-97.2c3.6,15.7,7.2,31.5,10.8,47.2
			c0.7,3.2,4,5.5,7.2,5.5c26.7,0,53.4,0,80.2,0C314.5,202.8,314.5,187.8,304.9,187.8z"/>
	</g>
</g>
</svg>
