<?xml version="1.0" encoding="utf-8"?>
<!-- Generator: Adobe Illustrator 16.0.3, SVG Export Plug-In . SVG Version: 6.00 Build 0)  -->
<!DOCTYPE svg PUBLIC "-//W3C//DTD SVG 1.1//EN" "http://www.w3.org/Graphics/SVG/1.1/DTD/svg11.dtd">
<svg version="1.1" id="Layer_1" xmlns="http://www.w3.org/2000/svg" xmlns:xlink="http://www.w3.org/1999/xlink" x="0px" y="0px"
	 width="53px" height="50px" viewBox="0 -10.1 53 50" style="enable-background:new 0 -10.1 53 50;" xml:space="preserve">
<style type="text/css">
<![CDATA[
	.st0{fill:#F29020;}
	.st1{fill:#FFFFFF;}
]]>
</style>
<rect y="-10.1" class="st0" width="53" height="50.1"/>
<path class="st1" d="M40.8,0.6L40.8,0.6L40.8,0.6L40.8,0.6c-0.2,0-2.1-0.1-3.5,1.4c-1.5,1.5-4.6,4.6-4.6,4.6s-1,1.3-2,1.2
	S17.9,5,17.9,5S15.1,4.2,14,4.2c-1.1,0-1.8,0.5-1.8,0.8c0,0.3,3.3,1.5,4.5,2.1S23,9.6,24,10.3s2.6,2.1,2.6,2.1s-3.3,3.6-4.6,4.9
	c-1.3,1.4-2,2.4-2.6,3.1c-0.6,0.8-0.8,1.2-1,1.3c-0.3,0-4.2-0.9-4.9-0.7c-0.8,0.2-1.3,0.7-1,1s4.2,2.3,4.2,2.3s-0.3,0.4-0.6,1
	c-0.2,0.3-0.2,0.5-0.3,0.5l0,0c0,0,0,0,0,0c0,0,0,0,0,0l0,0c0,0,0.2-0.1,0.5-0.3c0.5-0.3,1-0.6,1-0.6s2.1,4,2.3,4.2s0.8-0.3,1-1
	c0.2-0.8-0.8-4.7-0.7-4.9s0.5-0.4,1.3-1c0.8-0.6,1.8-1.3,3.1-2.6c1.4-1.3,4.9-4.6,4.9-4.6s1.4,1.5,2.1,2.6c0.7,1.1,2.7,6.2,3.2,7.3
	s1.8,4.5,2.1,4.5c0.3,0,0.7-0.7,0.8-1.8c0-1.1-0.8-3.9-0.8-3.9s-2.8-11.8-2.9-12.7c-0.1-1,1.3-2,1.3-2s3.1-3.1,4.6-4.6
	C40.9,2.7,40.8,0.8,40.8,0.6L40.8,0.6z"/>
</svg>
