<?xml version="1.0" encoding="utf-8"?>
<!-- Generator: Adobe Illustrator 16.0.3, SVG Export Plug-In . SVG Version: 6.00 Build 0)  -->
<!DOCTYPE svg PUBLIC "-//W3C//DTD SVG 1.1//EN" "http://www.w3.org/Graphics/SVG/1.1/DTD/svg11.dtd">
<svg version="1.1" id="Layer_1" xmlns="http://www.w3.org/2000/svg" xmlns:xlink="http://www.w3.org/1999/xlink" x="0px" y="0px"
	 width="53px" height="50px" viewBox="0 -10.1 53 50" style="enable-background:new 0 -10.1 53 50;" xml:space="preserve">
<style type="text/css">
<![CDATA[
	.st0{fill:#60BB51;}
	.st1{fill:#FFFFFF;}
]]>
</style>
<rect y="-10.1" class="st0" width="53" height="50.1"/>
<g>
	<path class="st1" d="M26.5,7.5c-6.9,0-11.2,2.8-11.2,4.8v13.8c0,2,4.2,4.8,11.2,4.8c6.9,0,11.2-2.8,11.2-4.8V12.3
		C37.7,10.3,33.4,7.5,26.5,7.5z M34.5,28.4c-2.1,1-5,1.6-8,1.6s-5.9-0.6-8-1.6c-2-1-2.7-2.1-2.7-2.6s0.7-1.6,2.7-2.6
		c2.1-1,5-1.6,8-1.6s5.9,0.6,8,1.6c2,1,2.7,2.1,2.7,2.6S36.5,27.4,34.5,28.4z"/>
	<path class="st1" d="M14.7,12.3c0-3.2,5.3-5.7,11.8-5.7s11.8,2.6,11.8,5.7v7.2L53,10.8L26.4-5.1L0,10.8l14.7,8.8V12.3z"/>
	<path class="st1" d="M6.9,28.5c0-1.3-0.5-2.4-1.2-2.9c0.5-0.4,0.9-1.2,0.9-2.2c0-1.3-0.7-2.4-1.6-2.5v-6.4l-0.3-0.2v6.6
		c-0.9,0.1-1.6,1.2-1.6,2.5c0,0.9,0.4,1.8,0.9,2.2c-0.7,0.5-1.2,1.6-1.2,2.9l0,0l-0.2,5.4c0,0.6,1,1,2.3,1c1.2,0,2.3-0.5,2.3-1
		L6.9,28.5z"/>
</g>
</svg>
