<?xml version="1.0" encoding="utf-8"?>
<!-- Generator: Adobe Illustrator 16.0.3, SVG Export Plug-In . SVG Version: 6.00 Build 0)  -->
<!DOCTYPE svg PUBLIC "-//W3C//DTD SVG 1.1//EN" "http://www.w3.org/Graphics/SVG/1.1/DTD/svg11.dtd">
<svg version="1.1" id="Layer_1" xmlns="http://www.w3.org/2000/svg" xmlns:xlink="http://www.w3.org/1999/xlink" x="0px" y="0px"
	 width="53px" height="50px" viewBox="0 -10.1 53 50" style="enable-background:new 0 -10.1 53 50;" xml:space="preserve">
<style type="text/css">
<![CDATA[
	.st0{fill:#E93333;}
	.st1{fill:#FFFFFF;}
]]>
</style>
<rect y="-10.1" class="st0" width="53" height="50.1"/>
<g>
	<path class="st1" d="M45.8,3.5H7.2c-0.8,0-1.5,0.7-1.5,1.5v6.7h16.8c1.6-2.6,4.5-4.4,7.8-4.4c3.3,0,6.2,1.8,7.8,4.4h9.2V5.1
		C47.3,4.2,46.6,3.5,45.8,3.5z"/>
	<path class="st1" d="M38.5,12.8c0.5,1.1,0.8,2.3,0.8,3.6c0,5-4,9-9,9s-9-4-9-9c0-1.3,0.3-2.5,0.8-3.6H5.7v15.4
		c0,0.8,0.7,1.5,1.5,1.5h38.5c0.8,0,1.5-0.7,1.5-1.5V12.8H38.5z"/>
	<circle class="st1" cx="30.2" cy="16.4" r="5.8"/>
	<polygon class="st1" points="42.9,2.6 42.5,1.3 38.3,1.3 37.7,2.6 	"/>
	<polygon class="st1" points="14.7,2.6 14.4,1.3 11.3,1.3 10.9,2.6 	"/>
	<path class="st1" d="M31.8,0.1H21.2l-1.4,2.5h13.3L31.8,0.1z M28.2,2h-3.6V0.7h3.6V2z"/>
</g>
</svg>
