<?xml version="1.0" encoding="utf-8"?>
<!-- Generator: Adobe Illustrator 16.0.3, SVG Export Plug-In . SVG Version: 6.00 Build 0)  -->
<!DOCTYPE svg PUBLIC "-//W3C//DTD SVG 1.1//EN" "http://www.w3.org/Graphics/SVG/1.1/DTD/svg11.dtd">
<svg version="1.1" id="Layer_1" xmlns="http://www.w3.org/2000/svg" xmlns:xlink="http://www.w3.org/1999/xlink" x="0px" y="0px"
	 width="53px" height="40px" viewBox="0 0 53 40" style="enable-background:new 0 0 53 40;" xml:space="preserve">
<style type="text/css">
<![CDATA[
	.st0{fill:#FFFFFF;}
]]>
</style>
<g>
	<path class="st0" d="M26.5,12.6c-6.9,0-11.2,2.8-11.2,4.8v13.8c0,2,4.2,4.8,11.2,4.8c6.9,0,11.2-2.8,11.2-4.8V17.4
		C37.7,15.4,33.4,12.6,26.5,12.6z M34.5,33.5c-2.1,1-5,1.6-8,1.6c-3,0-5.9-0.6-8-1.6c-2-1-2.7-2.1-2.7-2.6s0.7-1.6,2.7-2.6
		c2.1-1,5-1.6,8-1.6c3,0,5.9,0.6,8,1.6c2,1,2.7,2.1,2.7,2.6S36.5,32.5,34.5,33.5z"/>
	<path class="st0" d="M14.7,17.4c0-3.2,5.3-5.7,11.8-5.7c6.5,0,11.8,2.6,11.8,5.7v7.2L53,15.9L26.4,0L0,15.9l14.7,8.8V17.4z"/>
	<path class="st0" d="M6.9,33.6c0-1.3-0.5-2.4-1.2-2.9c0.5-0.4,0.9-1.2,0.9-2.2c0-1.3-0.7-2.4-1.6-2.5v-6.4l-0.3-0.2V26
		c-0.9,0.1-1.6,1.2-1.6,2.5c0,0.9,0.4,1.8,0.9,2.2c-0.7,0.5-1.2,1.6-1.2,2.9h0L2.6,39c0,0.6,1,1,2.3,1c1.2,0,2.3-0.5,2.3-1L6.9,33.6
		z"/>
</g>
</svg>
