<?xml version="1.0" encoding="utf-8"?>
<!-- Generator: Adobe Illustrator 16.0.3, SVG Export Plug-In . SVG Version: 6.00 Build 0)  -->
<!DOCTYPE svg PUBLIC "-//W3C//DTD SVG 1.1//EN" "http://www.w3.org/Graphics/SVG/1.1/DTD/svg11.dtd">
<svg version="1.1" id="Layer_1" xmlns="http://www.w3.org/2000/svg" xmlns:xlink="http://www.w3.org/1999/xlink" x="0px" y="0px"
	 width="367.1px" height="367.1px" viewBox="0 0 367.1 367.1" style="enable-background:new 0 0 367.1 367.1;" xml:space="preserve"
	>
<style type="text/css">
<![CDATA[
	.st0{fill:#60BB51;}
	.st1{fill:#FFFFFF;}
]]>
</style>
<g>
	<circle class="st0" cx="183.6" cy="183.6" r="183.6"/>
	<g>
		<path class="st1" d="M183.6,158c-24,0-38.8,9.7-38.8,16.7v48c0,7,14.8,16.7,38.8,16.7c24,0,38.8-9.7,38.8-16.7v-48
			C222.4,167.7,207.6,158,183.6,158z M211.3,230.3c-7.4,3.6-17.2,5.5-27.8,5.5c-10.5,0-20.4-2-27.8-5.5c-6.9-3.4-9.4-7.2-9.4-8.9
			s2.5-5.6,9.4-8.9c7.4-3.6,17.2-5.5,27.8-5.5c10.5,0,20.4,2,27.8,5.5c6.9,3.4,9.4,7.2,9.4,8.9S218.3,226.9,211.3,230.3z"/>
		<path class="st1" d="M142.6,174.7c0-11,18.4-19.8,41-19.8c22.6,0,41,8.9,41,19.8v25.1l51.1-30.5l-92.3-55.2l-91.9,55.2l51.1,30.7
			V174.7z"/>
		<path class="st1" d="M115.4,230.8c0-4.5-1.7-8.4-4.2-10.1c1.9-1.5,3.1-4.3,3.1-7.6c0-4.5-2.4-8.3-5.5-8.6v-22.3l-1-0.7v23.1
			c-3.1,0.4-5.5,4.1-5.5,8.6c0,3.3,1.3,6.1,3.1,7.6c-2.5,1.7-4.2,5.6-4.2,10.1h0l-0.7,18.7c0,1.9,3.5,3.5,7.8,3.5
			c4.3,0,7.8-1.6,7.8-3.5L115.4,230.8z"/>
	</g>
</g>
</svg>
