<?xml version="1.0" encoding="utf-8"?>
<!-- Generator: Adobe Illustrator 16.0.3, SVG Export Plug-In . SVG Version: 6.00 Build 0)  -->
<!DOCTYPE svg PUBLIC "-//W3C//DTD SVG 1.1//EN" "http://www.w3.org/Graphics/SVG/1.1/DTD/svg11.dtd">
<svg version="1.1" id="Layer_1" xmlns="http://www.w3.org/2000/svg" xmlns:xlink="http://www.w3.org/1999/xlink" x="0px" y="0px"
	 width="53px" height="50px" viewBox="0 0 53 50" style="enable-background:new 0 0 53 50;" xml:space="preserve">
<style type="text/css">
<![CDATA[
	.st0{fill:#FFFFFF;}
	.st1{fill:#A4CD3A;}
]]>
</style>
<rect y="-0.1" class="st1" width="53" height="50.1"/>
<polygon class="st0" points="38.1,11.4 36,11.4 36,13.5 36,16.5 33.1,16.5 33.1,16.5 30.9,16.5 30.9,16.5 30.9,16.5 30.9,16.5 
	30.9,18.6 30.9,21.5 25.9,21.5 25.9,21.5 25.9,21.5 25.9,23.7 25.9,26.5 20.9,26.5 20.9,26.6 20.9,26.6 20.8,26.6 20.8,26.6 
	20.8,28.7 20.8,31.6 15.8,31.6 15.8,31.6 15.8,33.8 15.8,36.7 10.8,36.7 10.8,38.8 15.8,38.8 18,38.8 18,36.7 18,33.8 20.8,33.8 
	20.8,33.8 23,33.8 23,33.8 23,33.8 23,33.8 23,31.6 23,28.7 28,28.7 28,28.7 28.1,28.7 28.1,26.5 28.1,23.7 33.1,23.7 33.1,23.6 
	33.1,23.6 33.1,23.6 33.1,23.6 33.1,21.5 33.1,18.6 38.1,18.6 38.1,18.6 38.1,16.5 38.1,13.5 43.2,13.5 43.2,11.4 "/>
</svg>
