<?xml version="1.0" encoding="utf-8"?>
<!-- Generator: Adobe Illustrator 16.0.3, SVG Export Plug-In . SVG Version: 6.00 Build 0)  -->
<!DOCTYPE svg PUBLIC "-//W3C//DTD SVG 1.1//EN" "http://www.w3.org/Graphics/SVG/1.1/DTD/svg11.dtd">
<svg version="1.1" id="Layer_1" xmlns="http://www.w3.org/2000/svg" xmlns:xlink="http://www.w3.org/1999/xlink" x="0px" y="0px"
	 width="367.1px" height="367.1px" viewBox="0 0 367.1 367.1" style="enable-background:new 0 0 367.1 367.1;" xml:space="preserve"
	>
<style type="text/css">
<![CDATA[
	.st0{fill:#FFFFFF;}
	.st1{fill:#A3CD3A;}
]]>
</style>
<circle class="st1" cx="184.7" cy="184.5" r="183.6"/>
<polygon class="st0" points="240.2,117.7 228.9,117.7 228.9,129 228.9,144.1 214,144.1 214,144.1 202.8,144.1 202.8,144.1 
	202.6,144.1 202.6,144.1 202.6,155.4 202.6,170.4 176.5,170.4 176.5,170.5 176.4,170.5 176.4,181.8 176.4,196.8 150.2,196.8 
	150.2,196.9 150.2,196.9 150.1,196.9 150.1,196.9 150.1,208.2 150.1,223.2 123.9,223.2 123.9,223.3 123.9,234.4 123.9,249.6 
	97.7,249.6 97.7,260.8 123.9,260.8 135.2,260.8 135.2,249.6 135.2,234.4 150.1,234.4 150.1,234.4 161.3,234.4 161.3,234.4 
	161.5,234.4 161.5,234.4 161.5,223.2 161.5,208.2 187.6,208.2 187.6,208 187.7,208 187.7,196.8 187.7,181.8 213.9,181.8 
	213.9,181.6 213.9,181.6 214,181.6 214,181.6 214,170.4 214,155.4 240.2,155.4 240.2,155.2 240.2,144.1 240.2,129 266.4,129 
	266.4,117.7 "/>
</svg>
