<?xml version="1.0" encoding="utf-8"?>
<!-- Generator: Adobe Illustrator 16.0.0, SVG Export Plug-In . SVG Version: 6.00 Build 0)  -->
<!DOCTYPE svg PUBLIC "-//W3C//DTD SVG 1.1//EN" "http://www.w3.org/Graphics/SVG/1.1/DTD/svg11.dtd">
<svg version="1.1" id="Layer_1" xmlns="http://www.w3.org/2000/svg" xmlns:xlink="http://www.w3.org/1999/xlink" x="0px" y="0px"
	 width="80.6px" height="83px" viewBox="0 0 80.6 83" style="enable-background:new 0 0 80.6 83;" xml:space="preserve">
<style type="text/css">
<![CDATA[
	.st0{fill:#fff;}
]]>
</style>
<path class="st0" d="M79.6,22.8c-0.2-1.8-0.6-2.5-0.7-3.2c-0.1-0.7-0.7-1.7-2.5-6c-1.7-4.3-6.2-9-7.1-9.7C68.4,3.2,67,3,66.9,3.2
	C66.8,3.4,69.2,6,71,8.4c1.7,2.5,2.3,4.4,2.9,6.1c0.6,1.7-0.1,3,0.5,5.2c0.6,2.2,0.7,5.7,0.7,5.7s-0.7-0.4-1.6-0.7s-0.7-0.7-1.3-0.9
	c-0.6-0.3-1.2-0.7-2.3-1.4c-1.2-0.7-4.4-1.7-6-2.3c-1.5-0.6-3.5-2.5-5-3.3c-1.5-0.9-2.5-1.2-2.8-0.9c-0.3,0.4,0.7,1.5,1.5,1.9
	c0.7,0.4,2,1.8,2.8,2.5c0.7,0.7,2.1,1.6,3.9,2.8c1.8,1.2,4.7,2.5,5.5,2.8c0.8,0.3,0.5,0.4,1.6,1.2c1.1,0.8,3.9,2.5,3.9,2.5
	s-0.2,0.5-0.7,2.3c-0.4,1.7-2.1,3.6-3,4.8s-6.3,2.8-7.9,3.2c-1.5,0.4-2.7,0.3-3.7,0.4c-1,0.1-1,0.5-3.2,1.2c-2.2,0.7-3.2-0.3-4-1.2
	c-0.8-0.9,0.4-3.3,0.6-4.1c0.1-0.8-0.1-1.9-0.6-2c-0.4-0.1-0.4,0.7-0.7,1.7c-0.2,0.9-1.1,1.5-1.9,3.3c-0.8,1.8-0.7,3.6-0.7,3.6
	L48,44c0,0-1.5-0.9-2.3-0.9c-0.8,0-1.7,0.4-2.5,1.1c-0.8,0.7-2.1,0.7-2.5,0.7c-0.4,0-1.7-0.4-2.3-0.4S36.9,45,36.5,45s-1-0.4-2-1
	c-1-0.7-1.7-1.4-2.9-1.4c-1.2,0-2.4,1.1-2.4,1.1s-1.6-1.8-1.9-2.4c-0.3-0.6,0-2.3,0-3.5c0-1.2-0.4-1.2-0.6-2.5
	c-0.1-1.2,0.7-4.1,0.4-4.2c-0.4-0.1-1.5,2.1-2,3.8c-0.4,1.7-0.4,5.2-0.4,5.2s-1.6,0.1-4.2-0.3C17.9,39.4,9.9,35.9,9.2,35
	c-0.7-0.9-2.6-6.8-2.6-6.8s0.9-1,1.9-1.6c1-0.6,2.9-1.7,5.5-3.3c2.6-1.6,8-6.5,7.6-7.3c-0.4-0.7-3.3,1.6-4.4,2.2
	c-1,0.6-2.5,1.5-3.2,1.9c-0.7,0.4-2.9,1.2-3.8,1.6C9.3,22.1,7.4,23,7.4,23s-0.3-3.9,1-10.5C9.7,6,15.2,0.9,14.9,0.1
	c-0.3-0.7-4.1,2.8-4.1,2.8s0,0-0.4,0S8.2,6.8,8.2,6.8S7.3,7.8,7,8.3C6.7,8.7,5.7,11.6,4.7,14c-1,2.3-2.3,3.9-3.9,7.7
	c-1.6,3.8-0.3,9.6,0,11.1c0.3,1.5,2.5,4.5,2.5,4.5s0,0-0.9,1.2S3.9,46.2,5.6,50c1.7,3.8,7.7,6.8,10,7.1c2.3,0.3,5.7,0.4,6.3,1.3
	c0.6,0.9,0,0,0.1,1s3.1,2,3.3,3.6c0.3,1.6-0.7,3.8-0.7,3.8c0,0.6,0.6,0.9,1.2,2c0.6,1.2,0,3.8,0,4.5c0,0.7,0.9,3.2,0.9,3.2l1.6,5.7
	V83H62c-1.3-2.8-2.8-5.8-3.6-7c-1.5-2.4-1.2-4.5-2.5-8.1c-1.3-3.6-2.5-5.7-2.6-6.2c-0.1-0.5,1.3-0.9,2-1.5c0.7-0.6,0.7-1.7,0.7-1.7
	s3.8-0.1,5.7,0.2c2,0.4,4.9-1.2,8.6-4.8c3.6-3.6,3.8-7.3,3.8-7.6c0-0.3,1.2-4.1,0.9-5.1c-0.3-0.9-1.5-1.4-1.5-1.4s1.1-0.5,2.7-1.9
	c1.6-1.4,2.8-4.1,3.9-7.6C81.4,27,79.8,24.6,79.6,22.8z"/>
</svg>
