<?xml version="1.0" encoding="utf-8"?>
<!-- Generator: Adobe Illustrator 16.0.3, SVG Export Plug-In . SVG Version: 6.00 Build 0)  -->
<!DOCTYPE svg PUBLIC "-//W3C//DTD SVG 1.1//EN" "http://www.w3.org/Graphics/SVG/1.1/DTD/svg11.dtd">
<svg version="1.1" id="Layer_1" xmlns="http://www.w3.org/2000/svg" xmlns:xlink="http://www.w3.org/1999/xlink" x="0px" y="0px"
	 width="164.5px" height="112.6px" viewBox="0 0 164.5 112.6" style="enable-background:new 0 0 164.5 112.6;" xml:space="preserve"
	>
<g>
	<path d="M0,112.1V88.9h11.4c2.3,0,4,0.6,5.2,1.7s1.8,2.7,1.8,4.6c0,1-0.3,1.9-0.8,2.7c-0.5,0.8-1.2,1.3-2,1.7
		c0.5,0.2,0.9,0.4,1.4,0.7c0.4,0.3,0.8,0.7,1.1,1.1c0.3,0.5,0.6,1,0.8,1.6c0.2,0.6,0.3,1.3,0.3,2.2c0,2.1-0.7,3.8-2.1,5
		c-1.4,1.2-3.6,1.9-6.5,1.9H0z M4.7,93v5h6.1c2,0,2.9-0.8,2.9-2.5c0-0.9-0.3-1.5-0.8-1.9c-0.5-0.4-1.3-0.6-2.5-0.6H4.7z M10.8,108.2
		c1.1,0,2-0.3,2.6-0.9c0.6-0.6,0.9-1.4,0.9-2.4c0-1-0.3-1.8-0.9-2.2c-0.6-0.5-1.5-0.7-2.6-0.7H4.7v6.2H10.8z"/>
	<path d="M31.2,112.1v-2.4c-1.2,1.9-2.9,2.9-5.3,2.9c-0.9,0-1.6-0.2-2.4-0.5c-0.7-0.3-1.3-0.7-1.8-1.3c-0.5-0.6-0.9-1.2-1.2-2
		c-0.3-0.8-0.4-1.6-0.4-2.6V94.9h4.5v10.6c0,2.1,1,3.2,2.9,3.2c1.2,0,2-0.4,2.6-1.1c0.6-0.7,0.9-1.7,0.9-2.8v-9.9h4.5v17.2H31.2z"/>
	<path d="M52.7,105.9c-0.1,1-0.4,1.9-0.9,2.7s-1,1.5-1.7,2.1c-0.7,0.6-1.5,1-2.4,1.4c-0.9,0.3-1.9,0.5-2.9,0.5
		c-1.2,0-2.2-0.2-3.2-0.6c-1-0.4-1.8-1-2.5-1.7c-0.7-0.8-1.2-1.7-1.6-2.9c-0.4-1.2-0.6-2.5-0.6-4s0.2-2.9,0.6-4
		c0.4-1.1,0.9-2,1.6-2.7c0.7-0.7,1.5-1.2,2.5-1.6s2.1-0.5,3.3-0.5c1.1,0,2.1,0.2,3.1,0.5c0.9,0.3,1.7,0.7,2.4,1.3
		c0.7,0.6,1.2,1.3,1.6,2.1c0.4,0.8,0.6,1.7,0.7,2.7h-4.6c-0.1-0.9-0.5-1.6-1.1-2.1c-0.6-0.5-1.3-0.8-2.2-0.8c-0.5,0-0.9,0.1-1.4,0.2
		s-0.8,0.4-1.1,0.8c-0.3,0.4-0.6,0.9-0.8,1.5c-0.2,0.6-0.3,1.4-0.3,2.4c0,1.9,0.3,3.3,1,4.2c0.7,0.9,1.5,1.4,2.3,1.4
		c0.9,0,1.6-0.2,2.3-0.7c0.6-0.5,1-1.2,1.1-2.1H52.7z"/>
	<path d="M64.4,112.1l-3.8-7.7l-2.2,2.3v5.4h-4.5V88.7h4.5v12.8l5.7-6.5h5.6l-5.8,6.3l5.6,10.9H64.4z"/>
	<path d="M73,104.7c0.1,1.3,0.4,2.3,1.1,3.1c0.7,0.8,1.6,1.2,2.7,1.2c0.7,0,1.4-0.2,2-0.5c0.6-0.3,0.9-0.8,1.1-1.4h4.7
		c-0.5,1.8-1.5,3.1-2.8,4.1c-1.3,1-2.9,1.4-4.7,1.4c-5.7,0-8.6-3.1-8.6-9.4c0-1.3,0.2-2.5,0.6-3.6s0.9-2,1.6-2.8
		c0.7-0.8,1.6-1.4,2.6-1.8c1-0.4,2.2-0.6,3.5-0.6c2.7,0,4.7,0.8,6,2.5s2,4.3,2,7.7H73z M80.1,101.9c0-0.6-0.1-1.2-0.3-1.7
		c-0.2-0.5-0.5-0.9-0.8-1.2c-0.3-0.3-0.7-0.5-1.1-0.7c-0.4-0.2-0.9-0.2-1.3-0.2c-0.9,0-1.7,0.3-2.4,1c-0.7,0.7-1,1.6-1.1,2.8H80.1z"
		/>
	<path d="M95.9,100.8h4.2v4.9c0,0.9-0.1,1.8-0.4,2.6c-0.3,0.8-0.7,1.6-1.3,2.2c-0.6,0.6-1.3,1.1-2.2,1.5c-0.9,0.4-1.9,0.6-3.1,0.6
		c-1.3,0-2.3-0.2-3.2-0.6s-1.6-0.9-2.2-1.5c-0.6-0.6-1-1.4-1.2-2.2c-0.3-0.8-0.4-1.7-0.4-2.7V90.3h4.5v4.6h9.4v3.2h-9.4v7.1
		c0,1.1,0.2,1.9,0.6,2.5c0.4,0.6,1.1,0.9,2,0.9c0.9,0,1.6-0.3,2-0.9s0.6-1.4,0.6-2.5V100.8z"/>
	<path d="M110.3,112.1V88.9h4.9v19h11.5v4.2H110.3z"/>
	<path d="M127.8,92.9v-4.2h4.5v4.2H127.8z M127.8,112.1V94.9h4.5v17.2H127.8z"/>
	<path d="M144.6,100.1c-0.1-0.8-0.4-1.4-0.9-1.7s-1.2-0.5-2.2-0.5c-0.9,0-1.6,0.1-2.1,0.3c-0.5,0.2-0.7,0.6-0.7,1.1
		c0,0.5,0.2,0.8,0.7,1.1c0.5,0.3,1.2,0.5,2.1,0.8c1.5,0.4,2.7,0.8,3.8,1.1c1,0.3,1.8,0.6,2.5,1c0.6,0.4,1.1,0.9,1.3,1.5
		c0.3,0.6,0.4,1.4,0.4,2.4c0,1.5-0.6,2.8-1.9,3.8c-1.3,1-3.2,1.5-5.7,1.5c-1.2,0-2.4-0.1-3.4-0.4c-1-0.3-1.9-0.7-2.6-1.2
		c-0.7-0.5-1.3-1.2-1.6-1.9c-0.4-0.7-0.6-1.6-0.6-2.5h4.7c0,0.8,0.3,1.5,1,1.9c0.6,0.4,1.5,0.7,2.5,0.7c0.9,0,1.6-0.1,2.2-0.4
		c0.6-0.3,0.9-0.7,0.9-1.2c0-0.6-0.2-1.1-0.7-1.4c-0.5-0.3-1.1-0.5-2.1-0.7c-1.7-0.4-3-0.8-4-1.2c-1-0.4-1.8-0.9-2.4-1.3
		c-0.6-0.5-1-1-1.2-1.6c-0.2-0.6-0.3-1.2-0.3-2c0-0.7,0.1-1.3,0.4-1.9c0.3-0.6,0.7-1.1,1.3-1.5c0.6-0.4,1.3-0.8,2.3-1.1
		c0.9-0.3,2.1-0.4,3.4-0.4c2.5,0,4.3,0.5,5.4,1.5c1.1,1,1.8,2.4,1.9,4.2H144.6z"/>
	<path d="M160.3,100.8h4.2v4.9c0,0.9-0.1,1.8-0.4,2.6s-0.7,1.6-1.3,2.2c-0.6,0.6-1.3,1.1-2.2,1.5s-1.9,0.6-3.1,0.6
		c-1.3,0-2.3-0.2-3.2-0.6c-0.9-0.4-1.6-0.9-2.2-1.5c-0.6-0.6-1-1.4-1.2-2.2c-0.3-0.8-0.4-1.7-0.4-2.7V90.3h4.5v4.6h9.4v3.2h-9.4v7.1
		c0,1.1,0.2,1.9,0.6,2.5c0.4,0.6,1.1,0.9,2,0.9c0.9,0,1.6-0.3,2-0.9c0.4-0.6,0.6-1.4,0.6-2.5V100.8z"/>
	<path d="M121.4,22.8c-0.2-1.8-0.6-2.5-0.7-3.2c-0.1-0.7-0.7-1.7-2.5-6c-1.7-4.3-6.2-9-7.1-9.7c-0.9-0.7-2.3-0.9-2.4-0.7
		c-0.1,0.2,2.3,2.8,4.1,5.2c1.7,2.5,2.3,4.4,2.9,6.1c0.6,1.7-0.1,3,0.5,5.2c0.6,2.2,0.7,5.7,0.7,5.7s-0.7-0.4-1.6-0.7
		s-0.7-0.7-1.3-0.9c-0.6-0.3-1.2-0.7-2.3-1.4c-1.2-0.7-4.4-1.7-6-2.3c-1.5-0.6-3.5-2.5-5-3.3c-1.5-0.9-2.5-1.2-2.8-0.9
		c-0.3,0.4,0.7,1.5,1.5,1.9c0.7,0.4,2,1.8,2.8,2.5c0.7,0.7,2.1,1.6,3.9,2.8c1.8,1.2,4.7,2.5,5.5,2.8s0.5,0.4,1.6,1.2
		c1.1,0.8,3.9,2.5,3.9,2.5s-0.2,0.5-0.7,2.3c-0.4,1.7-2.1,3.6-3,4.8c-0.9,1.2-6.3,2.8-7.9,3.2c-1.5,0.4-2.7,0.3-3.7,0.4
		c-1,0.1-1,0.5-3.2,1.2c-2.2,0.7-3.2-0.3-4-1.2c-0.8-0.9,0.4-3.3,0.6-4.1c0.1-0.8-0.1-1.9-0.6-2c-0.4-0.1-0.4,0.7-0.7,1.7
		c-0.2,0.9-1.1,1.5-1.9,3.3c-0.8,1.7-0.7,3.6-0.7,3.6L89.9,44c0,0-1.5-0.9-2.3-0.9c-0.8,0-1.7,0.4-2.5,1.1c-0.8,0.7-2.1,0.7-2.5,0.7
		c-0.4,0-1.7-0.4-2.3-0.4c-0.6,0-1.5,0.5-1.9,0.5c-0.4,0-1-0.4-2-1c-1-0.7-1.7-1.4-2.9-1.4c-1.2,0-2.4,1.1-2.4,1.1s-1.6-1.8-1.9-2.4
		c-0.3-0.6,0-2.3,0-3.5c0-1.2-0.4-1.2-0.6-2.5c-0.1-1.2,0.7-4.1,0.4-4.2c-0.4-0.1-1.5,2.1-2,3.8c-0.4,1.7-0.4,5.2-0.4,5.2
		s-1.6,0.1-4.2-0.3C59.8,39.4,51.8,35.9,51,35c-0.7-0.9-2.6-6.8-2.6-6.8s0.9-1,1.9-1.6c1-0.6,2.9-1.7,5.5-3.3c2.6-1.6,8-6.5,7.6-7.3
		C63,15.2,60,17.6,59,18.1c-1,0.6-2.5,1.5-3.2,1.9c-0.7,0.4-2.9,1.2-3.8,1.6c-0.9,0.4-2.8,1.3-2.8,1.3s-0.3-3.9,1-10.5
		c1.3-6.5,6.8-11.6,6.5-12.4c-0.3-0.7-4.1,2.8-4.1,2.8s0,0-0.4,0c-0.4,0-2.2,3.9-2.2,3.9s-0.9,1-1.2,1.5c-0.3,0.4-1.3,3.3-2.3,5.7
		c-1,2.3-2.3,3.9-3.9,7.7c-1.6,3.8-0.3,9.6,0,11.1c0.3,1.5,2.5,4.5,2.5,4.5s0,0-0.9,1.2c-0.9,1.2,1.5,7.7,3.2,11.5
		c1.7,3.8,7.7,6.8,10,7.1c2.3,0.3,5.7,0.4,6.3,1.3c0.6,0.9,0,0,0.1,1c0.1,1,3.1,2,3.3,3.6c0.3,1.6-0.7,3.8-0.7,3.8
		c0,0.6,0.6,0.9,1.2,2c0.6,1.2,0,3.8,0,4.5s0.9,3.2,0.9,3.2s1,6.5,1.7,13.1c0.1,0.6,0.1,1.1,0.2,1.7h2.5c1.1-0.3,2.3-0.5,3.6-0.5
		c2.4,0,4.3,0.5,5.7,1.3v-5.5h12v4.6h9.4v0h0.4c0.8-1,1.5-1.9,2.2-2.8v-6.3c-0.1,0-0.1-0.1-0.2-0.1c-2.5-1.5-4.4-3.6-5.9-6
		s-1.2-4.5-2.5-8.1c-1.3-3.6-2.5-5.7-2.6-6.2c-0.1-0.5,1.3-0.9,2-1.5c0.7-0.6,0.7-1.7,0.7-1.7s3.8-0.1,5.7,0.2
		c2,0.4,4.9-1.2,8.6-4.8c3.6-3.6,3.8-7.3,3.8-7.6s1.2-4.1,0.9-5.1c-0.3-0.9-1.5-1.4-1.5-1.4s1.1-0.5,2.7-1.9
		c1.6-1.4,2.8-4.1,3.9-7.6C123.2,27,121.6,24.6,121.4,22.8z"/>
</g>
</svg>
