<?xml version="1.0" encoding="utf-8"?>
<!-- Generator: Adobe Illustrator 16.0.3, SVG Export Plug-In . SVG Version: 6.00 Build 0)  -->
<!DOCTYPE svg PUBLIC "-//W3C//DTD SVG 1.1//EN" "http://www.w3.org/Graphics/SVG/1.1/DTD/svg11.dtd">
<svg version="1.1" id="Layer_1" xmlns="http://www.w3.org/2000/svg" xmlns:xlink="http://www.w3.org/1999/xlink" x="0px" y="0px"
	 width="121.7px" height="104.4px" viewBox="0 0 121.7 104.4" style="enable-background:new 0 0 121.7 104.4;" xml:space="preserve"
	>
<g>
	<path d="M0,104.1V85.5h6.1c1.2,0,2.2,0.1,3,0.4c0.8,0.3,1.5,0.6,2.1,1.1c0.5,0.5,0.9,1,1.2,1.7c0.3,0.6,0.4,1.3,0.4,2.1
		c0,0.8-0.2,1.5-0.6,2.2c-0.4,0.6-0.9,1.1-1.6,1.4c0.9,0.3,1.7,0.8,2.3,1.5c0.6,0.7,0.9,1.5,0.9,2.5c0,0.9-0.1,1.6-0.4,2.3
		c-0.3,0.7-0.7,1.3-1.3,1.8c-0.6,0.5-1.3,0.9-2.2,1.2c-0.9,0.3-1.9,0.4-3.1,0.4H0z M4.7,93.1h0.9c0.7,0,1.2-0.1,1.7-0.4
		c0.4-0.3,0.6-0.8,0.6-1.5c0-0.7-0.2-1.2-0.6-1.5c-0.4-0.3-1-0.4-1.7-0.4H4.7V93.1z M4.7,96.5v3.8h1.8c0.7,0,1.3-0.1,1.7-0.4
		C8.7,99.6,9,99.1,9,98.4c0-0.7-0.3-1.2-0.8-1.4c-0.5-0.3-1.2-0.4-1.9-0.4H4.7z"/>
	<path d="M19.3,104.4c-0.8,0-1.4-0.1-1.9-0.4c-0.5-0.3-1-0.6-1.3-1.1c-0.4-0.4-0.6-1-0.8-1.6s-0.3-1.2-0.3-1.9V90h4.4v8.5
		c0,0.7,0.1,1.2,0.4,1.5c0.3,0.3,0.5,0.4,0.8,0.4c0.5,0,0.9-0.1,1.2-0.3c0.3-0.2,0.6-0.4,0.8-0.7V90h4.5v14.1h-4.1v-1.2
		c-0.4,0.4-0.9,0.8-1.5,1C20.9,104.2,20.2,104.4,19.3,104.4z"/>
	<path d="M40.7,100.9c-0.5,1.1-1.3,2-2.3,2.6c-1,0.6-2.2,0.9-3.5,0.9c-1,0-1.9-0.2-2.7-0.5c-0.8-0.3-1.5-0.8-2.1-1.4
		c-0.6-0.6-1-1.4-1.3-2.3c-0.3-0.9-0.5-1.9-0.5-3c0-1.1,0.2-2.2,0.5-3.1c0.3-0.9,0.8-1.7,1.3-2.3s1.3-1.1,2.1-1.5
		c0.8-0.4,1.7-0.5,2.7-0.5c1.5,0,2.8,0.3,3.8,1s1.7,1.7,2.1,3.1l-4.1,1.3c-0.3-1-0.8-1.4-1.7-1.4c-0.7,0-1.2,0.3-1.5,0.8
		C33.2,95,33,95.9,33,97.1c0,1.2,0.2,2.1,0.5,2.6c0.3,0.5,0.8,0.8,1.6,0.8c0.6,0,1-0.2,1.3-0.5c0.3-0.3,0.5-0.7,0.7-1.1L40.7,100.9z
		"/>
	<path d="M41.4,104.1v-20h4.4v12.7l4.3-6.8H55l-4.6,6.9l0.9,1.6c0.4,0.6,0.8,1,1.2,1.3s1,0.5,1.8,0.5h0.2v3.8h-0.9
		c-0.7,0-1.3-0.1-1.8-0.2c-0.5-0.1-1.1-0.3-1.5-0.5s-0.9-0.6-1.3-1s-0.7-0.9-1.1-1.6L45.9,97v7.1H41.4z"/>
	<path d="M61.5,104.4c-1,0-1.9-0.2-2.7-0.5c-0.8-0.3-1.5-0.8-2.1-1.4c-0.6-0.6-1-1.4-1.3-2.3c-0.3-0.9-0.5-1.9-0.5-3
		c0-1.1,0.2-2.2,0.5-3.1c0.3-0.9,0.8-1.7,1.4-2.3s1.3-1.1,2.1-1.5c0.8-0.4,1.7-0.5,2.8-0.5c1.9,0,3.3,0.6,4.4,1.8
		c1.1,1.2,1.6,2.9,1.6,5.1c0,0.3,0,0.5,0,0.8s0,0.6-0.1,0.8h-8.1c0.1,0.8,0.3,1.4,0.7,1.7c0.4,0.4,0.8,0.5,1.4,0.5
		c0.5,0,0.9-0.1,1.3-0.4c0.3-0.3,0.6-0.6,0.8-1l3.5,2c-0.5,1.1-1.3,1.9-2.3,2.4C63.9,104.1,62.8,104.4,61.5,104.4z M61.4,93.4
		c-0.6,0-1,0.2-1.3,0.6c-0.3,0.4-0.5,0.9-0.6,1.6h3.7c-0.1-0.7-0.2-1.2-0.5-1.6C62.4,93.6,62,93.4,61.4,93.4z"/>
	<path d="M67.5,90h2.1v-2.8l4.4-0.9V90h2.9v3.2H74v5.4c0,0.6,0.2,1.1,0.5,1.4c0.3,0.3,0.8,0.5,1.6,0.5h0.9v3.5h-1.6
		c-1.1,0-2-0.1-2.7-0.3s-1.3-0.6-1.8-1c-0.4-0.5-0.8-1-0.9-1.7c-0.2-0.7-0.3-1.4-0.3-2.3v-5.5h-2.1V90z"/>
	<path d="M99.1,22.8c-0.2-1.8-0.6-2.5-0.7-3.2c-0.1-0.7-0.7-1.7-2.5-6c-1.7-4.3-6.2-9-7.1-9.7c-0.9-0.7-2.3-0.9-2.4-0.7
		c-0.1,0.2,2.3,2.8,4.1,5.2c1.7,2.5,2.3,4.4,2.9,6.1c0.6,1.7-0.1,3,0.5,5.2c0.6,2.2,0.7,5.7,0.7,5.7S93.9,25,93,24.7
		s-0.7-0.7-1.3-0.9c-0.6-0.3-1.2-0.7-2.3-1.4c-1.2-0.7-4.4-1.7-6-2.3c-1.5-0.6-3.5-2.5-5-3.3c-1.5-0.9-2.5-1.2-2.8-0.9
		c-0.3,0.4,0.7,1.5,1.5,1.9c0.7,0.4,2,1.8,2.8,2.5c0.7,0.7,2.1,1.6,3.9,2.8c1.8,1.2,4.7,2.5,5.5,2.8s0.5,0.4,1.6,1.2
		c1.1,0.8,3.9,2.5,3.9,2.5s-0.2,0.5-0.7,2.3c-0.4,1.7-2.1,3.6-3,4.8c-0.9,1.2-6.3,2.8-7.9,3.2c-1.5,0.4-2.7,0.3-3.7,0.4
		c-1,0.1-1,0.5-3.2,1.2c-2.2,0.7-3.2-0.3-4-1.2c-0.8-0.9,0.4-3.3,0.6-4.1c0.1-0.8-0.1-1.9-0.6-2c-0.4-0.1-0.4,0.7-0.7,1.7
		c-0.2,0.9-1.1,1.5-1.9,3.3s-0.7,3.6-0.7,3.6L67.5,44c0,0-1.5-0.9-2.3-0.9c-0.8,0-1.7,0.4-2.5,1.1c-0.8,0.7-2.1,0.7-2.5,0.7
		c-0.4,0-1.7-0.4-2.3-0.4c-0.6,0-1.5,0.5-1.9,0.5c-0.4,0-1-0.4-2-1c-1-0.7-1.7-1.4-2.9-1.4c-1.2,0-2.4,1.1-2.4,1.1s-1.6-1.8-1.9-2.4
		c-0.3-0.6,0-2.3,0-3.5c0-1.2-0.4-1.2-0.6-2.5c-0.1-1.2,0.7-4.1,0.4-4.2c-0.4-0.1-1.5,2.1-2,3.8c-0.4,1.7-0.4,5.2-0.4,5.2
		s-1.6,0.1-4.2-0.3c-2.6-0.4-10.6-3.9-11.3-4.8c-0.7-0.9-2.6-6.8-2.6-6.8s0.9-1,1.9-1.6c1-0.6,2.9-1.7,5.5-3.3
		c2.6-1.6,8-6.5,7.6-7.3c-0.4-0.7-3.3,1.6-4.4,2.2c-1,0.6-2.5,1.5-3.2,1.9c-0.7,0.4-2.9,1.2-3.8,1.6c-0.9,0.4-2.8,1.3-2.8,1.3
		s-0.3-3.9,1-10.5c1.3-6.5,6.8-11.6,6.5-12.4c-0.3-0.7-4.1,2.8-4.1,2.8s0,0-0.4,0c-0.4,0-2.2,3.9-2.2,3.9s-0.9,1-1.2,1.5
		c-0.3,0.4-1.3,3.3-2.3,5.7c-1,2.3-2.3,3.9-3.9,7.7c-1.6,3.8-0.3,9.6,0,11.1c0.3,1.5,2.5,4.5,2.5,4.5s0,0-0.9,1.2
		c-0.9,1.2,1.5,7.7,3.2,11.5c1.7,3.8,7.7,6.8,10,7.1c2.3,0.3,5.7,0.4,6.3,1.3c0.6,0.9,0,0,0.1,1c0.1,1,3.1,2,3.3,3.6
		c0.3,1.6-0.7,3.8-0.7,3.8c0,0.6,0.6,0.9,1.2,2c0.6,1.2,0,3.8,0,4.5s0.9,3.2,0.9,3.2l1.6,5.7V88c0.1,0.5,0.1,1.1,0.2,1.6
		c0,0,0,0.1,0,0.1l1-1.6h9.6c0,0,1.8-0.3,2.9-0.3c1.5,0,2.7,0.3,3.9,0.9V88h2.1v-2.5l8.4-1.6V88h2.9v3.2h1.5v-7.7h1.4
		c-1.4-2.9-3-6.2-3.8-7.5c-1.5-2.4-1.2-4.5-2.5-8.1c-1.3-3.6-2.5-5.7-2.6-6.2s1.3-0.9,2-1.5c0.7-0.6,0.7-1.7,0.7-1.7
		s3.8-0.1,5.7,0.2c2,0.4,4.9-1.2,8.6-4.8c3.6-3.6,3.8-7.3,3.8-7.6s1.2-4.1,0.9-5.1c-0.3-0.9-1.5-1.4-1.5-1.4s1.1-0.5,2.7-1.9
		c1.6-1.4,2.8-4.1,3.9-7.6C100.9,27,99.3,24.6,99.1,22.8z"/>
	<path d="M94.4,100.3v3.8h-12V85.5h4.7v14.8H94.4z"/>
	<path d="M98,88.8c-0.7,0-1.3-0.2-1.7-0.6s-0.6-1-0.6-1.7c0-0.8,0.2-1.3,0.6-1.8c0.4-0.4,1-0.6,1.7-0.6c0.8,0,1.4,0.2,1.8,0.6
		c0.4,0.4,0.7,1,0.7,1.8c0,0.7-0.2,1.3-0.7,1.7S98.8,88.8,98,88.8z M95.8,104.1V90h4.4v14.1H95.8z"/>
	<path d="M107.2,89.7c0.8,0,1.5,0.1,2.1,0.3c0.6,0.2,1.1,0.4,1.6,0.8c0.4,0.3,0.8,0.7,1,1.1c0.3,0.4,0.4,0.9,0.6,1.4l-3.9,1.3
		c-0.2-0.4-0.5-0.7-0.8-1c-0.3-0.2-0.7-0.3-1.1-0.3c-0.4,0-0.6,0.1-0.8,0.3c-0.2,0.2-0.3,0.4-0.3,0.6c0,0.4,0.2,0.6,0.5,0.8
		c0.4,0.2,1,0.3,1.9,0.5c0.7,0.1,1.3,0.3,1.9,0.5c0.6,0.2,1.1,0.4,1.5,0.7c0.4,0.3,0.8,0.7,1,1.2c0.2,0.5,0.4,1.1,0.4,1.9
		c0,1.4-0.5,2.6-1.6,3.4c-1.1,0.8-2.6,1.2-4.5,1.2c-1.7,0-3-0.4-3.9-1.1c-0.9-0.7-1.5-1.7-1.7-2.9l3.9-1c0.2,0.4,0.4,0.7,0.7,1
		s0.8,0.4,1.4,0.4c0.4,0,0.7-0.1,1-0.2c0.3-0.1,0.4-0.4,0.4-0.7c0-0.3-0.2-0.5-0.5-0.7c-0.3-0.1-0.9-0.3-1.7-0.4
		c-0.2,0-0.5-0.1-0.9-0.1c-0.3-0.1-0.7-0.2-1.1-0.3c-0.4-0.1-0.8-0.3-1.1-0.5c-0.4-0.2-0.7-0.5-1-0.8c-0.3-0.3-0.6-0.7-0.7-1.1
		c-0.2-0.4-0.3-1-0.3-1.6c0-1.4,0.5-2.6,1.5-3.4S105.3,89.7,107.2,89.7z"/>
	<path d="M112.3,90h2.1v-2.8l4.4-0.9V90h2.9v3.2h-2.9v5.4c0,0.6,0.2,1.1,0.5,1.4c0.3,0.3,0.9,0.5,1.6,0.5h0.9v3.5h-1.6
		c-1.1,0-2-0.1-2.7-0.3c-0.7-0.2-1.3-0.6-1.8-1c-0.4-0.5-0.8-1-0.9-1.7c-0.2-0.7-0.3-1.4-0.3-2.3v-5.5h-2.1V90z"/>
</g>
</svg>
