<?xml version="1.0" encoding="utf-8"?>
<!-- Generator: Adobe Illustrator 16.0.3, SVG Export Plug-In . SVG Version: 6.00 Build 0)  -->
<!DOCTYPE svg PUBLIC "-//W3C//DTD SVG 1.1//EN" "http://www.w3.org/Graphics/SVG/1.1/DTD/svg11.dtd">
<svg version="1.1" id="Layer_1" xmlns="http://www.w3.org/2000/svg" xmlns:xlink="http://www.w3.org/1999/xlink" x="0px" y="0px"
	 width="367.1px" height="367.1px" viewBox="0 0 367.1 367.1" style="enable-background:new 0 0 367.1 367.1;" xml:space="preserve"
	>
<style type="text/css">
<![CDATA[
	.st0{fill:#FFDF00;}
	.st1{fill:#FFFFFF;}
]]>
</style>
<circle class="st0" cx="184.2" cy="184.5" r="183.6"/>
<g>
	<path class="st1" d="M250.5,223.8c-9.7,0-17.6-7.9-17.6-17.6s7.9-17.6,17.6-17.6s17.6,7.9,17.6,17.6S260.2,223.8,250.5,223.8z"/>
	<path class="st1" d="M119.9,223.8c-9.7,0-17.6-7.9-17.6-17.6s7.9-17.6,17.6-17.6s17.6,7.9,17.6,17.6S129.6,223.8,119.9,223.8z"/>
	<path class="st1" d="M277.4,192.7c-0.4-9.1-4.9-10.1-7-11.3c-2.1-1.2-3.5-1.7-3.5-1.7s-5.4-5.4-10.7-7s-19.8-2.1-22.7-4.1
		s-25.8-23.4-51.2-23.4s-45.8,8.7-55.7,16.8s-17.3,14.4-17.3,14.4s-9.1,4.3-12.2,8.5c-3.1,4.3-6.2,14-6.2,17.5s1.9,4.5,3.6,4.9
		s4.7,1.4,4.7,1.4l0.9,0.1c-0.1-0.8-0.2-1.7-0.2-2.5c0-11,8.9-19.9,19.9-19.9s19.9,8.9,19.9,19.9c0,2.4-0.4,4.8-1.2,6.9l1.4,0.2h92
		c-0.8-2.2-1.3-4.6-1.3-7.1c0-11,8.9-19.9,19.9-19.9s19.9,8.9,19.9,19.9c0,1.4-0.1,2.8-0.4,4.1l1-0.1h1.4
		C272.4,210.2,277.8,201.9,277.4,192.7z M160.3,172.7H125c6.8-10.7,19.6-19,35.3-22.5V172.7z M167.9,172.7V149c3-0.3,6-0.5,9.1-0.5
		c23.1,0,42.9,9.9,52,24.3H167.9z"/>
</g>
</svg>
