<?xml version="1.0" encoding="utf-8"?>
<!-- Generator: Adobe Illustrator 16.0.3, SVG Export Plug-In . SVG Version: 6.00 Build 0)  -->
<!DOCTYPE svg PUBLIC "-//W3C//DTD SVG 1.1//EN" "http://www.w3.org/Graphics/SVG/1.1/DTD/svg11.dtd">
<svg version="1.1" id="Layer_1" xmlns="http://www.w3.org/2000/svg" xmlns:xlink="http://www.w3.org/1999/xlink" x="0px" y="0px"
	 width="367.1px" height="367.1px" viewBox="0 0 367.1 367.1" style="enable-background:new 0 0 367.1 367.1;" xml:space="preserve"
	>
<style type="text/css">
<![CDATA[
	.st0{fill:#B4B4B5;}
	.st1{fill:#FFFFFF;}
]]>
</style>
<circle class="st0" cx="184.6" cy="184.5" r="183.6"/>
<g>
	<path class="st1" d="M181.8,101.4c0,0,0.6,0,1.7-0.1c1.1,0,2.7,0,4.7,0.2c1,0.1,2.1,0.2,3.4,0.4c1.2,0.2,2.5,0.3,3.9,0.6
		c2.8,0.5,6,1.1,9.4,2.1c0.8,0.2,1.7,0.5,2.6,0.7c0.9,0.3,1.8,0.6,2.7,0.8c0.9,0.3,1.8,0.6,2.7,1c0.9,0.3,1.8,0.7,2.8,1.1
		c1.9,0.8,3.8,1.7,5.7,2.7c1,0.5,1.9,1.1,2.8,1.7c0.9,0.6,1.9,1.3,2.8,2c1.7,1.3,3.5,2.8,5.2,4.3c1.7,1.5,3.4,3.2,4.9,5
		c1.6,1.8,3.1,3.7,4.3,6c0.6,1.1,1.1,2.4,1.4,3.8l0.7,3.4c0.5,2.1,1,4.2,1.8,6.3l0.3,0.8l0,0c0,0-0.1-0.2,0-0.1l0,0.1l0.1,0.2
		l0.2,0.4l0.2,0.4l0.2,0.3l0.4,0.6c0.6,1,1.2,2,1.7,3.2c1.1,2.3,1.6,5,1.5,7.4c0,0.6,0,1.1,0,1.7c0,0.5,0,1.1,0.1,1.6
		c0,1.1,0.1,2.2,0.1,3.4c0.1,4.6-1,9.1-2.9,12.9c-1.9,3.8-4.5,6.8-7,9.3c-1.3,1.3-2.6,2.3-3.8,3.4c-1.3,1-2.5,1.9-3.6,2.7
		c-2.3,1.7-4.2,3.2-5.9,4.4c-1.6,1.2-2.9,2.1-3.8,2.8c-0.4,0.3-0.8,0.6-1,0.7c0,0-0.1,0-0.1,0.1c0,0-0.1,0-0.1,0c0,0,0,0-0.1-0.1
		c-0.1-0.1,0-0.2,0-0.2l0,0l0,0c0,0,0.1-0.1,0.1-0.1c0.1,0,0.1-0.1,0.1-0.1l0.2,0.2c0,0,0,0-0.1,0.1c0,0-0.1,0.1-0.1,0.1l0,0l0,0
		c0,0,0.1-0.1,0-0.2c-0.1-0.1-0.1,0-0.1,0c0,0,0,0-0.1,0c0,0,0,0,0.1,0c0.2-0.2,0.5-0.4,1-0.8c0.8-0.7,2.1-1.7,3.6-3
		c1.6-1.3,3.4-2.9,5.6-4.7c1.1-0.9,2.2-1.9,3.4-2.9c0.6-0.5,1.2-1.1,1.8-1.6l0.5-0.4l0.4-0.5c0.3-0.3,0.6-0.6,0.9-0.9
		c2.4-2.5,4.8-5.5,6.4-9.1c1.7-3.6,2.6-7.8,2.4-12.1c0-2.2-0.3-4.4-0.3-6.6c0-2.2-0.5-4.4-1.4-6.5c-0.5-1-1.1-2-1.6-3
		c-0.3-0.5-0.6-1-0.8-1.5c-0.1-0.3-0.2-0.5-0.4-0.8l-0.3-0.8c-0.9-2.2-1.4-4.4-2-6.7l-0.6-3.4c-0.2-1.1-0.7-2.2-1.2-3.2
		c-1.1-2-2.5-3.8-4-5.6c-3-3.4-6.4-6.4-9.7-9.2c-0.8-0.7-1.7-1.3-2.6-1.9c-0.9-0.6-1.8-1.2-2.7-1.7c-1.8-1-3.6-1.9-5.4-2.8
		c-3.6-1.6-7.2-2.9-10.5-4c-3.3-1-6.4-1.9-9.1-2.5c-1.4-0.3-2.7-0.6-3.9-0.8c-1.2-0.2-2.3-0.4-3.3-0.5c-2-0.3-3.6-0.4-4.7-0.5
		c-1.1,0-1.7-0.1-1.7-0.1L181.8,101.4z"/>
	<path class="st1" d="M216.5,132.3c-2.9,0-5.2,2.6-5.2,5.7c0,0.1,0,0.3,0,0.4c0-0.8,0.1-1.3,0.1-1.3c1.1-1.5,4.3-3.1,5.6-2
		c1.4,1.1,1.5,2.7,0,4.9c-1.5,2.1-3.2,2.4-3.8,2.3c-0.1,0-0.2-0.1-0.3-0.1c0.9,0.9,2.1,1.5,3.5,1.5c2.9,0,5.2-2.6,5.2-5.7
		S219.3,132.3,216.5,132.3z"/>
	<path class="st1" d="M215,143.5c0,0,0.6,0.2,3,0.2s3.7-0.2,3.7-0.2"/>
	<path class="st1" d="M221,145.3c0,0,0.1,0,0.3,0.1c0.2,0.1,0.4,0.1,0.8,0.3c0.6,0.3,1.5,0.7,2.5,1.3c0.5,0.3,1,0.7,1.5,1.1
		c0.5,0.5,1,0.9,1.5,1.5c0.5,0.6,1,1.2,1.4,2l0.3,0.6l0.1,0.1l0,0l0,0.1l0,0.1l0.1,0.3l0.4,1c0.2,0.7,0.5,1.4,0.7,2.1
		c0.2,0.7,0.4,1.4,0.5,2.1c0.1,0.7,0.3,1.4,0.4,2c0.1,0.6,0.1,1.3,0.2,1.8c0.1,0.6,0.1,1.1,0.1,1.6c0,0.5,0,0.9,0,1.2
		c0,0.3-0.1,0.6-0.1,0.8c0,0.2,0,0.3,0,0.3l-0.2,0.1c0,0-0.4-1.4-1.1-3.5c-0.3-1.1-0.7-2.3-1.2-3.6c-0.2-0.6-0.4-1.3-0.7-2
		c-0.3-0.7-0.5-1.4-0.8-2c-0.3-0.7-0.5-1.4-0.8-2c-0.3-0.6-0.7-1.2-1.1-1.8c-0.4-0.6-0.8-1-1.2-1.5c-0.4-0.5-0.8-0.9-1.2-1.3
		c-0.4-0.4-0.7-0.8-1-1.1c-0.3-0.3-0.6-0.6-0.8-0.8c-0.5-0.4-0.7-0.7-0.7-0.7L221,145.3z"/>
	<path class="st1" d="M240.6,158c0,0,0,0.2,0,0.5c0,0.3,0,0.8-0.1,1.4c-0.1,0.6-0.2,1.4-0.4,2.2c-0.2,0.8-0.4,1.8-0.8,2.8
		c-0.2,0.5-0.4,1-0.6,1.6c-0.2,0.5-0.5,1-0.7,1.6c-0.3,0.5-0.5,1.1-0.8,1.7c-0.3,0.6-0.6,1.1-1,1.7c-0.7,1.2-1.3,2.3-2.1,3.4
		c-0.7,1.1-1.5,2.2-2.3,3.3c-0.8,1.1-1.6,2.2-2.5,3.3c-0.4,0.5-0.9,1.1-1.3,1.6c-0.5,0.5-0.9,1-1.4,1.5c-0.5,0.5-1,0.9-1.5,1.3
		c-0.5,0.4-1,0.8-1.6,1.1c-1,0.7-2,1.3-3,1.8c-0.9,0.5-1.8,0.9-2.5,1.2c-0.8,0.4-1.4,0.6-2,0.8c-0.5,0.2-1.1,0.4-1.4,0.5
		c-0.3,0.1-0.5,0.1-0.5,0.1l-0.1-0.3c0,0,0.1-0.1,0.4-0.3c0.3-0.2,0.6-0.4,1.1-0.8c1-0.7,2.3-1.7,3.9-2.9c0.4-0.3,0.8-0.6,1.2-0.9
		c0.4-0.3,0.9-0.7,1.3-1.1c0.4-0.4,0.9-0.8,1.3-1.2c0.4-0.4,0.8-0.9,1.3-1.3c0.8-0.9,1.7-1.9,2.4-3c0.8-1,1.6-2.2,2.4-3.3
		c0.8-1.1,1.6-2.2,2.4-3.3c0.8-1.1,1.5-2.1,2.3-3.2c0.4-0.5,0.7-1,1.1-1.5c0.3-0.5,0.6-1,0.9-1.5c0.6-1,1.1-1.9,1.6-2.8
		c0.3-0.4,0.5-0.9,0.7-1.3c0.2-0.4,0.4-0.8,0.6-1.2c0.3-0.7,0.6-1.4,0.8-1.9c0.2-0.5,0.4-1,0.5-1.3c0.1-0.3,0.1-0.5,0.1-0.5
		L240.6,158z"/>
	<path class="st1" d="M189.9,174.6c0,0,0-0.3,0.1-0.9c0.1-0.5,0.2-1.3,0.5-2.2c0.1-0.5,0.3-1,0.5-1.5c0.2-0.5,0.4-1.1,0.8-1.6
		c0.3-0.5,0.9-1.2,1.5-1.5c0.6-0.4,1.2-0.7,1.8-0.9c0.6-0.2,1.2-0.4,1.8-0.6c0.6-0.2,1.1-0.3,1.7-0.5c0.5-0.2,1-0.3,1.5-0.5
		c0.1,0,0.2-0.1,0.3-0.1l0.1-0.1c0,0,0,0,0.1,0l0,0l0,0l0,0c-0.1,0.1,0,0,0,0l0,0l0.1-0.1l0.1-0.1c0.1-0.1,0.1-0.2,0.2-0.3
		c0.3-0.4,0.5-0.7,0.7-1c0.2-0.3,0.4-0.6,0.5-0.8c0.1-0.2,0.3-0.4,0.4-0.5c0.1-0.1,0.1-0.2,0.1-0.2l0.1,0c0,0-0.1,0.3-0.3,0.8
		c-0.1,0.3-0.2,0.6-0.4,0.9c-0.2,0.3-0.3,0.7-0.5,1.1c-0.1,0.2-0.2,0.4-0.4,0.6c-0.1,0.1-0.2,0.2-0.3,0.3c-0.1,0.1-0.2,0.1-0.3,0.2
		c-0.5,0.3-1,0.5-1.5,0.7c-1.1,0.4-2.2,0.8-3.4,1.3c-0.6,0.2-1.1,0.5-1.6,0.8c-0.5,0.3-0.9,0.7-1.2,1.2c-0.3,0.5-0.6,0.9-0.8,1.4
		c-0.2,0.5-0.5,0.9-0.6,1.3c-0.7,1.7-1.1,2.8-1.1,2.8L189.9,174.6z"/>
	<path class="st1" d="M246,178c3.6,4,7.2,7.9,10.7,12c0.9,1,1.7,2,2.6,3.1c0.9,1,1.7,2.1,2.5,3.2c0.2,0.3,0.4,0.6,0.6,0.9
		c0.1,0.2,0.2,0.3,0.3,0.5c0,0.1,0,0.1,0.1,0.2c0,0.1,0,0.2-0.1,0.4l0,0.1c-0.1,0.1,0,0-0.1,0.1l0,0l0,0c-0.1,0-0.1,0.1-0.2,0.1
		c-0.5,0.2-0.8,0.2-1.2,0.2c-0.4,0-0.7-0.1-1-0.1l-2-0.3c-0.2,0-0.3,0-0.5,0c-0.1,0-0.3,0-0.3,0c0,0,0,0,0,0c0,0,0.1-0.1,0.1-0.2
		c0,0,0-0.1,0-0.1l0,0c0,0,0-0.1,0,0l0,0l0,0.1c0,0,0,0,0,0c0,0,0.1,0.2,0.2,0.3c0.8,1,1.8,1.9,2.7,2.9c0.2,0.2,0.5,0.5,0.7,0.8
		c0.2,0.3,0.4,0.5,0.7,0.9c0,0.1,0.1,0.1,0.1,0.2c0,0.1,0,0.2,0,0.3c0,0.1,0,0.1,0,0.2c0,0,0,0.1-0.1,0.1c-0.1,0.1,0.1-0.1-0.1,0.2
		l0,0l-0.1,0c-0.1,0-0.2,0.1-0.2,0.1c0,0-0.1,0-0.1,0l-0.1,0l-0.1,0c-0.1,0-0.1,0-0.2,0c-0.1,0-0.2,0-0.3,0c-0.4-0.1-0.7-0.2-1-0.3
		c-1.3-0.4-2.6-0.9-3.8-1.3c-0.6-0.2-1.3-0.4-1.8-0.5c-0.1,0-0.1,0-0.2,0l0,0c0,0,0,0,0,0c0,0,0.1,0,0.1,0c0.1,0,0.2-0.1,0.2-0.2
		c0,0,0.1-0.2,0-0.1l0,0l0,0c0,0,0-0.1,0-0.1c0-0.1,0-0.1,0-0.1c0,0,0,0,0,0c0,0,0,0.1,0,0.1c0.1,0.2,0.3,0.5,0.5,0.7
		c0.8,1,1.7,2,2.7,2.8c0.2,0.2,0.5,0.4,0.7,0.6c0.3,0.2,0.5,0.3,0.8,0.5c0.6,0.3,1.1,0.6,1.8,1c0.2,0.1,0.3,0.2,0.5,0.4
		c0,0,0.1,0.1,0.2,0.2l0.1,0.1c0,0.1,0.1,0.1,0.1,0.2c0,0.1,0,0.1,0,0.3c0,0.1,0,0.2-0.1,0.3c0,0.1-0.1,0.2-0.1,0.2
		c0,0.1-0.1,0.1-0.1,0.2c-0.3,0.3-0.9,0.5-1.3,0.5c-0.5,0-0.8,0-1.2-0.1c-0.4-0.1-0.7-0.2-1.1-0.3l-0.9-0.4c-0.3-0.1-0.6-0.3-1-0.5
		c-0.7-0.3-1.2-0.6-1.8-1l1.1-1c0.3,0.7,0.6,1.4,1,2.1l0.5,1c0.2,0.4,0.4,0.7,0.5,1c0.2,0.3,0.4,0.7,0.6,1c0.2,0.4,0.4,0.7,0.6,1.1
		c0.2,0.4,0.3,0.8,0.4,1.4c0,0.3,0,0.6-0.2,1c-0.1,0.2-0.2,0.3-0.3,0.5l-0.1,0.1l-0.1,0l0,0l0,0c-0.1,0,0.1-0.1-0.1,0.1l0,0l-0.1,0
		c0,0-0.1,0.1-0.2,0.1c-0.1,0-0.2,0-0.3,0l-0.1,0c-0.1,0-0.2,0-0.2,0c-0.1,0-0.3,0-0.4,0c-0.2,0-0.4-0.1-0.6-0.1
		c-0.4-0.1-0.8-0.2-1.2-0.3c-0.8-0.2-1.5-0.5-2.3-0.8c-1.5-0.6-3-1.2-4.4-1.8l1.3-0.7c-0.3,1.2-0.5,2.3-1.2,3.5
		c-0.1,0.1-0.2,0.3-0.3,0.4l-0.2,0.2l-0.2,0.2c-0.1,0.1-0.4,0.3-0.6,0.4c-0.1,0-0.3,0.1-0.4,0.1l-0.1,0l-0.1,0h-0.1
		c-0.1,0-0.4,0-0.6,0c-0.2,0-0.3-0.1-0.5-0.1c-0.3-0.1-0.6-0.2-0.9-0.3c-0.6-0.2-1.1-0.4-1.6-0.5c-0.2-0.1-0.5-0.1-0.7-0.1
		c-0.2,0-0.3,0-0.3,0c0,0,0,0,0,0c0,0,0,0,0,0c0,0,0,0,0,0l0,0c0,0,0,0.1,0-0.1l-0.1,0.2c-0.1,0.2-0.1,0.2-0.1,0.3l0,0.1l0,0.2
		c-0.1,0.5-0.1,1-0.1,1.6c0,2.2,0.2,4.4,0.5,6.6c0.3,2.2,0.7,4.4,1.1,6.6c0.5,2.2,1.1,4.3,1.8,6.4c0.3,1.1,0.7,2.1,1,3.3
		c0.2,0.6,0.3,1.1,0.4,1.7c0.1,0.3,0.1,0.6,0.1,1c0,0.1,0,0.2,0,0.3c0,0.1,0,0.1,0,0.2c0,0.1,0,0.2-0.1,0.2
		c-0.1,0.2-0.2,0.4-0.4,0.6c0,0-0.2,0.2-0.2,0.1l0,0l-0.1,0.1c-0.1,0-0.3,0.1-0.4,0.2c-0.1,0-0.2,0.1-0.3,0.1c-0.2,0-0.4,0-0.6,0
		c-0.3,0-0.6,0-0.8,0c0,0,0,0-0.1,0c0,0,0,0,0.1,0c0.1,0,0.2-0.1,0.2-0.2c0,0,0,0,0,0l-0.1,0.2l-0.1,0.4c-0.3,1.1-0.6,2.2-1,3.3
		c-0.2,0.6-0.4,1.1-0.7,1.7c-0.1,0.3-0.3,0.6-0.5,0.9c-0.2,0.3-0.5,0.6-1.1,0.9c-0.1,0-0.2,0.1-0.3,0.1c0,0-0.4,0-0.2,0l-0.1,0
		c0,0,0,0-0.1,0c-0.1,0-0.1,0-0.2,0s-0.1,0-0.2-0.1c-0.1,0-0.1,0-0.1-0.1c-0.3-0.1-0.5-0.3-0.6-0.4c-0.3-0.3-0.5-0.6-0.7-0.8
		c-0.4-0.5-0.6-1-0.9-1.6c-0.5-1-1-2.1-1.6-2.9c-0.1-0.2-0.3-0.4-0.3-0.5c0,0,0,0,0.1,0.1c0.1,0,0.5,0.2,1-0.1l0,0c0,0,0,0,0,0
		c0.1,0,0.1-0.2,0.1-0.1c0,0,0,0,0,0c0,0.1-0.1,0.4-0.1,0.6c0,0.3-0.1,0.5-0.1,0.8c-0.1,1.1-0.1,2.2-0.4,3.5c0,0.2-0.1,0.3-0.2,0.5
		c-0.1,0.2-0.1,0.4-0.4,0.7c-0.1,0.1-0.2,0.2-0.3,0.3c-0.1,0-0.1,0.1-0.2,0.1c-0.1,0-0.3,0.1-0.2,0.1l-0.1,0c-0.1,0-0.2,0-0.3,0
		c-0.2,0-0.3,0-0.4-0.1c-0.5-0.2-0.7-0.4-0.8-0.6c-0.3-0.4-0.5-0.7-0.6-1c-0.1-0.3-0.3-0.6-0.4-0.8l-0.2-0.4c0-0.1-0.1-0.3-0.1-0.3
		c0,0,0,0,0.1,0.1c0.1,0,0.1,0.5,1.2,0.3c0.6-0.4,0.6-0.8,0.5-0.6c0,0,0,0,0,0c0,0,0,0,0,0l0,0.1l-0.1,0.4l-0.3,1.7
		c-0.2,1.1-0.5,2.2-0.9,3.4c-0.1,0.3-0.2,0.6-0.4,0.9c-0.1,0.2-0.2,0.3-0.3,0.5c-0.1,0.2-0.2,0.4-0.5,0.6c-0.1,0.1-0.1,0.1-0.2,0.2
		c-0.1,0.1-0.2,0.1-0.3,0.1c0,0-0.3,0.1-0.2,0l-0.1,0c0,0-0.2,0-0.3,0c-0.5,0-0.7-0.2-1-0.4c-0.4-0.3-0.6-0.6-0.8-0.9
		c-0.4-0.5-0.6-1.1-0.9-1.4c-0.1-0.1-0.1-0.2-0.2-0.2c0,0-0.1,0,0.2,0.1c0.1,0,0.3,0,0.4,0c0.1-0.1,0.2-0.1,0.2-0.1c0,0,0-0.1,0,0
		l0,0l-0.1,0.1c0,0.1-0.1,0.1-0.1,0.2c-0.3,0.4-0.6,0.9-0.9,1.3c-0.3,0.5-0.6,1-1,1.5c-0.2,0.2-0.4,0.5-0.6,0.8
		c-0.2,0.3-0.4,0.5-1,0.8c-0.1,0-0.2,0.1-0.2,0.1c-0.1,0-0.2,0-0.4,0.1c-0.1,0-0.1,0-0.2,0c0.1,0-0.3,0-0.3,0l-0.1,0
		c0,0-0.1,0-0.2-0.1c-0.1,0-0.2-0.1-0.2-0.1c0,0-0.1-0.1-0.1-0.1c-0.1-0.1-0.1-0.2-0.2-0.2c-0.1-0.2-0.2-0.3-0.2-0.4
		c-0.2-0.5-0.2-0.8-0.2-1.1l0-0.9c0-0.1,0-0.3,0-0.4c0-0.1,0-0.2,0-0.2c0,0,0,0.1,0.2,0.3c0.1,0.1,0.3,0.1,0.4,0.2
		c0.1,0,0.1,0,0.2,0c0,0,0.1,0,0.1,0c0,0,0,0,0.1,0c0,0,0.2-0.1,0.1-0.1c0,0-0.1,0.1,0,0c0,0,0.1-0.1,0.1-0.1l0,0
		c-0.1,0.1-0.2,0.3-0.3,0.5c-0.5,0.9-0.8,2-1.3,3.1c-0.3,0.5-0.5,1.1-0.9,1.7c-0.1,0.2-0.3,0.3-0.5,0.5c-0.1,0.1-0.3,0.2-0.6,0.3
		c0.1,0-0.4,0-0.3,0c0,0,0,0-0.3-0.1c-0.2-0.1-0.4-0.2-0.4-0.2c-0.1-0.1-0.1-0.1-0.2-0.2c-0.3-0.4-0.3-0.5-0.3-0.7
		c-0.1-0.2-0.1-0.3-0.1-0.5c-0.2-1.2-0.3-2.3-0.4-3.5c-0.1-2.3-0.2-4.5-0.4-6.7c0-0.3-0.1-0.5-0.1-0.8c0-0.3-0.1-0.5-0.1-0.7
		c0,0,0-0.1,0,0c0,0,0.1,0.1,0.2,0.2c0.1,0.1,0.2,0.1,0.4,0.1c0.2,0,0.3,0,0.4-0.1c0.1-0.1,0.2-0.1,0.2-0.1c0,0,0.1-0.1,0.1-0.1
		c0,0,0,0,0,0c0,0,0.1-0.1,0,0l-0.1,0.2c0,0.1-0.1,0.1-0.1,0.2l-0.1,0.1c0,0.1-0.1,0.2-0.1,0.3c-0.4,1-0.7,2.1-1,3.2
		c-0.6,2.2-1.2,4.4-2.1,6.5c-0.2,0.5-0.5,1.1-0.8,1.6c-0.2,0.3-0.4,0.6-0.5,0.8l-0.5,0.7l-1,1.4l-0.5,0.7c-0.1,0.1-0.2,0.2-0.3,0.4
		c-0.1,0.1-0.2,0.3-0.6,0.5c-0.1,0-0.2,0.1-0.3,0.1c-0.1,0-0.3,0.1-0.4,0c-0.1,0-0.1,0-0.2,0c0.1,0.1-0.3-0.1-0.3-0.1l0,0
		c0,0-0.1,0-0.1-0.1c-0.1-0.1-0.2-0.2-0.3-0.3l-0.1-0.2c-0.1-0.1-0.1-0.2-0.1-0.3l-0.3-0.8c0-0.1-0.1-0.2-0.1-0.2c0,0,0,0.1,0.3,0.1
		c0.1,0,0.3-0.1,0.3-0.1c0,0,0,0,0,0l0.1-0.1L208,264c-0.1,0.1,0,0.1-0.1,0.1c0,0,0,0.1-0.1,0.1c-0.1,0.1-0.2,0.4-0.3,0.7
		c-0.1,0.1-0.2,0.3-0.3,0.5c-0.1,0.2-0.4,0.5-0.9,0.6c-0.1,0-0.2,0-0.3,0c-0.1,0-0.2,0-0.3,0c-0.1,0-0.2,0-0.2-0.1l-0.1,0
		c-0.1,0,0.1,0-0.2-0.1l-0.1-0.1c-0.1-0.1-0.2-0.2-0.3-0.3c-0.1-0.1-0.1-0.3-0.2-0.4c-0.1-0.4-0.2-0.7-0.2-1
		c-0.1-1.2-0.1-2.3-0.2-3.4c0-0.3,0-0.5-0.1-0.8c0-0.1,0-0.2-0.1-0.3c0,0,0-0.1,0-0.1c0,0,0,0,0,0c0,0.1,0,0.1,0.1,0.1
		c0.1,0.1,0.2,0.1,0.4,0.2c0.2,0,0.3,0,0.4-0.1c0,0,0.1,0,0.1,0c0,0,0,0,0,0l0,0l0,0c-0.1,0.1-0.1,0.1-0.1,0.1l-0.1,0.1
		c-0.1,0.2-0.2,0.4-0.3,0.6c-0.4,1-0.6,2-1,3.2c-0.1,0.2-0.1,0.3-0.2,0.5l-0.1,0.1c0,0.1-0.1,0.1-0.1,0.2c-0.1,0.1-0.1,0.1-0.3,0.2
		c-0.1,0.1-0.4,0.2-0.6,0.1c-0.1,0-0.2,0-0.4-0.2c0,0,0,0-0.2-0.1c-0.1-0.1-0.1-0.2-0.1-0.2c0,0,0-0.1-0.1-0.1
		c-0.1-0.1-0.1-0.2-0.1-0.3c-0.1-0.2-0.1-0.3-0.1-0.5c-0.2-0.6-0.3-1.1-0.4-1.7c-0.4-2.2-0.8-4.5-1.3-6.6c-0.1-0.5-0.3-1.1-0.4-1.5
		c0-0.1-0.1-0.2-0.1-0.2c0,0,0,0,0.3,0.1c0.2,0,0.3,0,0.5-0.1l0,0c0,0,0,0,0,0c0,0,0.1-0.1,0.1-0.1c0,0,0,0,0,0c0,0,0,0.1,0,0.1
		c0,0.1,0,0.2-0.1,0.3c-0.2,1-0.2,2.2-0.2,3.3c0,1.1-0.1,2.3-0.2,3.4c0,0.6-0.1,1.1-0.2,1.8c-0.1,0.3-0.1,0.6-0.3,1
		c0,0.1-0.1,0.2-0.3,0.3c0,0.1-0.2,0.1-0.3,0.2c-0.1,0.1-0.2,0.1-0.3,0.1c-0.1,0-0.1,0-0.2,0c-0.3-0.1-0.1,0-0.2-0.1
		c0,0,0,0-0.1-0.1c-0.2-0.1-0.3-0.3-0.4-0.3c-0.3-0.4-0.4-0.6-0.5-0.9c-0.1-0.3-0.2-0.6-0.3-0.9c-0.1-0.6-0.3-1.1-0.4-1.7l-0.6-3.3
		c-0.1-0.5-0.2-1.1-0.4-1.6c-0.1-0.3-0.2-0.5-0.2-0.7c0-0.1-0.1-0.2-0.1-0.2c0,0,0,0,0,0c0,0,0,0,0.1,0c0.1,0,0.2,0,0.2,0
		c0-0.1-0.1,0.2-0.2,0.4c-0.1,0.2-0.2,0.5-0.2,0.7c-0.1,0.5-0.2,1.1-0.3,1.6c-0.4,2.2-0.6,4.4-0.9,6.7c0,0.3-0.1,0.6-0.1,0.9
		c0,0.1-0.1,0.3-0.1,0.4c-0.1,0.2-0.1,0.3-0.2,0.5c-0.1,0.1-0.1,0.1-0.3,0.2c-0.1,0-0.2,0-0.3,0l0,0c0,0-0.1-0.1-0.2-0.1
		c-0.1,0-0.1-0.1-0.1-0.1c-0.1-0.1-0.2-0.3-0.3-0.4c-0.2-0.3-0.3-0.5-0.5-0.8c-0.3-0.5-0.5-1-0.8-1.5c-0.1-0.2-0.3-0.5-0.4-0.7
		c-0.1-0.1-0.1-0.2-0.2-0.3c0,0-0.1-0.1-0.1-0.1c0,0,0,0,0,0c0,0,0.1,0,0.1,0c0,0-0.1,0,0,0c0.1-0.1,0,0,0,0c0,0,0,0.1,0,0.1
		c0,0.1-0.1,0.2-0.1,0.4c0,0.3-0.1,0.6-0.2,0.9c-0.1,0.1-0.2,0.4-0.5,0.5c-0.1,0-0.1,0-0.2,0l-0.1,0c0,0-0.1,0-0.1,0
		c0,0-0.2-0.1-0.3-0.2c-0.2-0.3-0.3-0.5-0.5-0.8c-0.5-1.1-0.8-2.1-1.2-3.2c-0.2-0.5-0.4-1-0.6-1.6c-0.2-0.5-0.5-1-0.8-1.4
		c-0.2-0.2-0.3-0.2-0.4,0c-0.2,0.2-0.3,0.4-0.4,0.7c-0.2,0.5-0.4,1-0.6,1.6c-0.6,2.1-1.1,4.4-1.5,6.6l-0.1,0
		c0.4-2.2,0.8-4.4,1.5-6.6c0.2-0.5,0.3-1.1,0.6-1.6c0.1-0.3,0.2-0.5,0.4-0.7c0.1-0.1,0.2-0.2,0.4-0.2c0.2,0,0.3,0.1,0.4,0.2
		c0.4,0.4,0.6,0.9,0.9,1.5c0.2,0.5,0.4,1,0.6,1.6c0.4,1,0.8,2.1,1.2,3.1c0.1,0.3,0.2,0.5,0.4,0.7c0.2,0.2,0.4,0.1,0.5-0.2
		c0.1-0.3,0.1-0.5,0.2-0.8c0-0.1,0-0.3,0.1-0.4c0-0.1,0.1-0.3,0.2-0.4c0,0,0.1,0,0.1,0c0.1,0,0.1,0,0.1,0c0.1,0,0.1,0.1,0.2,0.1
		c0.1,0.1,0.2,0.2,0.3,0.3c0.2,0.2,0.3,0.5,0.4,0.7c0.3,0.5,0.5,1,0.8,1.5c0.1,0.2,0.3,0.5,0.4,0.7c0.1,0.1,0.2,0.2,0.3,0.3
		c0.1,0,0.1,0.1,0.1,0.1l0,0c0,0,0,0,0,0c0,0,0,0,0,0c0.2-0.5,0.3-1.1,0.4-1.6c0.3-2.2,0.5-4.5,0.8-6.7c0.1-0.6,0.2-1.1,0.3-1.7
		c0.1-0.3,0.1-0.5,0.3-0.8c0.1-0.3,0.2-0.6,0.5-0.7c0.1-0.1,0.4,0,0.5,0.1c0.1,0.1,0.2,0.2,0.2,0.4c0.1,0.3,0.2,0.5,0.3,0.8
		c0.2,0.5,0.3,1.1,0.4,1.7l0.6,3.3c0.1,0.6,0.2,1.1,0.4,1.6c0.1,0.5,0.3,1.1,0.6,1.5c0,0.1,0.1,0.1,0.1,0.1c0,0,0.1,0,0.1,0
		c0,0,0,0,0.1,0c0.1,0,0.2-0.1,0.2-0.2c0.1-0.2,0.2-0.5,0.2-0.8c0.1-0.5,0.2-1.1,0.2-1.7c0.1-1.1,0.1-2.2,0.2-3.4
		c0-1.1,0.1-2.3,0.2-3.4c0.1-0.3,0.1-0.6,0.3-0.9c0,0,0.1-0.1,0.1-0.1c0.1,0,0.1-0.1,0.2,0c0.1,0,0.2,0.1,0.2,0.2
		c0.1,0.1,0.1,0.3,0.2,0.4c0.2,0.5,0.3,1.1,0.5,1.6c0.5,2.2,0.9,4.4,1.3,6.6c0.1,0.6,0.2,1.1,0.4,1.6c0,0.1,0.1,0.3,0.1,0.4
		c0,0.1,0.1,0.3,0.2,0.3c0,0,0.1-0.1,0.2-0.2c0.1-0.1,0.1-0.3,0.2-0.4c0.4-1.1,0.6-2.2,1-3.2c0.1-0.3,0.2-0.5,0.4-0.8
		c0.1-0.1,0.2-0.3,0.3-0.4c0,0,0.1-0.1,0.2-0.2c0.1-0.1,0.2,0,0.3,0c0.2,0.3,0.2,0.6,0.3,0.9c0,0.3,0.1,0.6,0.1,0.8
		c0.1,1.1,0.1,2.3,0.2,3.4c0,0.3,0.1,0.6,0.2,0.8c0,0.1,0.1,0.1,0.1,0.2c0,0,0.1,0.1,0.1,0.1c0.1,0,0.2,0.1,0.3,0.1
		c0.2-0.1,0.4-0.3,0.5-0.6c0.1-0.2,0.2-0.5,0.4-0.8c0.1-0.1,0.2-0.3,0.3-0.3c0.1-0.1,0.3-0.2,0.4-0.2c0.2,0,0.3,0.2,0.4,0.3
		c0.1,0.1,0.2,0.2,0.2,0.4c0.1,0.3,0.2,0.5,0.4,0.8c0.1,0.1,0.1,0.3,0.2,0.3c0,0,0,0,0.1,0.1c0,0,0,0,0.1,0c0,0,0.1,0,0.1,0
		c0.2-0.1,0.4-0.4,0.6-0.6l0.5-0.7l1-1.4c0.3-0.5,0.7-0.9,0.9-1.4c0.3-0.5,0.5-1,0.7-1.5c0.8-2.1,1.4-4.3,2-6.4
		c0.3-1.1,0.6-2.2,1-3.2c0.1-0.3,0.2-0.5,0.3-0.8c0.1-0.1,0.1-0.3,0.3-0.4c0.1,0,0.2,0,0.2,0c0,0,0.1,0.1,0.1,0.1
		c0,0.1,0.1,0.1,0.1,0.2c0.2,0.6,0.2,1.1,0.3,1.7c0.2,2.3,0.3,4.5,0.4,6.8c0.1,1.1,0.2,2.3,0.4,3.3c0.1,0.3,0.1,0.6,0.2,0.8
		c0,0,0,0,0,0c0,0,0,0,0,0c0,0,0,0,0,0c0,0,0.1,0,0.1-0.1c0.1-0.1,0.2-0.2,0.3-0.3c0.3-0.4,0.6-1,0.8-1.5c0.5-1,0.8-2.1,1.3-3.1
		c0.1-0.3,0.3-0.5,0.4-0.7c0-0.1,0.1-0.1,0.2-0.2c0,0,0.1,0,0.1-0.1c0,0,0,0,0.1,0l0.1,0c0.1,0,0.2,0,0.3,0c0.1,0.1,0.1,0.1,0.2,0.2
		c0.2,0.6,0.1,1.2,0.2,1.7c0,0.3,0.1,0.6,0.1,0.8c0,0.1,0.1,0.2,0.2,0.3c0,0,0,0,0.1,0c0,0,0,0,0.1,0c0,0,0.1,0,0.2,0
		c0.4-0.2,0.8-0.7,1.1-1.2c0.6-0.9,1.2-1.9,1.8-2.8c0.1-0.1,0.2-0.2,0.3-0.3c0.1-0.1,0.3-0.2,0.5-0.2c0.4,0.1,0.5,0.4,0.7,0.6
		c0.3,0.5,0.6,1,0.9,1.4c0.2,0.2,0.3,0.4,0.5,0.6c0.2,0.2,0.5,0.2,0.6,0c0.4-0.3,0.6-0.9,0.7-1.4c0.4-1.1,0.6-2.2,0.8-3.3l0.3-1.7
		l0.1-0.4c0-0.1,0-0.1,0.1-0.2c0,0,0-0.1,0.1-0.1c0.1,0,0.2,0,0.2,0.1c0,0,0.1,0.1,0.1,0.1c0.1,0.3,0.2,0.5,0.3,0.8
		c0.2,0.5,0.4,1,0.8,1.4c0.2,0.2,0.4,0.3,0.5,0.1c0.1-0.2,0.2-0.5,0.3-0.7c0.2-1.1,0.3-2.2,0.4-3.3c0.1-0.6,0.1-1.1,0.3-1.7
		c0-0.1,0.1-0.1,0.1-0.2c0-0.1,0.1-0.2,0.2-0.2c0.1-0.1,0.3-0.1,0.3,0c0.1,0,0.1,0.1,0.2,0.2c0.2,0.2,0.4,0.5,0.5,0.7
		c0.6,1,1,2,1.6,3c0.3,0.5,0.5,1,0.9,1.4c0.2,0.2,0.3,0.5,0.5,0.6c0.2,0.2,0.4,0.3,0.6,0.3c0.5-0.2,0.8-0.7,1-1.2
		c0.3-0.5,0.5-1,0.7-1.5c0.4-1.1,0.7-2.1,1-3.2c0.1-0.3,0.1-0.5,0.3-0.8c0.1-0.3,0.5-0.5,0.8-0.4c0.6,0,1.2,0.1,1.6-0.1
		c0.1-0.1,0.2-0.1,0.2-0.2c0-0.1,0-0.2,0-0.4c0-0.3-0.1-0.5-0.1-0.8c-0.1-0.5-0.3-1.1-0.4-1.6c-0.3-1.1-0.7-2.2-1-3.2
		c-0.7-2.2-1.3-4.3-1.8-6.5c-0.5-2.2-0.8-4.4-1.1-6.7c-0.3-2.2-0.5-4.5-0.5-6.8c0-0.6,0-1.1,0.1-1.7c0-0.1,0-0.3,0.1-0.4
		c0-0.1,0.1-0.3,0.1-0.4l0.1-0.2c0-0.1,0.1-0.1,0.1-0.2c0-0.1,0.1-0.1,0.2-0.2c0.1,0,0.1-0.1,0.2-0.1c0.6-0.2,1.2-0.1,1.7,0.1
		c0.5,0.2,1.1,0.4,1.6,0.6c0.5,0.2,1.1,0.4,1.6,0.4c0.5,0,0.9-0.4,1.2-0.9c0.6-1,0.9-2.1,1.1-3.1l0-0.1l0.1,0
		c1.4,0.6,2.9,1.2,4.4,1.8c0.7,0.3,1.5,0.6,2.2,0.8c0.4,0.1,0.7,0.2,1.1,0.3c0.4,0.1,0.8,0.2,1.1,0.2c0,0,0.1,0,0.1,0
		c0,0,0.1-0.1,0.1-0.1c0.1-0.1,0.1-0.1,0.1-0.2c0.1-0.2,0.1-0.3,0.1-0.5c0-0.4-0.2-0.7-0.3-1.1c-0.3-0.7-0.7-1.4-1.1-2.1
		c-0.2-0.4-0.4-0.7-0.5-1.1L255,209c-0.3-0.7-0.7-1.4-1-2.2l-0.1-0.2l0.2,0.1c1.2,0.7,2.3,1.3,3.6,1.8c0.6,0.2,1.3,0.4,1.9,0.4
		c0.3,0,0.6-0.1,0.9-0.3c0.1-0.1,0-0.2-0.1-0.3c-0.1-0.1-0.2-0.2-0.4-0.3c-1.1-0.7-2.4-1.2-3.4-2.2c-1-0.9-1.9-1.9-2.7-3
		c-0.2-0.3-0.4-0.6-0.5-0.9c-0.1-0.2-0.2-0.3-0.1-0.6c0.1-0.1,0.2-0.1,0.3-0.1c0.1,0,0.2,0,0.3,0c0.7,0.1,1.3,0.4,1.9,0.6
		c1.3,0.5,2.5,0.9,3.8,1.4c0.3,0.1,0.6,0.2,1,0.3c0.2,0,0.3,0.1,0.5,0c0,0,0.1,0,0.1,0c0,0,0,0,0-0.1c0-0.1,0-0.1-0.1-0.2
		c-0.3-0.6-0.8-1.1-1.2-1.6c-0.9-1-1.9-1.9-2.7-3c-0.1-0.1-0.2-0.3-0.3-0.4c0-0.1-0.1-0.2-0.1-0.3c0-0.1,0.2-0.2,0.2-0.2
		c0.4-0.1,0.7,0,1,0l2,0.3c0.3,0.1,0.7,0.1,1,0.1c0.3,0,0.7,0,1-0.1l0.1-0.1c0,0,0.1-0.1,0.1-0.1c0,0,0-0.1,0-0.2
		c-0.1-0.1-0.1-0.3-0.2-0.4c-0.2-0.3-0.3-0.6-0.5-0.8c-0.8-1.1-1.6-2.1-2.4-3.2c-0.8-1-1.7-2.1-2.6-3.1
		C253,186.2,249.4,182.1,246,178L246,178z"/>
	<path class="st1" d="M181.8,101.7c0,0-0.6,0.1-1.7,0.2c-1.1,0.1-2.6,0.4-4.6,0.7c-1,0.2-2.1,0.4-3.3,0.7c-1.2,0.3-2.5,0.6-3.8,1
		c-0.7,0.2-1.4,0.4-2.1,0.6c-0.7,0.2-1.4,0.5-2.2,0.7c-0.8,0.2-1.5,0.5-2.3,0.7c-0.8,0.3-1.6,0.5-2.4,0.8c-3.2,1.1-6.7,2.5-10.2,4.2
		c-1.8,0.8-3.5,1.8-5.2,2.8c-0.4,0.2-0.8,0.5-1.3,0.8c-0.4,0.3-0.8,0.6-1.3,0.8c-0.4,0.3-0.8,0.6-1.2,0.9l-0.6,0.5l-0.2,0.1l-0.1,0
		l-0.1,0.1l-0.3,0.3c-1.7,1.4-3.2,2.8-4.8,4.3c-0.4,0.4-0.8,0.8-1.2,1.1c-0.4,0.4-0.8,0.8-1.1,1.2c-0.8,0.8-1.5,1.6-2.2,2.4
		c-1.4,1.6-2.7,3.4-3.7,5.2c-0.5,0.9-0.8,1.8-1,2.7l-0.6,3.4c-0.6,2.4-1.2,4.8-2.1,7l-0.3,0.8l0,0.1l-0.1,0.2l0,0.1l-0.1,0.2
		l-0.2,0.4l-0.2,0.4l-0.2,0.4l-0.5,0.9c-0.6,1-1.2,1.9-1.6,2.8c-0.2,0.5-0.4,0.9-0.5,1.4c-0.1,0.5-0.3,0.9-0.4,1.4
		c-0.1,0.5-0.2,1-0.3,1.5c0,0.5-0.1,1-0.1,1.5c0,0.6-0.1,1.1-0.1,1.7c0,0.6-0.1,1.2-0.1,1.7c-0.1,1.1-0.2,2.2-0.2,3.2
		c-0.2,4.1,0.5,8,2,11.4c1.5,3.4,3.7,6.4,5.9,8.9c0.3,0.3,0.6,0.6,0.8,0.9l0.4,0.5l0.4,0.4c0.6,0.6,1.2,1.1,1.7,1.7
		c1.1,1.1,2.3,2.1,3.3,3.1c2.1,1.9,3.9,3.6,5.4,5c1.5,1.4,2.6,2.5,3.4,3.2c0.4,0.4,0.7,0.7,0.9,0.8c0,0,0.1,0,0.1,0.1c0,0,0,0-0.1,0
		c0,0,0,0-0.1,0c-0.1,0.1,0,0.2,0,0.2l0,0l0,0c0,0-0.1-0.1-0.1-0.1c0-0.1-0.1-0.1-0.1-0.1l0.2-0.2c0,0,0,0,0.1,0.1
		c0,0,0.1,0.1,0.1,0.1l0,0l0,0c0,0,0.1,0.1,0,0.2c-0.1,0.1-0.1,0-0.1,0c0,0-0.1,0-0.1,0c0,0-0.1,0-0.1-0.1c-0.2-0.2-0.5-0.4-1-0.8
		c-0.8-0.7-2.1-1.7-3.6-3c-1.6-1.3-3.5-2.9-5.6-4.7c-1.1-0.9-2.3-1.8-3.4-2.9c-0.6-0.5-1.2-1.1-1.8-1.6l-0.5-0.4l-0.4-0.5
		c-0.3-0.3-0.6-0.6-0.9-0.9c-2.4-2.5-4.8-5.5-6.5-9.1c-1.8-3.6-2.6-7.9-2.5-12.2c0-2.2,0.2-4.4,0.3-6.6c0-2.3,0.5-4.6,1.4-6.7
		c0.5-1.1,1.1-2,1.7-3c0.3-0.5,0.6-1,0.8-1.5c0.1-0.3,0.3-0.5,0.4-0.8l0.3-0.8c0.8-2.1,1.4-4.4,1.9-6.6l0.6-3.4
		c0.2-1.2,0.7-2.3,1.2-3.3c1.1-2.1,2.5-3.9,4-5.6c3-3.4,6.4-6.4,9.8-9.2c0.8-0.7,1.7-1.3,2.6-1.9c0.9-0.6,1.8-1.2,2.7-1.7
		c1.8-1,3.7-1.9,5.5-2.8c3.6-1.6,7.2-2.9,10.5-3.9c3.3-1,6.4-1.9,9.2-2.4c1.4-0.3,2.7-0.5,3.9-0.8c1.2-0.2,2.3-0.4,3.3-0.5
		c2-0.3,3.6-0.4,4.7-0.5c1.1,0,1.7-0.1,1.7-0.1L181.8,101.7z"/>
	<path class="st1" d="M147.1,132.3c2.9,0,5.2,2.6,5.2,5.7c0,0.1,0,0.3,0,0.4c0-0.8-0.1-1.3-0.1-1.3c-1.1-1.5-4.3-3.1-5.6-2
		c-1.4,1.1-1.5,2.7,0,4.9c1.5,2.1,3.2,2.4,3.8,2.3c0.1,0,0.2-0.1,0.3-0.1c-0.9,0.9-2.1,1.5-3.5,1.5c-2.9,0-5.2-2.6-5.2-5.7
		S144.3,132.3,147.1,132.3z"/>
	<path class="st1" d="M148.6,143.5c0,0-0.6,0.2-3,0.2s-3.7-0.2-3.7-0.2"/>
	<path class="st1" d="M200.9,154.3c0-2.9-1.8-4.4-3.7-6.4c-1.8-2-1.5-3.1-5.6-9.2c-4.1-6.1-9.8-5.6-9.8-5.6s-5.7-0.5-9.8,5.6
		c-4.1,6.1-3.8,7.2-5.6,9.2c-1.8,2-3.7,3.5-3.7,6.4c0,2.9-0.2,5,2.1,7.3s7,2.9,8.2,5c1.2,2.1,2,7.2,3.5,8.4c1.5,1.2,5.2,1.1,5.2,1.1
		s3.7,0.2,5.2-1.1c1.5-1.2,2.3-6.3,3.5-8.4c1.2-2.1,5.9-2.7,8.2-5C201.1,159.3,200.9,157.2,200.9,154.3z"/>
	<path class="st1" d="M198,179.8c0,0-7.5-1.1-9.1-0.9c-1.6,0.2-7.1,0.9-7.1,0.9s-5.5-0.8-7.1-0.9c-1.6-0.2-9.1,0.9-9.1,0.9
		s2.7,0.3,2.9,1.2c0.2,0.9-0.6,2.1,1.1,2.9c1.7,0.8,12.3,2.1,12.3,2.1s10.6-1.4,12.3-2.1s0.9-2,1.1-2.9
		C195.3,180.1,198,179.8,198,179.8z"/>
	<path class="st1" d="M142.8,145.5c0,0,0,0.1-0.1,0.3c-0.1,0.2-0.2,0.4-0.3,0.7c-0.2,0.3-0.3,0.7-0.6,1.1c-0.2,0.4-0.5,0.9-0.8,1.3
		c-0.3,0.5-0.6,1-0.9,1.5c-0.3,0.5-0.6,1.1-0.9,1.6c-0.1,0.3-0.3,0.5-0.4,0.8l-0.1,0.2l-0.1,0.2l-0.2,0.4l-0.2,0.4l0,0.1l0,0
		c0,0.1,0-0.1,0-0.1l0,0l0,0l0,0.1l-0.1,0.3l-0.4,1c-0.3,0.7-0.5,1.4-0.8,2c-0.2,0.7-0.5,1.3-0.8,1.9c-0.3,0.6-0.6,1.2-0.9,1.7
		c-0.3,0.6-0.6,1.1-0.9,1.6c-0.3,0.5-0.6,0.9-0.8,1.3c-0.2,0.4-0.5,0.7-0.7,1c-0.2,0.3-0.4,0.5-0.5,0.6c-0.1,0.1-0.2,0.2-0.2,0.2
		l-0.2-0.1c0,0,0.4-1.4,1-3.5c0.3-1.1,0.7-2.3,1.1-3.6c0.2-0.7,0.4-1.3,0.6-2c0.2-0.7,0.5-1.4,0.8-2c0.3-0.7,0.5-1.4,0.9-2
		c0.3-0.7,0.8-1.2,1.2-1.8s0.9-1.1,1.3-1.5c0.4-0.5,0.8-0.9,1.2-1.3c0.8-0.8,1.5-1.4,1.9-1.8c0.5-0.4,0.8-0.7,0.8-0.7L142.8,145.5z"
		/>
	<path class="st1" d="M123.3,157.9c0,0,0.1,0.1,0.3,0.4c0.2,0.3,0.5,0.6,0.8,1.1c0.3,0.5,0.8,1.1,1.2,1.7c0.2,0.3,0.5,0.7,0.8,1
		c0.1,0.2,0.3,0.4,0.4,0.6c0.1,0.2,0.3,0.4,0.4,0.6c0.6,0.8,1.3,1.6,2,2.5c0.3,0.4,0.7,0.9,1.1,1.4c0.4,0.4,0.8,0.9,1.2,1.4
		c0.4,0.5,0.7,1,1.2,1.5c0.4,0.5,0.8,1,1.2,1.6c0.8,1,1.6,2.1,2.4,3.2c0.8,1.1,1.5,2.2,2.3,3.2c0.7,1.1,1.5,2,2.2,3
		c0.4,0.5,0.7,0.9,1.1,1.4c0.4,0.4,0.7,0.9,1.1,1.3c0.4,0.4,0.8,0.8,1.1,1.2c0.2,0.2,0.3,0.4,0.5,0.6l0,0c0,0,0,0,0,0l0,0l0.1,0.1
		l0.1,0.1l0.3,0.3c0.7,0.7,1.4,1.4,2,2c0.6,0.6,1.1,1.2,1.5,1.6c0.4,0.4,0.7,0.8,0.9,1c0.2,0.3,0.3,0.4,0.3,0.4l-0.1,0.3
		c0,0-0.1-0.1-0.4-0.3c-0.3-0.2-0.7-0.4-1.2-0.8c-1-0.7-2.4-1.6-4-2.8c-0.4-0.3-0.8-0.6-1.3-1c-0.4-0.3-0.9-0.7-1.3-1.1
		c-0.4-0.4-0.9-0.8-1.3-1.2c-0.4-0.4-0.9-0.9-1.3-1.4c-0.8-0.9-1.7-2-2.5-3c-0.8-1-1.6-2.2-2.4-3.2c-0.8-1.1-1.6-2.2-2.3-3.3
		c-0.8-1.1-1.5-2.1-2.2-3.2c-0.4-0.5-0.7-1-1-1.5c-0.3-0.5-0.6-1-0.9-1.5c-0.6-1-1.1-2-1.6-2.9c-0.5-0.9-0.9-1.8-1.2-2.5
		c-0.3-0.8-0.6-1.4-0.8-2c-0.2-0.6-0.4-1-0.4-1.3c-0.1-0.3-0.1-0.5-0.1-0.5L123.3,157.9z"/>
	<path class="st1" d="M173.6,174.6c0,0,0-0.1-0.1-0.2c-0.1-0.1-0.2-0.3-0.3-0.5c-0.3-0.5-0.7-1.1-1.2-1.9c-0.2-0.4-0.5-0.8-0.8-1.2
		c-0.3-0.4-0.6-0.8-0.9-1.2c-0.3-0.4-0.6-0.6-1.1-0.9c-0.4-0.2-0.9-0.5-1.5-0.7c-0.5-0.2-1.1-0.5-1.6-0.7c-0.6-0.2-1.1-0.5-1.6-0.7
		c-0.5-0.2-1.1-0.5-1.6-0.8c-0.1-0.1-0.3-0.2-0.4-0.3c-0.1-0.1-0.1-0.1-0.2-0.2c-0.1-0.1-0.1-0.2-0.2-0.2l0-0.1l0,0l0,0
		c-0.1-0.1,0,0,0-0.1l0,0l0-0.1l-0.1-0.2c0-0.1-0.1-0.2-0.1-0.3c-0.2-0.4-0.3-0.9-0.4-1.3c-0.1-0.4-0.2-0.7-0.2-1
		c0-0.3-0.1-0.5-0.1-0.6c0-0.1,0-0.2,0-0.2l0.1,0c0,0,0.1,0.3,0.3,0.8c0.1,0.3,0.2,0.6,0.4,0.9c0.2,0.3,0.3,0.7,0.6,1.1
		c0.1,0.2,0.2,0.4,0.4,0.6c0.1,0.1,0.2,0.2,0.3,0.2c0.1,0.1,0.2,0.1,0.3,0.2c0.5,0.2,1,0.4,1.5,0.6c1.1,0.4,2.2,0.8,3.4,1.2
		c0.6,0.2,1.1,0.5,1.6,0.8c0.5,0.3,1,0.8,1.3,1.3c0.3,0.5,0.6,1,0.8,1.4c0.2,0.5,0.4,0.9,0.6,1.3c0.7,1.7,1.1,2.9,1.1,2.9
		L173.6,174.6z"/>
	<path class="st1" d="M118.9,178.1c-3.5,4-7,8.1-10.4,12.3c-0.8,1-1.7,2.1-2.5,3.1c-0.8,1.1-1.6,2.1-2.4,3.2
		c-0.2,0.3-0.4,0.5-0.5,0.8c-0.1,0.1-0.1,0.3-0.2,0.4l0,0.1c0,0,0,0,0-0.1c0,0,0,0,0,0c-0.1-0.1,0,0,0,0l0,0l0,0c0,0,0,0,0,0
		c0.2,0.1,0.5,0.1,0.8,0.1c0.3,0,0.6-0.1,1-0.1l2-0.4c0.2,0,0.3-0.1,0.5-0.1c0.2,0,0.4,0,0.7,0c0.1,0,0.2,0.1,0.3,0.1
		c0.1,0.1,0.2,0.2,0.3,0.4c0,0.1,0,0.1,0,0.2l0,0.1c0,0,0,0.1,0,0.1l0,0l0,0.1l0,0.1c-0.1,0.3-0.2,0.4-0.3,0.5
		c-0.9,1.1-1.8,2.1-2.7,3.1c-0.2,0.2-0.4,0.5-0.6,0.7c-0.2,0.2-0.4,0.5-0.5,0.7c0,0,0,0.1,0,0c0,0,0,0,0-0.1c0,0,0-0.1,0-0.1
		c-0.1-0.1,0.1,0.1-0.1-0.1l0,0c0,0,0,0,0,0c0,0-0.1-0.1-0.1-0.1c0,0,0,0-0.1,0c0,0,0,0,0,0h0c0,0,0,0,0.1,0c0,0,0.1,0,0.2,0
		c0.3-0.1,0.6-0.2,0.9-0.3c1.2-0.4,2.5-0.9,3.8-1.4c0.6-0.2,1.3-0.5,2-0.6c0.1,0,0.2,0,0.3,0l0.1,0c0,0,0.1,0,0.2,0
		c0.1,0,0.1,0,0.2,0.1c0.1,0.1,0.2,0.2,0.3,0.3c0,0,0.1,0.2,0.1,0.1l0,0l0,0c0,0,0,0.2,0,0.2c0,0.1,0,0.1,0,0.2l0,0.1
		c0,0.1-0.1,0.3-0.1,0.3c-0.2,0.4-0.4,0.7-0.6,1c-0.8,1.1-1.8,2.1-2.8,3.1c-0.3,0.2-0.5,0.5-0.9,0.7c-0.3,0.2-0.6,0.4-0.9,0.6
		c-0.6,0.4-1.2,0.7-1.7,1c-0.1,0.1-0.2,0.2-0.3,0.2c0,0,0,0,0,0c0,0,0,0,0,0c0,0,0-0.1,0-0.1c0-0.1,0-0.2,0-0.3l-0.1-0.1
		c0,0,0,0-0.1-0.1c0.2,0.1,0.3,0.1,0.5,0.2c0.4,0,1.1-0.2,1.6-0.3l0.9-0.4c0.3-0.1,0.6-0.3,0.9-0.4c0.6-0.3,1.2-0.6,1.7-0.9l2-1.2
		l-0.9,2.1c-0.3,0.7-0.6,1.5-1,2.2l-0.5,1.1c-0.2,0.4-0.4,0.7-0.6,1.1c-0.2,0.4-0.4,0.7-0.6,1c-0.2,0.3-0.4,0.7-0.5,1
		c-0.1,0.3-0.2,0.6-0.2,0.9c0,0.1,0,0.2,0,0.2c0,0,0,0,0,0l0,0l0,0l0,0v0c-0.1,0,0.1,0.1-0.1-0.1l0,0l0.1,0c0,0-0.1,0-0.1,0
		c0,0-0.1,0-0.1,0l0,0c0,0,0,0,0.1,0c0.1,0,0.1,0,0.2,0c0.2,0,0.3-0.1,0.5-0.1c0.4-0.1,0.7-0.2,1.1-0.3c0.7-0.2,1.4-0.5,2.2-0.8
		c1.4-0.6,2.9-1.2,4.3-1.8l1-0.5l0.2,1.1c0.2,1,0.5,2.1,1,2.9c0.1,0.1,0.1,0.2,0.2,0.2l0.1,0.1c0,0,0.1,0,0.1,0.1c0,0,0,0,0.1,0
		c0,0,0,0,0,0c0,0,0,0,0,0v0c-0.1,0,0,0,0,0h0.1c0.3,0,0.8-0.2,1.3-0.3c0.5-0.2,1-0.4,1.6-0.6c0.3-0.1,0.6-0.2,1-0.2
		c0.2,0,0.4,0,0.6,0c0.1,0,0.2,0,0.3,0c0.1,0,0.3,0.1,0.4,0.1c0.1,0,0.3,0.1,0.4,0.2c0.1,0.1,0.2,0.2,0.3,0.3l0.1,0.2l0.1,0.1
		c0,0.1,0,0,0.1,0.2l0.1,0.2c0.1,0.2,0.2,0.8,0.2,1c0.1,0.6,0.1,1.2,0.1,1.8c0,2.3-0.2,4.6-0.5,6.9c-0.3,2.3-0.7,4.5-1.1,6.7
		c-0.5,2.3-1.1,4.4-1.8,6.6c-0.3,1.1-0.7,2.2-1,3.2c-0.2,0.5-0.3,1.1-0.4,1.6c0,0.2-0.1,0.5-0.1,0.7c0,0,0,0.1,0,0.1c0,0,0,0,0,0
		c0,0,0,0,0,0c0-0.1-0.1-0.1-0.2-0.3c0,0-0.2-0.1-0.1-0.1l0,0l0.1,0.1c0,0,0,0,0,0c0,0,0,0,0.1,0c0.1,0,0.2,0,0.3,0
		c0.2,0,0.5,0,0.9,0c0.1,0,0.2,0,0.4,0c0.2,0,0.3,0.1,0.5,0.2c0.2,0.1,0.3,0.2,0.5,0.3c0.1,0.1,0.2,0.3,0.3,0.4
		c0.1,0.1,0.1,0.3,0.1,0.4l0.1,0.2l0.1,0.4c0.3,1.1,0.6,2.1,1,3.1c0.2,0.5,0.4,1,0.6,1.4c0.1,0.2,0.2,0.4,0.4,0.6
		c0.1,0.2,0.3,0.2,0.1,0.2c0,0-0.1,0-0.1,0c0,0-0.3,0-0.1,0l0.1,0c0,0,0.1,0,0,0c0,0-0.1,0-0.1,0c0,0-0.1,0-0.1,0c0,0-0.1,0-0.1,0
		c0,0,0,0,0.1-0.1c0.1-0.1,0.3-0.3,0.4-0.5c0.3-0.4,0.5-0.9,0.8-1.4c0.5-1,1-2,1.6-3c0.2-0.3,0.3-0.5,0.6-0.9
		c0.1-0.1,0.2-0.2,0.4-0.3c0.2-0.1,0.8-0.3,1.4,0.1l0,0c0,0,0.1,0,0.1,0.1c0.1,0.1,0.2,0.3,0.2,0.3c0.1,0.1,0.1,0.3,0.2,0.4
		c0.1,0.4,0.2,0.7,0.2,1c0,0.3,0.1,0.6,0.1,0.9c0.1,1.1,0.2,2.3,0.4,3.2c0,0.1,0.1,0.2,0.1,0.3c0,0.1,0.1,0.1,0,0
		c0,0-0.1-0.1-0.1-0.1c0,0-0.1,0-0.1-0.1c0,0-0.2-0.1-0.1,0l0,0c-0.1,0-0.1,0-0.2,0c-0.1,0-0.1,0-0.2,0c-0.2,0.1-0.2,0.1-0.2,0.1
		c0.1-0.1,0.2-0.3,0.3-0.5c0.1-0.2,0.2-0.4,0.3-0.7l0.2-0.4c0.1-0.1,0.1-0.3,0.2-0.5c0-0.1,0.1-0.1,0.2-0.3c0.2,0,0.2-0.5,1.3-0.3
		c0.6,0.4,0.7,0.9,0.6,0.6l0,0.1l0,0.1l0,0.1l0.1,0.4l0.3,1.6c0.2,1.1,0.5,2.2,0.8,3.1c0.1,0.2,0.2,0.5,0.3,0.7
		c0.1,0.2,0.2,0.4,0.2,0.3c0,0,0,0-0.1,0c0,0-0.1,0-0.1-0.1c0,0-0.2,0-0.1,0l0.1,0c0.1,0-0.1,0-0.1,0c-0.2,0-0.2,0.1-0.2,0
		c0,0,0.2-0.2,0.3-0.4c0.3-0.4,0.5-0.9,0.9-1.4c0.1-0.1,0.2-0.3,0.4-0.5c0.2-0.2,0.4-0.4,0.9-0.5c0.3-0.1,0.6,0,0.9,0.1
		c0.2,0.1,0.4,0.3,0.5,0.4c0,0,0.1,0.1,0.1,0.1l0,0l0.1,0.1c0,0.1,0.1,0.1,0.1,0.2c0.4,0.6,0.7,1,1,1.5c0.3,0.5,0.6,0.9,0.9,1.4
		c0.1,0.2,0.3,0.4,0.4,0.6c0.1,0.2,0.3,0.3,0.3,0.3c0,0,0,0,0,0c0,0-0.1,0-0.1,0c0,0-0.1,0-0.1,0c0.1,0-0.2,0.1-0.2,0l0.1,0
		c0.1,0-0.1,0-0.1,0c0,0-0.1,0.1-0.1,0.1c0,0,0,0-0.1,0c0,0,0,0-0.1,0.1c0,0,0,0,0,0c0-0.1,0.1-0.3,0.1-0.5l0-0.8c0-0.2,0-0.3,0-0.5
		c0-0.2,0-0.4,0.2-0.7c0.1-0.2,0.2-0.4,0.5-0.6c0.2-0.1,0.4-0.2,0.6-0.2c0.1,0,0.2,0,0.3,0c0.1,0,0.2,0,0.2,0c0.1,0,0.1,0,0.2,0.1
		c0,0,0.3,0.1,0.2,0.1c0,0,0,0,0.1,0.1c0.1,0.1,0.2,0.2,0.2,0.2l0.1,0.1c0.3,0.3,0.4,0.6,0.5,0.9c0.5,1.1,0.9,2.2,1.3,3.1
		c0.2,0.5,0.5,1,0.7,1.3c0,0.1,0.1,0.1,0.1,0.1c0,0-0.1,0-0.2-0.1c0.2,0-0.3,0-0.2,0c0,0,0.1,0-0.2,0c-0.2,0.1-0.3,0.2-0.3,0.2
		c0,0-0.1,0.1-0.1,0.1c-0.1,0.1,0,0,0,0c0-0.1,0.1-0.2,0.1-0.3c0.2-1,0.3-2.1,0.3-3.2c0.2-2.2,0.2-4.5,0.5-6.8
		c0-0.3,0.1-0.6,0.1-0.9c0-0.3,0.1-0.6,0.2-1c0-0.1,0.1-0.2,0.2-0.4c0-0.1,0.1-0.2,0.4-0.4c0.2-0.1,0.3-0.2,0.5-0.2
		c0.2,0,0.4,0,0.5,0.1c0.2,0.1,0.2,0.1,0.3,0.2c0.1,0.1,0.1,0.1,0.2,0.2l0.1,0.1c0,0,0.1,0.2,0.1,0.1l0.1,0.2
		c0.1,0.2,0.3,0.6,0.4,0.9c0.4,1.1,0.7,2.2,1,3.3c0.6,2.2,1.2,4.3,2,6.4c0.2,0.5,0.4,1,0.7,1.4c0.1,0.2,0.2,0.4,0.4,0.6l0.5,0.7
		l1,1.4l0.5,0.7c0.1,0.1,0.2,0.2,0.2,0.3c0.1,0.1,0.1,0.1,0.1,0.1c0,0-0.1,0-0.1,0c0,0-0.1,0-0.2,0c0,0-0.1,0-0.1,0
		c0.1-0.1-0.3,0.1-0.2,0.1l0,0c0,0,0,0,0,0c-0.1,0-0.1,0.1-0.1,0.1l0,0l0.1-0.1c0.1-0.2,0.2-0.5,0.4-0.8c0.1-0.2,0.2-0.3,0.3-0.5
		c0,0,0.1-0.1,0.1-0.2c0.1-0.1,0.1-0.1,0.2-0.2c0.1-0.1,0.2-0.1,0.3-0.2c0.1,0,0.3-0.1,0.4-0.1c0.3,0,0.6,0.1,0.7,0.2l0.1,0.1
		c0.1,0,0,0,0.2,0.1l0.1,0.1c0,0,0.2,0.2,0.2,0.3c0.1,0.1,0.1,0.2,0.2,0.3c0.2,0.3,0.3,0.6,0.4,0.8c0.1,0.1,0.1,0.2,0.1,0.2
		c0,0,0-0.1-0.2-0.1c0,0-0.1,0-0.1,0c0,0,0,0-0.1,0c0,0,0,0,0,0l0,0c-0.1,0,0.1-0.1-0.1,0.1c0,0,0.1-0.1,0.1,0
		c-0.1,0-0.1,0.1-0.1,0.1c0,0,0,0,0,0c0-0.1,0.1-0.4,0.1-0.6c0.1-1,0.1-2.2,0.2-3.3c0-0.3,0-0.6,0.1-0.9c0-0.2,0-0.3,0.1-0.5
		c0-0.1,0.1-0.2,0.1-0.3c0-0.1,0.1-0.1,0.1-0.2c0.1-0.1,0.1-0.2,0.2-0.3c0.2-0.1,0.3-0.2,0.6-0.3c0.3,0,0.4,0,0.6,0.1
		c0.1,0,0.1,0.1,0.2,0.1l0.1,0.1c0,0,0.1,0,0.1,0.1l0,0c0,0,0.1,0.1,0.2,0.2c0.1,0.1,0.1,0.2,0.2,0.2c0.2,0.3,0.3,0.6,0.4,0.9
		c0.4,1.1,0.7,2.3,1,3.3c0,0.1,0.1,0.2,0.1,0.3l0,0c0,0,0,0,0,0c0,0,0,0-0.1-0.1c-0.1,0-0.3-0.1-0.4-0.1c-0.1,0-0.1,0-0.3,0.1
		c0,0,0,0-0.1,0.1c-0.1,0.1-0.1,0.1-0.1,0.1c0,0,0,0,0,0c0,0,0-0.1,0-0.1c0-0.1,0.1-0.2,0.1-0.3c0.1-0.5,0.3-1.1,0.4-1.6
		c0.5-2.2,0.8-4.4,1.4-6.6c0.1-0.6,0.3-1.1,0.5-1.7c0.1-0.2,0.1-0.3,0.3-0.5c0-0.1,0.1-0.1,0.2-0.2c0,0,0.1-0.1,0.2-0.1
		c0.1,0,0.2-0.1,0.3-0.1c0.3,0,0.5,0,0.7,0.2l0,0c0,0,0,0,0.1,0.1c0.1,0.1,0.1,0.2,0.2,0.3c0.1,0.1,0,0.1,0.1,0.2
		c0,0.1,0.1,0.2,0.1,0.3c0,0.2,0.1,0.3,0.1,0.5c0.2,1.2,0.2,2.3,0.2,3.5c0,1.1,0.1,2.3,0.1,3.4c0,0.5,0.1,1.1,0.2,1.6
		c0,0.2,0.1,0.5,0.2,0.6c0,0,0,0,0,0c0,0-0.1-0.1-0.1-0.1c0,0-0.1,0-0.1,0c0,0-0.1,0-0.1,0c-0.3,0.1,0,0-0.1,0c0,0,0.1,0,0.1,0
		c-0.1,0-0.1,0.1-0.1,0c0.1-0.1,0.2-0.3,0.3-0.6c0.1-0.2,0.2-0.5,0.2-0.8c0.1-0.5,0.3-1.1,0.4-1.6l0.7-3.3c0.1-0.6,0.2-1.1,0.4-1.7
		c0.1-0.3,0.2-0.6,0.3-0.9c0.1-0.2,0.2-0.3,0.3-0.5c0.1,0,0.1-0.1,0.2-0.1c0.1-0.1,0.2-0.1,0.3-0.1c0.1,0,0.2,0,0.3,0
		c0.1,0,0.2,0.1,0.3,0.1c0,0,0.1,0,0.1,0.1c0,0,0.1,0.1,0.1,0.1l0,0l0.1,0.1c0.1,0.1,0.1,0.2,0.2,0.3c0.1,0.2,0.2,0.3,0.2,0.5
		c0.1,0.3,0.2,0.6,0.3,0.9c0.1,0.6,0.2,1.1,0.3,1.7c0.3,2.3,0.5,4.5,0.7,6.7c0,0.3,0.1,0.5,0.1,0.8c0,0.1,0,0.3,0.1,0.4
		c0,0.1,0.1,0.3,0.1,0.3c0,0,0,0-0.1-0.1c-0.1,0-0.1,0-0.2,0l0,0c0.1,0,0,0,0,0l0,0c0.1-0.1,0.1-0.2,0.2-0.3
		c0.1-0.2,0.3-0.4,0.4-0.7c0.3-0.5,0.5-1,0.8-1.5c0.1-0.3,0.3-0.5,0.4-0.8c0.1-0.1,0.2-0.3,0.3-0.4c0.1-0.1,0.1-0.1,0.3-0.2
		c0,0,0.1,0,0.1,0c0,0,0.2,0,0.2,0c0,0,0,0,0.2,0.1c0.2,0.1,0.2,0.2,0.3,0.3c0,0.1,0.1,0.2,0.1,0.3c0,0.2,0.1,0.3,0.1,0.4
		c0,0.3,0.1,0.6,0.1,0.8c0,0.1,0.1,0.1,0.1,0.1c0,0,0.1,0,0,0c0.1,0,0,0,0.1,0c0.1-0.2,0.3-0.4,0.4-0.7c0.5-1,0.8-2.1,1.3-3.1
		c0.2-0.5,0.4-1,0.7-1.6c0.3-0.5,0.5-1,0.9-1.5c0.1-0.1,0.3-0.2,0.5-0.2c0.1,0,0.1,0,0.2,0c0,0,0.1,0,0.1,0l0,0
		c0.1,0,0.1,0.1,0.2,0.2c0.2,0.3,0.3,0.5,0.4,0.8c0.2,0.5,0.4,1.1,0.5,1.6c0.6,2.2,1,4.4,1.4,6.6l-0.1,0c-0.4-2.2-0.8-4.4-1.5-6.6
		c-0.2-0.5-0.3-1.1-0.6-1.6c-0.1-0.3-0.2-0.5-0.4-0.7c-0.1-0.1-0.2-0.2-0.3-0.2c-0.1,0-0.2,0.1-0.3,0.2c-0.4,0.4-0.6,0.9-0.9,1.4
		c-0.2,0.5-0.4,1-0.6,1.6c-0.4,1-0.8,2.1-1.2,3.2c-0.1,0.3-0.2,0.5-0.4,0.7c0,0.1-0.1,0.1-0.2,0.1c-0.1,0-0.2,0-0.3,0
		c-0.2-0.1-0.3-0.2-0.3-0.4c-0.1-0.3-0.1-0.6-0.2-0.8c0-0.1,0-0.3-0.1-0.4c0-0.1-0.1-0.3-0.1-0.3c0,0-0.1,0-0.1,0c0,0,0,0-0.1,0
		c0,0-0.1,0.1-0.1,0.1c-0.1,0.1-0.2,0.2-0.2,0.3c-0.1,0.2-0.3,0.5-0.4,0.7c-0.3,0.5-0.5,1-0.8,1.5c-0.1,0.2-0.3,0.5-0.4,0.7
		c-0.1,0.1-0.2,0.2-0.3,0.3c-0.1,0-0.1,0.1-0.2,0.1l0,0c0,0-0.1,0-0.1,0c-0.1,0-0.1-0.1-0.1-0.1c-0.2-0.3-0.2-0.6-0.3-0.8
		c-0.1-0.3-0.1-0.6-0.1-0.8c-0.3-2.2-0.5-4.5-0.8-6.7c-0.1-0.6-0.2-1.1-0.3-1.7c-0.1-0.3-0.1-0.5-0.2-0.8c-0.1-0.2-0.2-0.5-0.4-0.6
		c-0.2-0.1-0.4,0.2-0.5,0.4c-0.1,0.2-0.2,0.5-0.3,0.8c-0.2,0.5-0.3,1.1-0.4,1.6l-0.6,3.3c-0.1,0.6-0.2,1.1-0.4,1.7
		c-0.2,0.5-0.3,1.1-0.6,1.6c0,0.1-0.1,0.1-0.2,0.2c0,0-0.1,0-0.1,0c0,0,0,0-0.1,0l-0.1,0c-0.2,0-0.3-0.2-0.4-0.3
		c-0.1-0.3-0.2-0.5-0.3-0.8c-0.1-0.6-0.2-1.1-0.2-1.7c-0.1-1.1-0.1-2.3-0.2-3.4c0-1.1-0.1-2.3-0.2-3.4c0-0.3-0.1-0.6-0.2-0.8
		c0,0,0,0-0.1-0.1c0,0,0,0,0,0c0,0-0.1,0.1-0.1,0.1c-0.1,0.1-0.1,0.2-0.2,0.4c-0.2,0.5-0.3,1.1-0.5,1.6c-0.5,2.2-0.9,4.4-1.3,6.6
		c-0.1,0.6-0.2,1.1-0.4,1.7c0,0.1-0.1,0.3-0.1,0.4c0,0.1,0,0.1-0.1,0.2c0,0.1-0.1,0.2-0.2,0.2c-0.1,0-0.2-0.1-0.3-0.1
		c-0.1-0.1-0.1-0.1-0.1-0.2c-0.1-0.1-0.1-0.3-0.2-0.4c-0.4-1.1-0.6-2.2-1-3.2c-0.1-0.3-0.2-0.5-0.4-0.8c-0.1-0.1-0.1-0.2-0.2-0.3
		c-0.1-0.1-0.2-0.2-0.2-0.1c-0.1,0.2-0.2,0.5-0.2,0.7c0,0.3-0.1,0.6-0.1,0.8c-0.1,1.1-0.1,2.3-0.2,3.4c0,0.3-0.1,0.6-0.2,0.8
		c0,0.1-0.1,0.1-0.1,0.2c-0.1,0.1-0.1,0.1-0.2,0.2c-0.2,0.1-0.3,0.1-0.5,0.1c-0.4-0.1-0.5-0.4-0.6-0.7c-0.1-0.3-0.2-0.5-0.4-0.7
		c-0.1-0.2-0.3-0.5-0.5-0.5c-0.2,0-0.4,0.3-0.5,0.5c-0.1,0.2-0.2,0.5-0.4,0.8c-0.1,0.1-0.1,0.3-0.3,0.4c0,0-0.1,0-0.1,0.1
		c-0.1,0-0.1,0-0.1,0c-0.1,0-0.2,0-0.3-0.1c-0.3-0.2-0.4-0.4-0.6-0.6l-0.5-0.7l-1-1.4c-0.3-0.5-0.7-0.9-1-1.4
		c-0.3-0.5-0.5-1-0.7-1.5c-0.8-2.1-1.4-4.3-2-6.5c-0.3-1.1-0.6-2.2-1-3.2c-0.1-0.3-0.2-0.5-0.3-0.8c-0.1-0.1-0.1-0.3-0.2-0.3
		c0,0-0.1,0.1-0.1,0.2c-0.2,0.5-0.2,1.1-0.3,1.6c-0.2,2.2-0.3,4.5-0.4,6.7c-0.1,1.1-0.2,2.3-0.4,3.4c-0.1,0.3-0.1,0.6-0.3,0.8
		c0,0-0.1,0.1-0.1,0.1c0,0-0.1,0-0.1,0c0,0-0.1,0-0.1,0c-0.1,0-0.2-0.1-0.2-0.1c-0.1-0.1-0.2-0.2-0.3-0.3c-0.3-0.5-0.6-1-0.8-1.5
		c-0.5-1-0.8-2.1-1.3-3.1c-0.1-0.2-0.3-0.5-0.4-0.7c0-0.1-0.1-0.1-0.1-0.1c0,0-0.1,0-0.1-0.1c0,0,0,0,0,0l0,0c-0.1,0-0.1,0-0.2,0.1
		c-0.2,0.5-0.1,1.1-0.2,1.6c0,0.3,0,0.6-0.1,0.9c-0.1,0.1-0.1,0.3-0.3,0.4c-0.1,0-0.1,0-0.1,0c-0.1,0-0.1,0-0.1,0
		c-0.1,0-0.2,0-0.2-0.1c-0.3-0.1-0.5-0.4-0.7-0.6c-0.2-0.2-0.4-0.4-0.5-0.7c-0.7-0.9-1.2-1.9-1.8-2.8c-0.2-0.2-0.3-0.5-0.5-0.4
		c-0.2,0.1-0.4,0.3-0.5,0.5c-0.3,0.5-0.6,1-0.9,1.4c-0.2,0.2-0.3,0.5-0.6,0.7c-0.2,0.2-0.7,0.3-0.9,0c-0.5-0.4-0.6-1-0.8-1.5
		c-0.4-1.1-0.6-2.2-0.8-3.3l-0.3-1.7l-0.1-0.4c0-0.1,0-0.1,0-0.2c0,0,0,0,0,0c0.1,0,0.1,0,0.1,0c0,0,0,0,0,0.1
		c-0.1,0.2-0.2,0.5-0.3,0.8c-0.2,0.5-0.4,1.1-0.8,1.5c-0.1,0.1-0.2,0.2-0.4,0.3c-0.1,0-0.2,0-0.3,0c-0.1,0-0.2-0.1-0.2-0.1
		c-0.2-0.3-0.3-0.6-0.3-0.8c-0.2-1.1-0.3-2.3-0.4-3.4c-0.1-0.6-0.1-1.1-0.3-1.6c0-0.1,0-0.1-0.1-0.2c0-0.1,0-0.1-0.1-0.1
		c0,0-0.1,0-0.2,0.1c-0.2,0.2-0.3,0.4-0.5,0.7c-0.6,1-1,2-1.6,3c-0.3,0.5-0.5,1-0.9,1.5c-0.2,0.2-0.3,0.5-0.5,0.7
		c-0.1,0.1-0.2,0.2-0.4,0.3c-0.2,0.1-0.3,0.1-0.5,0c-0.3-0.1-0.5-0.4-0.7-0.6c-0.2-0.2-0.3-0.5-0.4-0.7c-0.3-0.5-0.5-1-0.7-1.6
		c-0.4-1.1-0.7-2.1-1-3.2c-0.1-0.3-0.1-0.6-0.2-0.8c-0.1-0.2-0.3-0.3-0.6-0.3c-0.5,0-1.1,0.1-1.7-0.1c-0.1,0-0.1,0-0.2-0.1
		c-0.1-0.1-0.1-0.1-0.1-0.2c-0.1-0.2-0.1-0.3-0.1-0.5c0-0.3,0.1-0.6,0.1-0.9c0.1-0.6,0.3-1.1,0.4-1.6c0.3-1.1,0.7-2.2,1-3.2
		c0.7-2.2,1.3-4.3,1.8-6.5c0.5-2.2,0.8-4.4,1.1-6.7c0.3-2.2,0.5-4.5,0.5-6.7c0-0.6,0-1.1-0.1-1.7c-0.1-0.5-0.2-1.2-0.6-1.4
		c-0.5-0.2-1.1,0-1.6,0.1c-0.5,0.2-1.1,0.4-1.6,0.6c-0.5,0.2-1.1,0.4-1.7,0.4c-0.1,0-0.3,0-0.4-0.1c-0.1-0.1-0.3-0.1-0.4-0.2
		c-0.2-0.2-0.4-0.4-0.6-0.7c-0.6-1-0.9-2.1-1.1-3.2l0.1,0.1c-1.4,0.6-2.9,1.2-4.4,1.8c-0.7,0.3-1.5,0.6-2.2,0.8
		c-0.4,0.1-0.8,0.2-1.1,0.3c-0.4,0.1-0.8,0.2-1.2,0.2c-0.5-0.1-0.6-0.7-0.6-1.1c0-0.4,0.2-0.8,0.3-1.2c0.3-0.7,0.8-1.4,1.1-2.1
		c0.2-0.3,0.4-0.7,0.5-1l0.5-1.1c0.3-0.7,0.7-1.4,1-2.2l0.1,0.1c-1.2,0.6-2.4,1.3-3.6,1.8c-0.6,0.2-1.3,0.4-2,0.4
		c-0.3,0-0.7-0.1-1-0.4c-0.1-0.1-0.2-0.2-0.1-0.3c0-0.1,0.1-0.2,0.2-0.2c0.1-0.1,0.3-0.2,0.4-0.3c1.1-0.7,2.4-1.2,3.4-2.2
		c1-0.9,1.9-1.9,2.7-2.9c0.2-0.3,0.4-0.5,0.5-0.8c0.1-0.1,0.1-0.3,0.1-0.4c0,0-0.3,0-0.4,0c-0.6,0.1-1.3,0.4-1.9,0.6
		c-1.3,0.5-2.5,0.9-3.8,1.4c-0.3,0.1-0.6,0.2-1,0.3c-0.2,0-0.3,0.1-0.5,0c-0.1,0-0.1,0-0.1-0.1c-0.1-0.1-0.1-0.1-0.1-0.2
		c0-0.1,0-0.2,0.1-0.3c0.3-0.6,0.8-1.1,1.2-1.6c0.9-1,1.9-1.9,2.7-3c0.1-0.1,0.2-0.3,0.3-0.4c0.1-0.2,0.1-0.3-0.1-0.3
		c-0.3-0.1-0.6,0-1,0l-2,0.3c-0.3,0.1-0.7,0.1-1,0.1c-0.3,0-0.7,0-1-0.1c-0.1-0.1-0.2-0.1-0.2-0.2c-0.1-0.1,0-0.2,0-0.3
		c0.1-0.2,0.1-0.3,0.2-0.5c0.2-0.3,0.4-0.6,0.5-0.8c0.8-1.1,1.6-2.2,2.4-3.2c0.8-1,1.7-2.1,2.6-3.1
		C111.8,186.1,115.3,182,118.9,178.1L118.9,178.1z"/>
</g>
</svg>
