<?xml version="1.0" encoding="utf-8"?>
<!-- Generator: Adobe Illustrator 16.0.3, SVG Export Plug-In . SVG Version: 6.00 Build 0)  -->
<!DOCTYPE svg PUBLIC "-//W3C//DTD SVG 1.1//EN" "http://www.w3.org/Graphics/SVG/1.1/DTD/svg11.dtd">
<svg version="1.1" id="Layer_1" xmlns="http://www.w3.org/2000/svg" xmlns:xlink="http://www.w3.org/1999/xlink" x="0px" y="0px"
	 width="367.1px" height="367.1px" viewBox="0 0 367.1 367.1" style="enable-background:new 0 0 367.1 367.1;" xml:space="preserve"
	>
<style type="text/css">
<![CDATA[
	.st0{fill:#7C469B;}
	.st1{fill:#FFFFFF;}
]]>
</style>
<g>
	<circle class="st0" cx="183.6" cy="183.6" r="183.6"/>
	<g>
		<path class="st1" d="M275.1,252.1c-1.6-6-3-12-4.3-18c-1.2-5.4-2.2-10.9-3.1-16.4c-1-5.9-1.1-11.1-2.6-17.4
			c-3.4-14.4-13.3-28.5-24.2-38.7c-1.3-3.2-4.4-5.5-8-5.5h-13.6c12.9-2.1,22.8-13.3,22.8-26.7c0-15-12.1-27.1-27.1-27.1
			c-15,0-27.1,12.1-27.1,27.1c0,13.5,9.9,24.7,22.8,26.7H197c-4.8,0-8.6,3.9-8.6,8.6v85.1c0,4.8,3.9,8.6,8.6,8.6h35.8
			c4.8,0,8.6-3.9,8.6-8.6v-53.3c2,3.8,2.9,6.3,4,11.3c0.1,0.3,0.1,0.4,0.1,0.6c0,0.2,0,0.5,0.1,1c0.2,2.1,0.5,4.3,0.8,6.4
			c0.4,2.9,0.8,5.8,1.3,8.6c0.9,5.4,2,10.9,3.2,16.2c1.2,5.7,2.6,11.3,4.1,17C258.6,270.5,278.6,265,275.1,252.1z"/>
		<path class="st1" d="M92,252.1c1.6-6,3-12,4.3-18c1.2-5.4,2.2-10.9,3.1-16.4c1-5.9,1.1-11.1,2.6-17.4
			c3.4-14.4,13.3-28.5,24.2-38.7c1.3-3.2,4.4-5.5,8-5.5h13.6c-12.9-2.1-22.8-13.3-22.8-26.7c0-15,12.1-27.1,27.1-27.1
			c15,0,27.1,12.1,27.1,27.1c0,13.5-9.9,24.7-22.8,26.7h13.6c4.8,0,8.6,3.9,8.6,8.6v85.1c0,4.8-3.9,8.6-8.6,8.6h-35.8
			c-4.8,0-8.6-3.9-8.6-8.6v-53.3c-2,3.8-2.9,6.3-4,11.3c-0.1,0.3-0.1,0.4-0.1,0.6c0,0.2,0,0.5-0.1,1c-0.2,2.1-0.5,4.3-0.8,6.4
			c-0.4,2.9-0.8,5.8-1.3,8.6c-0.9,5.4-2,10.9-3.2,16.2c-1.2,5.7-2.6,11.3-4.1,17C108.5,270.5,88.5,265,92,252.1z"/>
		<g>
			<path class="st1" d="M207.9,157.2c-8.9-2.2-16.2-8.6-19.7-17c-8.6,4-16.5,9.6-23.4,15.7c-4.6,4.1-4.2,11.9,0,16
				c4.6,4.6,11.4,4.1,16,0c0.8-0.7,1.7-1.4,2.5-2.1c0.4-0.3,0.9-0.6,1.3-1c1.3-1,2.7-1.9,4-2.8c3.2-2.1,6.6-4.1,10.1-5.8
				c0.1-0.1,1.7-0.8,1.9-0.9c0.7-0.3,1.4-0.5,2.1-0.8C204.5,158,206.2,157.6,207.9,157.2z M183.8,169.5
				C184.4,169.1,185.1,168.5,183.8,169.5L183.8,169.5z"/>
			<path class="st1" d="M252,153.2c-3-4.4-7-8.1-11.5-11c-4,7.9-11.5,13.8-20.5,15.4c1.3,0.3,2.5,0.7,3.7,1.2
				c-0.4-0.1,1.2,0.6,1.6,0.7c0.7,0.4,1.5,0.8,2.2,1.2c0.7,0.4,1.3,0.8,1.9,1.3c0.1,0,0.1,0.1,0.1,0.1c0.8,0.7,1.6,1.4,2.3,2.1
				c0.6,0.6,1.1,1.2,1.6,1.8c0.3,0.4,0.4,0.4,0.3,0.2c3.7,3.9,9.2,5.5,14.3,2.5C252.9,165.7,255.5,158.2,252,153.2z"/>
		</g>
		<path class="st1" d="M232.6,156H219c12.9-2.1,22.8-13.3,22.8-26.7c0-15-12.1-27.1-27.1-27.1c-15,0-27.1,12.1-27.1,27.1
			c0,13.5,9.9,24.7,22.8,26.7h-13.6c-3.7,0-6.8,2.3-8,5.5c-10.8,10.3-20.8,24.3-24.2,38.7c-1.5,6.3-1.6,11.5-2.6,17.4
			c-0.9,5.5-2,11-3.1,16.4c-1.1,5.3-2.4,10.5-3.7,15.7h21.4c0.7-3,1.4-6.1,2.1-9.1c1.2-5.4,2.3-10.8,3.2-16.2
			c0.5-2.9,0.9-5.7,1.3-8.6c0.3-2.1,0.6-4.3,0.8-6.4c0-0.4,0.1-0.7,0.1-1c0-0.2,0.1-0.4,0.1-0.6c1-5,2-7.6,4-11.3v53.3
			c0,4.8,3.9,8.6,8.7,8.6h35.8c4.8,0,8.6-3.9,8.6-8.6v-85.1C241.2,159.9,237.4,156,232.6,156z"/>
	</g>
</g>
</svg>
