<?xml version="1.0" encoding="utf-8"?>
<!-- Generator: Adobe Illustrator 16.0.3, SVG Export Plug-In . SVG Version: 6.00 Build 0)  -->
<!DOCTYPE svg PUBLIC "-//W3C//DTD SVG 1.1//EN" "http://www.w3.org/Graphics/SVG/1.1/DTD/svg11.dtd">
<svg version="1.1" id="Layer_1" xmlns="http://www.w3.org/2000/svg" xmlns:xlink="http://www.w3.org/1999/xlink" x="0px" y="0px"
	 width="53px" height="50px" viewBox="0 0 53 50" style="enable-background:new 0 0 53 50;" xml:space="preserve">
<style type="text/css">
<![CDATA[
	.st0{fill:#8194CB;}
	.st1{fill:#FFFFFF;}
]]>
</style>
<rect y="-0.1" class="st0" width="53" height="50.1"/>
<path class="st1" d="M41.6,15.6c-1-0.9-5.9,0.7-8.7,2.4c-2.2,1.3-4.8,3.9-5.9,5c-0.1-0.2-0.2-0.3-0.2-0.4c0.2-0.1,0.3-0.2,0.3-0.4
	c0-0.1-0.1-0.3-0.2-0.4c0,0,0-0.1,0-0.1c0,0,0-0.1,0-0.1c0,0,0-0.1,0-0.1c0-0.1,0-0.2,0-0.2c0,0,0-0.1,0-0.1s0-0.1,0-0.1
	c0,0,0-0.1,0-0.1c0,0,0-0.1,0-0.1c0,0,0-0.1,0-0.1s0,0,0-0.1c0,0,0-0.1,0-0.1s0,0,0,0c0,0,0,0,0,0.1c0,0,0,0,0,0.1
	c0,0.1,0,0.1-0.1,0.2c0,0,0,0.1,0,0.1s0,0.1,0,0.1c0,0.1,0,0.2,0,0.2c0,0.1,0,0.1,0,0.2c0,0,0,0,0,0.1c-0.1,0-0.2-0.1-0.3-0.1
	c-0.1,0-0.3,0-0.4,0.1c0,0,0,0,0-0.1c0-0.1,0-0.1,0-0.2c0-0.1,0-0.2,0-0.2c0,0,0-0.1,0-0.1c0,0,0-0.1,0-0.1c0-0.1,0-0.1-0.1-0.2
	c0,0,0-0.1,0-0.1c0,0,0,0,0-0.1c0,0,0,0,0,0s0,0,0,0.1c0,0,0,0,0,0.1c0,0,0,0.1,0,0.1c0,0,0,0.1,0,0.1c0,0,0,0.1,0,0.1
	c0,0,0,0.1,0,0.1c0,0,0,0.1,0,0.1c0,0.1,0,0.2,0,0.2c0,0,0,0.1,0,0.1c0,0,0,0.1,0,0.1c0,0,0,0.1,0,0.1c-0.1,0.1-0.1,0.2-0.1,0.3
	c0,0.2,0.1,0.3,0.3,0.4c-0.1,0.1-0.2,0.3-0.2,0.4c-1.1-1.1-3.8-3.7-5.9-5c-2.8-1.7-7.8-3.3-8.7-2.4c-1,0.9-0.3,2.5,0.3,3.2
	c0.6,0.8,1.7,2.6,2,3.6c0.3,0.9,0.9,2.9,1.5,3c0.6,0,1-0.2,1,0s-0.8,1-1,1.6c-0.2,0.6-0.5,3.6,1.4,5.3c2,1.7,4.3,3.3,5.7,2
	c1-1,3.1-4.3,3.9-5.7c0,0.3,0.1,0.5,0.1,0.6c0,0.4-0.3,2.1-0.2,2.2c0.1,0.1,0.4,0.3,0.4,0.3c0,0,0.3-0.2,0.4-0.3
	c0.1-0.1-0.1-1.9-0.1-2.2c0-0.1,0-0.4,0.1-0.6c0.8,1.3,2.9,4.6,3.9,5.7c1.3,1.3,3.7-0.3,5.7-2c2-1.7,1.6-4.7,1.4-5.3
	c-0.2-0.6-1-1.4-1-1.6s0.4,0,1,0c0.6,0,1.2-2.1,1.5-3s1.4-2.8,2-3.6C41.9,18.1,42.6,16.5,41.6,15.6z"/>
</svg>
