<?xml version="1.0" encoding="utf-8"?>
<!-- Generator: Adobe Illustrator 16.0.3, SVG Export Plug-In . SVG Version: 6.00 Build 0)  -->
<!DOCTYPE svg PUBLIC "-//W3C//DTD SVG 1.1//EN" "http://www.w3.org/Graphics/SVG/1.1/DTD/svg11.dtd">
<svg version="1.1" id="Layer_1" xmlns="http://www.w3.org/2000/svg" xmlns:xlink="http://www.w3.org/1999/xlink" x="0px" y="0px"
	 width="367.1px" height="367.1px" viewBox="0 0 367.1 367.1" style="enable-background:new 0 0 367.1 367.1;" xml:space="preserve"
	>
<style type="text/css">
<![CDATA[
	.st0{fill:#8094CA;}
	.st1{fill:#FFFFFF;}
]]>
</style>
<circle class="st0" cx="184.2" cy="184.5" r="183.6"/>
<path class="st1" d="M282.7,128.3c-6.3-5.9-38.5,4.5-56.6,15.3c-14,8.4-31.4,25.3-38.5,32.6c-0.5-1.2-1-2.2-1.6-2.9
	c1.1-0.5,1.8-1.5,1.8-2.6c0-0.9-0.5-1.8-1.2-2.3c0-0.2,0.1-0.4,0.2-0.6c0-0.2,0.1-0.4,0.1-0.6c0-0.2,0.1-0.5,0.1-0.7
	c0.1-0.5,0.2-1,0.2-1.5c0-0.3,0.1-0.5,0.1-0.8c0-0.3,0.1-0.5,0.1-0.7c0-0.2,0-0.5,0.1-0.7c0-0.2,0-0.4,0.1-0.6c0-0.2,0-0.4,0-0.5
	c0-0.2,0-0.3,0-0.4c0-0.2,0-0.4,0-0.4s-0.1,0.1-0.2,0.3c-0.1,0.1-0.1,0.2-0.2,0.4c-0.1,0.1-0.2,0.3-0.2,0.5
	c-0.1,0.4-0.3,0.8-0.4,1.3c-0.1,0.2-0.1,0.5-0.2,0.7c-0.1,0.3-0.1,0.5-0.1,0.8c-0.1,0.5-0.1,1-0.1,1.5c0,0.5,0,1,0,1.4
	c0,0.2,0,0.3,0,0.4c-0.6-0.3-1.2-0.5-1.9-0.5c-0.9,0-1.7,0.3-2.3,0.7c0-0.1,0-0.3,0-0.5c0-0.4,0-0.9,0-1.4c0-0.5-0.1-1-0.1-1.5
	c0-0.3-0.1-0.5-0.1-0.8c0-0.3-0.1-0.5-0.2-0.7c-0.1-0.5-0.3-0.9-0.4-1.3c-0.1-0.2-0.1-0.4-0.2-0.5c-0.1-0.1-0.2-0.3-0.2-0.4
	c-0.1-0.2-0.2-0.3-0.2-0.3s0,0.1,0,0.4c0,0.1,0,0.3,0,0.4c0,0.2,0,0.3,0,0.5c0,0.2,0,0.4,0.1,0.6c0,0.2,0,0.5,0.1,0.7
	c0,0.2,0,0.5,0.1,0.7c0,0.3,0.1,0.5,0.1,0.8c0.1,0.5,0.2,1,0.2,1.5c0,0.2,0.1,0.5,0.1,0.7s0.1,0.4,0.1,0.6c0.1,0.3,0.1,0.5,0.2,0.7
	c-0.6,0.5-0.9,1.3-0.9,2.1c0,1.1,0.7,2.1,1.8,2.6c-0.6,0.7-1.1,1.6-1.6,2.9c-7.2-7.3-24.5-24.2-38.5-32.5
	c-18.1-10.8-50.3-21.2-56.6-15.3c-6.3,5.9-1.6,16,2.1,20.9c3.8,4.9,11.3,17.2,13.2,23c1.9,5.9,6.1,19,9.9,19.3s6.3-1.2,6.3,0
	s-5.2,6.3-6.3,10.1c-1.2,3.8-3.5,23.3,9.2,34.3c12.7,11,28.2,21.4,36.7,12.9c6.7-6.7,19.9-28,25.2-36.7c0.3,1.7,0.5,3.2,0.4,4
	c-0.2,2.3-1.7,13.6-1,14.6c0.7,0.9,2.6,2,2.8,1.9c0.2,0.1,2.1-1,2.8-1.9c0.7-0.9-0.7-12.2-1-14.6c-0.1-0.8,0.1-2.3,0.4-4
	c5.3,8.7,18.5,30,25.2,36.7c8.5,8.5,24-1.9,36.7-12.9c12.7-11,10.3-30.6,9.2-34.3c-1.2-3.8-6.3-8.9-6.3-10.1s2.6,0.2,6.3,0
	c3.8-0.2,8-13.4,9.9-19.3c1.9-5.9,9.4-18.1,13.2-23C284.4,144.3,289.1,134.2,282.7,128.3z"/>
</svg>
