<?xml version="1.0" encoding="utf-8"?>
<!-- Generator: Adobe Illustrator 16.0.3, SVG Export Plug-In . SVG Version: 6.00 Build 0)  -->
<!DOCTYPE svg PUBLIC "-//W3C//DTD SVG 1.1//EN" "http://www.w3.org/Graphics/SVG/1.1/DTD/svg11.dtd">
<svg version="1.1" id="Layer_1" xmlns="http://www.w3.org/2000/svg" xmlns:xlink="http://www.w3.org/1999/xlink" x="0px" y="0px"
	 width="367.1px" height="367.1px" viewBox="0 0 367.1 367.1" style="enable-background:new 0 0 367.1 367.1;" xml:space="preserve"
	>
<style type="text/css">
<![CDATA[
	.st0{fill:#8DC33F;}
	.st1{fill:#FFFFFF;}
]]>
</style>
<g>
	<circle class="st0" cx="183.6" cy="183.6" r="183.6"/>
	<path class="st1" d="M275.1,92C275.1,92,275.1,92,275.1,92C275.1,92,275.1,92,275.1,92l-0.1,0c-1.2-0.1-13.1-0.4-22.3,8.7
		c-9.7,9.7-29.7,29.7-29.7,29.7s-6.6,8.5-12.7,8s-81.6-18.4-81.6-18.4s-18.4-5.2-25.2-4.9c-6.8,0.2-11.8,3.3-11.5,4.9
		c0.2,1.7,21.4,9.7,28.8,13.2s40.1,16,46.9,20.5c6.8,4.5,16.5,13.2,16.5,13.2s-21.4,22.9-29.7,31.6c-8.3,8.7-12.7,15.1-16.7,20
		s-5,7.8-6.6,8s-26.6-5.9-31.6-4.7c-5,1.2-8,4.7-6.6,6.1c1.4,1.4,27.1,14.8,27.1,14.8s-2.1,2.6-3.8,6.1c-1,2.2-1.4,3-1.6,3.3
		l-0.2,0.2c0,0,0,0,0.1,0c0,0.1,0,0.1,0,0.1l0.2-0.2c0.3-0.2,1.2-0.5,3.3-1.6c3.5-1.7,6.1-3.8,6.1-3.8s13.4,25.7,14.8,27.1
		s5-1.7,6.1-6.6c1.2-4.9-4.9-29.9-4.7-31.6c0.2-1.7,3.1-2.6,8-6.6c5-4,11.3-8.5,20-16.7c8.7-8.3,31.6-29.7,31.6-29.7
		s8.7,9.7,13.2,16.5c4.5,6.8,17,39.6,20.5,46.9s11.6,28.5,13.2,28.8c1.7,0.2,4.7-4.7,4.9-11.5c0.2-6.8-4.9-25.2-4.9-25.2
		s-17.9-75.4-18.4-81.6c-0.5-6.1,8-12.7,8-12.7s20-20,29.7-29.7C275.5,105.2,275.1,93.3,275.1,92L275.1,92z"/>
</g>
</svg>
